<?xml version="1.0" encoding="UTF-8" standalone="no"?>
<!--Generator: Xara Designer (www.xara.com), SVG filter version: 6.0.0.4-->

<svg
   xmlns:dc="http://purl.org/dc/elements/1.1/"
   xmlns:cc="http://creativecommons.org/ns#"
   xmlns:rdf="http://www.w3.org/1999/02/22-rdf-syntax-ns#"
   xmlns:svg="http://www.w3.org/2000/svg"
   xmlns="http://www.w3.org/2000/svg"
   xmlns:sodipodi="http://sodipodi.sourceforge.net/DTD/sodipodi-0.dtd"
   xmlns:inkscape="http://www.inkscape.org/namespaces/inkscape"
   version="1.1"
   overflow="visible"
   width="18pt"
   height="17.999998pt"
   viewBox="0 0 18.000001 17.999998"
   id="svg2"
   inkscape:version="0.91 r13725"
   sodipodi:docname="add-new-folder.svg"
   style="overflow:visible;fill-rule:evenodd;stroke-width:0.50099999;stroke-linejoin:bevel">
  <metadata
     id="metadata69">
    <rdf:RDF>
      <cc:Work
         rdf:about="">
        <dc:format>image/svg+xml</dc:format>
        <dc:type
           rdf:resource="http://purl.org/dc/dcmitype/StillImage" />
        <dc:title></dc:title>
      </cc:Work>
    </rdf:RDF>
  </metadata>
  <sodipodi:namedview
     pagecolor="#ffffff"
     bordercolor="#666666"
     borderopacity="1"
     objecttolerance="10"
     gridtolerance="10"
     guidetolerance="10"
     inkscape:pageopacity="0"
     inkscape:pageshadow="2"
     inkscape:window-width="640"
     inkscape:window-height="480"
     id="namedview67"
     showgrid="false"
     fit-margin-top="0"
     fit-margin-left="0"
     fit-margin-right="0"
     fit-margin-bottom="0"
     inkscape:zoom="5.074358"
     inkscape:cx="14.647556"
     inkscape:cy="13.972702"
     inkscape:window-x="0"
     inkscape:window-y="0"
     inkscape:window-maximized="0"
     inkscape:current-layer="svg2" />
  <defs
     id="defs4">
    <linearGradient
       id="LinearGradient"
       gradientUnits="userSpaceOnUse"
       x1="0"
       y1="0"
       x2="0"
       y2="-12"
       gradientTransform="translate(480.82,623.318)">
      <stop
         offset="0"
         stop-color="#ffffff"
         id="stop7" />
      <stop
         offset="0.500999987125397"
         stop-color="#e4ba00"
         id="stop9" />
      <stop
         offset="1"
         stop-color="#ffffff"
         id="stop11" />
    </linearGradient>
    <linearGradient
       id="LinearGradient_1"
       gradientUnits="userSpaceOnUse"
       x1="0"
       y1="0"
       x2="8.2519999"
       y2="0"
       gradientTransform="matrix(0,-1,1,0,480.682,619.568)">
      <stop
         offset="0"
         stop-color="#ffffff"
         id="stop14" />
      <stop
         offset="0.500999987125397"
         stop-color="#edd400"
         id="stop16" />
      <stop
         offset="1"
         stop-color="#ffffff"
         id="stop18" />
    </linearGradient>
    <linearGradient
       id="LinearGradient_2"
       gradientUnits="userSpaceOnUse"
       x1="0"
       y1="0"
       x2="0"
       y2="3.75"
       gradientTransform="translate(481.57,615.818)">
      <stop
         offset="0"
         stop-color="#333333"
         id="stop21" />
      <stop
         offset="1"
         stop-color="#ffffff"
         id="stop23" />
    </linearGradient>
    <linearGradient
       id="LinearGradient_3"
       gradientUnits="userSpaceOnUse"
       x1="0"
       y1="0"
       x2="0"
       y2="-10.5"
       gradientTransform="translate(480.82,619.568)">
      <stop
         offset="0"
         stop-color="#ffffff"
         id="stop26" />
      <stop
         offset="0.5"
         stop-color="#73d216"
         id="stop28" />
      <stop
         offset="1"
         stop-color="#ffffff"
         id="stop30" />
    </linearGradient>
    <linearGradient
       id="LinearGradient_4"
       gradientUnits="userSpaceOnUse"
       x1="0"
       y1="0"
       x2="0"
       y2="5.25"
       gradientTransform="translate(480.07,614.318)">
      <stop
         offset="0"
         stop-color="#333333"
         id="stop33" />
      <stop
         offset="1"
         stop-color="#ffffff"
         id="stop35" />
    </linearGradient>
  </defs>
  <g
     id="Document"
     font-size="16"
     transform="matrix(1,0,0,-1,-464.319,-215.57205)"
     style="font-size:16px;font-family:'Times New Roman';fill:none;stroke:#000000">
    <g
       id="Spread"
       transform="translate(0,-841.891)">
      <g
         id="opaque">
        <path
           d="m 482.319,626.319 0,-18 -18,0 0,18 18,0 z"
           stroke-miterlimit="79.8403193612775"
           id="path40"
           inkscape:connector-curvature="0"
           style="stroke:none;stroke-width:0.40700001;stroke-linejoin:miter;stroke-miterlimit:79.84031677;marker-start:none;marker-end:none" />
        <path
           d="m 482.319,626.319 0,-18 -18,0 0,18 18,0 z"
           stroke-miterlimit="79.8403193612775"
           id="path42"
           inkscape:connector-curvature="0"
           style="stroke:none;stroke-width:0.40700001;stroke-linejoin:miter;stroke-miterlimit:79.84031677;marker-start:none;marker-end:none" />
      </g>
      <g
         id="Layer 1">
        <path
           d="m 465.82,621.818 -10e-4,-10.508 12.001,0 0,9.758 c 0,0.353 -0.397,0.75 -0.75,0.75 l -4.5,0 c 0,0.75 -0.793,1.5 -1.5,1.5 l -3.75,0 c -0.707,0 -1.5,-0.793 -1.5,-1.5 z"
           stroke-miterlimit="79.8403193612775"
           id="path45"
           inkscape:connector-curvature="0"
           style="fill:#c4a000;stroke:none;stroke-width:0.5;stroke-linejoin:round;stroke-miterlimit:79.84031677;marker-start:none;marker-end:none" />
        <path
           d="m 466.569,612.06 10e-4,9.757 c 0,0.287 0.459,0.751 0.75,0.751 l 3.75,0 c 0.299,0 0.75,-0.428 0.75,-0.75 0,-0.414 0.336,-0.75 0.75,-0.75 l 4.443,0 0.057,-0.057 0,-8.951 -10.501,0 z"
           stroke-miterlimit="79.8403193612775"
           id="path47"
           inkscape:connector-curvature="0"
           style="fill:url(#LinearGradient);stroke:none;stroke-width:0.75;stroke-linejoin:round;stroke-miterlimit:79.84031677;marker-start:none;marker-end:none" />
        <path
           d="m 465.82,612.068 c 1.5,0 2.25,5.69 2.25,6.75 l 0,0 c 0,0.353 0.398,0.75 0.75,0.75 l 10.5,0 c 0.353,0 0.75,-0.397 0.75,-0.75 l 0,0 c 0,-1.06 -1.19,-7.5 -2.25,-7.5 l -12,0 0,0.75 z"
           stroke-miterlimit="79.8403193612775"
           id="path49"
           inkscape:connector-curvature="0"
           style="fill:#c4a000;stroke:none;stroke-width:0.5;stroke-miterlimit:79.84031677;marker-start:none;marker-end:none" />
        <path
           d="m 467.114,612.068 0.069,0.078 c 0.578,0.811 0.884,2.023 1.053,2.723 0.336,1.394 0.531,2.907 0.574,3.67 l 0.008,0.221 0.058,0.058 10.387,0 0.054,-0.055 -0.008,-0.144 c -0.05,-0.579 -0.269,-1.948 -0.598,-3.362 -0.184,-0.793 -0.395,-1.567 -0.615,-2.187 -0.181,-0.509 -0.337,-0.819 -0.438,-0.972 l -0.024,-0.03 -10.52,0 z"
           stroke-miterlimit="79.8403193612775"
           id="path51"
           inkscape:connector-curvature="0"
           style="fill:url(#LinearGradient_1);stroke:none;stroke-width:0.75;stroke-linejoin:round;stroke-miterlimit:79.84031677;marker-start:none;marker-end:none" />
        <mask
           id="TranspMask">
          <rect
             x="-59.527702"
             y="-84.189102"
             width="714.33246"
             height="1010.2692"
             id="rect54"
             style="fill:url(#LinearGradient_2);stroke:none" />
        </mask>
        <path
           d="m 468.44,615.818 0.021,0.105 c 0.199,1.049 0.316,2.043 0.349,2.616 l 0.008,0.221 0.058,0.058 10.387,0 0.054,-0.055 -0.008,-0.144 c -0.038,-0.435 -0.171,-1.313 -0.373,-2.322 l -0.1,-0.479 -10.396,0 z"
           stroke-miterlimit="79.8403193612775"
           mask="url(#TranspMask)"
           id="path56"
           inkscape:connector-curvature="0"
           style="fill:#ffffff;stroke:none;stroke-width:0.5;stroke-linejoin:miter;stroke-miterlimit:79.84031677;marker-start:none;marker-end:none" />
        <path
           d="m 474.82,618.068 c 0,0.354 0.4,0.75 0.754,0.75 l 1.496,0 c 0.353,0 0.75,-0.397 0.75,-0.75 l 0,-2.25 2.25,0 c 0.353,0 0.75,-0.397 0.75,-0.75 l 0,-1.5 c 0,-0.353 -0.397,-0.75 -0.75,-0.75 l -2.25,0 0,-2.25 c 0,-0.353 -0.397,-0.75 -0.75,-0.75 l -1.5,0 c -0.353,0 -0.75,0.397 -0.75,0.75 l 0,2.25 -2.25,0 c -0.353,0 -0.75,0.397 -0.75,0.75 l 0,1.5 c 0,0.353 0.397,0.75 0.75,0.75 l 2.25,-10e-4 0,2.251 z"
           stroke-miterlimit="79.8403193612775"
           id="path58"
           inkscape:connector-curvature="0"
           style="fill:#4e9a06;stroke:none;stroke-width:0.5;stroke-linejoin:round;stroke-miterlimit:79.84031677;marker-start:none;marker-end:none" />
        <path
           d="m 475.625,610.568 -0.055,0.055 0,2.195 c 0,0.413 -0.337,0.75 -0.75,0.75 l -2.195,0 -0.055,0.055 0,1.389 0.056,0.056 2.194,0 c 0.413,0 0.75,0.336 0.75,0.75 l 0,2.193 0.057,0.057 1.386,0 0.057,-0.057 0,-2.193 c 0,-0.414 0.336,-0.749 0.75,-0.75 l 2.193,0 0.057,-0.057 0,-1.387 -0.056,-0.056 -2.194,0 c -0.414,0 -0.75,-0.337 -0.75,-0.75 l 0,-2.194 -0.056,-0.056 -1.389,0 z"
           stroke-miterlimit="79.8403193612775"
           id="path60"
           inkscape:connector-curvature="0"
           style="fill:url(#LinearGradient_3);stroke:none;stroke-width:0.75;stroke-linejoin:round;stroke-miterlimit:79.84031677;marker-start:none;marker-end:none" />
        <mask
           id="TranspMask_1">
          <rect
             x="-59.527702"
             y="-84.189102"
             width="714.33246"
             height="1010.2692"
             id="rect63"
             style="fill:url(#LinearGradient_4);stroke:none" />
        </mask>
        <path
           d="m 472.57,614.318 0,0.694 0.056,0.056 2.194,0 c 0.413,0 0.75,0.336 0.75,0.75 l 0,2.193 0.057,0.057 1.386,0 0.057,-0.057 0,-2.193 c 0,-0.414 0.336,-0.749 0.75,-0.75 l 2.193,0 0.057,-0.057 0,-0.693 -7.5,0 z"
           stroke-miterlimit="79.8403193612775"
           mask="url(#TranspMask_1)"
           id="path65"
           inkscape:connector-curvature="0"
           style="fill:#ffffff;stroke:none;stroke-width:0.5;stroke-linejoin:miter;stroke-miterlimit:79.84031677;marker-start:none;marker-end:none" />
      </g>
    </g>
  </g>
</svg>
