<?xml version="1.0" encoding="UTF-8" standalone="no"?>
<!--Generator: Xara Designer (www.xara.com), SVG filter version: 6.0.0.4-->

<svg
   xmlns:dc="http://purl.org/dc/elements/1.1/"
   xmlns:cc="http://creativecommons.org/ns#"
   xmlns:rdf="http://www.w3.org/1999/02/22-rdf-syntax-ns#"
   xmlns:svg="http://www.w3.org/2000/svg"
   xmlns="http://www.w3.org/2000/svg"
   xmlns:xlink="http://www.w3.org/1999/xlink"
   xmlns:sodipodi="http://sodipodi.sourceforge.net/DTD/sodipodi-0.dtd"
   xmlns:inkscape="http://www.inkscape.org/namespaces/inkscape"
   version="1.1"
   overflow="visible"
   width="18pt"
   height="17.999998pt"
   viewBox="0 0 18.000001 17.999998"
   id="svg2"
   inkscape:version="0.91 r13725"
   sodipodi:docname="add-new-tab.svg"
   style="overflow:visible;fill-rule:evenodd;stroke-width:0.50099999;stroke-linejoin:bevel">
  <metadata
     id="metadata82">
    <rdf:RDF>
      <cc:Work
         rdf:about="">
        <dc:format>image/svg+xml</dc:format>
        <dc:type
           rdf:resource="http://purl.org/dc/dcmitype/StillImage" />
        <dc:title></dc:title>
      </cc:Work>
    </rdf:RDF>
  </metadata>
  <sodipodi:namedview
     pagecolor="#ffffff"
     bordercolor="#666666"
     borderopacity="1"
     objecttolerance="10"
     gridtolerance="10"
     guidetolerance="10"
     inkscape:pageopacity="0"
     inkscape:pageshadow="2"
     inkscape:window-width="640"
     inkscape:window-height="480"
     id="namedview80"
     showgrid="false"
     fit-margin-top="0"
     fit-margin-left="0"
     fit-margin-right="0"
     fit-margin-bottom="0"
     inkscape:zoom="5.074358"
     inkscape:cx="15.93253"
     inkscape:cy="6.1123119"
     inkscape:window-x="0"
     inkscape:window-y="0"
     inkscape:window-maximized="0"
     inkscape:current-layer="svg2" />
  <defs
     id="defs4">
    <linearGradient
       id="LinearGradient"
       gradientUnits="userSpaceOnUse"
       x1="0"
       y1="0"
       x2="0"
       y2="-6.75"
       gradientTransform="translate(472.57,624.068)">
      <stop
         offset="0"
         stop-color="#ffffff"
         id="stop7" />
      <stop
         offset="1"
         stop-color="#eeeeec"
         id="stop9" />
    </linearGradient>
    <linearGradient
       id="LinearGradient_1"
       gradientUnits="userSpaceOnUse"
       x1="0"
       y1="0"
       x2="6.0019999"
       y2="0"
       gradientTransform="matrix(0,-1,1,0,468.821,616.567)">
      <stop
         offset="0"
         stop-color="#ffffff"
         id="stop12" />
      <stop
         offset="1"
         stop-color="#000000"
         id="stop14" />
    </linearGradient>
    <linearGradient
       id="LinearGradient_2"
       gradientUnits="userSpaceOnUse"
       x1="0"
       y1="0"
       x2="0"
       y2="-10.5"
       gradientTransform="translate(480.07,619.568)">
      <stop
         offset="0"
         stop-color="#ffffff"
         id="stop17" />
      <stop
         offset="0.5"
         stop-color="#73d216"
         id="stop19" />
      <stop
         offset="1"
         stop-color="#ffffff"
         id="stop21" />
    </linearGradient>
    <linearGradient
       id="LinearGradient_3"
       gradientUnits="userSpaceOnUse"
       x1="0"
       y1="0"
       x2="0"
       y2="5.25"
       gradientTransform="translate(479.32,614.318)">
      <stop
         offset="0"
         stop-color="#333333"
         id="stop24" />
      <stop
         offset="1"
         stop-color="#ffffff"
         id="stop26" />
    </linearGradient>
    <linearGradient
       id="LinearGradient_4"
       gradientUnits="userSpaceOnUse"
       x1="0"
       y1="0"
       x2="0"
       y2="-1.5"
       gradientTransform="translate(465.82,618.818)">
      <stop
         offset="0"
         stop-color="#888a85"
         id="stop29" />
      <stop
         offset="1"
         stop-color="#babdb6"
         id="stop31" />
    </linearGradient>
    <linearGradient
       id="LinearGradient_5"
       gradientUnits="userSpaceOnUse"
       x1="0"
       y1="0"
       x2="0"
       y2="-6.0009999"
       gradientTransform="translate(466.57,616.568)">
      <stop
         offset="0"
         stop-color="#ffffff"
         id="stop34" />
      <stop
         offset="1"
         stop-color="#000000"
         id="stop36" />
    </linearGradient>
    <linearGradient
       inkscape:collect="always"
       xlink:href="#LinearGradient_4"
       id="linearGradient3410"
       gradientUnits="userSpaceOnUse"
       gradientTransform="translate(465.82,618.818)"
       x1="0"
       y1="0"
       x2="0"
       y2="-1.5" />
    <linearGradient
       inkscape:collect="always"
       xlink:href="#LinearGradient_4"
       id="linearGradient3412"
       gradientUnits="userSpaceOnUse"
       gradientTransform="translate(465.82,618.818)"
       x1="0"
       y1="0"
       x2="0"
       y2="-1.5" />
    <linearGradient
       inkscape:collect="always"
       xlink:href="#LinearGradient_4"
       id="linearGradient3414"
       gradientUnits="userSpaceOnUse"
       gradientTransform="translate(465.82,618.818)"
       x1="0"
       y1="0"
       x2="0"
       y2="-1.5" />
  </defs>
  <g
     id="Document"
     font-size="16"
     transform="matrix(1,0,0,-1,-464.319,-215.57205)"
     style="font-size:16px;font-family:'Times New Roman';fill:none;stroke:#000000">
    <g
       id="Spread"
       transform="translate(0,-841.891)">
      <g
         id="opaque">
        <path
           d="m 482.319,626.319 0,-18 -18,0 0,18 18,0 z"
           stroke-miterlimit="79.8403193612775"
           id="path41"
           inkscape:connector-curvature="0"
           style="stroke:none;stroke-width:0.40700001;stroke-linejoin:miter;stroke-miterlimit:79.84031677;marker-start:none;marker-end:none" />
      </g>
      <g
         id="Layer 1">
        <path
           d="m 465.82,619.568 1.5,0 0,3.75 c 0,0.707 0.793,1.5 1.5,1.5 l 8.25,0 c 0.707,0 1.5,-0.793 1.5,-1.5 l 0,-3.75 2.25,0 0,-2.25 -15,0 0,2.25 z"
           stroke-miterlimit="79.8403193612775"
           id="path44"
           inkscape:connector-curvature="0"
           style="fill:url(#LinearGradient);stroke:none;stroke-width:0.5;stroke-linejoin:round;stroke-miterlimit:79.84031677;marker-start:none;marker-end:none" />
        <path
           d="m 465.82,619.568 1.5,0 0,3.75 c 0,0.707 0.793,1.5 1.5,1.5 l 8.25,0 c 0.707,0 1.5,-0.793 1.5,-1.5 l 0,-3.75 2.25,0 0,-0.75 -3,0 0,4.5 c 0,0.353 -0.397,0.75 -0.75,0.75 l -8.25,0 c -0.353,0 -0.75,-0.397 -0.75,-0.75 l -10e-4,-4.5 -2.249,0 0,0.75 z"
           stroke-miterlimit="79.8403193612775"
           id="path46"
           inkscape:connector-curvature="0"
           style="fill:#888a85;stroke:none;stroke-width:0.5;stroke-miterlimit:79.84031677;marker-start:none;marker-end:none" />
        <path
           d="m 465.819,617.317 0,-0.749 15.001,0 0,0.749 -15.001,0 z"
           stroke-miterlimit="79.8403193612775"
           id="path48"
           inkscape:connector-curvature="0"
           style="fill:#babdb6;stroke:none;stroke-width:0.5;stroke-linejoin:miter;stroke-miterlimit:79.84031677;marker-start:none;marker-end:none" />
        <mask
           id="TranspMask">
          <rect
             x="-59.527702"
             y="-84.189102"
             width="714.33246"
             height="1010.2692"
             id="rect51"
             style="fill:url(#LinearGradient_1);stroke:none" />
        </mask>
        <path
           d="m 465.82,616.568 0,-6 15.001,0 0,6 -15.001,0 z"
           stroke-miterlimit="79.8403193612775"
           mask="url(#TranspMask)"
           id="path53"
           inkscape:connector-curvature="0"
           style="fill:#ffffff;stroke:none;stroke-width:0.5;stroke-linejoin:miter;stroke-miterlimit:79.84031677;marker-start:none;marker-end:none" />
        <path
           d="m 468.82,622.568 0,-2.25 c 0,-0.353 0.397,-0.75 0.75,-0.75 l 1.5,0 c 0.353,0 0.75,0.397 0.75,0.75 l 0,2.25 c 0,0.353 -0.397,0.75 -0.75,0.75 l -1.5,0 c -0.353,0 -0.75,-0.397 -0.75,-0.75 z"
           stroke-miterlimit="79.8403193612775"
           id="path55"
           inkscape:connector-curvature="0"
           style="fill:#afc7e1;stroke:none;stroke-width:0.5;stroke-linejoin:round;stroke-miterlimit:79.84031677;marker-start:none;marker-end:none" />
        <path
           d="m 469.606,620.318 -0.036,0.051 0.011,2.146 0.042,0.053 1.423,0 0.024,-0.055 0,-2.142 -0.038,-0.031 -1.419,-0.022 z"
           stroke-miterlimit="79.8403193612775"
           id="path57"
           inkscape:connector-curvature="0"
           style="fill:#d6e2ef;stroke:none;stroke-width:0.5;stroke-linejoin:round;stroke-miterlimit:79.84031677;marker-start:none;marker-end:none" />
        <path
           d="m 472.569,622.567 0,-0.749 4.501,0 0,0.749 -4.501,0 z"
           stroke-miterlimit="79.8403193612775"
           id="path59"
           inkscape:connector-curvature="0"
           style="fill:#d1d5cb;stroke:none;stroke-width:0.5;stroke-linejoin:miter;stroke-miterlimit:79.84031677;marker-start:none;marker-end:none" />
        <path
           d="m 472.569,621.067 0,-0.749 4.501,0 0,0.749 -4.501,0 z"
           stroke-miterlimit="79.8403193612775"
           id="path61"
           inkscape:connector-curvature="0"
           style="fill:#d1d5cb;stroke:none;stroke-width:0.5;stroke-linejoin:miter;stroke-miterlimit:79.84031677;marker-start:none;marker-end:none" />
        <path
           d="m 474.07,618.068 c 0,0.354 0.4,0.75 0.754,0.75 l 1.496,0 c 0.353,0 0.75,-0.397 0.75,-0.75 l 0,-2.25 2.25,0 c 0.353,0 0.75,-0.397 0.75,-0.75 l 0,-1.5 c 0,-0.353 -0.397,-0.75 -0.75,-0.75 l -2.25,0 0,-2.25 c 0,-0.353 -0.397,-0.75 -0.75,-0.75 l -1.5,0 c -0.353,0 -0.75,0.397 -0.75,0.749 l 0,2.251 -2.25,0 c -0.352,0 -0.75,0.397 -0.75,0.75 l 0,1.5 c 0,0.353 0.397,0.75 0.75,0.75 l 2.25,0 0,2.25 z"
           stroke-miterlimit="79.8403193612775"
           id="path63"
           inkscape:connector-curvature="0"
           style="fill:#4e9a06;stroke:none;stroke-width:0.5;stroke-linejoin:round;stroke-miterlimit:79.84031677;marker-start:none;marker-end:none" />
        <path
           d="m 474.875,610.568 -0.055,0.055 0,2.195 c 0,0.413 -0.337,0.75 -0.75,0.75 l -2.195,0 -0.055,0.056 0,1.388 0.056,0.056 2.194,0 c 0.413,0 0.75,0.336 0.75,0.75 l 0,2.193 0.057,0.057 1.386,0 0.057,-0.057 0,-2.193 c 0,-0.414 0.336,-0.75 0.75,-0.75 l 2.193,0 0.057,-0.056 0,-1.388 -0.056,-0.056 -2.194,0 c -0.414,0 -0.75,-0.337 -0.75,-0.75 l 0,-2.194 -0.056,-0.056 -1.389,0 z"
           stroke-miterlimit="79.8403193612775"
           id="path65"
           inkscape:connector-curvature="0"
           style="fill:url(#LinearGradient_2);stroke:none;stroke-width:0.75;stroke-linejoin:round;stroke-miterlimit:79.84031677;marker-start:none;marker-end:none" />
        <mask
           id="TranspMask_1">
          <rect
             x="-59.527702"
             y="-84.189102"
             width="714.33246"
             height="1010.2692"
             id="rect68"
             style="fill:url(#LinearGradient_3);stroke:none" />
        </mask>
        <path
           d="m 471.82,614.318 0,0.694 0.056,0.056 2.194,0 c 0.413,0 0.75,0.336 0.75,0.75 l 0,2.193 0.057,0.057 1.386,0 0.057,-0.057 0,-2.193 c 0,-0.414 0.336,-0.75 0.75,-0.75 l 2.193,0 0.057,-0.056 0,-0.694 -7.5,0 z"
           stroke-miterlimit="79.8403193612775"
           mask="url(#TranspMask_1)"
           id="path70"
           inkscape:connector-curvature="0"
           style="fill:#ffffff;stroke:none;stroke-width:0.5;stroke-linejoin:miter;stroke-miterlimit:79.84031677;marker-start:none;marker-end:none" />
        <mask
           id="TranspMask_2">
          <rect
             x="-59.527702"
             y="-84.189102"
             width="714.33246"
             height="1010.2692"
             id="rect73"
             style="fill:url(#LinearGradient_5);stroke:none" />
        </mask>
        <g
           id="Group"
           stroke-miterlimit="79.8403193612775"
           mask="url(#TranspMask_2)"
           style="fill:url(#linearGradient3414);stroke:none;stroke-width:0.5;stroke-linejoin:miter;stroke-miterlimit:79.84031677">
          <path
             d="m 465.819,618.818 0,-8.25 0.751,0 0,8.25 -0.751,0 z"
             id="path76"
             inkscape:connector-curvature="0"
             style="fill:url(#linearGradient3410);marker-start:none;marker-end:none" />
          <path
             d="m 480.069,618.818 0,-8.25 0.751,0 0,8.25 -0.751,0 z"
             id="path78"
             inkscape:connector-curvature="0"
             style="fill:url(#linearGradient3412);marker-start:none;marker-end:none" />
        </g>
      </g>
    </g>
  </g>
</svg>
