<?xml version="1.0" encoding="UTF-8" standalone="no"?>
<!--Generator: Xara Designer (www.xara.com), SVG filter version: 6.0.0.4-->

<svg
   xmlns:dc="http://purl.org/dc/elements/1.1/"
   xmlns:cc="http://creativecommons.org/ns#"
   xmlns:rdf="http://www.w3.org/1999/02/22-rdf-syntax-ns#"
   xmlns:svg="http://www.w3.org/2000/svg"
   xmlns="http://www.w3.org/2000/svg"
   xmlns:sodipodi="http://sodipodi.sourceforge.net/DTD/sodipodi-0.dtd"
   xmlns:inkscape="http://www.inkscape.org/namespaces/inkscape"
   version="1.1"
   overflow="visible"
   width="18pt"
   height="17.999998pt"
   viewBox="0 0 18.000001 17.999998"
   id="svg2"
   inkscape:version="0.91 r13725"
   sodipodi:docname="arrow-up-top-yellow-dodecagram.svg"
   style="overflow:visible;fill-rule:evenodd;stroke-width:0.50099999;stroke-linejoin:bevel">
  <metadata
     id="metadata47">
    <rdf:RDF>
      <cc:Work
         rdf:about="">
        <dc:format>image/svg+xml</dc:format>
        <dc:type
           rdf:resource="http://purl.org/dc/dcmitype/StillImage" />
        <dc:title></dc:title>
      </cc:Work>
    </rdf:RDF>
  </metadata>
  <sodipodi:namedview
     pagecolor="#ffffff"
     bordercolor="#666666"
     borderopacity="1"
     objecttolerance="10"
     gridtolerance="10"
     guidetolerance="10"
     inkscape:pageopacity="0"
     inkscape:pageshadow="2"
     inkscape:window-width="640"
     inkscape:window-height="480"
     id="namedview45"
     showgrid="false"
     fit-margin-top="0"
     fit-margin-left="0"
     fit-margin-right="0"
     fit-margin-bottom="0"
     inkscape:zoom="3.588113"
     inkscape:cx="3.1397552"
     inkscape:cy="24.396162"
     inkscape:window-x="0"
     inkscape:window-y="0"
     inkscape:window-maximized="0"
     inkscape:current-layer="svg2" />
  <defs
     id="defs4">
    <linearGradient
       id="LinearGradient"
       gradientUnits="userSpaceOnUse"
       x1="0"
       y1="0"
       x2="0"
       y2="-18"
       gradientTransform="translate(482.318,626.318)">
      <stop
         offset="0"
         stop-color="#ffffff"
         id="stop7" />
      <stop
         offset="0.500999987125397"
         stop-color="#edd400"
         id="stop9" />
      <stop
         offset="1"
         stop-color="#ffffff"
         id="stop11" />
    </linearGradient>
    <linearGradient
       id="LinearGradient_1"
       gradientUnits="userSpaceOnUse"
       x1="0"
       y1="0"
       x2="0"
       y2="8.25"
       gradientTransform="translate(482.318,617.318)">
      <stop
         offset="0"
         stop-color="#333333"
         id="stop14" />
      <stop
         offset="1"
         stop-color="#ffffff"
         id="stop16" />
    </linearGradient>
    <linearGradient
       id="LinearGradient_2"
       gradientUnits="userSpaceOnUse"
       x1="0"
       y1="0"
       x2="0"
       y2="6"
       gradientTransform="translate(479.318,617.318)">
      <stop
         offset="0"
         stop-color="#ffffff"
         id="stop19" />
      <stop
         offset="1"
         stop-color="#000000"
         id="stop21" />
    </linearGradient>
  </defs>
  <g
     id="Document"
     font-size="16"
     transform="matrix(1,0,0,-1,-464.319,-215.57205)"
     style="font-size:16px;font-family:'Times New Roman';fill:none;stroke:#000000">
    <g
       id="Spread"
       transform="translate(0,-841.891)">
      <g
         id="opaque">
        <path
           d="m 482.319,626.319 0,-18 -18,0 0,18 18,0 z"
           stroke-miterlimit="79.8403193612775"
           id="path26"
           inkscape:connector-curvature="0"
           style="stroke:none;stroke-width:0.40700001;stroke-linejoin:miter;stroke-miterlimit:79.84031677;marker-start:none;marker-end:none" />
      </g>
      <g
         id="Layer 1">
        <path
           d="m 466.174,621.444 1.349,-2.572 -2.455,-1.552 2.455,-1.554 -1.349,-2.572 2.903,-0.117 0.116,-2.902 2.573,1.349 1.553,-2.455 1.552,2.455 2.573,-1.349 0.116,2.902 2.903,0.117 -1.349,2.572 2.455,1.552 -2.455,1.554 1.349,2.572 -2.903,0.117 -0.116,2.902 -2.573,-1.349 -1.552,2.455 -1.553,-2.455 -2.573,1.349 -0.116,-2.902 -2.903,-0.117 z"
           stroke-miterlimit="79.8403193612775"
           id="path29"
           inkscape:connector-curvature="0"
           style="fill:#c4a000;stroke:none;stroke-width:0.36700001;stroke-linejoin:miter;stroke-miterlimit:79.84031677;marker-start:none;marker-end:none" />
        <path
           d="m 473.318,610.472 -1.288,2.037 -2.135,-1.12 -0.097,2.409 -2.41,0.097 1.12,2.134 -2.038,1.29 2.038,1.288 -1.12,2.135 2.41,0.097 0.097,2.409 2.135,-1.12 1.288,2.037 1.288,-2.037 2.135,1.12 0.097,-2.409 2.41,-0.097 -1.12,-2.134 2.038,-1.29 -2.038,-1.288 1.12,-2.135 -2.41,-0.097 -0.097,-2.409 -2.135,1.12 -1.288,-2.037 z"
           stroke-miterlimit="79.8403193612775"
           id="path31"
           inkscape:connector-curvature="0"
           style="fill:url(#LinearGradient);stroke:none;stroke-width:0.75;stroke-linejoin:round;stroke-miterlimit:79.84031677;marker-start:none;marker-end:none" />
        <mask
           id="TranspMask">
          <rect
             x="-59.527702"
             y="-84.189102"
             width="714.33246"
             height="1010.2692"
             id="rect34"
             style="fill:url(#LinearGradient_1);stroke:none" />
        </mask>
        <path
           d="m 466.471,617.318 -10e-4,10e-4 2.038,1.288 -1.12,2.135 2.41,0.097 0.097,2.409 2.135,-1.12 1.288,2.037 1.288,-2.037 2.135,1.12 0.097,-2.409 2.41,-0.097 -1.12,-2.134 2.038,-1.29 -13.695,0 z"
           stroke-miterlimit="79.8403193612775"
           mask="url(#TranspMask)"
           id="path36"
           inkscape:connector-curvature="0"
           style="fill:#ffffff;stroke:none;stroke-width:0.5;stroke-linejoin:miter;stroke-miterlimit:79.84031677;marker-start:none;marker-end:none" />
        <mask
           id="TranspMask_1">
          <rect
             x="-59.527702"
             y="-84.189102"
             width="714.33246"
             height="1010.2692"
             id="rect39"
             style="fill:url(#LinearGradient_2);stroke:none" />
        </mask>
        <path
           d="m 472.568,613.568 1.5,0 c 0.353,0 0.75,0.397 0.75,0.75 l 0,2.25 2.25,0 c 0.25,0 0.176,0.574 0,0.75 l -3,3 c -0.353,0.353 -1.147,0.353 -1.5,0 l -3,-3 c -0.176,-0.176 -0.25,-0.75 0,-0.75 l 2.25,0 0,-2.25 c 0,-0.353 0.397,-0.75 0.75,-0.75 z"
           stroke-miterlimit="79.8403193612775"
           mask="url(#TranspMask_1)"
           id="path41"
           inkscape:connector-curvature="0"
           style="fill:#c4a000;stroke:none;stroke-width:0.5;stroke-linejoin:round;stroke-miterlimit:79.84031677;marker-start:none;marker-end:none" />
        <path
           d="m 472.623,614.318 -0.055,0.055 0,2.195 c 0,0.413 -0.337,0.75 -0.75,0.75 l -1.189,0 2.465,2.465 c 0.079,0.062 0.365,0.064 0.447,0 l 2.465,-2.465 -1.188,0 c -0.414,0 -0.75,-0.337 -0.75,-0.75 l 0,-2.194 -0.056,-0.056 -1.389,0 z"
           stroke-miterlimit="79.8403193612775"
           id="path43"
           inkscape:connector-curvature="0"
           style="fill:#ffffff;stroke:none;stroke-width:0.5;stroke-linejoin:round;stroke-miterlimit:79.84031677;marker-start:none;marker-end:none" />
      </g>
    </g>
  </g>
</svg>
