<?xml version="1.0" encoding="UTF-8" standalone="no"?>
<!--Generator: Xara Designer (www.xara.com), SVG filter version: 6.0.0.4-->

<svg
   xmlns:dc="http://purl.org/dc/elements/1.1/"
   xmlns:cc="http://creativecommons.org/ns#"
   xmlns:rdf="http://www.w3.org/1999/02/22-rdf-syntax-ns#"
   xmlns:svg="http://www.w3.org/2000/svg"
   xmlns="http://www.w3.org/2000/svg"
   xmlns:sodipodi="http://sodipodi.sourceforge.net/DTD/sodipodi-0.dtd"
   xmlns:inkscape="http://www.inkscape.org/namespaces/inkscape"
   version="1.1"
   overflow="visible"
   width="18pt"
   height="17.999998pt"
   viewBox="0 0 18.000001 17.999998"
   id="svg2"
   inkscape:version="0.91 r13725"
   sodipodi:docname="brush-paint-01.svg"
   style="overflow:visible;fill-rule:evenodd;stroke-width:0.50099999;stroke-linejoin:bevel">
  <metadata
     id="metadata41">
    <rdf:RDF>
      <cc:Work
         rdf:about="">
        <dc:format>image/svg+xml</dc:format>
        <dc:type
           rdf:resource="http://purl.org/dc/dcmitype/StillImage" />
        <dc:title></dc:title>
      </cc:Work>
    </rdf:RDF>
  </metadata>
  <sodipodi:namedview
     pagecolor="#ffffff"
     bordercolor="#666666"
     borderopacity="1"
     objecttolerance="10"
     gridtolerance="10"
     guidetolerance="10"
     inkscape:pageopacity="0"
     inkscape:pageshadow="2"
     inkscape:window-width="640"
     inkscape:window-height="480"
     id="namedview39"
     showgrid="false"
     fit-margin-top="0"
     fit-margin-left="0"
     fit-margin-right="0"
     fit-margin-bottom="0"
     inkscape:zoom="5.074358"
     inkscape:cx="8.2606706"
     inkscape:cy="8.794871"
     inkscape:window-x="0"
     inkscape:window-y="0"
     inkscape:window-maximized="0"
     inkscape:current-layer="svg2" />
  <defs
     id="defs4">
    <linearGradient
       id="LinearGradient"
       gradientUnits="userSpaceOnUse"
       x1="0"
       y1="0"
       x2="0"
       y2="-18"
       gradientTransform="translate(482.319,626.319)">
      <stop
         offset="0"
         stop-color="#ffffff"
         id="stop7" />
      <stop
         offset="1"
         stop-color="#000000"
         id="stop9" />
    </linearGradient>
    <linearGradient
       id="LinearGradient_1"
       gradientUnits="userSpaceOnUse"
       x1="0"
       y1="0"
       x2="0"
       y2="-6.75"
       gradientTransform="translate(473.319,616.569)">
      <stop
         offset="0"
         stop-color="#ffffff"
         id="stop12" />
      <stop
         offset="1"
         stop-color="#000000"
         id="stop14" />
    </linearGradient>
  </defs>
  <g
     id="Document"
     font-size="16"
     transform="matrix(1,0,0,-1,-464.319,-215.57205)"
     style="font-size:16px;font-family:'Times New Roman';fill:none;stroke:#000000">
    <g
       id="Spread"
       transform="translate(0,-841.891)">
      <g
         id="Layer 1">
        <path
           d="m 469.569,616.569 c 0,1.5 6.75,5.25 9,7.5 0.384,0.32 1.147,0.353 1.5,0 0.353,-0.353 0.332,-1.168 0,-1.5 -2.25,-2.25 -6,-9 -7.5,-9 l -3,3 z"
           stroke-miterlimit="79.8403193612775"
           id="path19"
           inkscape:connector-curvature="0"
           style="fill:#c4a000;stroke:none;stroke-width:0.5;stroke-linejoin:round;stroke-miterlimit:79.84031677;marker-start:none;marker-end:none" />
        <path
           d="m 472.752,614.445 -2.312,2.312 0.126,0.157 c 0.349,0.395 1.197,1.164 3.278,2.644 1.641,1.166 3.554,2.459 4.776,3.534 l 0.429,0.4 0.261,0.077 c 0.05,0.003 0.098,0.001 0.139,-0.006 l 0.083,-0.027 0.043,-0.215 -0.048,-0.234 -0.435,-0.467 c -1.075,-1.222 -2.368,-3.135 -3.534,-4.776 -0.684,-0.961 -1.332,-1.842 -1.9,-2.503 -0.318,-0.37 -0.567,-0.618 -0.753,-0.779 l -0.153,-0.117 z"
           stroke-miterlimit="79.8403193612775"
           id="path21"
           inkscape:connector-curvature="0"
           style="fill:#edd400;stroke:none;stroke-width:0.5;stroke-linejoin:round;stroke-miterlimit:79.84031677;marker-start:none;marker-end:none" />
        <mask
           id="TranspMask">
          <rect
             x="-59.527702"
             y="-84.189102"
             width="714.33246"
             height="1010.2692"
             id="rect24"
             style="fill:url(#LinearGradient);stroke:none" />
        </mask>
        <path
           d="m 471.598,615.598 -1.158,1.159 0.126,0.157 c 0.349,0.395 1.197,1.164 3.278,2.644 1.641,1.166 3.554,2.459 4.776,3.534 l 0.429,0.4 0.261,0.077 c 0.05,0.003 0.098,0.001 0.139,-0.006 l 0.083,-0.027 0,-0.004 -7.934,-7.934 z"
           stroke-miterlimit="79.8403193612775"
           mask="url(#TranspMask)"
           id="path26"
           inkscape:connector-curvature="0"
           style="fill:#ffffff;stroke:none;stroke-width:0.5;stroke-linejoin:round;stroke-miterlimit:79.84031677;marker-start:none;marker-end:none" />
        <path
           d="m 469.569,616.569 c 1.5,0.75 3.75,-0.75 3.75,-2.25 0,-2.25 -2.25,-4.5 -7.5,-4.5 3.75,1.5 0.75,5.25 3.75,6.75 z"
           stroke-miterlimit="79.8403193612775"
           id="path28"
           inkscape:connector-curvature="0"
           style="fill:#2e3436;stroke:none;stroke-width:0.5;stroke-linejoin:round;stroke-miterlimit:79.84031677;marker-start:none;marker-end:none" />
        <path
           d="m 468.098,610.739 0.135,0.219 c 0.357,0.718 0.44,1.493 0.49,2.182 0.104,1.465 0.146,2.24 1.181,2.758 0.99,0.496 2.665,-0.634 2.665,-1.579 0,-1.33 -1.082,-2.975 -4.23,-3.545 l -0.241,-0.035 z"
           stroke-miterlimit="79.8403193612775"
           id="path30"
           inkscape:connector-curvature="0"
           style="fill:#888a85;stroke:none;stroke-width:0.5;stroke-linejoin:round;stroke-miterlimit:79.84031677;marker-start:none;marker-end:none" />
        <mask
           id="TranspMask_1">
          <rect
             x="-59.527702"
             y="-84.189102"
             width="714.33246"
             height="1010.2692"
             id="rect33"
             style="fill:url(#LinearGradient_1);stroke:none" />
        </mask>
        <path
           d="m 468.098,610.739 0.135,0.219 c 0.357,0.718 0.44,1.493 0.49,2.182 0.104,1.465 0.146,2.24 1.181,2.758 0.371,0.185 0.838,0.142 1.278,-0.033 l 0.402,-0.205 -0.031,-0.024 c -0.96,-0.855 -1.339,-3.405 -3.365,-4.865 l -0.035,-0.024 -0.055,-0.008 z"
           stroke-miterlimit="79.8403193612775"
           mask="url(#TranspMask_1)"
           id="path35"
           inkscape:connector-curvature="0"
           style="fill:#ffffff;stroke:none;stroke-width:0.5;stroke-linejoin:round;stroke-miterlimit:79.84031677;marker-start:none;marker-end:none" />
        <path
           d="m 464.319,626.319 18,0 0,-18 -18,0 0,18 z"
           stroke-miterlimit="79.8403193612775"
           id="path37"
           inkscape:connector-curvature="0"
           style="stroke:none;stroke-width:0.40700001;stroke-linejoin:miter;stroke-miterlimit:79.84031677;marker-start:none;marker-end:none" />
      </g>
    </g>
  </g>
</svg>
