<?xml version="1.0" encoding="UTF-8" standalone="no"?>
<!--Generator: Xara Designer (www.xara.com), SVG filter version: 6.0.0.4-->

<svg
   xmlns:dc="http://purl.org/dc/elements/1.1/"
   xmlns:cc="http://creativecommons.org/ns#"
   xmlns:rdf="http://www.w3.org/1999/02/22-rdf-syntax-ns#"
   xmlns:svg="http://www.w3.org/2000/svg"
   xmlns="http://www.w3.org/2000/svg"
   xmlns:sodipodi="http://sodipodi.sourceforge.net/DTD/sodipodi-0.dtd"
   xmlns:inkscape="http://www.inkscape.org/namespaces/inkscape"
   version="1.1"
   overflow="visible"
   width="18pt"
   height="17.999998pt"
   viewBox="0 0 18.000001 17.999998"
   id="svg2"
   inkscape:version="0.91 r13725"
   sodipodi:docname="brush-paint-02.svg"
   style="overflow:visible;fill-rule:evenodd;stroke-width:0.50099999;stroke-linejoin:bevel">
  <metadata
     id="metadata47">
    <rdf:RDF>
      <cc:Work
         rdf:about="">
        <dc:format>image/svg+xml</dc:format>
        <dc:type
           rdf:resource="http://purl.org/dc/dcmitype/StillImage" />
        <dc:title></dc:title>
      </cc:Work>
    </rdf:RDF>
  </metadata>
  <sodipodi:namedview
     pagecolor="#ffffff"
     bordercolor="#666666"
     borderopacity="1"
     objecttolerance="10"
     gridtolerance="10"
     guidetolerance="10"
     inkscape:pageopacity="0"
     inkscape:pageshadow="2"
     inkscape:window-width="640"
     inkscape:window-height="480"
     id="namedview45"
     showgrid="false"
     fit-margin-top="0"
     fit-margin-left="0"
     fit-margin-right="0"
     fit-margin-bottom="0"
     inkscape:zoom="5.074358"
     inkscape:cx="4.6440713"
     inkscape:cy="13.607107"
     inkscape:window-x="0"
     inkscape:window-y="0"
     inkscape:window-maximized="0"
     inkscape:current-layer="svg2" />
  <defs
     id="defs4">
    <linearGradient
       id="LinearGradient"
       gradientUnits="userSpaceOnUse"
       x1="0"
       y1="0"
       x2="0"
       y2="-18"
       gradientTransform="translate(482.319,626.319)">
      <stop
         offset="0"
         stop-color="#ffffff"
         id="stop7" />
      <stop
         offset="1"
         stop-color="#000000"
         id="stop9" />
    </linearGradient>
    <linearGradient
       id="LinearGradient_1"
       gradientUnits="userSpaceOnUse"
       x1="0"
       y1="0"
       x2="0"
       y2="-6.75"
       gradientTransform="translate(474.069,616.569)">
      <stop
         offset="0"
         stop-color="#ffffff"
         id="stop12" />
      <stop
         offset="1"
         stop-color="#000000"
         id="stop14" />
    </linearGradient>
  </defs>
  <g
     id="Document"
     font-size="16"
     transform="matrix(1,0,0,-1,-464.319,-215.57205)"
     style="font-size:16px;font-family:'Times New Roman';fill:none;stroke:#000000">
    <g
       id="Spread"
       transform="translate(0,-841.891)">
      <g
         id="Layer 1">
        <path
           d="m 473.319,614.319 -3.75,2.25 9,7.5 c 0.607,0.505 1.691,1.309 2.25,0.75 0.559,-0.559 -0.25,-1.639 -0.75,-2.25 l -6.75,-8.25 z"
           stroke-miterlimit="79.8403193612775"
           id="path19"
           inkscape:connector-curvature="0"
           style="fill:#ce5c00;stroke:none;stroke-width:0.5;stroke-linejoin:round;stroke-miterlimit:79.84031677;marker-start:none;marker-end:none" />
        <path
           d="m 473.149,615.295 -2.289,1.373 8.189,6.824 c 0.458,0.382 0.865,0.633 1.11,0.726 l 0.076,0.016 -0.012,-0.057 c -0.083,-0.227 -0.315,-0.621 -0.735,-1.134 l -6.339,-7.748 z"
           stroke-miterlimit="79.8403193612775"
           id="path21"
           inkscape:connector-curvature="0"
           style="fill:#f57900;stroke:none;stroke-width:0.5;stroke-linejoin:round;stroke-miterlimit:79.84031677;marker-start:none;marker-end:none" />
        <mask
           id="TranspMask">
          <rect
             x="-59.527702"
             y="-84.189102"
             width="714.33246"
             height="1010.2692"
             id="rect24"
             style="fill:url(#LinearGradient);stroke:none" />
        </mask>
        <path
           d="m 471.99,615.99 -1.13,0.678 8.189,6.824 c 0.458,0.382 0.865,0.633 1.11,0.726 l 0.074,0.015 -8.243,-8.243 z"
           stroke-miterlimit="79.8403193612775"
           mask="url(#TranspMask)"
           id="path26"
           inkscape:connector-curvature="0"
           style="fill:#ffffff;stroke:none;stroke-width:0.5;stroke-linejoin:round;stroke-miterlimit:79.84031677;marker-start:none;marker-end:none" />
        <path
           d="m 473.319,614.319 c -2.25,-0.75 -3.75,0 -3.75,2.25 l 4.15,3.458 0.095,0.019 c 1.341,0.158 2.461,-0.82 2.63,-1.834 l 0.004,-0.068 -3.129,-3.825 z"
           stroke-miterlimit="79.8403193612775"
           id="path28"
           inkscape:connector-curvature="0"
           style="fill:#888a85;stroke:none;stroke-width:0.5;stroke-linejoin:round;stroke-miterlimit:79.84031677;marker-start:none;marker-end:none" />
        <path
           d="m 471.783,614.787 c -0.529,0 -0.859,0.157 -1.066,0.386 -0.163,0.18 -0.306,0.465 -0.367,0.904 l -0.01,0.157 3.682,3.068 0.223,0.004 c 0.556,-0.05 1.016,-0.374 1.266,-0.753 l 0.12,-0.223 -2.748,-3.359 -0.169,-0.051 c -0.353,-0.092 -0.664,-0.133 -0.931,-0.133 z"
           stroke-miterlimit="79.8403193612775"
           id="path30"
           inkscape:connector-curvature="0"
           style="fill:#d3d7cf;stroke:none;stroke-width:0.5;stroke-linejoin:round;stroke-miterlimit:79.84031677;marker-start:none;marker-end:none" />
        <path
           d="m 471.99,615.99 -1.13,0.677 3.162,2.635 0.223,0.004 c 0.278,-0.025 0.532,-0.119 0.747,-0.254 l 0.034,-0.026 -3.036,-3.036 z"
           stroke-miterlimit="79.8403193612775"
           id="path32"
           inkscape:connector-curvature="0"
           style="fill:#ffffff;stroke:none;stroke-width:0.5;stroke-linejoin:round;stroke-miterlimit:79.84031677;marker-start:none;marker-end:none" />
        <path
           d="m 469.569,616.569 c 1.5,0.75 3.75,-0.75 3.75,-2.25 l -1.5,-3.75 c -0.382,-0.957 -1.99,-0.954 -3,-0.75 -1.225,0.247 -2.441,1.132 -3,2.25 -0.335,0.67 -0.643,1.865 0,2.25 l 3.75,2.25 z"
           stroke-miterlimit="79.8403193612775"
           id="path34"
           inkscape:connector-curvature="0"
           style="fill:#c4a000;stroke:none;stroke-width:0.5;stroke-linejoin:round;stroke-miterlimit:79.84031677;marker-start:none;marker-end:none" />
        <path
           d="m 470.077,610.463 c -0.381,-0.017 -0.782,0.024 -1.11,0.091 -1.014,0.204 -2.029,0.952 -2.478,1.85 -0.253,0.507 -0.325,1.02 -0.288,1.223 l 0.02,0.058 3.692,2.215 0.389,0.111 c 0.844,0.087 1.906,-0.611 2.193,-1.333 l 0.054,-0.263 -1.427,-3.568 c -0.059,-0.149 -0.316,-0.352 -1.045,-0.384 z"
           stroke-miterlimit="79.8403193612775"
           id="path36"
           inkscape:connector-curvature="0"
           style="fill:#edd400;stroke:none;stroke-width:0.5;stroke-linejoin:round;stroke-miterlimit:79.84031677;marker-start:none;marker-end:none" />
        <path
           d="m 464.319,626.319 18,0 0,-18 -18,0 0,18 z"
           stroke-miterlimit="79.8403193612775"
           id="path38"
           inkscape:connector-curvature="0"
           style="stroke:none;stroke-width:0.40700001;stroke-linejoin:miter;stroke-miterlimit:79.84031677;marker-start:none;marker-end:none" />
        <mask
           id="TranspMask_1">
          <rect
             x="-59.527702"
             y="-84.189102"
             width="714.33246"
             height="1010.2692"
             id="rect41"
             style="fill:url(#LinearGradient_1);stroke:none" />
        </mask>
        <path
           d="m 469.569,612.819 c -0.611,0.518 -1.876,1.278 -3.187,0.957 l -0.018,-0.005 3.549,2.129 0.389,0.111 c 0.422,0.043 0.899,-0.11 1.305,-0.364 l 0.051,-0.042 -2.089,-2.786 z"
           stroke-miterlimit="79.8403193612775"
           mask="url(#TranspMask_1)"
           id="path43"
           inkscape:connector-curvature="0"
           style="fill:#ffffff;stroke:none;stroke-width:0.5;stroke-linejoin:round;stroke-miterlimit:79.84031677;marker-start:none;marker-end:none" />
      </g>
    </g>
  </g>
</svg>
