<?xml version="1.0" encoding="UTF-8" standalone="no"?>
<!--Generator: Xara Designer (www.xara.com), SVG filter version: 6.0.0.4-->

<svg
   xmlns:dc="http://purl.org/dc/elements/1.1/"
   xmlns:cc="http://creativecommons.org/ns#"
   xmlns:rdf="http://www.w3.org/1999/02/22-rdf-syntax-ns#"
   xmlns:svg="http://www.w3.org/2000/svg"
   xmlns="http://www.w3.org/2000/svg"
   xmlns:sodipodi="http://sodipodi.sourceforge.net/DTD/sodipodi-0.dtd"
   xmlns:inkscape="http://www.inkscape.org/namespaces/inkscape"
   version="1.1"
   overflow="visible"
   width="18pt"
   height="17.999998pt"
   viewBox="0 0 18.000001 17.999998"
   id="svg2"
   inkscape:version="0.91 r13725"
   sodipodi:docname="delete.svg"
   style="overflow:visible;fill-rule:evenodd;stroke-width:0.50099999;stroke-linejoin:bevel">
  <metadata
     id="metadata35">
    <rdf:RDF>
      <cc:Work
         rdf:about="">
        <dc:format>image/svg+xml</dc:format>
        <dc:type
           rdf:resource="http://purl.org/dc/dcmitype/StillImage" />
        <dc:title></dc:title>
      </cc:Work>
    </rdf:RDF>
  </metadata>
  <sodipodi:namedview
     pagecolor="#ffffff"
     bordercolor="#666666"
     borderopacity="1"
     objecttolerance="10"
     gridtolerance="10"
     guidetolerance="10"
     inkscape:pageopacity="0"
     inkscape:pageshadow="2"
     inkscape:window-width="640"
     inkscape:window-height="480"
     id="namedview33"
     showgrid="false"
     fit-margin-top="0"
     fit-margin-left="0"
     fit-margin-right="0"
     fit-margin-bottom="0"
     inkscape:zoom="5.074358"
     inkscape:cx="12.015594"
     inkscape:cy="16.130269"
     inkscape:window-x="0"
     inkscape:window-y="0"
     inkscape:window-maximized="0"
     inkscape:current-layer="svg2" />
  <defs
     id="defs4">
    <linearGradient
       id="LinearGradient"
       gradientUnits="userSpaceOnUse"
       x1="0"
       y1="0"
       x2="0"
       y2="-18"
       gradientTransform="translate(482.32,626.318)">
      <stop
         offset="0"
         stop-color="#ffffff"
         id="stop7" />
      <stop
         offset="0.500999987125397"
         stop-color="#e81d1d"
         id="stop9" />
      <stop
         offset="1"
         stop-color="#ffffff"
         id="stop11" />
    </linearGradient>
    <linearGradient
       id="LinearGradient_1"
       gradientUnits="userSpaceOnUse"
       x1="0"
       y1="0"
       x2="0"
       y2="9"
       gradientTransform="translate(482.32,617.318)">
      <stop
         offset="0"
         stop-color="#333333"
         id="stop14" />
      <stop
         offset="1"
         stop-color="#ffffff"
         id="stop16" />
    </linearGradient>
  </defs>
  <g
     id="Document"
     font-size="16"
     transform="matrix(1,0,0,-1,-464.319,-215.57205)"
     style="font-size:16px;font-family:'Times New Roman';fill:none;stroke:#000000">
    <g
       id="Spread"
       transform="translate(0,-841.891)">
      <g
         id="opaque">
        <path
           d="m 482.319,626.319 0,-18 -18,0 0,18 18,0 z"
           stroke-miterlimit="79.8403193612775"
           id="path21"
           inkscape:connector-curvature="0"
           style="stroke:none;stroke-width:0.40700001;stroke-linejoin:miter;stroke-miterlimit:79.84031677;marker-start:none;marker-end:none" />
      </g>
      <g
         id="Layer 1">
        <path
           d="m 466.57,620.318 c -0.883,0.883 -0.883,2.867 0,3.75 0.883,0.883 2.867,0.883 3.75,0 l 3,-3 3,3 c 0.883,0.883 2.867,0.883 3.75,0 0.883,-0.883 0.883,-2.867 0,-3.751 l -3,-2.999 3,-3 c 0.883,-0.883 0.883,-2.867 0,-3.75 -0.883,-0.883 -2.867,-0.883 -3.75,0 l -3,3 -3,-3 c -0.883,-0.883 -2.867,-0.883 -3.75,0 -0.883,0.883 -0.883,2.867 0,3.75 l 3,3 -3,3 z"
           stroke-miterlimit="79.8403193612775"
           id="path24"
           inkscape:connector-curvature="0"
           style="fill:#a40000;stroke:none;stroke-width:0.5;stroke-linejoin:round;stroke-miterlimit:79.84031677;marker-start:none;marker-end:none" />
        <path
           d="m 468.445,610.655 c -0.594,0 -1.09,0.187 -1.345,0.443 -0.59,0.59 -0.59,2.099 0,2.689 l 3,3 c 0.293,0.293 0.293,0.768 0,1.061 l -3,3 c -0.59,0.59 -0.59,2.099 0,2.689 0.59,0.59 2.099,0.59 2.689,0 l 3,-3 c 0.293,-0.293 0.768,-0.293 1.061,0 l 3,3 c 0.59,0.59 2.099,0.59 2.689,0 0.59,-0.59 0.59,-2.099 0,-2.689 l -3,-3 c -0.293,-0.293 -0.293,-0.768 0,-1.061 l 3,-3 c 0.59,-0.59 0.59,-2.099 0,-2.689 -0.59,-0.59 -2.099,-0.59 -2.689,0 l -3,3 c -0.293,0.293 -0.768,0.293 -1.061,0 l -3,-3 c -0.256,-0.256 -0.753,-0.443 -1.344,-0.443 z"
           stroke-miterlimit="79.8403193612775"
           id="path26"
           inkscape:connector-curvature="0"
           style="fill:url(#LinearGradient);stroke:none;stroke-width:0.75;stroke-linejoin:round;stroke-miterlimit:79.84031677;marker-start:none;marker-end:none" />
        <mask
           id="TranspMask">
          <rect
             x="-59.527702"
             y="-84.189102"
             width="714.33246"
             height="1010.2692"
             id="rect29"
             style="fill:url(#LinearGradient_1);stroke:none" />
        </mask>
        <path
           d="m 470.319,617.318 -0.013,0.142 c -0.028,0.142 -0.097,0.278 -0.206,0.388 l -3,3 c -0.59,0.59 -0.59,2.099 0,2.689 0.59,0.59 2.099,0.59 2.689,0 l 3,-3 c 0.293,-0.293 0.768,-0.293 1.061,0 l 3,3 c 0.59,0.59 2.099,0.59 2.689,0 0.59,-0.59 0.59,-2.099 0,-2.689 l -3,-3 c -0.11,-0.11 -0.179,-0.246 -0.207,-0.388 l -0.013,-0.142 -6,0 z"
           stroke-miterlimit="79.8403193612775"
           mask="url(#TranspMask)"
           id="path31"
           inkscape:connector-curvature="0"
           style="fill:#ffffff;stroke:none;stroke-width:0.5;stroke-linejoin:miter;stroke-miterlimit:79.84031677;marker-start:none;marker-end:none" />
      </g>
    </g>
  </g>
</svg>
