<?xml version="1.0" encoding="UTF-8" standalone="no"?>
<!--Generator: Xara Designer (www.xara.com), SVG filter version: 6.0.0.4-->

<svg
   xmlns:dc="http://purl.org/dc/elements/1.1/"
   xmlns:cc="http://creativecommons.org/ns#"
   xmlns:rdf="http://www.w3.org/1999/02/22-rdf-syntax-ns#"
   xmlns:svg="http://www.w3.org/2000/svg"
   xmlns="http://www.w3.org/2000/svg"
   xmlns:sodipodi="http://sodipodi.sourceforge.net/DTD/sodipodi-0.dtd"
   xmlns:inkscape="http://www.inkscape.org/namespaces/inkscape"
   version="1.1"
   overflow="visible"
   width="18pt"
   height="17.999998pt"
   viewBox="0 0 18.000001 17.999998"
   id="svg2"
   inkscape:version="0.91 r13725"
   sodipodi:docname="emoticon-upset.svg"
   style="overflow:visible;fill-rule:evenodd;stroke-width:0.50099999;stroke-linejoin:bevel">
  <metadata
     id="metadata70">
    <rdf:RDF>
      <cc:Work
         rdf:about="">
        <dc:format>image/svg+xml</dc:format>
        <dc:type
           rdf:resource="http://purl.org/dc/dcmitype/StillImage" />
        <dc:title></dc:title>
      </cc:Work>
    </rdf:RDF>
  </metadata>
  <sodipodi:namedview
     pagecolor="#ffffff"
     bordercolor="#666666"
     borderopacity="1"
     objecttolerance="10"
     gridtolerance="10"
     guidetolerance="10"
     inkscape:pageopacity="0"
     inkscape:pageshadow="2"
     inkscape:window-width="640"
     inkscape:window-height="480"
     id="namedview68"
     showgrid="false"
     fit-margin-top="0"
     fit-margin-left="0"
     fit-margin-right="0"
     fit-margin-bottom="0"
     inkscape:zoom="3.588113"
     inkscape:cx="1.6390287"
     inkscape:cy="14.814601"
     inkscape:window-x="0"
     inkscape:window-y="0"
     inkscape:window-maximized="0"
     inkscape:current-layer="svg2" />
  <defs
     id="defs4">
    <linearGradient
       id="LinearGradient"
       gradientUnits="userSpaceOnUse"
       x1="0"
       y1="0"
       x2="0"
       y2="-17.997999"
       gradientTransform="translate(482.319,626.316)">
      <stop
         offset="0"
         stop-color="#ffffff"
         id="stop7" />
      <stop
         offset="0.500999987125397"
         stop-color="#fff200"
         id="stop9" />
      <stop
         offset="1"
         stop-color="#ffffff"
         id="stop11" />
    </linearGradient>
    <linearGradient
       id="LinearGradient_1"
       gradientUnits="userSpaceOnUse"
       x1="0"
       y1="0"
       x2="0.011"
       y2="6.756"
       gradientTransform="translate(482.304,617.317)">
      <stop
         offset="0"
         stop-color="#333333"
         id="stop14" />
      <stop
         offset="1"
         stop-color="#ffffff"
         id="stop16" />
    </linearGradient>
    <linearGradient
       id="LinearGradient_2"
       gradientUnits="userSpaceOnUse"
       x1="0"
       y1="0"
       x2="0.001"
       y2="-1.5"
       gradientTransform="translate(473.319,615.818)">
      <stop
         offset="0"
         stop-color="#2e3436"
         id="stop19" />
      <stop
         offset="1"
         stop-color="#555753"
         id="stop21" />
    </linearGradient>
  </defs>
  <g
     id="Document"
     font-size="16"
     transform="matrix(1,0,0,-1,-464.319,-215.57205)"
     style="font-size:16px;font-family:'Times New Roman';fill:none;stroke:#000000">
    <g
       id="Spread"
       transform="translate(0,-841.891)">
      <g
         id="opaque">
        <path
           d="m 482.319,626.319 0,-18 -18,0 0,18 18,0 z"
           stroke-miterlimit="79.8403193612775"
           id="path26"
           inkscape:connector-curvature="0"
           style="stroke:none;stroke-width:0.40700001;stroke-linejoin:miter;stroke-miterlimit:79.84031677;marker-start:none;marker-end:none" />
      </g>
      <g
         id="Layer 1">
        <path
           d="m 473.32,624.818 c 4.14,0 7.501,-3.36 7.501,-7.5 0,-4.14 -3.361,-7.5 -7.501,-7.5 -4.14,0 -7.501,3.36 -7.501,7.5 0,4.14 3.361,7.5 7.501,7.5 z"
           stroke-miterlimit="79.8403193612775"
           id="path29"
           inkscape:connector-curvature="0"
           style="fill:#c7b200;stroke:none;stroke-width:0.5;stroke-miterlimit:79.84031677;marker-start:none;marker-end:none" />
        <path
           d="m 473.32,624.068 c 3.726,0 6.751,-3.024 6.751,-6.75 0,-3.726 -3.025,-6.75 -6.751,-6.75 -3.726,0 -6.751,3.024 -6.751,6.75 0,3.726 3.025,6.75 6.751,6.75 z"
           stroke-miterlimit="79.8403193612775"
           id="path31"
           inkscape:connector-curvature="0"
           style="fill:url(#LinearGradient);stroke:none;stroke-width:0.75;stroke-linejoin:round;stroke-miterlimit:79.84031677;marker-start:none;marker-end:none" />
        <mask
           id="TranspMask">
          <rect
             x="-59.527702"
             y="-84.189102"
             width="714.33246"
             height="1010.2692"
             id="rect34"
             style="fill:url(#LinearGradient_1);stroke:none" />
        </mask>
        <path
           d="m 473.304,624.083 c 2.484,0 4.501,-1.512 4.501,-3.375 0,-1.863 -2.017,-3.375 -4.501,-3.375 -2.484,0 -4.501,1.512 -4.501,3.375 0,1.863 2.017,3.375 4.501,3.375 z"
           stroke-miterlimit="79.8403193612775"
           mask="url(#TranspMask)"
           id="path36"
           inkscape:connector-curvature="0"
           style="fill:#ffffff;stroke:none;stroke-width:0.5;stroke-linejoin:miter;stroke-miterlimit:79.84031677;marker-start:none;marker-end:none" />
        <path
           d="m 476.32,613.568 c 0,0.75 -1.504,2.25 -3,2.25 -1.5,0 -3,-1.5 -3,-2.25 l 6,0 z"
           stroke-miterlimit="79.8403193612775"
           id="path38"
           inkscape:connector-curvature="0"
           style="fill:url(#LinearGradient_2);stroke:none;stroke-width:0.5;stroke-miterlimit:79.84031677;marker-start:none;marker-end:none" />
        <path
           d="m 475.195,620.318 c 0.62,0 1.125,-0.672 1.125,-1.5 0,-0.828 -0.505,-1.5 -1.125,-1.5 -0.62,0 -1.125,0.672 -1.125,1.5 0,0.828 0.505,1.5 1.125,1.5 z"
           stroke-miterlimit="79.8403193612775"
           id="path40"
           inkscape:connector-curvature="0"
           style="fill:#555753;stroke:none;stroke-width:0.5;stroke-miterlimit:79.84031677;marker-start:none;marker-end:none" />
        <path
           d="m 471.447,620.318 c 0.621,0 1.126,-0.672 1.126,-1.5 0,-0.828 -0.505,-1.5 -1.126,-1.5 -0.621,0 -1.126,0.672 -1.126,1.5 0,0.828 0.505,1.5 1.126,1.5 z"
           stroke-miterlimit="79.8403193612775"
           id="path42"
           inkscape:connector-curvature="0"
           style="fill:#555753;stroke:none;stroke-width:0.5;stroke-miterlimit:79.84031677;marker-start:none;marker-end:none" />
        <path
           d="m 471.07,617.318 -0.75,-1.5 c -1.5,-3 -3.75,0 -1.5,0.75 l 2.25,0.75 z"
           stroke-miterlimit="79.8403193612775"
           id="path44"
           inkscape:connector-curvature="0"
           style="fill:#3798ff;stroke:none;stroke-width:0.5;stroke-miterlimit:79.84031677;marker-start:none;marker-end:none" />
        <path
           d="m 476.32,617.318 1.5,-1.5 c 1.5,-1.5 3,1.5 0.75,1.5 l -2.25,0 z"
           stroke-miterlimit="79.8403193612775"
           id="path46"
           inkscape:connector-curvature="0"
           style="fill:#3798ff;stroke:none;stroke-width:0.5;stroke-miterlimit:79.84031677;marker-start:none;marker-end:none" />
        <path
           d="m 469.57,618.068 -1.5,-0.75 c -3,-1.5 -3,2.25 -0.75,1.5 l 2.25,-0.75 z"
           stroke-miterlimit="79.8403193612775"
           id="path48"
           inkscape:connector-curvature="0"
           style="fill:#3798ff;stroke:none;stroke-width:0.5;stroke-miterlimit:79.84031677;marker-start:none;marker-end:none" />
        <path
           d="m 477.07,618.068 1.5,1.5 c 1.5,1.5 2.25,-1.5 0.75,-1.5 l -2.25,0 z"
           stroke-miterlimit="79.8403193612775"
           id="path50"
           inkscape:connector-curvature="0"
           style="fill:#3798ff;stroke:none;stroke-width:0.5;stroke-miterlimit:79.84031677;marker-start:none;marker-end:none" />
        <path
           d="m 477.963,615.068 1.357,-2.25 c 0.75,-1.5 3,0.75 0.75,1.5 l -2.107,0.75 z"
           stroke-miterlimit="79.8403193612775"
           id="path52"
           inkscape:connector-curvature="0"
           style="fill:#3798ff;stroke:none;stroke-width:0.5;stroke-miterlimit:79.84031677;marker-start:none;marker-end:none" />
        <path
           d="m 474.07,622.568 c 0.75,0 2.25,-0.75 3,-0.75 0,0 0,-0.75 -0.75,-0.75 -0.75,0 -1.5,0.75 -2.25,1.5 z"
           stroke-miterlimit="79.8403193612775"
           id="path54"
           inkscape:connector-curvature="0"
           style="fill:#4c4c4c;stroke:none;stroke-width:0.5;stroke-miterlimit:79.84031677;marker-start:none;marker-end:none" />
        <path
           d="m 472.57,622.568 c -0.75,0 -2.25,-0.75 -3,-0.75 0,0 0,-0.75 0.75,-0.75 0.75,0 1.5,0.75 2.25,1.5 z"
           stroke-miterlimit="79.8403193612775"
           id="path56"
           inkscape:connector-curvature="0"
           style="fill:#4c4c4c;stroke:none;stroke-width:0.5;stroke-miterlimit:79.84031677;marker-start:none;marker-end:none" />
        <path
           d="m 468.444,615.818 c 0.207,0 0.376,-0.168 0.376,-0.375 0,-0.207 -0.169,-0.375 -0.376,-0.375 -0.207,0 -0.376,0.168 -0.376,0.375 0,0.207 0.169,0.375 0.376,0.375 z"
           stroke-miterlimit="79.8403193612775"
           id="path58"
           inkscape:connector-curvature="0"
           style="fill:#ffffff;fill-opacity:0.50196084;stroke:none;stroke-width:0.5;stroke-miterlimit:79.84031677;stroke-opacity:0.50196084;marker-start:none;marker-end:none" />
        <path
           d="m 466.196,618.068 c 0.207,0 0.376,-0.168 0.376,-0.375 0,-0.207 -0.169,-0.375 -0.376,-0.375 -0.207,0 -0.376,0.168 -0.376,0.375 0,0.207 0.169,0.375 0.376,0.375 z"
           stroke-miterlimit="79.8403193612775"
           id="path60"
           inkscape:connector-curvature="0"
           style="fill:#ffffff;fill-opacity:0.50196084;stroke:none;stroke-width:0.5;stroke-miterlimit:79.84031677;stroke-opacity:0.50196084;marker-start:none;marker-end:none" />
        <path
           d="m 478.946,616.568 c 0.207,0 0.376,-0.168 0.376,-0.375 0,-0.207 -0.169,-0.375 -0.376,-0.375 -0.207,0 -0.376,0.168 -0.376,0.375 0,0.207 0.169,0.375 0.376,0.375 z"
           stroke-miterlimit="79.8403193612775"
           id="path62"
           inkscape:connector-curvature="0"
           style="fill:#ffffff;fill-opacity:0.50196084;stroke:none;stroke-width:0.5;stroke-miterlimit:79.84031677;stroke-opacity:0.50196084;marker-start:none;marker-end:none" />
        <path
           d="m 479.694,619.568 c 0.207,0 0.376,-0.168 0.376,-0.375 0,-0.207 -0.169,-0.375 -0.376,-0.375 -0.207,0 -0.376,0.168 -0.376,0.375 0,0.207 0.169,0.375 0.376,0.375 z"
           stroke-miterlimit="79.8403193612775"
           id="path64"
           inkscape:connector-curvature="0"
           style="fill:#ffffff;fill-opacity:0.50196084;stroke:none;stroke-width:0.5;stroke-miterlimit:79.84031677;stroke-opacity:0.50196084;marker-start:none;marker-end:none" />
        <path
           d="m 480.444,613.568 c 0.207,0 0.376,-0.168 0.376,-0.375 0,-0.207 -0.169,-0.375 -0.376,-0.375 -0.207,0 -0.376,0.168 -0.376,0.375 0,0.207 0.169,0.375 0.376,0.375 z"
           stroke-miterlimit="79.8403193612775"
           id="path66"
           inkscape:connector-curvature="0"
           style="fill:#ffffff;fill-opacity:0.50196084;stroke:none;stroke-width:0.5;stroke-miterlimit:79.84031677;stroke-opacity:0.50196084;marker-start:none;marker-end:none" />
      </g>
    </g>
  </g>
</svg>
