<?xml version="1.0" encoding="UTF-8" standalone="no"?>
<!--Generator: Xara Designer (www.xara.com), SVG filter version: 6.0.0.4-->

<svg
   xmlns:dc="http://purl.org/dc/elements/1.1/"
   xmlns:cc="http://creativecommons.org/ns#"
   xmlns:rdf="http://www.w3.org/1999/02/22-rdf-syntax-ns#"
   xmlns:svg="http://www.w3.org/2000/svg"
   xmlns="http://www.w3.org/2000/svg"
   xmlns:sodipodi="http://sodipodi.sourceforge.net/DTD/sodipodi-0.dtd"
   xmlns:inkscape="http://www.inkscape.org/namespaces/inkscape"
   version="1.1"
   overflow="visible"
   width="18pt"
   height="17.999998pt"
   viewBox="0 0 18.000001 17.999998"
   id="svg2"
   inkscape:version="0.91 r13725"
   sodipodi:docname="error-red-circle.svg"
   style="overflow:visible;fill-rule:evenodd;stroke-width:0.50099999;stroke-linejoin:bevel">
  <metadata
     id="metadata46">
    <rdf:RDF>
      <cc:Work
         rdf:about="">
        <dc:format>image/svg+xml</dc:format>
        <dc:type
           rdf:resource="http://purl.org/dc/dcmitype/StillImage" />
        <dc:title></dc:title>
      </cc:Work>
    </rdf:RDF>
  </metadata>
  <sodipodi:namedview
     pagecolor="#ffffff"
     bordercolor="#666666"
     borderopacity="1"
     objecttolerance="10"
     gridtolerance="10"
     guidetolerance="10"
     inkscape:pageopacity="0"
     inkscape:pageshadow="2"
     inkscape:window-width="640"
     inkscape:window-height="480"
     id="namedview44"
     showgrid="false"
     fit-margin-top="0"
     fit-margin-left="0"
     fit-margin-right="0"
     fit-margin-bottom="0"
     inkscape:zoom="7.176226"
     inkscape:cx="9.5370902"
     inkscape:cy="12.436875"
     inkscape:window-x="0"
     inkscape:window-y="0"
     inkscape:window-maximized="0"
     inkscape:current-layer="svg2" />
  <defs
     id="defs4">
    <linearGradient
       id="LinearGradient"
       gradientUnits="userSpaceOnUse"
       x1="0"
       y1="0"
       x2="0"
       y2="-17.997999"
       gradientTransform="translate(482.318,626.317)">
      <stop
         offset="0"
         stop-color="#ffffff"
         id="stop7" />
      <stop
         offset="0.500999987125397"
         stop-color="#e81d1d"
         id="stop9" />
      <stop
         offset="1"
         stop-color="#ffffff"
         id="stop11" />
    </linearGradient>
    <linearGradient
       id="LinearGradient_1"
       gradientUnits="userSpaceOnUse"
       x1="0"
       y1="0"
       x2="0"
       y2="8.9980001"
       gradientTransform="translate(482.318,617.319)">
      <stop
         offset="0"
         stop-color="#333333"
         id="stop14" />
      <stop
         offset="1"
         stop-color="#ffffff"
         id="stop16" />
    </linearGradient>
    <linearGradient
       id="LinearGradient_2"
       gradientUnits="userSpaceOnUse"
       x1="0"
       y1="0"
       x2="0"
       y2="9"
       gradientTransform="translate(482.319,617.319)">
      <stop
         offset="0"
         stop-color="#bfbfbf"
         id="stop19" />
      <stop
         offset="1"
         stop-color="#000000"
         id="stop21" />
    </linearGradient>
  </defs>
  <g
     id="Document"
     font-size="16"
     transform="matrix(1,0,0,-1,-464.319,-215.57205)"
     style="font-size:16px;font-family:'Times New Roman';fill:none;stroke:#000000">
    <g
       id="Spread"
       transform="translate(0,-841.891)">
      <g
         id="Layer 1">
        <path
           d="m 473.319,624.819 c 4.14,0 7.501,-3.36 7.501,-7.5 0,-4.14 -3.361,-7.5 -7.501,-7.5 -4.14,0 -7.501,3.36 -7.501,7.5 0,4.14 3.361,7.5 7.501,7.5 z"
           stroke-miterlimit="79.8403193612775"
           id="path26"
           inkscape:connector-curvature="0"
           style="fill:#c30000;stroke:none;stroke-width:0.5;stroke-miterlimit:79.84031677;marker-start:none;marker-end:none" />
        <path
           d="m 473.319,624.069 c 3.726,0 6.751,-3.024 6.751,-6.75 0,-3.726 -3.025,-6.75 -6.751,-6.75 -3.726,0 -6.751,3.024 -6.751,6.75 0,3.726 3.025,6.75 6.751,6.75 z"
           stroke-miterlimit="79.8403193612775"
           id="path28"
           inkscape:connector-curvature="0"
           style="fill:url(#LinearGradient);stroke:none;stroke-width:0.75;stroke-linejoin:round;stroke-miterlimit:79.84031677;marker-start:none;marker-end:none" />
        <mask
           id="TranspMask">
          <rect
             x="-59.527702"
             y="-84.189102"
             width="714.33246"
             height="1010.2692"
             id="rect31"
             style="fill:url(#LinearGradient_1);stroke:none" />
        </mask>
        <path
           d="m 466.568,617.319 c 0,3.725 3.025,6.749 6.751,6.749 3.725,0 6.75,-3.024 6.75,-6.749 l -13.501,0 z"
           stroke-miterlimit="79.8403193612775"
           mask="url(#TranspMask)"
           id="path33"
           inkscape:connector-curvature="0"
           style="fill:#ffffff;stroke:none;stroke-width:0.5;stroke-linejoin:miter;stroke-miterlimit:79.84031677;marker-start:none;marker-end:none" />
        <mask
           id="TranspMask_1">
          <rect
             x="-59.527702"
             y="-84.189102"
             width="714.33246"
             height="1010.2692"
             id="rect36"
             style="fill:url(#LinearGradient_2);stroke:none" />
        </mask>
        <path
           d="m 469.569,620.319 0.75,0.75 c 0.353,0.353 1.147,0.353 1.5,0 l 1.5,-1.5 1.5,1.5 c 0.353,0.353 1.147,0.353 1.5,0 l 0.75,-0.75 c 0.353,-0.353 0.353,-1.147 0,-1.5 l -1.5,-1.5 1.5,-1.5 c 0.353,-0.353 0.353,-1.147 0,-1.5 l -0.75,-0.75 c -0.353,-0.353 -1.147,-0.353 -1.5,0 l -1.5,1.5 -1.5,-1.5 c -0.353,-0.353 -1.147,-0.353 -1.5,0 l -0.75,0.75 c -0.353,0.353 -0.353,1.147 0,1.5 l 1.5,1.5 -1.5,1.5 c -0.353,0.353 -0.353,1.147 0,1.5 z"
           stroke-miterlimit="79.8403193612775"
           mask="url(#TranspMask_1)"
           id="path38"
           inkscape:connector-curvature="0"
           style="fill:#c30000;stroke:none;stroke-width:0.5;stroke-linejoin:round;stroke-miterlimit:79.84031677;marker-start:none;marker-end:none" />
        <path
           d="m 471.069,614.054 c -0.136,0 -0.212,0.039 -0.223,0.048 l -0.743,0.743 c -0.062,0.079 -0.064,0.365 0,0.447 l 1.496,1.496 c 0.293,0.293 0.293,0.768 0,1.061 l -1.496,1.496 c -0.062,0.079 -0.064,0.365 0,0.447 l 0.742,0.742 c 0.079,0.062 0.365,0.064 0.447,0 l 1.496,-1.496 c 0.293,-0.293 0.767,-0.293 1.061,0 l 1.496,1.496 c 0.079,0.062 0.365,0.064 0.447,0 l 0.742,-0.742 c 0.062,-0.079 0.064,-0.365 0,-0.447 l -1.496,-1.496 c -0.293,-0.293 -0.293,-0.768 0,-1.061 l 1.496,-1.496 c 0.062,-0.079 0.064,-0.365 0,-0.447 l -0.742,-0.742 c -0.079,-0.062 -0.365,-0.064 -0.447,0 l -1.496,1.496 c -0.293,0.293 -0.768,0.293 -1.061,0 l -1.498,-1.498 -0.063,-0.026 c -0.037,-0.011 -0.09,-0.021 -0.158,-0.021 z"
           stroke-miterlimit="79.8403193612775"
           id="path40"
           inkscape:connector-curvature="0"
           style="fill:#ffffff;stroke:none;stroke-width:0.5;stroke-linejoin:round;stroke-miterlimit:79.84031677;marker-start:none;marker-end:none" />
        <path
           d="m 464.319,626.319 18,0 0,-18 -18,0 0,18 z"
           stroke-miterlimit="79.8403193612775"
           id="path42"
           inkscape:connector-curvature="0"
           style="stroke:none;stroke-width:0.40700001;stroke-linejoin:miter;stroke-miterlimit:79.84031677;marker-start:none;marker-end:none" />
      </g>
    </g>
  </g>
</svg>
