<?xml version="1.0" encoding="UTF-8" standalone="no"?>
<!--Generator: Xara Designer (www.xara.com), SVG filter version: 6.0.0.4-->

<svg
   xmlns:dc="http://purl.org/dc/elements/1.1/"
   xmlns:cc="http://creativecommons.org/ns#"
   xmlns:rdf="http://www.w3.org/1999/02/22-rdf-syntax-ns#"
   xmlns:svg="http://www.w3.org/2000/svg"
   xmlns="http://www.w3.org/2000/svg"
   xmlns:sodipodi="http://sodipodi.sourceforge.net/DTD/sodipodi-0.dtd"
   xmlns:inkscape="http://www.inkscape.org/namespaces/inkscape"
   version="1.1"
   overflow="visible"
   width="18pt"
   height="17.999998pt"
   viewBox="0 0 18.000001 17.999998"
   id="svg2"
   inkscape:version="0.91 r13725"
   sodipodi:docname="exclamation-red-triangle.svg"
   style="overflow:visible;fill-rule:evenodd;stroke-width:0.50099999;stroke-linejoin:bevel">
  <metadata
     id="metadata49">
    <rdf:RDF>
      <cc:Work
         rdf:about="">
        <dc:format>image/svg+xml</dc:format>
        <dc:type
           rdf:resource="http://purl.org/dc/dcmitype/StillImage" />
        <dc:title></dc:title>
      </cc:Work>
    </rdf:RDF>
  </metadata>
  <sodipodi:namedview
     pagecolor="#ffffff"
     bordercolor="#666666"
     borderopacity="1"
     objecttolerance="10"
     gridtolerance="10"
     guidetolerance="10"
     inkscape:pageopacity="0"
     inkscape:pageshadow="2"
     inkscape:window-width="640"
     inkscape:window-height="480"
     id="namedview47"
     showgrid="false"
     fit-margin-top="0"
     fit-margin-left="0"
     fit-margin-right="0"
     fit-margin-bottom="0"
     inkscape:zoom="3.588113"
     inkscape:cx="14.799246"
     inkscape:cy="-1.3312443"
     inkscape:window-x="0"
     inkscape:window-y="0"
     inkscape:window-maximized="0"
     inkscape:current-layer="svg2" />
  <defs
     id="defs4">
    <linearGradient
       id="LinearGradient"
       gradientUnits="userSpaceOnUse"
       x1="0"
       y1="0"
       x2="17.490999"
       y2="0"
       gradientTransform="matrix(0,-1,1,0,482.724,625.873)">
      <stop
         offset="0"
         stop-color="#ffffff"
         id="stop7" />
      <stop
         offset="0.500999987125397"
         stop-color="#e81d1d"
         id="stop9" />
      <stop
         offset="1"
         stop-color="#ffffff"
         id="stop11" />
    </linearGradient>
    <linearGradient
       id="LinearGradient_1"
       gradientUnits="userSpaceOnUse"
       x1="0"
       y1="0"
       x2="0"
       y2="6"
       gradientTransform="translate(482.319,617.319)">
      <stop
         offset="0"
         stop-color="#333333"
         id="stop14" />
      <stop
         offset="1"
         stop-color="#ffffff"
         id="stop16" />
    </linearGradient>
    <linearGradient
       id="LinearGradient_2"
       gradientUnits="userSpaceOnUse"
       x1="0"
       y1="0"
       x2="0"
       y2="9"
       gradientTransform="translate(482.319,615.819)">
      <stop
         offset="0"
         stop-color="#ffffff"
         id="stop19" />
      <stop
         offset="1"
         stop-color="#000000"
         id="stop21" />
    </linearGradient>
  </defs>
  <g
     id="Document"
     font-size="16"
     transform="matrix(1,0,0,-1,-464.319,-215.57205)"
     style="font-size:16px;font-family:'Times New Roman';fill:none;stroke:#000000">
    <g
       id="Spread"
       transform="translate(0,-841.891)">
      <g
         id="Layer 1">
        <path
           d="m 464.319,626.319 18,0 0,-18 -18,0 0,18 z"
           stroke-miterlimit="79.8403193612775"
           id="path26"
           inkscape:connector-curvature="0"
           style="stroke:none;stroke-width:0.40700001;stroke-linejoin:miter;stroke-miterlimit:79.84031677;marker-start:none;marker-end:none" />
        <path
           d="m 465.819,612.069 6,11.25 c 0.75,1.5 2.25,1.5 3,0 l 6,-11.25 c 0.424,-0.795 0.75,-2.25 -1.5,-2.25 l -12,0 c -2.25,0 -1.924,1.455 -1.5,2.25 z"
           stroke-miterlimit="79.8403193612775"
           id="path28"
           inkscape:connector-curvature="0"
           style="fill:#c30000;stroke:none;stroke-width:0.5;stroke-linejoin:round;stroke-miterlimit:79.84031677;marker-start:none;marker-end:none" />
        <path
           d="m 467.319,610.569 c -0.991,0 -1.038,0.303 -1.038,0.303 -0.051,0.16 0.008,0.485 0.199,0.844 l 6.005,11.258 c 0.473,0.947 1.19,0.955 1.667,0 l 6.005,-11.258 c 0.191,-0.359 0.25,-0.684 0.199,-0.844 0,0 -0.047,-0.303 -1.037,-0.303 l -12,0 z"
           stroke-miterlimit="79.8403193612775"
           id="path30"
           inkscape:connector-curvature="0"
           style="fill:url(#LinearGradient);stroke:none;stroke-width:0.75;stroke-linejoin:round;stroke-miterlimit:79.84031677;marker-start:none;marker-end:none" />
        <mask
           id="TranspMask">
          <rect
             x="-59.527702"
             y="-84.189102"
             width="714.33246"
             height="1010.2692"
             id="rect33"
             style="fill:url(#LinearGradient_1);stroke:none" />
        </mask>
        <path
           d="m 469.468,617.319 3.017,5.655 c 0.473,0.947 1.19,0.955 1.667,0 l 3.016,-5.655 -7.7,0 z"
           stroke-miterlimit="79.8403193612775"
           mask="url(#TranspMask)"
           id="path35"
           inkscape:connector-curvature="0"
           style="fill:#ffffff;stroke:none;stroke-width:0.5;stroke-linejoin:miter;stroke-miterlimit:79.84031677;marker-start:none;marker-end:none" />
        <mask
           id="TranspMask_1">
          <rect
             x="-59.527702"
             y="-84.189102"
             width="714.33246"
             height="1010.2692"
             id="rect38"
             style="fill:url(#LinearGradient_2);stroke:none" />
        </mask>
        <path
           d="m 473.319,611.319 c -0.83,0 -1.5,0.672 -1.5,1.5 0,0.411 0.167,0.786 0.438,1.058 l 0.096,0.087 -0.073,0.067 c -0.279,0.279 -0.461,0.654 -0.461,1.038 l 0,4.5 c 0,0.768 0.732,1.5 1.5,1.5 0.768,0 1.5,-0.733 1.5,-1.5 l 0,-4.5 c 0,-0.385 -0.184,-0.76 -0.463,-1.039 l -0.072,-0.066 0.094,-0.086 c 0.272,-0.272 0.441,-0.646 0.441,-1.059 0,-0.829 -0.674,-1.5 -1.5,-1.5 z"
           stroke-miterlimit="79.8403193612775"
           mask="url(#TranspMask_1)"
           id="path40"
           inkscape:connector-curvature="0"
           style="fill:#cc0000;stroke:none;stroke-width:0.5;stroke-linejoin:round;stroke-miterlimit:79.84031677;marker-start:none;marker-end:none" />
        <g
           id="Group"
           stroke-miterlimit="79.8403193612775"
           style="fill:#ffffff;stroke:none;stroke-width:0.5;stroke-linejoin:round;stroke-miterlimit:79.84031677">
          <path
             d="m 473.319,612.069 c -0.415,0 -0.75,0.336 -0.75,0.75 0,0.411 0.335,0.749 0.75,0.749 0.413,0 0.75,-0.337 0.75,-0.749 0,-0.414 -0.337,-0.75 -0.75,-0.75 z"
             id="path43"
             inkscape:connector-curvature="0"
             style="marker-start:none;marker-end:none" />
          <path
             d="m 472.569,619.569 c 0,0.353 0.397,0.75 0.75,0.75 0.353,0 0.75,-0.397 0.75,-0.75 l 0,-4.5 c 0,-0.353 -0.397,-0.75 -0.75,-0.75 -0.353,0 -0.75,0.397 -0.75,0.75 l 0,4.5 z"
             id="path45"
             inkscape:connector-curvature="0"
             style="marker-start:none;marker-end:none" />
        </g>
      </g>
    </g>
  </g>
</svg>
