<?xml version="1.0" encoding="UTF-8" standalone="no"?>
<!--Generator: Xara Designer (www.xara.com), SVG filter version: 6.0.0.4-->

<svg
   xmlns:dc="http://purl.org/dc/elements/1.1/"
   xmlns:cc="http://creativecommons.org/ns#"
   xmlns:rdf="http://www.w3.org/1999/02/22-rdf-syntax-ns#"
   xmlns:svg="http://www.w3.org/2000/svg"
   xmlns="http://www.w3.org/2000/svg"
   xmlns:sodipodi="http://sodipodi.sourceforge.net/DTD/sodipodi-0.dtd"
   xmlns:inkscape="http://www.inkscape.org/namespaces/inkscape"
   version="1.1"
   overflow="visible"
   width="18pt"
   height="17.999998pt"
   viewBox="0 0 18.000001 17.999998"
   id="svg2"
   inkscape:version="0.91 r13725"
   sodipodi:docname="feed-rss-atom.svg"
   style="overflow:visible;fill-rule:evenodd;stroke-width:0.50099999;stroke-linejoin:bevel">
  <metadata
     id="metadata51">
    <rdf:RDF>
      <cc:Work
         rdf:about="">
        <dc:format>image/svg+xml</dc:format>
        <dc:type
           rdf:resource="http://purl.org/dc/dcmitype/StillImage" />
        <dc:title></dc:title>
      </cc:Work>
    </rdf:RDF>
  </metadata>
  <sodipodi:namedview
     pagecolor="#ffffff"
     bordercolor="#666666"
     borderopacity="1"
     objecttolerance="10"
     gridtolerance="10"
     guidetolerance="10"
     inkscape:pageopacity="0"
     inkscape:pageshadow="2"
     inkscape:window-width="640"
     inkscape:window-height="480"
     id="namedview49"
     showgrid="false"
     fit-margin-top="0"
     fit-margin-left="0"
     fit-margin-right="0"
     fit-margin-bottom="0"
     inkscape:zoom="7.176226"
     inkscape:cx="20.065086"
     inkscape:cy="7.9007128"
     inkscape:window-x="0"
     inkscape:window-y="0"
     inkscape:window-maximized="0"
     inkscape:current-layer="svg2" />
  <defs
     id="defs4">
    <linearGradient
       id="LinearGradient"
       gradientUnits="userSpaceOnUse"
       x1="0"
       y1="0"
       x2="0"
       y2="-18"
       gradientTransform="translate(481.57,626.318)">
      <stop
         offset="0"
         stop-color="#ffffff"
         id="stop7" />
      <stop
         offset="0.500999987125397"
         stop-color="#f57900"
         id="stop9" />
      <stop
         offset="1"
         stop-color="#ffffff"
         id="stop11" />
    </linearGradient>
    <linearGradient
       id="LinearGradient_1"
       gradientUnits="userSpaceOnUse"
       x1="0"
       y1="0"
       x2="0"
       y2="9"
       gradientTransform="translate(481.57,617.318)">
      <stop
         offset="0"
         stop-color="#333333"
         id="stop14" />
      <stop
         offset="1"
         stop-color="#ffffff"
         id="stop16" />
    </linearGradient>
    <linearGradient
       id="LinearGradient_2"
       gradientUnits="userSpaceOnUse"
       x1="0"
       y1="0"
       x2="0"
       y2="9"
       gradientTransform="translate(481.57,617.318)">
      <stop
         offset="0"
         stop-color="#bfbfbf"
         id="stop19" />
      <stop
         offset="1"
         stop-color="#000000"
         id="stop21" />
    </linearGradient>
  </defs>
  <g
     id="Document"
     font-size="16"
     transform="matrix(1,0,0,-1,-464.319,-215.57205)"
     style="font-size:16px;font-family:'Times New Roman';fill:none;stroke:#000000">
    <g
       id="Spread"
       transform="translate(0,-841.891)">
      <g
         id="opaque">
        <path
           d="m 482.319,626.319 0,-18 -18,0 0,18 18,0 z"
           stroke-miterlimit="79.8403193612775"
           id="path26"
           inkscape:connector-curvature="0"
           style="stroke:none;stroke-width:0.40700001;stroke-linejoin:miter;stroke-miterlimit:79.84031677;marker-start:none;marker-end:none" />
      </g>
      <g
         id="Layer 1">
        <path
           d="m 465.07,622.568 0,-10.5 c 0,-1.06 1.19,-2.25 2.25,-2.25 l 10.501,0 c 1.059,0 2.249,1.19 2.249,2.25 l 0,10.5 c 0,1.06 -1.19,2.25 -2.25,2.249 l -10.5,10e-4 c -1.06,0 -2.25,-1.19 -2.25,-2.25 z"
           stroke-miterlimit="79.8403193612775"
           id="path29"
           inkscape:connector-curvature="0"
           style="fill:#e47100;stroke:none;stroke-width:0.5;stroke-linejoin:round;stroke-miterlimit:79.84031677;marker-start:none;marker-end:none" />
        <path
           d="m 467.32,610.568 c -0.642,0 -1.5,0.854 -1.5,1.5 l 0,10.5 c 0,0.641 0.854,1.5 1.5,1.5 l 10.5,0 c 0.641,0 1.5,-0.855 1.5,-1.5 l 0,-10.5 c 0,-0.642 -0.855,-1.5 -1.5,-1.5 l -10.5,0 z"
           stroke-miterlimit="79.8403193612775"
           id="path31"
           inkscape:connector-curvature="0"
           style="fill:url(#LinearGradient);stroke:none;stroke-width:0.75;stroke-linejoin:round;stroke-miterlimit:79.84031677;marker-start:none;marker-end:none" />
        <mask
           id="TranspMask">
          <rect
             x="-59.527702"
             y="-84.189102"
             width="714.33246"
             height="1010.2692"
             id="rect34"
             style="fill:url(#LinearGradient_1);stroke:none" />
        </mask>
        <path
           d="m 465.82,617.318 0,5.25 c 0,0.641 0.854,1.5 1.5,1.5 l 10.5,0 c 0.641,0 1.5,-0.855 1.5,-1.5 l 0,-5.25 -13.5,0 z"
           stroke-miterlimit="79.8403193612775"
           mask="url(#TranspMask)"
           id="path36"
           inkscape:connector-curvature="0"
           style="fill:#ffffff;stroke:none;stroke-width:0.5;stroke-linejoin:miter;stroke-miterlimit:79.84031677;marker-start:none;marker-end:none" />
        <mask
           id="TranspMask_1">
          <rect
             x="-59.527702"
             y="-84.189102"
             width="714.33246"
             height="1010.2692"
             id="rect39"
             style="fill:url(#LinearGradient_2);stroke:none" />
        </mask>
        <path
           d="m 468.82,611.318 c -1.241,0 -2.25,1.007 -2.25,2.25 0,1.086 0.772,1.994 1.797,2.204 l 0.191,0.029 -0.104,0.008 c -0.122,0.006 -0.251,0.009 -0.384,0.009 -0.802,0 -1.5,0.743 -1.5,1.5 l 0,0.75 c 0,0.768 0.732,1.5 1.5,1.5 -0.802,0 -1.5,0.746 -1.5,1.5 l 0,0.75 c 0,0.768 0.732,1.5 1.5,1.5 6.415,0 10.5,-4.086 10.5,-10.5 0,-0.769 -0.733,-1.5 -1.5,-1.5 l -0.75,0 c -0.756,0 -1.5,0.697 -1.5,1.5 0,-0.769 -0.733,-1.5 -1.5,-1.5 l -0.75,0 c -0.756,0 -1.5,0.7 -1.5,1.5 0,0.173 -0.006,0.335 -0.016,0.487 l -10e-4,0.008 -0.031,-0.199 c -0.209,-1.026 -1.117,-1.796 -2.202,-1.796 z"
           stroke-miterlimit="79.8403193612775"
           mask="url(#TranspMask_1)"
           id="path41"
           inkscape:connector-curvature="0"
           style="fill:#f57900;stroke:none;stroke-width:0.5;stroke-linejoin:round;stroke-miterlimit:79.84031677;stroke-opacity:0.49803904;marker-start:none;marker-end:none" />
        <path
           d="m 468.82,615.068 c 0.826,0 1.499,-0.672 1.499,-1.5 0,-0.828 -0.673,-1.5 -1.499,-1.5 -0.827,0 -1.5,0.672 -1.5,1.5 0,0.828 0.673,1.5 1.5,1.5 z"
           stroke-miterlimit="79.8403193612775"
           id="path43"
           inkscape:connector-curvature="0"
           style="fill:#ffffff;stroke:none;stroke-width:0.5;stroke-linejoin:round;stroke-miterlimit:79.84031677;marker-start:none;marker-end:none" />
        <path
           d="m 468.07,616.568 c 2.25,0 3.75,-0.75 3.75,-3.75 0,-0.375 0.397,-0.75 0.75,-0.75 l 0.75,0 c 0.353,0 0.75,0.397 0.75,0.75 0,3.75 -1.5,6 -6,6 -0.353,0 -0.75,-0.397 -0.75,-0.75 l 0,-0.75 c 0,-0.353 0.375,-0.75 0.75,-0.75 z"
           stroke-miterlimit="79.8403193612775"
           id="path45"
           inkscape:connector-curvature="0"
           style="fill:#ffffff;stroke:none;stroke-width:0.5;stroke-linejoin:round;stroke-miterlimit:79.84031677;marker-start:none;marker-end:none" />
        <path
           d="m 468.07,620.318 c 5.25,0 7.5,-3 7.5,-7.5 0,-0.375 0.397,-0.75 0.75,-0.75 l 0.75,0 c 0.353,0 0.75,0.397 0.75,0.75 0,6 -3.75,9.75 -9.75,9.75 -0.353,0 -0.751,-0.397 -0.75,-0.75 l 0,-0.75 c 0,-0.353 0.375,-0.75 0.75,-0.75 z"
           stroke-miterlimit="79.8403193612775"
           id="path47"
           inkscape:connector-curvature="0"
           style="fill:#ffffff;stroke:none;stroke-width:0.5;stroke-linejoin:round;stroke-miterlimit:79.84031677;marker-start:none;marker-end:none" />
      </g>
    </g>
  </g>
</svg>
