<?xml version="1.0" encoding="UTF-8" standalone="no"?>
<!--Generator: Xara Designer (www.xara.com), SVG filter version: 6.0.0.4-->

<svg
   xmlns:dc="http://purl.org/dc/elements/1.1/"
   xmlns:cc="http://creativecommons.org/ns#"
   xmlns:rdf="http://www.w3.org/1999/02/22-rdf-syntax-ns#"
   xmlns:svg="http://www.w3.org/2000/svg"
   xmlns="http://www.w3.org/2000/svg"
   xmlns:sodipodi="http://sodipodi.sourceforge.net/DTD/sodipodi-0.dtd"
   xmlns:inkscape="http://www.inkscape.org/namespaces/inkscape"
   version="1.1"
   overflow="visible"
   width="18pt"
   height="17.999998pt"
   viewBox="0 0 18.000001 17.999998"
   id="svg2"
   inkscape:version="0.91 r13725"
   sodipodi:docname="film-video-movie.svg"
   style="overflow:visible;fill-rule:evenodd;stroke-width:0.50099999;stroke-linejoin:bevel">
  <metadata
     id="metadata67">
    <rdf:RDF>
      <cc:Work
         rdf:about="">
        <dc:format>image/svg+xml</dc:format>
        <dc:type
           rdf:resource="http://purl.org/dc/dcmitype/StillImage" />
        <dc:title></dc:title>
      </cc:Work>
    </rdf:RDF>
  </metadata>
  <sodipodi:namedview
     pagecolor="#ffffff"
     bordercolor="#666666"
     borderopacity="1"
     objecttolerance="10"
     gridtolerance="10"
     guidetolerance="10"
     inkscape:pageopacity="0"
     inkscape:pageshadow="2"
     inkscape:window-width="640"
     inkscape:window-height="480"
     id="namedview65"
     showgrid="false"
     fit-margin-top="0"
     fit-margin-left="0"
     fit-margin-right="0"
     fit-margin-bottom="0"
     inkscape:zoom="3.588113"
     inkscape:cx="0.86915053"
     inkscape:cy="14.371238"
     inkscape:window-x="0"
     inkscape:window-y="0"
     inkscape:window-maximized="0"
     inkscape:current-layer="svg2" />
  <defs
     id="defs4">
    <linearGradient
       id="LinearGradient"
       gradientUnits="userSpaceOnUse"
       x1="0"
       y1="0"
       x2="0"
       y2="9"
       gradientTransform="translate(482.318,617.318)">
      <stop
         offset="0"
         stop-color="#333333"
         id="stop7" />
      <stop
         offset="1"
         stop-color="#808080"
         id="stop9" />
    </linearGradient>
    <linearGradient
       id="LinearGradient_1"
       gradientUnits="userSpaceOnUse"
       x1="0"
       y1="0"
       x2="0"
       y2="-12"
       gradientTransform="translate(473.318,624.068)">
      <stop
         offset="0"
         stop-color="#729fcf"
         id="stop12" />
      <stop
         offset="1"
         stop-color="#73d216"
         id="stop14" />
    </linearGradient>
    <linearGradient
       id="LinearGradient_2"
       gradientUnits="userSpaceOnUse"
       x1="0"
       y1="0"
       x2="0"
       y2="-10.5"
       gradientTransform="translate(473.318,622.568)">
      <stop
         offset="0"
         stop-color="#729fcf"
         id="stop17" />
      <stop
         offset="1"
         stop-color="#73d216"
         id="stop19" />
    </linearGradient>
  </defs>
  <g
     id="Document"
     font-size="16"
     transform="matrix(1,0,0,-1,-464.319,-215.57205)"
     style="font-size:16px;font-family:'Times New Roman';fill:none;stroke:#000000">
    <g
       id="Spread"
       transform="translate(0,-841.891)">
      <g
         id="Layer 1">
        <path
           d="m 467.318,624.81 c -0.353,0 -0.75,-0.396 -0.75,-0.749 l 0,-12.75 c 0,-0.353 0.397,-0.751 0.75,-0.751 l 12,0 c 0.353,0 0.75,0.398 0.75,0.751 l 0,12.75 c 0,0.353 -0.397,0.749 -0.75,0.749 l -12,0 z"
           stroke-miterlimit="79.8403193612775"
           id="path24"
           inkscape:connector-curvature="0"
           style="fill:#2e3436;fill-opacity:0.89803898;stroke:none;stroke-width:0.5;stroke-linejoin:miter;stroke-miterlimit:79.84031677;stroke-opacity:0.89803898;marker-start:none;marker-end:none" />
        <mask
           id="TranspMask">
          <rect
             x="-59.527702"
             y="-84.189102"
             width="714.33246"
             height="1010.2692"
             id="rect27"
             style="fill:url(#LinearGradient);stroke:none" />
        </mask>
        <path
           d="m 466.568,617.318 0,6.75 c 0,0.353 0.397,0.75 0.75,0.75 l 12,0 c 0.353,0 0.75,-0.397 0.75,-0.75 l 0,-6.75 -13.5,0 z"
           stroke-miterlimit="79.8403193612775"
           mask="url(#TranspMask)"
           id="path29"
           inkscape:connector-curvature="0"
           style="fill:#ffffff;stroke:none;stroke-width:0.5;stroke-linejoin:miter;stroke-miterlimit:79.84031677;marker-start:none;marker-end:none" />
        <path
           d="m 470.318,623.318 c -0.353,0 -0.75,-0.397 -0.75,-0.75 l 0,-3.75 c 0,-0.353 0.397,-0.75 0.75,-0.75 l 6,0 c 0.353,0 0.75,0.397 0.75,0.75 l 0,3.75 c 0,0.353 -0.397,0.75 -0.75,0.75 l -6,0 z"
           stroke-miterlimit="79.8403193612775"
           id="path31"
           inkscape:connector-curvature="0"
           style="fill:#ffffff;fill-opacity:0.8;stroke:none;stroke-width:0.5;stroke-linejoin:round;stroke-miterlimit:79.84031677;stroke-opacity:0.8;marker-start:none;marker-end:none" />
        <path
           d="m 470.373,618.818 -0.055,0.055 0,3.639 0.056,0.056 5.887,0 0.057,-0.057 0,-3.637 -0.056,-0.056 -5.889,0 z"
           stroke-miterlimit="79.8403193612775"
           id="path33"
           inkscape:connector-curvature="0"
           style="fill:url(#LinearGradient_1);stroke:none;stroke-width:0.5;stroke-linejoin:round;stroke-miterlimit:79.84031677;marker-start:none;marker-end:none" />
        <path
           d="m 468.069,624.068 c -0.75,0 -0.75,0 -0.75,-0.75 0,-0.75 0,-0.75 0.75,-0.75 0.75,0 0.75,0 0.75,0.75 0,0.75 0,0.75 -0.75,0.75 z"
           stroke-miterlimit="79.8403193612775"
           id="path35"
           inkscape:connector-curvature="0"
           style="fill:#ffffff;stroke:none;stroke-width:0.5;stroke-linejoin:miter;stroke-miterlimit:79.84031677;marker-start:none;marker-end:none" />
        <path
           d="m 468.069,621.818 c -0.75,0 -0.75,0 -0.75,-0.75 0,-0.75 0,-0.75 0.75,-0.75 0.75,0 0.75,0 0.75,0.75 0,0.75 0,0.75 -0.75,0.75 z"
           stroke-miterlimit="79.8403193612775"
           id="path37"
           inkscape:connector-curvature="0"
           style="fill:#ffffff;stroke:none;stroke-width:0.5;stroke-linejoin:miter;stroke-miterlimit:79.84031677;marker-start:none;marker-end:none" />
        <path
           d="m 468.069,619.568 c -0.75,0 -0.75,0 -0.75,-0.75 0,-0.75 0,-0.75 0.75,-0.75 0.75,0 0.75,0 0.75,0.75 0,0.75 0,0.75 -0.75,0.75 z"
           stroke-miterlimit="79.8403193612775"
           id="path39"
           inkscape:connector-curvature="0"
           style="fill:#ffffff;stroke:none;stroke-width:0.5;stroke-linejoin:miter;stroke-miterlimit:79.84031677;marker-start:none;marker-end:none" />
        <path
           d="m 468.069,617.318 c -0.75,0 -0.75,0 -0.75,-0.75 0,-0.75 0,-0.75 0.75,-0.75 0.75,0 0.75,0 0.75,0.75 0,0.75 0,0.75 -0.75,0.75 z"
           stroke-miterlimit="79.8403193612775"
           id="path41"
           inkscape:connector-curvature="0"
           style="fill:#ffffff;stroke:none;stroke-width:0.5;stroke-linejoin:miter;stroke-miterlimit:79.84031677;marker-start:none;marker-end:none" />
        <path
           d="m 468.069,615.068 c -0.75,0 -0.75,0 -0.75,-0.75 0,-0.75 0,-0.75 0.75,-0.75 0.75,0 0.75,0 0.75,0.75 0,0.75 0,0.75 -0.75,0.75 z"
           stroke-miterlimit="79.8403193612775"
           id="path43"
           inkscape:connector-curvature="0"
           style="fill:#ffffff;stroke:none;stroke-width:0.5;stroke-linejoin:miter;stroke-miterlimit:79.84031677;marker-start:none;marker-end:none" />
        <path
           d="m 478.569,624.068 c -0.75,0 -0.75,0 -0.75,-0.75 0,-0.75 0,-0.75 0.75,-0.75 0.75,0 0.75,0 0.75,0.75 0,0.75 0,0.75 -0.75,0.75 z"
           stroke-miterlimit="79.8403193612775"
           id="path45"
           inkscape:connector-curvature="0"
           style="fill:#ffffff;stroke:none;stroke-width:0.5;stroke-linejoin:miter;stroke-miterlimit:79.84031677;marker-start:none;marker-end:none" />
        <path
           d="m 478.569,621.818 c -0.75,0 -0.75,0 -0.75,-0.75 0,-0.75 0,-0.75 0.75,-0.75 0.75,0 0.75,0 0.75,0.75 0,0.75 0,0.75 -0.75,0.75 z"
           stroke-miterlimit="79.8403193612775"
           id="path47"
           inkscape:connector-curvature="0"
           style="fill:#ffffff;stroke:none;stroke-width:0.5;stroke-linejoin:miter;stroke-miterlimit:79.84031677;marker-start:none;marker-end:none" />
        <path
           d="m 478.569,619.568 c -0.75,0 -0.75,0 -0.75,-0.75 0,-0.75 0,-0.75 0.75,-0.75 0.75,0 0.75,0 0.75,0.75 0,0.75 0,0.75 -0.75,0.75 z"
           stroke-miterlimit="79.8403193612775"
           id="path49"
           inkscape:connector-curvature="0"
           style="fill:#ffffff;stroke:none;stroke-width:0.5;stroke-linejoin:miter;stroke-miterlimit:79.84031677;marker-start:none;marker-end:none" />
        <path
           d="m 478.569,617.318 c -0.75,0 -0.75,0 -0.75,-0.75 0,-0.75 0,-0.75 0.75,-0.75 0.75,0 0.75,0 0.75,0.75 0,0.75 0,0.75 -0.75,0.75 z"
           stroke-miterlimit="79.8403193612775"
           id="path51"
           inkscape:connector-curvature="0"
           style="fill:#ffffff;stroke:none;stroke-width:0.5;stroke-linejoin:miter;stroke-miterlimit:79.84031677;marker-start:none;marker-end:none" />
        <path
           d="m 478.569,615.068 c -0.75,0 -0.75,0 -0.75,-0.75 0,-0.75 0,-0.75 0.75,-0.75 0.75,0 0.75,0 0.75,0.75 0,0.75 0,0.75 -0.75,0.75 z"
           stroke-miterlimit="79.8403193612775"
           id="path53"
           inkscape:connector-curvature="0"
           style="fill:#ffffff;stroke:none;stroke-width:0.5;stroke-linejoin:miter;stroke-miterlimit:79.84031677;marker-start:none;marker-end:none" />
        <path
           d="m 478.568,612.818 c -0.75,0 -0.75,0 -0.75,-0.75 0,-0.75 0,-0.75 0.75,-0.75 0.75,0 0.75,0 0.75,0.75 0,0.75 0,0.75 -0.75,0.75 z"
           stroke-miterlimit="79.8403193612775"
           id="path55"
           inkscape:connector-curvature="0"
           style="fill:#ffffff;stroke:none;stroke-width:0.5;stroke-linejoin:miter;stroke-miterlimit:79.84031677;marker-start:none;marker-end:none" />
        <path
           d="m 468.068,612.818 c -0.75,0 -0.75,0 -0.75,-0.75 0,-0.75 0,-0.75 0.75,-0.75 0.75,0 0.75,0 0.75,0.75 0,0.75 0,0.75 -0.75,0.75 z"
           stroke-miterlimit="79.8403193612775"
           id="path57"
           inkscape:connector-curvature="0"
           style="fill:#ffffff;stroke:none;stroke-width:0.5;stroke-linejoin:miter;stroke-miterlimit:79.84031677;marker-start:none;marker-end:none" />
        <path
           d="m 482.319,626.319 0,-18 -18,0 0,18 18,0 z"
           stroke-miterlimit="79.8403193612775"
           id="path59"
           inkscape:connector-curvature="0"
           style="stroke:none;stroke-width:0.40700001;stroke-linejoin:miter;stroke-miterlimit:79.84031677;marker-start:none;marker-end:none" />
        <path
           d="m 470.318,616.568 c -0.353,0 -0.75,-0.397 -0.75,-0.75 l 0,-3.75 c 0,-0.353 0.397,-0.75 0.75,-0.75 l 6,0 c 0.353,0 0.75,0.397 0.75,0.75 l 0,3.75 c 0,0.353 -0.397,0.75 -0.75,0.75 l -6,0 z"
           stroke-miterlimit="79.8403193612775"
           id="path61"
           inkscape:connector-curvature="0"
           style="fill:#ffffff;fill-opacity:0.8;stroke:none;stroke-width:0.5;stroke-linejoin:round;stroke-miterlimit:79.84031677;stroke-opacity:0.8;marker-start:none;marker-end:none" />
        <path
           d="m 470.373,612.068 -0.055,0.055 0,3.639 0.056,0.056 5.887,0 0.057,-0.057 0,-3.637 -0.056,-0.056 -5.889,0 z"
           stroke-miterlimit="79.8403193612775"
           id="path63"
           inkscape:connector-curvature="0"
           style="fill:url(#LinearGradient_2);stroke:none;stroke-width:0.5;stroke-linejoin:round;stroke-miterlimit:79.84031677;marker-start:none;marker-end:none" />
      </g>
    </g>
  </g>
</svg>
