<?xml version="1.0" encoding="UTF-8" standalone="no"?>
<!--Generator: Xara Designer (www.xara.com), SVG filter version: 6.0.0.4-->

<svg
   xmlns:dc="http://purl.org/dc/elements/1.1/"
   xmlns:cc="http://creativecommons.org/ns#"
   xmlns:rdf="http://www.w3.org/1999/02/22-rdf-syntax-ns#"
   xmlns:svg="http://www.w3.org/2000/svg"
   xmlns="http://www.w3.org/2000/svg"
   xmlns:sodipodi="http://sodipodi.sourceforge.net/DTD/sodipodi-0.dtd"
   xmlns:inkscape="http://www.inkscape.org/namespaces/inkscape"
   version="1.1"
   overflow="visible"
   width="18pt"
   height="17.999998pt"
   viewBox="0 0 18.000001 17.999998"
   id="svg2"
   inkscape:version="0.91 r13725"
   sodipodi:docname="folder-flat-inactive-star-bookmarks.svg"
   style="overflow:visible;fill-rule:evenodd;stroke-width:0.50099999;stroke-linejoin:bevel">
  <metadata
     id="metadata66">
    <rdf:RDF>
      <cc:Work
         rdf:about="">
        <dc:format>image/svg+xml</dc:format>
        <dc:type
           rdf:resource="http://purl.org/dc/dcmitype/StillImage" />
        <dc:title></dc:title>
      </cc:Work>
    </rdf:RDF>
  </metadata>
  <sodipodi:namedview
     pagecolor="#ffffff"
     bordercolor="#666666"
     borderopacity="1"
     objecttolerance="10"
     gridtolerance="10"
     guidetolerance="10"
     inkscape:pageopacity="0"
     inkscape:pageshadow="2"
     inkscape:window-width="640"
     inkscape:window-height="480"
     id="namedview64"
     showgrid="false"
     fit-margin-top="0"
     fit-margin-left="0"
     fit-margin-right="0"
     fit-margin-bottom="0"
     inkscape:zoom="3.588113"
     inkscape:cx="3.7169578"
     inkscape:cy="18.277816"
     inkscape:window-x="0"
     inkscape:window-y="0"
     inkscape:window-maximized="0"
     inkscape:current-layer="svg2" />
  <defs
     id="defs4">
    <linearGradient
       id="LinearGradient"
       gradientUnits="userSpaceOnUse"
       x1="0"
       y1="0"
       x2="0"
       y2="-9"
       gradientTransform="translate(480.817,624.818)">
      <stop
         offset="0"
         stop-color="#ffffff"
         id="stop7" />
      <stop
         offset="0.500999987125397"
         stop-color="#e2e8ed"
         id="stop9" />
      <stop
         offset="1"
         stop-color="#ffffff"
         id="stop11" />
    </linearGradient>
    <linearGradient
       id="LinearGradient_1"
       gradientUnits="userSpaceOnUse"
       x1="0"
       y1="0"
       x2="0"
       y2="-9"
       gradientTransform="translate(480.817,621.818)">
      <stop
         offset="0"
         stop-color="#ffffff"
         id="stop14" />
      <stop
         offset="0.500999987125397"
         stop-color="#e2e8ed"
         id="stop16" />
      <stop
         offset="1"
         stop-color="#ffffff"
         id="stop18" />
    </linearGradient>
    <linearGradient
       id="LinearGradient_2"
       gradientUnits="userSpaceOnUse"
       x1="0"
       y1="0"
       x2="0"
       y2="4.5"
       gradientTransform="translate(481.567,617.318)">
      <stop
         offset="0"
         stop-color="#333333"
         id="stop21" />
      <stop
         offset="1"
         stop-color="#ffffff"
         id="stop23" />
    </linearGradient>
    <linearGradient
       id="LinearGradient_3"
       gradientUnits="userSpaceOnUse"
       x1="0"
       y1="0"
       x2="0"
       y2="-12"
       gradientTransform="translate(481.569,621.068)">
      <stop
         offset="0"
         stop-color="#ffffff"
         id="stop26" />
      <stop
         offset="0.500999987125397"
         stop-color="#edd400"
         id="stop28" />
      <stop
         offset="1"
         stop-color="#ffffff"
         id="stop30" />
    </linearGradient>
    <linearGradient
       id="LinearGradient_4"
       gradientUnits="userSpaceOnUse"
       x1="0"
       y1="0"
       x2="0"
       y2="3.75"
       gradientTransform="translate(483.069,614.318)">
      <stop
         offset="0"
         stop-color="#333333"
         id="stop33" />
      <stop
         offset="1"
         stop-color="#ffffff"
         id="stop35" />
    </linearGradient>
  </defs>
  <g
     id="Document"
     font-size="16"
     transform="matrix(1,0,0,-1,-464.319,-215.57205)"
     style="font-size:16px;font-family:'Times New Roman';fill:none;stroke:#000000">
    <g
       id="Spread"
       transform="translate(0,-841.891)">
      <g
         id="Layer 1">
        <path
           d="m 482.319,626.319 0,-18 -18,0 0,18 18,0 z"
           stroke-miterlimit="79.8403193612775"
           id="path40"
           inkscape:connector-curvature="0"
           style="stroke:none;stroke-width:0.40700001;stroke-linejoin:miter;stroke-miterlimit:79.84031677;marker-start:none;marker-end:none" />
        <path
           d="m 465.069,624.068 -0.001,-11.258 15.001,0 0,10.508 c 0,0.353 -0.397,0.75 -0.75,0.75 l -7.5,0 c 0,0.75 -0.793,1.5 -1.5,1.5 l -3.75,0 c -0.707,0 -1.5,-0.793 -1.5,-1.5 z"
           stroke-miterlimit="79.8403193612775"
           id="path42"
           inkscape:connector-curvature="0"
           style="fill:#aaada5;stroke:none;stroke-width:0.5;stroke-linejoin:round;stroke-miterlimit:79.84031677;marker-start:none;marker-end:none" />
        <path
           d="m 465.818,613.56 0.001,10.507 c 0,0.287 0.459,0.751 0.75,0.751 l 3.75,0 c 0.299,0 0.75,-0.428 0.75,-0.75 0,-0.414 0.336,-0.75 0.75,-0.75 l 7.443,0 0.057,-0.057 0,-9.701 -13.501,0 z"
           stroke-miterlimit="79.8403193612775"
           id="path44"
           inkscape:connector-curvature="0"
           style="fill:url(#LinearGradient);stroke:none;stroke-width:0.75;stroke-linejoin:round;stroke-miterlimit:79.84031677;marker-start:none;marker-end:none" />
        <path
           d="m 465.068,612.81 15.001,0 -0.002,9.008 -15,0"
           stroke-miterlimit="79.8403193612775"
           id="path46"
           inkscape:connector-curvature="0"
           style="fill:#aaada5;stroke:none;stroke-width:0.5;stroke-linejoin:round;stroke-miterlimit:79.84031677" />
        <path
           d="m 465.818,613.567 13.501,0 -0.002,7.5 -13.5,0"
           stroke-miterlimit="79.8403193612775"
           id="path48"
           inkscape:connector-curvature="0"
           style="fill:url(#LinearGradient_1);stroke:none;stroke-width:0.75;stroke-linejoin:round;stroke-miterlimit:79.84031677" />
        <mask
           id="TranspMask">
          <rect
             x="-59.527702"
             y="-84.189102"
             width="714.33246"
             height="1010.2692"
             id="rect51"
             style="fill:url(#LinearGradient_2);stroke:none" />
        </mask>
        <path
           d="m 465.816,621.067 0,-3.749 13.501,0 0,3.749 -13.501,0 z"
           stroke-miterlimit="79.8403193612775"
           mask="url(#TranspMask)"
           id="path53"
           inkscape:connector-curvature="0"
           style="fill:#ffffff;stroke:none;stroke-width:0.5;stroke-linejoin:miter;stroke-miterlimit:79.84031677;marker-start:none;marker-end:none" />
        <path
           d="m 475.569,621.068 1.5,-4.5 4.5,0 -3.75,-3 1.5,-4.5 -3.75,3 -3.75,-3 1.5,4.5 -3.75,3 4.5,0 1.5,4.5 z"
           stroke-miterlimit="79.8403193612775"
           id="path55"
           inkscape:connector-curvature="0"
           style="fill:#b49302;stroke:none;stroke-width:0.18799999;stroke-linejoin:round;stroke-miterlimit:79.84031677;marker-start:none;marker-end:none" />
        <path
           d="m 473.333,611.239 0.697,2.091 c 0.099,0.298 0.002,0.627 -0.243,0.823 l -2.08,1.665 2.362,0 c 0.322,0 0.609,0.206 0.711,0.512 l 0.789,2.366 0.788,-2.366 c 0.102,-0.306 0.389,-0.512 0.712,-0.512 l 2.361,0 -2.08,-1.665 c -0.245,-0.196 -0.342,-0.525 -0.243,-0.823 l 0.696,-2.091 -1.766,1.414 c -0.274,0.219 -0.663,0.219 -0.937,0 l -1.767,-1.414 z"
           stroke-miterlimit="79.8403193612775"
           id="path57"
           inkscape:connector-curvature="0"
           style="fill:url(#LinearGradient_3);stroke:none;stroke-width:0.75;stroke-linejoin:round;stroke-miterlimit:79.84031677;marker-start:none;marker-end:none" />
        <mask
           id="TranspMask_1">
          <rect
             x="-59.527702"
             y="-84.189102"
             width="714.33246"
             height="1010.2692"
             id="rect60"
             style="fill:url(#LinearGradient_4);stroke:none" />
        </mask>
        <path
           d="m 472.642,615.069 -0.935,0.749 2.362,0 c 0.322,0 0.609,0.206 0.711,0.512 l 0.789,2.366 0.788,-2.366 c 0.102,-0.306 0.389,-0.512 0.712,-0.512 l 2.361,0 -0.936,-0.749 -5.852,0 z"
           stroke-miterlimit="79.8403193612775"
           mask="url(#TranspMask_1)"
           id="path62"
           inkscape:connector-curvature="0"
           style="fill:#ffffff;stroke:none;stroke-width:0.5;stroke-linejoin:miter;stroke-miterlimit:79.84031677;marker-start:none;marker-end:none" />
      </g>
    </g>
  </g>
</svg>
