<?xml version="1.0" encoding="UTF-8" standalone="no"?>
<!--Generator: Xara Designer (www.xara.com), SVG filter version: 6.0.0.4-->

<svg
   xmlns:dc="http://purl.org/dc/elements/1.1/"
   xmlns:cc="http://creativecommons.org/ns#"
   xmlns:rdf="http://www.w3.org/1999/02/22-rdf-syntax-ns#"
   xmlns:svg="http://www.w3.org/2000/svg"
   xmlns="http://www.w3.org/2000/svg"
   xmlns:sodipodi="http://sodipodi.sourceforge.net/DTD/sodipodi-0.dtd"
   xmlns:inkscape="http://www.inkscape.org/namespaces/inkscape"
   version="1.1"
   overflow="visible"
   width="18pt"
   height="17.999998pt"
   viewBox="0 0 18.000001 17.999998"
   id="svg2"
   inkscape:version="0.91 r13725"
   sodipodi:docname="gear-advanced-options.svg"
   style="overflow:visible;fill-rule:evenodd;stroke-width:0.50099999;stroke-linejoin:bevel">
  <metadata
     id="metadata35">
    <rdf:RDF>
      <cc:Work
         rdf:about="">
        <dc:format>image/svg+xml</dc:format>
        <dc:type
           rdf:resource="http://purl.org/dc/dcmitype/StillImage" />
        <dc:title></dc:title>
      </cc:Work>
    </rdf:RDF>
  </metadata>
  <sodipodi:namedview
     pagecolor="#ffffff"
     bordercolor="#666666"
     borderopacity="1"
     objecttolerance="10"
     gridtolerance="10"
     guidetolerance="10"
     inkscape:pageopacity="0"
     inkscape:pageshadow="2"
     inkscape:window-width="640"
     inkscape:window-height="480"
     id="namedview33"
     showgrid="false"
     fit-margin-top="0"
     fit-margin-left="0"
     fit-margin-right="0"
     fit-margin-bottom="0"
     inkscape:zoom="5.074358"
     inkscape:cx="4.5057475"
     inkscape:cy="5.2048545"
     inkscape:window-x="0"
     inkscape:window-y="0"
     inkscape:window-maximized="0"
     inkscape:current-layer="svg2" />
  <defs
     id="defs4">
    <linearGradient
       id="LinearGradient"
       gradientUnits="userSpaceOnUse"
       x1="0"
       y1="0"
       x2="0"
       y2="-18"
       gradientTransform="translate(482.32,626.318)">
      <stop
         offset="0"
         stop-color="#ffffff"
         id="stop7" />
      <stop
         offset="0.500999987125397"
         stop-color="#a3a4a3"
         id="stop9" />
      <stop
         offset="1"
         stop-color="#ffffff"
         id="stop11" />
    </linearGradient>
    <linearGradient
       id="LinearGradient_1"
       gradientUnits="userSpaceOnUse"
       x1="0"
       y1="0"
       x2="0"
       y2="6"
       gradientTransform="translate(482.32,617.318)">
      <stop
         offset="0"
         stop-color="#333333"
         id="stop14" />
      <stop
         offset="1"
         stop-color="#ffffff"
         id="stop16" />
    </linearGradient>
  </defs>
  <g
     id="Document"
     font-size="16"
     transform="matrix(1,0,0,-1,-464.319,-215.57205)"
     style="font-size:16px;font-family:'Times New Roman';fill:none;stroke:#000000">
    <g
       id="Spread"
       transform="translate(0,-841.891)">
      <g
         id="opaque">
        <path
           d="m 482.319,626.319 0,-18 -18,0 0,18 18,0 z"
           stroke-miterlimit="79.8403193612775"
           id="path21"
           inkscape:connector-curvature="0"
           style="stroke:none;stroke-width:0.40700001;stroke-linejoin:miter;stroke-miterlimit:79.84031677;marker-start:none;marker-end:none" />
      </g>
      <g
         id="Layer 1">
        <path
           d="m 473.32,609.818 c -0.259,0 -0.515,0.013 -0.767,0.038 l -0.38,0.058 -0.439,2.399 -0.458,0.167 -0.415,0.2 -1.993,-1.367 -0.851,0.702 -0.738,0.893 1.38,1.998 -0.178,0.369 c -0.066,0.157 -0.125,0.318 -0.176,0.482 l -0.003,0.01 -2.393,0.446 -0.052,0.338 c -0.025,0.252 -0.038,0.508 -0.038,0.767 0,0.258 0.013,0.514 0.038,0.766 l 0.058,0.379 2.399,0.439 0.167,0.458 0.19,0.393 -1.371,1.999 0.717,0.868 0.879,0.725 1.994,-1.378 0.386,0.187 0.468,0.171 0.447,2.398 0.362,0.056 c 0.252,0.025 0.508,0.039 0.767,0.039 0.258,0 0.514,-0.014 0.766,-0.039 l 0.353,-0.054 0.438,-2.394 0.003,-10e-4 c 0.164,-0.051 0.325,-0.11 0.482,-0.176 l 0.383,-0.185 2.002,1.374 0.876,-0.723 0.714,-0.865 -1.375,-1.991 0.195,-0.404 0.175,-0.48 2.396,-0.446 0.054,-0.35 c 0.025,-0.252 0.039,-0.508 0.039,-0.766 0,-0.259 -0.014,-0.515 -0.039,-0.767 l -0.055,-0.356 -2.394,-0.438 -0.176,-0.482 -0.197,-0.409 1.369,-1.995 -0.706,-0.856 -0.882,-0.727 -1.995,1.377 -0.384,-0.185 c -0.157,-0.066 -0.318,-0.125 -0.482,-0.176 l -0.021,-0.006 -0.445,-2.392 -0.328,-0.05 c -0.252,-0.025 -0.508,-0.038 -0.766,-0.038 z m -10e-4,5.249 c 1.242,0 2.25,1.008 2.25,2.251 0,1.242 -1.008,2.25 -2.25,2.25 -1.243,0 -2.251,-1.008 -2.251,-2.25 0,-1.243 1.008,-2.251 2.251,-2.251 z"
           stroke-miterlimit="79.8403193612775"
           id="path24"
           inkscape:connector-curvature="0"
           style="fill:#888a85;stroke:none;stroke-width:0.5;stroke-linejoin:round;stroke-miterlimit:79.84031677;marker-start:none;marker-end:none" />
        <path
           d="m 473.32,610.568 -0.51,0.024 -0.339,1.856 c -0.048,0.261 -0.231,0.478 -0.481,0.569 l -0.423,0.154 -0.381,0.184 c -0.242,0.117 -0.528,0.095 -0.75,-0.057 l -1.528,-1.048 -0.359,0.297 -0.331,0.401 1.058,1.531 c 0.153,0.222 0.176,0.509 0.058,0.752 l -0.165,0.341 -0.153,0.415 c -0.084,0.261 -0.304,0.455 -0.573,0.506 l -1.851,0.352 -0.023,0.473 0.024,0.506 1.856,0.34 c 0.261,0.048 0.478,0.231 0.569,0.481 l 0.154,0.422 0.174,0.359 c 0.117,0.242 0.095,0.529 -0.057,0.751 l -1.052,1.532 0.312,0.378 0.386,0.318 1.528,-1.056 c 0.222,-0.153 0.51,-0.175 0.753,-0.057 l 0.352,0.17 0.433,0.158 c 0.249,0.091 0.431,0.307 0.48,0.567 l 0.345,1.855 0.975,0.026 0.34,-1.873 c 0.05,-0.273 0.247,-0.496 0.512,-0.58 l 0.406,-0.149 0.359,-0.173 c 0.243,-0.117 0.529,-0.095 0.751,0.057 l 1.536,1.054 0.385,-0.317 0.306,-0.373 -1.052,-1.524 c -0.153,-0.222 -0.175,-0.51 -0.058,-0.753 l 0.179,-0.37 0.162,-0.444 c 0.091,-0.25 0.306,-0.432 0.567,-0.481 l 1.852,-0.345 0.025,-0.479 -0.026,-0.486 -1.847,-0.338 c -0.262,-0.048 -0.479,-0.23 -0.57,-0.48 l -0.163,-0.447 -0.181,-0.376 c -0.117,-0.242 -0.095,-0.528 0.057,-0.75 l 1.049,-1.53 -0.3,-0.364 -0.39,-0.321 -1.528,1.056 c -0.222,0.153 -0.509,0.175 -0.752,0.058 l -0.356,-0.172 -0.405,-0.144 c -0.271,-0.079 -0.475,-0.304 -0.527,-0.581 l -0.352,-1.853 -0.46,-0.022 z m -10e-4,3.749 c 1.656,0 3,1.344 3,3.001 0,1.656 -1.344,3 -3,3 -1.657,0 -3.001,-1.344 -3.001,-3 0,-1.658 1.343,-3.001 3.001,-3.001 z"
           stroke-miterlimit="79.8403193612775"
           id="path26"
           inkscape:connector-curvature="0"
           style="fill:url(#LinearGradient);stroke:none;stroke-width:0.75;stroke-linejoin:round;stroke-miterlimit:79.84031677;marker-start:none;marker-end:none" />
        <mask
           id="TranspMask">
          <rect
             x="-59.527702"
             y="-84.189102"
             width="714.33246"
             height="1010.2692"
             id="rect29"
             style="fill:url(#LinearGradient_1);stroke:none" />
        </mask>
        <path
           d="m 466.569,617.318 0.024,0.506 1.856,0.34 c 0.261,0.048 0.478,0.231 0.569,0.481 l 0.154,0.422 0.174,0.359 c 0.117,0.242 0.095,0.529 -0.057,0.751 l -1.052,1.532 0.312,0.378 0.386,0.318 1.528,-1.056 c 0.222,-0.153 0.51,-0.175 0.753,-0.057 l 0.352,0.17 0.433,0.158 c 0.249,0.091 0.431,0.307 0.48,0.567 l 0.345,1.855 0.975,0.026 0.34,-1.873 c 0.05,-0.273 0.247,-0.496 0.512,-0.58 l 0.406,-0.149 0.359,-0.173 c 0.243,-0.117 0.529,-0.095 0.751,0.057 l 1.536,1.054 0.385,-0.317 0.306,-0.373 -1.052,-1.524 c -0.153,-0.222 -0.175,-0.51 -0.058,-0.753 l 0.179,-0.37 0.162,-0.444 c 0.091,-0.25 0.306,-0.432 0.567,-0.481 l 1.852,-0.345 0.025,-0.479 -3.752,0 c 0,1.656 -1.344,3 -3,3 -1.657,0 -3.001,-1.344 -3.001,-3 l -3.749,0 z"
           stroke-miterlimit="79.8403193612775"
           mask="url(#TranspMask)"
           id="path31"
           inkscape:connector-curvature="0"
           style="fill:#ffffff;stroke:none;stroke-width:0.5;stroke-linejoin:miter;stroke-miterlimit:79.84031677;marker-start:none;marker-end:none" />
      </g>
    </g>
  </g>
</svg>
