<?xml version="1.0" encoding="UTF-8" standalone="no"?>
<!--Generator: Xara Designer (www.xara.com), SVG filter version: 6.0.0.4-->

<svg
   xmlns:dc="http://purl.org/dc/elements/1.1/"
   xmlns:cc="http://creativecommons.org/ns#"
   xmlns:rdf="http://www.w3.org/1999/02/22-rdf-syntax-ns#"
   xmlns:svg="http://www.w3.org/2000/svg"
   xmlns="http://www.w3.org/2000/svg"
   xmlns:sodipodi="http://sodipodi.sourceforge.net/DTD/sodipodi-0.dtd"
   xmlns:inkscape="http://www.inkscape.org/namespaces/inkscape"
   version="1.1"
   overflow="visible"
   width="18pt"
   height="17.999998pt"
   viewBox="0 0 18.000001 17.999998"
   id="svg2"
   inkscape:version="0.91 r13725"
   sodipodi:docname="information-sign.svg"
   style="overflow:visible;fill-rule:evenodd;stroke-width:0.50099999;stroke-linejoin:bevel">
  <metadata
     id="metadata52">
    <rdf:RDF>
      <cc:Work
         rdf:about="">
        <dc:format>image/svg+xml</dc:format>
        <dc:type
           rdf:resource="http://purl.org/dc/dcmitype/StillImage" />
        <dc:title></dc:title>
      </cc:Work>
    </rdf:RDF>
  </metadata>
  <sodipodi:namedview
     pagecolor="#ffffff"
     bordercolor="#666666"
     borderopacity="1"
     objecttolerance="10"
     gridtolerance="10"
     guidetolerance="10"
     inkscape:pageopacity="0"
     inkscape:pageshadow="2"
     inkscape:window-width="640"
     inkscape:window-height="480"
     id="namedview50"
     showgrid="false"
     fit-margin-top="0"
     fit-margin-left="0"
     fit-margin-right="0"
     fit-margin-bottom="0"
     inkscape:zoom="3.588113"
     inkscape:cx="9.7198638"
     inkscape:cy="17.567016"
     inkscape:window-x="0"
     inkscape:window-y="0"
     inkscape:window-maximized="0"
     inkscape:current-layer="svg2" />
  <defs
     id="defs4">
    <linearGradient
       id="LinearGradient"
       gradientUnits="userSpaceOnUse"
       x1="0"
       y1="0"
       x2="0"
       y2="-17.997999"
       gradientTransform="translate(482.318,626.317)">
      <stop
         offset="0"
         stop-color="#ffffff"
         id="stop7" />
      <stop
         offset="0.500999987125397"
         stop-color="#5185c8"
         id="stop9" />
      <stop
         offset="1"
         stop-color="#ffffff"
         id="stop11" />
    </linearGradient>
    <linearGradient
       id="LinearGradient_1"
       gradientUnits="userSpaceOnUse"
       x1="0"
       y1="0"
       x2="0"
       y2="8.9980001"
       gradientTransform="translate(482.318,617.32)">
      <stop
         offset="0"
         stop-color="#333333"
         id="stop14" />
      <stop
         offset="1"
         stop-color="#ffffff"
         id="stop16" />
    </linearGradient>
    <linearGradient
       id="LinearGradient_2"
       gradientUnits="userSpaceOnUse"
       x1="0"
       y1="0"
       x2="0"
       y2="9"
       gradientTransform="translate(482.319,617.319)">
      <stop
         offset="0"
         stop-color="#bfbfbf"
         id="stop19" />
      <stop
         offset="1"
         stop-color="#000000"
         id="stop21" />
    </linearGradient>
  </defs>
  <g
     id="Document"
     font-size="16"
     transform="matrix(1,0,0,-1,-464.319,-215.57205)"
     style="font-size:16px;font-family:'Times New Roman';fill:none;stroke:#000000">
    <g
       id="Spread"
       transform="translate(0,-841.891)">
      <g
         id="Layer 1">
        <path
           d="m 473.319,624.819 c 4.14,0 7.501,-3.36 7.501,-7.5 0,-4.14 -3.361,-7.5 -7.501,-7.5 -4.14,0 -7.501,3.36 -7.501,7.5 0,4.14 3.361,7.5 7.501,7.5 z"
           stroke-miterlimit="79.8403193612775"
           id="path26"
           inkscape:connector-curvature="0"
           style="fill:#204a87;stroke:none;stroke-width:0.5;stroke-miterlimit:79.84031677;marker-start:none;marker-end:none" />
        <path
           d="m 473.319,624.069 c 3.726,0 6.751,-3.024 6.751,-6.75 0,-3.726 -3.025,-6.75 -6.751,-6.75 -3.726,0 -6.751,3.024 -6.751,6.75 0,3.726 3.025,6.75 6.751,6.75 z"
           stroke-miterlimit="79.8403193612775"
           id="path28"
           inkscape:connector-curvature="0"
           style="fill:url(#LinearGradient);stroke:none;stroke-width:0.75;stroke-linejoin:round;stroke-miterlimit:79.84031677;marker-start:none;marker-end:none" />
        <path
           d="m 464.319,626.319 18,0 0,-18 -18,0 0,18 z"
           stroke-miterlimit="79.8403193612775"
           id="path30"
           inkscape:connector-curvature="0"
           style="stroke:none;stroke-width:0.40700001;stroke-linejoin:miter;stroke-miterlimit:79.84031677;marker-start:none;marker-end:none" />
        <mask
           id="TranspMask">
          <rect
             x="-59.527702"
             y="-84.189102"
             width="714.33246"
             height="1010.2692"
             id="rect33"
             style="fill:url(#LinearGradient_1);stroke:none" />
        </mask>
        <path
           d="m 466.568,617.32 c 0,3.725 3.025,6.749 6.751,6.749 3.725,0 6.75,-3.024 6.75,-6.749 l -13.501,0 z"
           stroke-miterlimit="79.8403193612775"
           mask="url(#TranspMask)"
           id="path35"
           inkscape:connector-curvature="0"
           style="fill:#ffffff;stroke:none;stroke-width:0.5;stroke-linejoin:miter;stroke-miterlimit:79.84031677;marker-start:none;marker-end:none" />
        <mask
           id="TranspMask_1">
          <rect
             x="-59.527702"
             y="-84.189102"
             width="714.33246"
             height="1010.2692"
             id="rect38"
             style="fill:url(#LinearGradient_2);stroke:none" />
        </mask>
        <g
           id="Group"
           stroke-miterlimit="79.8403193612775"
           mask="url(#TranspMask_1)"
           style="fill:#204a87;stroke:none;stroke-width:0.5;stroke-linejoin:round;stroke-miterlimit:79.84031677">
          <path
             d="m 473.32,619.569 c -0.831,0 -1.501,0.672 -1.501,1.501 0,0.822 0.67,1.499 1.501,1.499 0.826,0 1.501,-0.675 1.501,-1.499 0,-0.829 -0.675,-1.501 -1.501,-1.501 z"
             id="path41"
             inkscape:connector-curvature="0"
             style="marker-start:none;marker-end:none" />
          <path
             d="m 471.819,618.819 c -0.353,0 -0.75,-0.397 -0.75,-0.75 l 0,-0.75 c 0,-0.353 0.375,-0.75 0.75,-0.75 l 0,-2.25 c -0.375,0 -0.75,-0.397 -0.75,-0.75 l 0,-0.75 c 0,-0.353 0.397,-0.75 0.75,-0.75 l 3,0 c 0.353,0 0.75,0.397 0.75,0.75 l 0,0.75 c 0,0.353 -0.375,0.75 -0.75,0.75 l 0,3.75 c 0,0.353 -0.397,0.75 -0.75,0.75 l -2.25,0 z"
             id="path43"
             inkscape:connector-curvature="0"
             style="marker-start:none;marker-end:none" />
        </g>
        <g
           id="Group_1"
           stroke-miterlimit="79.8403193612775"
           style="fill:#ffffff;stroke:none;stroke-width:0.5;stroke-linejoin:round;stroke-miterlimit:79.84031677">
          <path
             d="m 473.319,620.319 c -0.415,0 -0.75,0.336 -0.75,0.75 -0.001,0.411 0.335,0.749 0.75,0.749 0.413,0 0.75,-0.337 0.75,-0.749 0,-0.414 -0.337,-0.75 -0.75,-0.75 z"
             id="path46"
             inkscape:connector-curvature="0"
             style="marker-start:none;marker-end:none" />
          <path
             d="m 471.855,612.819 -0.036,0.051 0,0.652 0.049,0.051 0.101,0.011 c 0.341,0.07 0.6,0.372 0.6,0.735 l 0,2.25 c 0,0.361 -0.259,0.664 -0.6,0.734 l -0.102,0.011 -0.048,0.05 0.011,0.652 0.042,0.053 2.173,0 0.024,-0.055 0,-3.695 c 0,-0.363 0.257,-0.665 0.598,-0.735 l 0.101,-0.01 0.051,-0.053 0,-0.649 -0.038,-0.031 -2.919,-0.022 z"
             id="path48"
             inkscape:connector-curvature="0"
             style="marker-start:none;marker-end:none" />
        </g>
      </g>
    </g>
  </g>
</svg>
