<?xml version="1.0" encoding="UTF-8" standalone="no"?>
<!--Generator: Xara Designer (www.xara.com), SVG filter version: 6.0.0.4-->

<svg
   xmlns:dc="http://purl.org/dc/elements/1.1/"
   xmlns:cc="http://creativecommons.org/ns#"
   xmlns:rdf="http://www.w3.org/1999/02/22-rdf-syntax-ns#"
   xmlns:svg="http://www.w3.org/2000/svg"
   xmlns="http://www.w3.org/2000/svg"
   xmlns:sodipodi="http://sodipodi.sourceforge.net/DTD/sodipodi-0.dtd"
   xmlns:inkscape="http://www.inkscape.org/namespaces/inkscape"
   version="1.1"
   overflow="visible"
   width="18pt"
   height="17.999998pt"
   viewBox="0 0 18.000001 17.999998"
   id="svg2"
   inkscape:version="0.91 r13725"
   sodipodi:docname="jigsaw-puzzle-piece-extension.svg"
   style="overflow:visible;fill-rule:evenodd;stroke-width:0.50099999;stroke-linejoin:bevel">
  <metadata
     id="metadata34">
    <rdf:RDF>
      <cc:Work
         rdf:about="">
        <dc:format>image/svg+xml</dc:format>
        <dc:type
           rdf:resource="http://purl.org/dc/dcmitype/StillImage" />
        <dc:title></dc:title>
      </cc:Work>
    </rdf:RDF>
  </metadata>
  <sodipodi:namedview
     pagecolor="#ffffff"
     bordercolor="#666666"
     borderopacity="1"
     objecttolerance="10"
     gridtolerance="10"
     guidetolerance="10"
     inkscape:pageopacity="0"
     inkscape:pageshadow="2"
     inkscape:window-width="640"
     inkscape:window-height="480"
     id="namedview32"
     showgrid="false"
     fit-margin-top="0"
     fit-margin-left="0"
     fit-margin-right="0"
     fit-margin-bottom="0"
     inkscape:zoom="3.588113"
     inkscape:cx="30.034578"
     inkscape:cy="8.8773275"
     inkscape:window-x="0"
     inkscape:window-y="0"
     inkscape:window-maximized="0"
     inkscape:current-layer="svg2" />
  <defs
     id="defs4">
    <linearGradient
       id="LinearGradient"
       gradientUnits="userSpaceOnUse"
       x1="0"
       y1="0"
       x2="0"
       y2="-18"
       gradientTransform="translate(482.319,626.319)">
      <stop
         offset="0"
         stop-color="#ffffff"
         id="stop7" />
      <stop
         offset="0.500999987125397"
         stop-color="#6dc814"
         id="stop9" />
      <stop
         offset="1"
         stop-color="#ffffff"
         id="stop11" />
    </linearGradient>
    <linearGradient
       id="LinearGradient_1"
       gradientUnits="userSpaceOnUse"
       x1="0"
       y1="0"
       x2="0"
       y2="9"
       gradientTransform="translate(482.319,617.319)">
      <stop
         offset="0"
         stop-color="#333333"
         id="stop14" />
      <stop
         offset="1"
         stop-color="#ffffff"
         id="stop16" />
    </linearGradient>
  </defs>
  <g
     id="Document"
     font-size="16"
     transform="matrix(1,0,0,-1,-464.319,-215.57205)"
     style="font-size:16px;font-family:'Times New Roman';fill:none;stroke:#000000">
    <g
       id="Spread"
       transform="translate(0,-841.891)">
      <g
         id="Layer 1">
        <path
           d="m 464.319,626.319 18,0 0,-18 -18,0 0,18 z"
           stroke-miterlimit="79.8403193612775"
           id="path21"
           inkscape:connector-curvature="0"
           style="stroke:none;stroke-width:0.40700001;stroke-linejoin:miter;stroke-miterlimit:79.84031677;marker-start:none;marker-end:none" />
        <path
           d="m 466.569,609.819 c -0.353,0 -0.75,0.397 -0.75,0.75 l 0,4.5 c 0,0.75 0.397,0.75 0.75,0.75 0.707,0 0.793,-1.5 1.5,-1.5 0.353,0 0.615,0.424 0.75,0.75 0.478,1.154 0.478,2.596 0,3.75 -0.135,0.326 -0.397,0.75 -0.75,0.75 -0.707,0 -0.793,-1.5 -1.5,-1.5 -0.353,0 -0.75,0 -0.75,0.75 l 0,2.25 c 0,0.353 0.397,0.75 0.75,0.75 l 3,0 c 0.75,0 0.75,0.397 0.75,0.75 0,0.707 -1.5,0.793 -1.5,1.5 0,0.353 0.424,0.615 0.75,0.75 1.616,0.669 3.634,0.669 5.25,0 0.326,-0.135 0.75,-0.397 0.75,-0.75 0,-0.707 -1.5,-0.793 -1.5,-1.5 0,-0.353 0,-0.75 0.75,-0.75 l 2.25,0 c 0.353,0 0.75,-0.397 0.75,-0.75 l 0,-2.25 c 0,-0.75 0.397,-0.75 0.75,-0.75 0.707,0 0.793,1.5 1.5,1.5 0.353,0 0.615,-0.424 0.75,-0.75 0.669,-1.616 0.669,-3.634 0,-5.25 -0.135,-0.326 -0.397,-0.75 -0.75,-0.75 -0.707,0 -0.793,1.5 -1.5,1.5 -0.353,0 -0.75,0 -0.75,-0.75 l 0,-3 c 0,-0.353 -0.397,-0.75 -0.75,-0.75 l -2.25,0 c -0.75,0 -0.75,0.397 -0.75,0.75 0,0.707 1.5,0.793 1.5,1.5 0,0.353 -0.424,0.615 -0.75,0.75 -1.154,0.478 -2.596,0.478 -3.75,0 -0.326,-0.135 -0.75,-0.397 -0.75,-0.75 0,-0.707 1.5,-0.793 1.5,-1.5 0,-0.353 0,-0.75 -0.75,-0.75 l -4.5,0 z"
           stroke-miterlimit="79.8403193612775"
           id="path23"
           inkscape:connector-curvature="0"
           style="fill:#4e9a06;stroke:none;stroke-width:0.5;stroke-linejoin:round;stroke-miterlimit:79.84031677;marker-start:none;marker-end:none" />
        <path
           d="m 466.624,610.569 -0.055,0.055 0,4.246 0.042,-0.079 c 0.238,-0.464 0.63,-1.222 1.458,-1.222 0.907,0 1.339,0.963 1.442,1.213 0.555,1.337 0.555,2.986 0,4.323 -0.103,0.25 -0.53,1.214 -1.442,1.214 -0.823,0 -1.233,-0.774 -1.469,-1.234 l -0.031,-0.06 0,1.988 0.056,0.056 2.944,0 c 1.315,0 1.5,0.931 1.5,1.5 0,0.822 -0.774,1.231 -1.234,1.467 l -0.076,0.04 0.096,0.05 c 1.433,0.592 3.244,0.592 4.677,0 l 0.1,-0.052 -0.091,-0.049 c -0.464,-0.238 -1.222,-0.63 -1.222,-1.456 0,-0.521 0.151,-1.5 1.5,-1.5 l 2.193,0 0.057,-0.057 0,-2.193 c 0,-1.316 0.931,-1.5 1.5,-1.5 0.822,0 1.231,0.772 1.467,1.233 l 0.04,0.075 0.05,-0.095 c 0.592,-1.433 0.592,-3.244 0,-4.677 l -0.052,-0.101 -0.049,0.091 c -0.238,0.464 -0.63,1.224 -1.456,1.224 -0.521,0 -1.5,-0.152 -1.5,-1.5 l 0,-2.944 -0.056,-0.056 -1.997,0 0.079,0.042 c 0.464,0.238 1.224,0.63 1.224,1.458 0,0.907 -0.964,1.339 -1.214,1.442 -1.337,0.555 -2.986,0.555 -4.323,0 -0.25,-0.103 -1.213,-0.53 -1.213,-1.442 0,-0.823 0.772,-1.233 1.233,-1.469 l 0.059,-0.031 -4.237,0 z"
           stroke-miterlimit="79.8403193612775"
           id="path25"
           inkscape:connector-curvature="0"
           style="fill:url(#LinearGradient);stroke:none;stroke-width:0.75;stroke-linejoin:round;stroke-miterlimit:79.84031677;marker-start:none;marker-end:none" />
        <mask
           id="TranspMask">
          <rect
             x="-59.527702"
             y="-84.189102"
             width="714.33246"
             height="1010.2692"
             id="rect28"
             style="fill:url(#LinearGradient_1);stroke:none" />
        </mask>
        <path
           d="m 469.909,617.319 -0.008,0.183 c -0.052,0.556 -0.182,1.101 -0.39,1.603 -0.103,0.25 -0.53,1.214 -1.442,1.214 -0.823,0 -1.233,-0.774 -1.469,-1.234 l -0.031,-0.06 0,1.988 0.056,0.056 2.944,0 c 1.315,0 1.5,0.931 1.5,1.5 0,0.822 -0.774,1.231 -1.234,1.467 l -0.076,0.04 0.096,0.05 c 1.433,0.592 3.244,0.592 4.677,0 l 0.1,-0.052 -0.091,-0.049 c -0.464,-0.238 -1.222,-0.63 -1.222,-1.456 0,-0.521 0.151,-1.5 1.5,-1.5 l 2.193,0 0.057,-0.057 0,-2.193 c 0,-1.316 0.931,-1.5 1.5,-1.5 l -8.66,0 z m 8.66,0 c 0.822,0 1.231,0.772 1.467,1.233 l 0.04,0.075 0.05,-0.095 c 0.148,-0.359 0.259,-0.741 0.333,-1.134 l 0.011,-0.079 -1.901,0 z"
           stroke-miterlimit="79.8403193612775"
           mask="url(#TranspMask)"
           id="path30"
           inkscape:connector-curvature="0"
           style="fill:#ffffff;stroke:none;stroke-width:0.5;stroke-linejoin:miter;stroke-miterlimit:79.84031677;marker-start:none;marker-end:none" />
      </g>
    </g>
  </g>
</svg>
