<?xml version="1.0" encoding="UTF-8" standalone="no"?>
<!--Generator: Xara Designer (www.xara.com), SVG filter version: 6.0.0.4-->

<svg
   xmlns:dc="http://purl.org/dc/elements/1.1/"
   xmlns:cc="http://creativecommons.org/ns#"
   xmlns:rdf="http://www.w3.org/1999/02/22-rdf-syntax-ns#"
   xmlns:svg="http://www.w3.org/2000/svg"
   xmlns="http://www.w3.org/2000/svg"
   xmlns:sodipodi="http://sodipodi.sourceforge.net/DTD/sodipodi-0.dtd"
   xmlns:inkscape="http://www.inkscape.org/namespaces/inkscape"
   version="1.1"
   overflow="visible"
   width="18pt"
   height="17.999998pt"
   viewBox="0 0 18.000001 17.999998"
   id="svg2"
   inkscape:version="0.91 r13725"
   sodipodi:docname="key-password.svg"
   style="overflow:visible;fill-rule:evenodd;stroke-width:0.50099999;stroke-linejoin:bevel">
  <metadata
     id="metadata34">
    <rdf:RDF>
      <cc:Work
         rdf:about="">
        <dc:format>image/svg+xml</dc:format>
        <dc:type
           rdf:resource="http://purl.org/dc/dcmitype/StillImage" />
        <dc:title></dc:title>
      </cc:Work>
    </rdf:RDF>
  </metadata>
  <sodipodi:namedview
     pagecolor="#ffffff"
     bordercolor="#666666"
     borderopacity="1"
     objecttolerance="10"
     gridtolerance="10"
     guidetolerance="10"
     inkscape:pageopacity="0"
     inkscape:pageshadow="2"
     inkscape:window-width="640"
     inkscape:window-height="480"
     id="namedview32"
     showgrid="false"
     fit-margin-top="0"
     fit-margin-left="0"
     fit-margin-right="0"
     fit-margin-bottom="0"
     inkscape:zoom="3.588113"
     inkscape:cx="-1.1315433"
     inkscape:cy="13.248241"
     inkscape:window-x="0"
     inkscape:window-y="0"
     inkscape:window-maximized="0"
     inkscape:current-layer="svg2" />
  <defs
     id="defs4">
    <linearGradient
       id="LinearGradient"
       gradientUnits="userSpaceOnUse"
       x1="0"
       y1="0"
       x2="0"
       y2="-12.75"
       gradientTransform="translate(482.319,624.068)">
      <stop
         offset="0"
         stop-color="#ffffff"
         id="stop7" />
      <stop
         offset="0.500999987125397"
         stop-color="#a3a4a3"
         id="stop9" />
      <stop
         offset="1"
         stop-color="#ffffff"
         id="stop11" />
    </linearGradient>
    <linearGradient
       id="LinearGradient_1"
       gradientUnits="userSpaceOnUse"
       x1="0"
       y1="0"
       x2="0"
       y2="6.75"
       gradientTransform="translate(482.319,617.318)">
      <stop
         offset="0"
         stop-color="#333333"
         id="stop14" />
      <stop
         offset="1"
         stop-color="#ffffff"
         id="stop16" />
    </linearGradient>
  </defs>
  <g
     id="Document"
     font-size="16"
     transform="matrix(1,0,0,-1,-464.319,-215.57205)"
     style="font-size:16px;font-family:'Times New Roman';fill:none;stroke:#000000">
    <g
       id="Spread"
       transform="translate(0,-841.891)">
      <g
         id="Layer 1">
        <path
           d="m 465.819,610.568 0,3 6.056,6.056 -0.035,0.234 c -0.016,0.152 -0.023,0.305 -0.023,0.461 0,2.484 2.017,4.5 4.502,4.5 2.484,0 4.501,-2.016 4.501,-4.5 0,-2.485 -2.017,-4.501 -4.501,-4.501 -0.777,0 -1.508,0.196 -2.146,0.543 l -0.104,0.064 0,-2.107 -2.25,0 0,-0.75 -0.75,0 0,-1.5 -1.5,0 0,-0.75 -0.75,0 0,-0.75 -3,0 z m 10.502,8.251 c 0.827,0 1.501,0.672 1.501,1.5 0,0.827 -0.674,1.499 -1.501,1.499 -0.828,0 -1.502,-0.672 -1.502,-1.499 0,-0.828 0.674,-1.5 1.502,-1.5 z"
           stroke-miterlimit="79.8403193612775"
           id="path21"
           inkscape:connector-curvature="0"
           style="fill:#888a85;stroke:none;stroke-width:0.5;stroke-linejoin:round;stroke-miterlimit:79.84031677;marker-start:none;marker-end:none" />
        <path
           d="m 466.569,611.318 0,1.939 5.836,5.836 c 0.168,0.168 0.246,0.406 0.211,0.641 l -0.032,0.218 c -0.012,0.106 -0.017,0.233 -0.017,0.367 0,2.069 1.68,3.75 3.752,3.75 2.07,0 3.751,-1.681 3.751,-3.75 0,-2.071 -1.682,-3.751 -3.751,-3.751 -0.325,0 -0.64,0.04 -0.939,0.117 l -0.843,0.331 -0.075,0.047 c -0.499,0.307 -1.143,-0.053 -1.143,-0.638 l 0,-1.357 -1.5,0 c -0.414,0 -0.75,-0.337 -0.75,-0.75 -0.414,0 -0.75,-0.337 -0.75,-0.75 l 0,-0.75 -0.75,0 c -0.414,0 -0.75,-0.337 -0.75,-0.75 -0.414,0 -0.75,-0.337 -0.75,-0.75 l -1.5,0 z m 9.752,6.751 c 1.24,0 2.251,1.006 2.251,2.25 0,1.242 -1.012,2.249 -2.251,2.249 -1.241,0 -2.252,-1.007 -2.252,-2.249 0,-1.244 1.011,-2.25 2.252,-2.25 z"
           stroke-miterlimit="79.8403193612775"
           id="path23"
           inkscape:connector-curvature="0"
           style="fill:url(#LinearGradient);stroke:none;stroke-width:0.75;stroke-linejoin:round;stroke-miterlimit:79.84031677;marker-start:none;marker-end:none" />
        <mask
           id="TranspMask">
          <rect
             x="-59.527702"
             y="-84.189102"
             width="714.33246"
             height="1010.2692"
             id="rect26"
             style="fill:url(#LinearGradient_1);stroke:none" />
        </mask>
        <path
           d="m 470.63,617.318 1.775,1.775 c 0.168,0.168 0.246,0.406 0.211,0.641 l -0.032,0.218 c -0.012,0.106 -0.017,0.233 -0.017,0.367 0,2.069 1.68,3.75 3.752,3.75 2.07,0 3.751,-1.681 3.751,-3.75 0,-1.165 -0.533,-2.207 -1.367,-2.895 l -0.142,-0.106 -7.931,0 z m 5.691,0.751 c 1.24,0 2.251,1.006 2.251,2.25 0,1.242 -1.012,2.249 -2.251,2.249 -1.241,0 -2.252,-1.007 -2.252,-2.249 0,-1.244 1.011,-2.25 2.252,-2.25 z"
           stroke-miterlimit="79.8403193612775"
           mask="url(#TranspMask)"
           id="path28"
           inkscape:connector-curvature="0"
           style="fill:#ffffff;stroke:none;stroke-width:0.5;stroke-linejoin:miter;stroke-miterlimit:79.84031677;marker-start:none;marker-end:none" />
        <path
           d="m 482.319,626.319 0,-18 -18,0 0,18 18,0 z"
           stroke-miterlimit="79.8403193612775"
           id="path30"
           inkscape:connector-curvature="0"
           style="stroke:none;stroke-width:0.40700001;stroke-linejoin:miter;stroke-miterlimit:79.84031677;marker-start:none;marker-end:none" />
      </g>
    </g>
  </g>
</svg>
