<?xml version="1.0" encoding="UTF-8" standalone="no"?>
<!--Generator: Xara Designer (www.xara.com), SVG filter version: 6.0.0.4-->

<svg
   xmlns:dc="http://purl.org/dc/elements/1.1/"
   xmlns:cc="http://creativecommons.org/ns#"
   xmlns:rdf="http://www.w3.org/1999/02/22-rdf-syntax-ns#"
   xmlns:svg="http://www.w3.org/2000/svg"
   xmlns="http://www.w3.org/2000/svg"
   xmlns:sodipodi="http://sodipodi.sourceforge.net/DTD/sodipodi-0.dtd"
   xmlns:inkscape="http://www.inkscape.org/namespaces/inkscape"
   version="1.1"
   overflow="visible"
   width="18.002001pt"
   height="17.999998pt"
   viewBox="0 0 18.002001 17.999998"
   id="svg2"
   inkscape:version="0.91 r13725"
   sodipodi:docname="magic-wand.svg"
   style="overflow:visible;fill-rule:evenodd;stroke-width:0.50099999;stroke-linejoin:bevel">
  <metadata
     id="metadata58">
    <rdf:RDF>
      <cc:Work
         rdf:about="">
        <dc:format>image/svg+xml</dc:format>
        <dc:type
           rdf:resource="http://purl.org/dc/dcmitype/StillImage" />
        <dc:title></dc:title>
      </cc:Work>
    </rdf:RDF>
  </metadata>
  <sodipodi:namedview
     pagecolor="#ffffff"
     bordercolor="#666666"
     borderopacity="1"
     objecttolerance="10"
     gridtolerance="10"
     guidetolerance="10"
     inkscape:pageopacity="0"
     inkscape:pageshadow="2"
     inkscape:window-width="640"
     inkscape:window-height="480"
     id="namedview56"
     showgrid="false"
     fit-margin-top="0"
     fit-margin-left="0"
     fit-margin-right="0"
     fit-margin-bottom="0"
     inkscape:zoom="3.588113"
     inkscape:cx="1.7544692"
     inkscape:cy="21.163828"
     inkscape:window-x="0"
     inkscape:window-y="0"
     inkscape:window-maximized="0"
     inkscape:current-layer="svg2" />
  <defs
     id="defs4">
    <linearGradient
       id="LinearGradient"
       gradientUnits="userSpaceOnUse"
       x1="0"
       y1="0"
       x2="0"
       y2="18"
       gradientTransform="translate(482.32,608.318)">
      <stop
         offset="0"
         stop-color="#333333"
         id="stop7" />
      <stop
         offset="1"
         stop-color="#ffffff"
         id="stop9" />
    </linearGradient>
    <linearGradient
       id="LinearGradient_1"
       gradientUnits="userSpaceOnUse"
       x1="0"
       y1="0"
       x2="0"
       y2="18"
       gradientTransform="translate(482.32,608.318)">
      <stop
         offset="0"
         stop-color="#333333"
         id="stop12" />
      <stop
         offset="1"
         stop-color="#ffffff"
         id="stop14" />
    </linearGradient>
  </defs>
  <g
     id="Document"
     font-size="16"
     transform="matrix(1,0,0,-1,-464.319,-215.57205)"
     style="font-size:16px;font-family:'Times New Roman';fill:none;stroke:#000000">
    <g
       id="Spread"
       transform="translate(0,-841.891)">
      <g
         id="opaque">
        <path
           d="m 482.319,626.319 0,-18 -18,0 0,18 18,0 z"
           stroke-miterlimit="79.8403193612775"
           id="path19"
           inkscape:connector-curvature="0"
           style="stroke:none;stroke-width:0.40700001;stroke-linejoin:miter;stroke-miterlimit:79.84031677;marker-start:none;marker-end:none" />
      </g>
      <g
         id="Layer 1">
        <path
           d="m 482.321,626.319 0,-18 -18,0 0,18 18,0 z"
           stroke-miterlimit="79.8403193612775"
           id="path22"
           inkscape:connector-curvature="0"
           style="stroke:none;stroke-width:0.40700001;stroke-linejoin:miter;stroke-miterlimit:79.84031677;marker-start:none;marker-end:none" />
        <path
           d="m 471.072,612.068 c 0.176,0.176 0.095,0.52 0,0.75 -0.405,0.979 -1.271,1.845 -2.25,2.25 -0.23,0.095 -0.574,0.176 -0.75,0 l 6.75,6.75 c 0.176,0.176 0.52,0.095 0.75,0 0.979,-0.405 1.845,-1.271 2.25,-2.25 0.095,-0.23 0.176,-0.574 0,-0.75 l -6.75,-6.75 z"
           stroke-miterlimit="79.8403193612775"
           id="path24"
           inkscape:connector-curvature="0"
           style="fill:#c4a000;stroke:none;stroke-width:0.5;stroke-miterlimit:79.84031677;marker-start:none;marker-end:none" />
        <path
           d="m 477.822,618.818 c 0.176,0.176 0.095,0.52 0,0.75 -0.405,0.979 -1.271,1.845 -2.25,2.25 -0.23,0.095 -0.574,0.176 -0.75,0 l 0.75,0.75 c 0.176,0.176 0.52,0.095 0.75,0 0.979,-0.405 1.845,-1.271 2.25,-2.25 0.095,-0.23 0.176,-0.574 0,-0.75 l -0.75,-0.75 z"
           stroke-miterlimit="79.8403193612775"
           id="path26"
           inkscape:connector-curvature="0"
           style="fill:#555753;stroke:none;stroke-width:0.5;stroke-miterlimit:79.84031677;marker-start:none;marker-end:none" />
        <path
           d="m 468.822,609.818 c -0.177,-0.177 -0.521,-0.095 -0.752,0 -0.979,0.405 -1.846,1.27 -2.25,2.25 -0.095,0.231 -0.174,0.574 0.002,0.75 l 12,12 c 0.176,0.176 0.52,0.095 0.75,0 0.979,-0.405 1.845,-1.271 2.25,-2.25 0.095,-0.23 0.176,-0.574 0,-0.75 l -12,-12 z"
           stroke-miterlimit="79.8403193612775"
           id="path28"
           inkscape:connector-curvature="0"
           style="fill:#babdb6;stroke:none;stroke-width:0.5;stroke-linejoin:round;stroke-miterlimit:79.84031677;marker-start:none;marker-end:none" />
        <path
           d="m 468.431,610.488 -0.074,0.022 c -0.796,0.33 -1.517,1.049 -1.844,1.843 l -0.021,0.074 11.718,11.718 0.075,-0.021 c 0.795,-0.328 1.515,-1.048 1.843,-1.843 l 0.021,-0.075 -11.718,-11.718 z"
           stroke-miterlimit="79.8403193612775"
           id="path30"
           inkscape:connector-curvature="0"
           style="fill:#eeeeec;stroke:none;stroke-width:0.5;stroke-linejoin:round;stroke-miterlimit:79.84031677;marker-start:none;marker-end:none" />
        <mask
           id="TranspMask">
          <rect
             x="-59.527702"
             y="-84.189102"
             width="714.33246"
             height="1010.2692"
             id="rect33"
             style="fill:url(#LinearGradient);stroke:none" />
        </mask>
        <path
           d="m 467.911,611.909 -0.304,0.277 c -0.211,0.175 -0.438,0.33 -0.674,0.459 l -0.151,0.072 11.428,11.428 0.075,-0.021 c 0.198,-0.082 0.392,-0.189 0.577,-0.315 l 0.518,-0.431 -11.469,-11.469 z"
           stroke-miterlimit="79.8403193612775"
           mask="url(#TranspMask)"
           id="path35"
           inkscape:connector-curvature="0"
           style="fill:#ffffff;stroke:none;stroke-width:0.5;stroke-linejoin:miter;stroke-miterlimit:79.84031677;marker-start:none;marker-end:none" />
        <path
           d="m 471.07,612.068 c 0.176,0.176 0.095,0.52 0,0.75 -0.405,0.979 -1.271,1.845 -2.25,2.25 -0.23,0.095 -0.574,0.176 -0.75,0 l 6.75,6.75 c 0.176,0.176 0.52,0.095 0.75,0 0.979,-0.405 1.845,-1.271 2.25,-2.25 0.095,-0.23 0.176,-0.574 0,-0.75 l -6.75,-6.75 z"
           stroke-miterlimit="79.8403193612775"
           id="path37"
           inkscape:connector-curvature="0"
           style="fill:#2e3436;stroke:none;stroke-width:0.5;stroke-miterlimit:79.84031677;marker-start:none;marker-end:none" />
        <path
           d="m 471.51,613.569 -0.202,0.373 c -0.362,0.531 -0.833,1.002 -1.364,1.364 l -0.373,0.202 5.64,5.64 0.072,-0.024 c 0.795,-0.328 1.515,-1.048 1.843,-1.843 l 0.024,-0.072 -5.64,-5.64 z"
           stroke-miterlimit="79.8403193612775"
           id="path39"
           inkscape:connector-curvature="0"
           style="fill:#555753;stroke:none;stroke-width:0.5;stroke-miterlimit:79.84031677;marker-start:none;marker-end:none" />
        <mask
           id="TranspMask_1">
          <rect
             x="-59.527702"
             y="-84.189102"
             width="714.33246"
             height="1010.2692"
             id="rect42"
             style="fill:url(#LinearGradient_1);stroke:none" />
        </mask>
        <path
           d="m 470.689,614.687 c -0.229,0.229 -0.48,0.438 -0.745,0.619 l -0.372,0.201 5.64,5.64 0.071,-0.023 c 0.397,-0.164 0.776,-0.426 1.096,-0.747 l -5.69,-5.69 z"
           stroke-miterlimit="79.8403193612775"
           mask="url(#TranspMask_1)"
           id="path44"
           inkscape:connector-curvature="0"
           style="fill:#ffffff;stroke:none;stroke-width:0.5;stroke-linejoin:miter;stroke-miterlimit:79.84031677;marker-start:none;marker-end:none" />
        <path
           d="m 474.443,626.314 c 0.001,-2.354 -1.766,-4.121 -4.123,-4.124 2.357,0.003 4.124,-1.765 4.123,-4.124 0.001,2.359 1.769,4.127 4.122,4.124 -2.353,0.003 -4.121,1.77 -4.122,4.124 z"
           stroke-miterlimit="79.8403193612775"
           id="path46"
           inkscape:connector-curvature="0"
           style="fill:#ffbe0c;stroke:none;stroke-width:0.5;stroke-linejoin:round;stroke-miterlimit:79.84031677;marker-start:none;marker-end:none" />
        <path
           d="m 474.443,620.71 -0.062,0.116 c -0.343,0.518 -0.785,0.959 -1.302,1.303 l -0.117,0.062 0.117,0.062 c 0.517,0.344 0.958,0.785 1.302,1.302 l 0.062,0.116 0.062,-0.116 c 0.343,-0.517 0.785,-0.958 1.302,-1.302 l 0.116,-0.062 -0.116,-0.062 c -0.517,-0.343 -0.959,-0.785 -1.302,-1.302 l -0.062,-0.117 z"
           stroke-miterlimit="79.8403193612775"
           id="path48"
           inkscape:connector-curvature="0"
           style="fill:#ffffff;stroke:none;stroke-width:0.5;stroke-linejoin:round;stroke-miterlimit:79.84031677;marker-start:none;marker-end:none" />
        <path
           d="m 467.699,623.318 c 0,-1.927 -1.446,-3.373 -3.375,-3.375 1.929,0.002 3.375,-1.445 3.375,-3.375 0,1.93 1.447,3.377 3.373,3.375 -1.926,0.002 -3.373,1.448 -3.373,3.375 z"
           stroke-miterlimit="79.8403193612775"
           id="path50"
           inkscape:connector-curvature="0"
           style="fill:#ffbe0c;stroke:none;stroke-width:0.5;stroke-linejoin:round;stroke-miterlimit:79.84031677;marker-start:none;marker-end:none" />
        <path
           d="m 467.698,618.979 -0.433,0.53 -0.531,0.434 0.53,0.435 0.434,0.529 0.434,-0.529 0.53,-0.435 -0.53,-0.434 -0.434,-0.53 z"
           stroke-miterlimit="79.8403193612775"
           id="path52"
           inkscape:connector-curvature="0"
           style="fill:#ffffff;stroke:none;stroke-width:0.5;stroke-linejoin:round;stroke-miterlimit:79.84031677;marker-start:none;marker-end:none" />
        <path
           d="m 469.945,626.319 c 0,-1.071 -0.803,-1.874 -1.875,-1.875 1.072,0.001 1.875,-0.803 1.875,-1.876 0,1.073 0.805,1.877 1.875,1.876 -1.07,0.001 -1.875,0.804 -1.875,1.875 z"
           stroke-miterlimit="79.8403193612775"
           id="path54"
           inkscape:connector-curvature="0"
           style="fill:#ffbe0c;stroke:none;stroke-width:0.5;stroke-linejoin:round;stroke-miterlimit:79.84031677;marker-start:none;marker-end:none" />
      </g>
    </g>
  </g>
</svg>
