<?xml version="1.0" encoding="UTF-8" standalone="no"?>
<!--Generator: Xara Designer (www.xara.com), SVG filter version: 6.0.0.4-->

<svg
   xmlns:dc="http://purl.org/dc/elements/1.1/"
   xmlns:cc="http://creativecommons.org/ns#"
   xmlns:rdf="http://www.w3.org/1999/02/22-rdf-syntax-ns#"
   xmlns:svg="http://www.w3.org/2000/svg"
   xmlns="http://www.w3.org/2000/svg"
   xmlns:sodipodi="http://sodipodi.sourceforge.net/DTD/sodipodi-0.dtd"
   xmlns:inkscape="http://www.inkscape.org/namespaces/inkscape"
   version="1.1"
   overflow="visible"
   width="18pt"
   height="17.999998pt"
   viewBox="0 0 18.000001 17.999998"
   id="svg2"
   inkscape:version="0.91 r13725"
   sodipodi:docname="pallette.svg"
   style="overflow:visible;fill-rule:evenodd;stroke-width:0.50099999;stroke-linejoin:bevel">
  <metadata
     id="metadata58">
    <rdf:RDF>
      <cc:Work
         rdf:about="">
        <dc:format>image/svg+xml</dc:format>
        <dc:type
           rdf:resource="http://purl.org/dc/dcmitype/StillImage" />
        <dc:title></dc:title>
      </cc:Work>
    </rdf:RDF>
  </metadata>
  <sodipodi:namedview
     pagecolor="#ffffff"
     bordercolor="#666666"
     borderopacity="1"
     objecttolerance="10"
     gridtolerance="10"
     guidetolerance="10"
     inkscape:pageopacity="0"
     inkscape:pageshadow="2"
     inkscape:window-width="640"
     inkscape:window-height="480"
     id="namedview56"
     showgrid="false"
     fit-margin-top="0"
     fit-margin-left="0"
     fit-margin-right="0"
     fit-margin-bottom="0"
     inkscape:zoom="3.588113"
     inkscape:cx="20.751485"
     inkscape:cy="9.4052763"
     inkscape:window-x="0"
     inkscape:window-y="0"
     inkscape:window-maximized="0"
     inkscape:current-layer="svg2" />
  <defs
     id="defs4">
    <linearGradient
       id="LinearGradient"
       gradientUnits="userSpaceOnUse"
       x1="0"
       y1="0"
       x2="0"
       y2="11.25"
       gradientTransform="translate(482.319,612.819)">
      <stop
         offset="0"
         stop-color="#ffffff"
         id="stop7" />
      <stop
         offset="0.500999987125397"
         stop-color="#d3d7cf"
         id="stop9" />
      <stop
         offset="1"
         stop-color="#ffffff"
         id="stop11" />
    </linearGradient>
    <linearGradient
       id="LinearGradient_1"
       gradientUnits="userSpaceOnUse"
       x1="0"
       y1="0"
       x2="0"
       y2="5.25"
       gradientTransform="translate(482.319,618.819)">
      <stop
         offset="0"
         stop-color="#333333"
         id="stop14" />
      <stop
         offset="1"
         stop-color="#ffffff"
         id="stop16" />
    </linearGradient>
  </defs>
  <g
     id="Document"
     font-size="16"
     transform="matrix(1,0,0,-1,-464.319,-215.57205)"
     style="font-size:16px;font-family:'Times New Roman';fill:none;stroke:#000000">
    <g
       id="Spread"
       transform="translate(0,-841.891)">
      <g
         id="Layer 1">
        <path
           d="m 464.319,626.319 18,0 0,-18 -18,0 0,18 z"
           stroke-miterlimit="79.8403193612775"
           id="path21"
           inkscape:connector-curvature="0"
           style="stroke:none;stroke-width:0.40700001;stroke-linejoin:miter;stroke-miterlimit:79.84031677;marker-start:none;marker-end:none" />
        <path
           d="m 472.569,612.069 c -3.75,0 -2.25,2.25 -3.75,3 -1.486,0.743 -3,0.936 -3,3 0,4.5 5.25,6.75 9,6.75 3,0 6,-1.5 6,-4.5 0,-6 -5.25,-8.25 -8.25,-8.25 z m 0.374,2.246 c 0.708,0 1.126,0.432 1.126,0.75 0,0.326 -0.403,0.749 -1.126,0.749 -0.709,0 -1.126,-0.434 -1.126,-0.749 0,-0.328 0.402,-0.75 1.126,-0.75 z"
           stroke-miterlimit="79.8403193612775"
           id="path23"
           inkscape:connector-curvature="0"
           style="fill:#888a85;stroke:none;stroke-width:0.5;stroke-linejoin:round;stroke-miterlimit:79.84031677;marker-start:none;marker-end:none" />
        <path
           d="m 472.569,612.819 c -1.656,0 -1.895,0.448 -2.03,0.764 -0.255,0.594 -0.314,1.621 -1.385,2.156 -0.911,0.456 -1.445,0.582 -1.96,0.946 -0.364,0.258 -0.625,0.594 -0.625,1.384 0,3.841 4.656,6 8.25,6 2.89,0 5.25,-1.415 5.25,-3.75 0,-5.422 -4.728,-7.5 -7.5,-7.5 z m 0.374,0.746 c 1.035,0 1.876,0.672 1.876,1.5 0,0.827 -0.841,1.499 -1.876,1.499 -1.035,0 -1.876,-0.672 -1.876,-1.499 0,-0.828 0.841,-1.5 1.876,-1.5 z"
           stroke-miterlimit="79.8403193612775"
           id="path25"
           inkscape:connector-curvature="0"
           style="fill:url(#LinearGradient);stroke:none;stroke-width:0.75;stroke-linejoin:round;stroke-miterlimit:79.84031677;marker-start:none;marker-end:none" />
        <mask
           id="TranspMask">
          <rect
             x="-59.527702"
             y="-84.189102"
             width="714.33246"
             height="1010.2692"
             id="rect28"
             style="fill:url(#LinearGradient_1);stroke:none" />
        </mask>
        <path
           d="m 466.631,618.819 0.056,0.285 c 0.745,3.191 4.874,4.965 8.132,4.965 2.89,0 5.25,-1.415 5.25,-3.75 0,-0.509 -0.042,-0.988 -0.12,-1.438 l -0.012,-0.062 -13.306,0 z"
           stroke-miterlimit="79.8403193612775"
           mask="url(#TranspMask)"
           id="path30"
           inkscape:connector-curvature="0"
           style="fill:#ffffff;stroke:none;stroke-width:0.5;stroke-linejoin:miter;stroke-miterlimit:79.84031677;marker-start:none;marker-end:none" />
        <path
           d="m 468.444,620.319 c 0.621,0 1.125,-0.504 1.125,-1.125 0,-0.621 -0.504,-1.125 -1.125,-1.125 -0.621,0 -1.125,0.504 -1.125,1.125 0,0.621 0.504,1.125 1.125,1.125 z"
           stroke-miterlimit="79.8403193612775"
           id="path32"
           inkscape:connector-curvature="0"
           style="fill:#fce94f;stroke:none;stroke-width:0.5;stroke-miterlimit:79.84031677;marker-start:none;marker-end:none" />
        <path
           d="m 470.694,622.569 c 0.621,0 1.125,-0.504 1.125,-1.125 0,-0.621 -0.504,-1.125 -1.125,-1.125 -0.621,0 -1.125,0.504 -1.125,1.125 0,0.621 0.504,1.125 1.125,1.125 z"
           stroke-miterlimit="79.8403193612775"
           id="path34"
           inkscape:connector-curvature="0"
           style="fill:#fcaf3e;stroke:none;stroke-width:0.5;stroke-miterlimit:79.84031677;marker-start:none;marker-end:none" />
        <path
           d="m 473.695,623.319 c 0.621,0 1.125,-0.504 1.125,-1.125 0,-0.621 -0.504,-1.125 -1.125,-1.125 -0.621,0 -1.125,0.504 -1.125,1.125 0,0.621 0.504,1.125 1.125,1.125 z"
           stroke-miterlimit="79.8403193612775"
           id="path36"
           inkscape:connector-curvature="0"
           style="fill:#8ae234;stroke:none;stroke-width:0.5;stroke-miterlimit:79.84031677;marker-start:none;marker-end:none" />
        <path
           d="m 476.694,623.319 c 0.621,0 1.125,-0.504 1.125,-1.125 0,-0.621 -0.504,-1.125 -1.125,-1.125 -0.621,0 -1.125,0.504 -1.125,1.125 0,0.621 0.504,1.125 1.125,1.125 z"
           stroke-miterlimit="79.8403193612775"
           id="path38"
           inkscape:connector-curvature="0"
           style="fill:#729fcf;stroke:none;stroke-width:0.5;stroke-miterlimit:79.84031677;marker-start:none;marker-end:none" />
        <path
           d="m 478.195,621.069 c 0.621,0 1.125,-0.504 1.125,-1.125 0,-0.621 -0.504,-1.125 -1.125,-1.125 -0.621,0 -1.125,0.504 -1.125,1.125 0,0.621 0.504,1.125 1.125,1.125 z"
           stroke-miterlimit="79.8403193612775"
           id="path40"
           inkscape:connector-curvature="0"
           style="fill:#ad7fa8;stroke:none;stroke-width:0.5;stroke-miterlimit:79.84031677;marker-start:none;marker-end:none" />
        <path
           d="m 476.695,618.069 c 0.621,0 1.125,-0.504 1.125,-1.125 0,-0.621 -0.504,-1.125 -1.125,-1.125 -0.621,0 -1.125,0.504 -1.125,1.125 0,0.621 0.504,1.125 1.125,1.125 z"
           stroke-miterlimit="79.8403193612775"
           id="path42"
           inkscape:connector-curvature="0"
           style="fill:#ef5d5d;stroke:none;stroke-width:0.5;stroke-miterlimit:79.84031677;marker-start:none;marker-end:none" />
        <path
           d="m 470.319,621.069 c -0.337,0 -0.622,0.221 -0.718,0.527 l -0.014,0.054 0.003,0.02 c 0.091,0.439 0.437,0.786 0.877,0.876 l 0.02,0.003 0.055,-0.014 c 0.305,-0.095 0.528,-0.38 0.528,-0.716 0,-0.414 -0.337,-0.75 -0.751,-0.75 z"
           stroke-miterlimit="79.8403193612775"
           id="path44"
           inkscape:connector-curvature="0"
           style="fill:#ffffff;fill-opacity:0.49803904;stroke:none;stroke-width:0.5;stroke-miterlimit:79.84031677;stroke-opacity:0.49803904;marker-start:none;marker-end:none" />
        <path
           d="m 473.319,621.819 c -0.337,0 -0.622,0.221 -0.718,0.527 l -0.013,0.051 0.003,0.023 c 0.091,0.439 0.437,0.786 0.877,0.876 l 0.02,0.003 0.054,-0.014 c 0.305,-0.095 0.528,-0.38 0.528,-0.716 0,-0.414 -0.337,-0.75 -0.751,-0.75 z"
           stroke-miterlimit="79.8403193612775"
           id="path46"
           inkscape:connector-curvature="0"
           style="fill:#ffffff;fill-opacity:0.49803904;stroke:none;stroke-width:0.5;stroke-miterlimit:79.84031677;stroke-opacity:0.49803904;marker-start:none;marker-end:none" />
        <path
           d="m 476.319,621.819 c -0.337,0 -0.622,0.221 -0.718,0.527 l -0.014,0.054 0.003,0.02 c 0.091,0.439 0.437,0.786 0.877,0.876 l 0.02,0.003 0.055,-0.014 c 0.305,-0.095 0.528,-0.38 0.528,-0.716 0,-0.414 -0.337,-0.75 -0.751,-0.75 z"
           stroke-miterlimit="79.8403193612775"
           id="path48"
           inkscape:connector-curvature="0"
           style="fill:#ffffff;fill-opacity:0.49803904;stroke:none;stroke-width:0.5;stroke-miterlimit:79.84031677;stroke-opacity:0.49803904;marker-start:none;marker-end:none" />
        <path
           d="m 477.819,619.569 c -0.337,0 -0.622,0.221 -0.718,0.527 l -0.013,0.051 0.003,0.023 c 0.091,0.439 0.437,0.786 0.877,0.876 l 0.02,0.003 0.054,-0.014 c 0.305,-0.095 0.528,-0.38 0.528,-0.716 0,-0.414 -0.337,-0.75 -0.751,-0.75 z"
           stroke-miterlimit="79.8403193612775"
           id="path50"
           inkscape:connector-curvature="0"
           style="fill:#ffffff;fill-opacity:0.49803904;stroke:none;stroke-width:0.5;stroke-miterlimit:79.84031677;stroke-opacity:0.49803904;marker-start:none;marker-end:none" />
        <path
           d="m 476.318,616.569 c -0.337,0 -0.622,0.221 -0.718,0.527 l -0.012,0.049 0.003,0.025 c 0.091,0.439 0.437,0.786 0.877,0.876 l 0.019,0.003 0.054,-0.014 c 0.305,-0.095 0.528,-0.38 0.528,-0.716 0,-0.414 -0.337,-0.75 -0.751,-0.75 z"
           stroke-miterlimit="79.8403193612775"
           id="path52"
           inkscape:connector-curvature="0"
           style="fill:#ffffff;fill-opacity:0.49803904;stroke:none;stroke-width:0.5;stroke-miterlimit:79.84031677;stroke-opacity:0.49803904;marker-start:none;marker-end:none" />
        <path
           d="m 468.051,618.819 c -0.337,0 -0.622,0.221 -0.718,0.527 l -0.014,0.055 0.003,0.02 c 0.091,0.439 0.437,0.786 0.877,0.876 l 0.02,0.003 0.054,-0.014 c 0.306,-0.095 0.528,-0.38 0.528,-0.716 0,-0.415 -0.336,-0.751 -0.75,-0.751 z"
           stroke-miterlimit="79.8403193612775"
           id="path54"
           inkscape:connector-curvature="0"
           style="fill:#ffffff;fill-opacity:0.49803904;stroke:none;stroke-width:0.5;stroke-miterlimit:79.84031677;stroke-opacity:0.49803904;marker-start:none;marker-end:none" />
      </g>
    </g>
  </g>
</svg>
