<?xml version="1.0" encoding="UTF-8" standalone="no"?>
<!--Generator: Xara Designer (www.xara.com), SVG filter version: 6.0.0.4-->

<svg
   xmlns:dc="http://purl.org/dc/elements/1.1/"
   xmlns:cc="http://creativecommons.org/ns#"
   xmlns:rdf="http://www.w3.org/1999/02/22-rdf-syntax-ns#"
   xmlns:svg="http://www.w3.org/2000/svg"
   xmlns="http://www.w3.org/2000/svg"
   xmlns:sodipodi="http://sodipodi.sourceforge.net/DTD/sodipodi-0.dtd"
   xmlns:inkscape="http://www.inkscape.org/namespaces/inkscape"
   version="1.1"
   overflow="visible"
   width="18pt"
   height="17.999998pt"
   viewBox="0 0 18.000001 17.999998"
   id="svg2"
   inkscape:version="0.91 r13725"
   sodipodi:docname="pencil.svg"
   style="overflow:visible;fill-rule:evenodd;stroke-width:0.50099999;stroke-linejoin:bevel">
  <metadata
     id="metadata42">
    <rdf:RDF>
      <cc:Work
         rdf:about="">
        <dc:format>image/svg+xml</dc:format>
        <dc:type
           rdf:resource="http://purl.org/dc/dcmitype/StillImage" />
        <dc:title></dc:title>
      </cc:Work>
    </rdf:RDF>
  </metadata>
  <sodipodi:namedview
     pagecolor="#ffffff"
     bordercolor="#666666"
     borderopacity="1"
     objecttolerance="10"
     gridtolerance="10"
     guidetolerance="10"
     inkscape:pageopacity="0"
     inkscape:pageshadow="2"
     inkscape:window-width="640"
     inkscape:window-height="480"
     id="namedview40"
     showgrid="false"
     fit-margin-top="0"
     fit-margin-left="0"
     fit-margin-right="0"
     fit-margin-bottom="0"
     inkscape:zoom="5.074358"
     inkscape:cx="12.26048"
     inkscape:cy="14.356817"
     inkscape:window-x="0"
     inkscape:window-y="0"
     inkscape:window-maximized="0"
     inkscape:current-layer="svg2" />
  <defs
     id="defs4">
    <linearGradient
       id="LinearGradient"
       gradientUnits="userSpaceOnUse"
       x1="0"
       y1="0"
       x2="0"
       y2="18"
       gradientTransform="translate(482.32,608.318)">
      <stop
         offset="0"
         stop-color="#333333"
         id="stop7" />
      <stop
         offset="1"
         stop-color="#ffffff"
         id="stop9" />
    </linearGradient>
  </defs>
  <g
     id="Document"
     font-size="16"
     transform="matrix(1,0,0,-1,-464.319,-215.57205)"
     style="font-size:16px;font-family:'Times New Roman';fill:none;stroke:#000000">
    <g
       id="Spread"
       transform="translate(0,-841.891)">
      <g
         id="opaque">
        <path
           d="m 482.319,626.319 0,-18 -18,0 0,18 18,0 z"
           stroke-miterlimit="79.8403193612775"
           id="path14"
           inkscape:connector-curvature="0"
           style="stroke:none;stroke-width:0.40700001;stroke-linejoin:miter;stroke-miterlimit:79.84031677;marker-start:none;marker-end:none" />
      </g>
      <g
         id="Layer 1">
        <path
           d="m 471.07,612.068 c 0.176,0.176 0.095,0.52 0,0.75 -0.405,0.979 -1.271,1.845 -2.25,2.25 -0.23,0.095 -0.574,0.176 -0.75,0 l 6.75,6.75 c 0.176,0.176 0.52,0.095 0.75,0 0.979,-0.405 1.845,-1.271 2.25,-2.25 0.095,-0.23 0.177,-0.574 0,-0.75 l -6.75,-6.75 z"
           stroke-miterlimit="79.8403193612775"
           id="path17"
           inkscape:connector-curvature="0"
           style="fill:#c4a000;stroke:none;stroke-width:0.5;stroke-miterlimit:79.84031677;marker-start:none;marker-end:none" />
        <path
           d="m 465.82,609.818 2.25,5.25 c 0.176,0.176 0.52,0.095 0.75,0 0.979,-0.405 1.845,-1.271 2.25,-2.25 0.095,-0.23 0.176,-0.574 0,-0.75 l -5.25,-2.25 z"
           stroke-miterlimit="79.8403193612775"
           id="path19"
           inkscape:connector-curvature="0"
           style="fill:#c17d11;stroke:none;stroke-width:0.5;stroke-miterlimit:79.84031677;marker-start:none;marker-end:none" />
        <path
           d="m 478.57,619.568 c 0.176,0.176 0.095,0.52 0,0.75 -0.405,0.979 -1.271,1.845 -2.25,2.25 -0.23,0.095 -0.574,0.176 -0.75,0 l 2.25,2.25 c 0.176,0.176 0.52,0.095 0.75,0 0.979,-0.405 1.845,-1.271 2.25,-2.25 0.095,-0.23 0.176,-0.574 0,-0.75 l -2.25,-2.25 z"
           stroke-miterlimit="79.8403193612775"
           id="path21"
           inkscape:connector-curvature="0"
           style="fill:#cc0000;stroke:none;stroke-width:0.5;stroke-miterlimit:79.84031677;marker-start:none;marker-end:none" />
        <path
           d="m 477.82,618.818 c 0.177,0.176 0.095,0.52 0,0.75 -0.405,0.979 -1.271,1.845 -2.25,2.25 -0.23,0.095 -0.574,0.176 -0.75,0 l 0.75,0.75 c 0.176,0.176 0.52,0.095 0.75,0 0.979,-0.405 1.845,-1.271 2.25,-2.25 0.095,-0.23 0.176,-0.574 0,-0.75 l -0.75,-0.75 z"
           stroke-miterlimit="79.8403193612775"
           id="path23"
           inkscape:connector-curvature="0"
           style="fill:#555753;stroke:none;stroke-width:0.5;stroke-miterlimit:79.84031677;marker-start:none;marker-end:none" />
        <path
           d="m 470.969,613.028 -0.072,0.151 c -0.386,0.709 -1.007,1.33 -1.716,1.716 l -0.151,0.072 6.75,6.75 0.151,-0.072 0.458,-0.297 0.105,-0.078 0.416,-0.362 0.362,-0.416 0.078,-0.105 0.297,-0.458 0.072,-0.151 -6.75,-6.75 z"
           stroke-miterlimit="79.8403193612775"
           id="path25"
           inkscape:connector-curvature="0"
           style="fill:#edd400;stroke:none;stroke-width:0.5;stroke-linejoin:round;stroke-miterlimit:79.84031677;marker-start:none;marker-end:none" />
        <path
           d="m 477.719,619.778 -0.072,0.151 c -0.386,0.709 -1.007,1.33 -1.716,1.716 l -0.151,0.072 0.75,0.75 0.151,-0.072 0.016,-0.01 0.293,-0.179 0.097,-0.068 0.209,-0.158 0.092,-0.074 0.26,-0.238 0.012,-0.01 0.01,-0.012 0.238,-0.26 0.074,-0.092 0.158,-0.209 0.068,-0.097 0.179,-0.293 0.01,-0.016 0.072,-0.151 -0.75,-0.75 z"
           stroke-miterlimit="79.8403193612775"
           id="path27"
           inkscape:connector-curvature="0"
           style="fill:#d3d7cf;stroke:none;stroke-width:0.5;stroke-linejoin:round;stroke-miterlimit:79.84031677;marker-start:none;marker-end:none" />
        <path
           d="m 478.469,620.528 -0.072,0.151 c -0.386,0.709 -1.007,1.33 -1.716,1.716 l -0.151,0.072 1.678,1.678 0.075,-0.021 c 0.795,-0.328 1.515,-1.048 1.843,-1.843 l 0.021,-0.075 -1.678,-1.678 z"
           stroke-miterlimit="79.8403193612775"
           id="path29"
           inkscape:connector-curvature="0"
           style="fill:#ef2929;stroke:none;stroke-width:0.5;stroke-linejoin:round;stroke-miterlimit:79.84031677;marker-start:none;marker-end:none" />
        <path
           d="m 467.247,611.245 1.455,3.394 0.328,0.328 0.151,-0.072 c 0.709,-0.386 1.33,-1.007 1.716,-1.716 l 0.072,-0.151 -0.328,-0.328 -3.394,-1.455 z"
           stroke-miterlimit="79.8403193612775"
           id="path31"
           inkscape:connector-curvature="0"
           style="fill:#e9b96e;stroke:none;stroke-width:0.5;stroke-linejoin:round;stroke-miterlimit:79.84031677;marker-start:none;marker-end:none" />
        <mask
           id="TranspMask">
          <rect
             x="-59.527702"
             y="-84.189102"
             width="714.33246"
             height="1010.2692"
             id="rect34"
             style="fill:url(#LinearGradient);stroke:none" />
        </mask>
        <path
           d="m 467.247,611.245 1.455,3.394 9.506,9.506 0.075,-0.021 c 0.397,-0.164 0.776,-0.426 1.096,-0.747 l -12.132,-12.132 z"
           stroke-miterlimit="79.8403193612775"
           mask="url(#TranspMask)"
           id="path36"
           inkscape:connector-curvature="0"
           style="fill:#ffffff;stroke:none;stroke-width:0.5;stroke-linejoin:miter;stroke-miterlimit:79.84031677;marker-start:none;marker-end:none" />
        <path
           d="m 465.82,609.818 0.777,1.813 0.096,-0.068 c 0.328,-0.247 0.625,-0.544 0.872,-0.872 l 0.068,-0.096 -1.813,-0.777 z"
           stroke-miterlimit="79.8403193612775"
           id="path38"
           inkscape:connector-curvature="0"
           style="fill:#000000;stroke:none;stroke-width:0.5;stroke-miterlimit:79.84031677;marker-start:none;marker-end:none" />
      </g>
    </g>
  </g>
</svg>
