<?xml version="1.0" encoding="UTF-8" standalone="no"?>
<!--Generator: Xara Designer (www.xara.com), SVG filter version: 6.0.0.4-->

<svg
   xmlns:dc="http://purl.org/dc/elements/1.1/"
   xmlns:cc="http://creativecommons.org/ns#"
   xmlns:rdf="http://www.w3.org/1999/02/22-rdf-syntax-ns#"
   xmlns:svg="http://www.w3.org/2000/svg"
   xmlns="http://www.w3.org/2000/svg"
   xmlns:sodipodi="http://sodipodi.sourceforge.net/DTD/sodipodi-0.dtd"
   xmlns:inkscape="http://www.inkscape.org/namespaces/inkscape"
   version="1.1"
   overflow="visible"
   width="18pt"
   height="17.999998pt"
   viewBox="0 0 18.000001 17.999998"
   id="svg2"
   inkscape:version="0.91 r13725"
   sodipodi:docname="printer-print.svg"
   style="overflow:visible;fill-rule:evenodd;stroke-width:0.50099999;stroke-linejoin:bevel">
  <metadata
     id="metadata67">
    <rdf:RDF>
      <cc:Work
         rdf:about="">
        <dc:format>image/svg+xml</dc:format>
        <dc:type
           rdf:resource="http://purl.org/dc/dcmitype/StillImage" />
        <dc:title></dc:title>
      </cc:Work>
    </rdf:RDF>
  </metadata>
  <sodipodi:namedview
     pagecolor="#ffffff"
     bordercolor="#666666"
     borderopacity="1"
     objecttolerance="10"
     gridtolerance="10"
     guidetolerance="10"
     inkscape:pageopacity="0"
     inkscape:pageshadow="2"
     inkscape:window-width="640"
     inkscape:window-height="480"
     id="namedview65"
     showgrid="false"
     fit-margin-top="0"
     fit-margin-left="0"
     fit-margin-right="0"
     fit-margin-bottom="0"
     inkscape:zoom="5.074358"
     inkscape:cx="5.8165343"
     inkscape:cy="15.12951"
     inkscape:window-x="0"
     inkscape:window-y="0"
     inkscape:window-maximized="0"
     inkscape:current-layer="svg2" />
  <defs
     id="defs4">
    <linearGradient
       id="LinearGradient"
       gradientUnits="userSpaceOnUse"
       x1="0"
       y1="0"
       x2="4.9219999"
       y2="0"
       gradientTransform="matrix(0,-1,1,0,473.716,618.068)">
      <stop
         offset="0"
         stop-color="#ffffff"
         id="stop7" />
      <stop
         offset="1"
         stop-color="#babdb6"
         id="stop9" />
    </linearGradient>
    <linearGradient
       id="LinearGradient_1"
       gradientUnits="userSpaceOnUse"
       x1="0"
       y1="0"
       x2="0"
       y2="3.75"
       gradientTransform="translate(471.07,614.318)">
      <stop
         offset="0"
         stop-color="#2e3436"
         id="stop12" />
      <stop
         offset="1"
         stop-color="#888a85"
         id="stop14" />
    </linearGradient>
    <linearGradient
       id="LinearGradient_2"
       gradientUnits="userSpaceOnUse"
       x1="0"
       y1="0"
       x2="0"
       y2="-3"
       gradientTransform="translate(473.32,621.818)">
      <stop
         offset="0"
         stop-color="#ffffff"
         id="stop17" />
      <stop
         offset="1"
         stop-color="#e2e8ed"
         id="stop19" />
    </linearGradient>
    <linearGradient
       id="LinearGradient_3"
       gradientUnits="userSpaceOnUse"
       x1="0"
       y1="0"
       x2="3.75"
       y2="0"
       gradientTransform="matrix(2.6703537e-4,0.99999996,-0.99999996,2.6703537e-4,486.818,615.818)">
      <stop
         offset="0"
         stop-color="#333333"
         id="stop22" />
      <stop
         offset="1"
         stop-color="#ffffff"
         id="stop24" />
    </linearGradient>
  </defs>
  <g
     id="Document"
     font-size="16"
     transform="matrix(1,0,0,-1,-464.319,-215.57205)"
     style="font-size:16px;font-family:'Times New Roman';fill:none;stroke:#000000">
    <g
       id="Spread"
       transform="translate(0,-841.891)">
      <g
         id="opaque">
        <path
           d="m 482.319,626.319 0,-18 -18,0 0,18 18,0 z"
           stroke-miterlimit="79.8403193612775"
           id="path29"
           inkscape:connector-curvature="0"
           style="stroke:none;stroke-width:0.40700001;stroke-linejoin:miter;stroke-miterlimit:79.84031677;marker-start:none;marker-end:none" />
      </g>
      <g
         id="Layer 1">
        <path
           d="m 467.32,618.818 c -0.707,0 -1.5,-0.793 -1.5,-1.5 l -10e-4,-5.25 15.001,0 0,5.25 c 0,0.707 -0.793,1.5 -1.5,1.5 l -12,0 z"
           stroke-miterlimit="79.8403193612775"
           id="path32"
           inkscape:connector-curvature="0"
           style="fill:#888a85;stroke:none;stroke-width:0.5;stroke-linejoin:round;stroke-miterlimit:79.84031677;marker-start:none;marker-end:none" />
        <path
           d="m 466.569,612.818 10e-4,4.499 c 0,0.287 0.459,0.751 0.75,0.751 l 12,0 c 0.286,0 0.75,-0.46 0.75,-0.75 l 0,-4.5 -13.501,0 z"
           stroke-miterlimit="79.8403193612775"
           id="path34"
           inkscape:connector-curvature="0"
           style="fill:url(#LinearGradient);stroke:none;stroke-width:0.5;stroke-linejoin:round;stroke-miterlimit:79.84031677;marker-start:none;marker-end:none" />
        <path
           d="m 468.819,618.816 0,-3.749 c 0,-0.353 0.398,-0.749 0.751,-0.749 l 7.5,0 c 0.353,0 0.75,0.396 0.75,0.749 l 0.001,3.749 -9.002,0 z"
           stroke-miterlimit="79.8403193612775"
           id="path36"
           inkscape:connector-curvature="0"
           style="fill:url(#LinearGradient_1);stroke:none;stroke-width:0.5;stroke-linejoin:miter;stroke-miterlimit:79.84031677;marker-start:none;marker-end:none" />
        <path
           d="m 468.82,613.568 c -0.353,0 -0.75,-0.397 -0.75,-0.75 0,-0.353 0.397,-0.75 0.75,-0.75 l 9,0 c 0.353,0 0.75,0.397 0.75,0.75 0,0.353 -0.397,0.75 -0.75,0.75 l -9,0 z"
           stroke-miterlimit="79.8403193612775"
           id="path38"
           inkscape:connector-curvature="0"
           style="fill:#2e3436;stroke:none;stroke-width:0.5;stroke-linejoin:miter;stroke-miterlimit:79.84031677;marker-start:none;marker-end:none" />
        <path
           d="m 468.819,612.817 0,-2.999 9.001,0 0,2.999 -9.001,0 z"
           stroke-miterlimit="79.8403193612775"
           id="path40"
           inkscape:connector-curvature="0"
           style="fill:#aaada5;stroke:none;stroke-width:0.5;stroke-linejoin:round;stroke-miterlimit:79.84031677;marker-start:none;marker-end:none" />
        <path
           d="m 469.57,612.816 0,-2.249 7.501,0 0,2.249 -7.501,0 z"
           stroke-miterlimit="79.8403193612775"
           id="path42"
           inkscape:connector-curvature="0"
           style="fill:#ffffff;stroke:none;stroke-width:0.5;stroke-linejoin:miter;stroke-miterlimit:79.84031677;marker-start:none;marker-end:none" />
        <path
           d="m 468.071,620.318 -0.002,-1.5 10.501,0 0,1.5 c 0,0.353 -0.397,0.75 -0.75,0.75 l -9,0 c -0.353,0 -0.75,-0.397 -0.749,-0.75 z"
           stroke-miterlimit="79.8403193612775"
           id="path44"
           inkscape:connector-curvature="0"
           style="fill:#939590;stroke:none;stroke-width:0.5;stroke-linejoin:miter;stroke-miterlimit:79.84031677;marker-start:none;marker-end:none" />
        <path
           d="m 468.819,618.819 0,5.999 7.501,0 c 0.707,0 1.5,-0.793 1.5,-1.5 l 0,-4.499 -9.001,0 z"
           stroke-miterlimit="79.8403193612775"
           id="path46"
           inkscape:connector-curvature="0"
           style="fill:#aaada5;stroke:none;stroke-width:0.5;stroke-linejoin:round;stroke-miterlimit:79.84031677;marker-start:none;marker-end:none" />
        <path
           d="m 469.57,618.819 0,5.249 6.75,0 c 0.353,0 0.75,-0.397 0.75,-0.75 l 0.001,-4.499 -7.501,0 z"
           stroke-miterlimit="79.8403193612775"
           id="path48"
           inkscape:connector-curvature="0"
           style="fill:url(#LinearGradient_2);stroke:none;stroke-width:0.5;stroke-linejoin:round;stroke-miterlimit:79.84031677;marker-start:none;marker-end:none" />
        <mask
           id="TranspMask">
          <rect
             x="-59.527702"
             y="-84.189102"
             width="714.33246"
             height="1010.2692"
             id="rect51"
             style="fill:url(#LinearGradient_3);stroke:none" />
        </mask>
        <path
           d="m 466.569,615.818 10e-4,1.499 c 0,0.287 0.459,0.751 0.75,0.751 l 12,0 c 0.286,0 0.75,-0.46 0.75,-0.75 l 0,-1.5 -13.501,0 z"
           stroke-miterlimit="79.8403193612775"
           mask="url(#TranspMask)"
           id="path53"
           inkscape:connector-curvature="0"
           style="fill:#ffffff;stroke:none;stroke-width:0.5;stroke-linejoin:miter;stroke-miterlimit:79.84031677;marker-start:none;marker-end:none" />
        <path
           d="m 474.069,612.067 0,-0.749 2.251,0 0,0.749 -2.251,0 z"
           stroke-miterlimit="79.8403193612775"
           id="path55"
           inkscape:connector-curvature="0"
           style="fill:#d1d5cb;stroke:none;stroke-width:0.5;stroke-linejoin:miter;stroke-miterlimit:79.84031677;marker-start:none;marker-end:none" />
        <path
           d="m 470.319,612.817 0,-1.499 0.751,0 0,1.499 -0.751,0 z"
           stroke-miterlimit="79.8403193612775"
           id="path57"
           inkscape:connector-curvature="0"
           style="fill:#f3b6d2;stroke:none;stroke-width:0.5;stroke-linejoin:round;stroke-miterlimit:79.84031677;marker-start:none;marker-end:none" />
        <path
           d="m 471.069,612.817 0,-1.499 0.751,0 0,1.499 -0.751,0 z"
           stroke-miterlimit="79.8403193612775"
           id="path59"
           inkscape:connector-curvature="0"
           style="fill:#b8f39e;stroke:none;stroke-width:0.5;stroke-linejoin:round;stroke-miterlimit:79.84031677;marker-start:none;marker-end:none" />
        <path
           d="m 471.819,612.817 0,-1.499 0.751,0 0,1.499 -0.751,0 z"
           stroke-miterlimit="79.8403193612775"
           id="path61"
           inkscape:connector-curvature="0"
           style="fill:#a0c0e8;stroke:none;stroke-width:0.5;stroke-linejoin:round;stroke-miterlimit:79.84031677;marker-start:none;marker-end:none" />
        <path
           d="m 472.569,612.817 0,-1.499 0.751,0 0,1.499 -0.751,0 z"
           stroke-miterlimit="79.8403193612775"
           id="path63"
           inkscape:connector-curvature="0"
           style="fill:#f6f79c;stroke:none;stroke-width:0.5;stroke-linejoin:round;stroke-miterlimit:79.84031677;marker-start:none;marker-end:none" />
      </g>
    </g>
  </g>
</svg>
