<?xml version="1.0" encoding="UTF-8" standalone="no"?>
<!--Generator: Xara Designer (www.xara.com), SVG filter version: 6.0.0.4-->

<svg
   xmlns:dc="http://purl.org/dc/elements/1.1/"
   xmlns:cc="http://creativecommons.org/ns#"
   xmlns:rdf="http://www.w3.org/1999/02/22-rdf-syntax-ns#"
   xmlns:svg="http://www.w3.org/2000/svg"
   xmlns="http://www.w3.org/2000/svg"
   xmlns:sodipodi="http://sodipodi.sourceforge.net/DTD/sodipodi-0.dtd"
   xmlns:inkscape="http://www.inkscape.org/namespaces/inkscape"
   version="1.1"
   overflow="visible"
   width="18pt"
   height="17.999998pt"
   viewBox="0 0 18.000001 17.999998"
   id="svg2"
   inkscape:version="0.91 r13725"
   sodipodi:docname="question-sign.svg"
   style="overflow:visible;fill-rule:evenodd;stroke-width:0.50099999;stroke-linejoin:bevel">
  <metadata
     id="metadata38">
    <rdf:RDF>
      <cc:Work
         rdf:about="">
        <dc:format>image/svg+xml</dc:format>
        <dc:type
           rdf:resource="http://purl.org/dc/dcmitype/StillImage" />
        <dc:title></dc:title>
      </cc:Work>
    </rdf:RDF>
  </metadata>
  <sodipodi:namedview
     pagecolor="#ffffff"
     bordercolor="#666666"
     borderopacity="1"
     objecttolerance="10"
     gridtolerance="10"
     guidetolerance="10"
     inkscape:pageopacity="0"
     inkscape:pageshadow="2"
     inkscape:window-width="640"
     inkscape:window-height="480"
     id="namedview36"
     showgrid="false"
     fit-margin-top="0"
     fit-margin-left="0"
     fit-margin-right="0"
     fit-margin-bottom="0"
     inkscape:zoom="3.588113"
     inkscape:cx="0.60006421"
     inkscape:cy="10.556795"
     inkscape:window-x="0"
     inkscape:window-y="0"
     inkscape:window-maximized="0"
     inkscape:current-layer="svg2" />
  <defs
     id="defs4">
    <linearGradient
       id="LinearGradient"
       gradientUnits="userSpaceOnUse"
       x1="0"
       y1="0"
       x2="0"
       y2="-18"
       gradientTransform="translate(482.319,626.319)">
      <stop
         offset="0"
         stop-color="#ffffff"
         id="stop7" />
      <stop
         offset="0.500999987125397"
         stop-color="#d3d7cf"
         id="stop9" />
      <stop
         offset="1"
         stop-color="#ffffff"
         id="stop11" />
    </linearGradient>
    <linearGradient
       id="LinearGradient_1"
       gradientUnits="userSpaceOnUse"
       x1="0"
       y1="0"
       x2="0"
       y2="9"
       gradientTransform="translate(482.319,617.319)">
      <stop
         offset="0"
         stop-color="#333333"
         id="stop14" />
      <stop
         offset="1"
         stop-color="#ffffff"
         id="stop16" />
    </linearGradient>
  </defs>
  <g
     id="Document"
     font-size="16"
     transform="matrix(1,0,0,-1,-464.319,-215.57205)"
     style="font-size:16px;font-family:'Times New Roman';fill:none;stroke:#000000">
    <g
       id="Spread"
       transform="translate(0,-841.891)">
      <g
         id="Layer 1">
        <path
           d="m 464.319,626.319 18,0 0,-18 -18,0 0,18 z"
           stroke-miterlimit="79.8403193612775"
           id="path21"
           inkscape:connector-curvature="0"
           style="stroke:none;stroke-width:0.40700001;stroke-linejoin:miter;stroke-miterlimit:79.84031677;marker-start:none;marker-end:none" />
        <path
           d="m 466.569,609.819 c 0.562,0.562 1.968,1.546 2.953,2.636 l 0.289,0.354 -0.067,0.029 c -2.338,1.08 -3.926,3.186 -3.926,5.606 0,3.519 3.361,6.375 7.501,6.375 4.14,0 7.501,-2.856 7.501,-6.375 0,-3.519 -3.361,-6.375 -7.501,-6.375 -0.75,-0.75 -6,-2.25 -6.75,-2.25 z"
           stroke-miterlimit="79.8403193612775"
           id="path23"
           inkscape:connector-curvature="0"
           style="fill:#888a85;stroke:none;stroke-width:0.5;stroke-linejoin:miter;stroke-miterlimit:79.84031677;marker-start:none;marker-end:none" />
        <path
           d="m 469.407,611.285 0.677,0.667 0.935,1.151 -0.969,0.419 c -2.122,0.98 -3.482,2.853 -3.482,4.922 0,2.995 2.906,5.625 6.751,5.625 3.844,0 6.751,-2.63 6.751,-5.625 0,-2.996 -2.907,-5.625 -6.751,-5.625 l -0.303,0 -0.231,-0.223 c -0.228,-0.213 -1.506,-0.731 -3.062,-1.217 l -0.316,-0.094 z"
           stroke-miterlimit="79.8403193612775"
           id="path25"
           inkscape:connector-curvature="0"
           style="fill:url(#LinearGradient);stroke:none;stroke-width:0.75;stroke-linejoin:round;stroke-miterlimit:79.84031677;marker-start:none;marker-end:none" />
        <path
           d="m 473.319,614.319 c -0.415,0 -0.75,0.336 -0.75,0.75 0,0.411 0.335,0.749 0.75,0.749 0.413,0 0.75,-0.337 0.75,-0.749 0,-0.414 -0.337,-0.75 -0.75,-0.75 z"
           stroke-miterlimit="79.8403193612775"
           id="path27"
           inkscape:connector-curvature="0"
           style="fill:#000000;stroke:none;stroke-width:0.5;stroke-linejoin:round;stroke-miterlimit:79.84031677;marker-start:none;marker-end:none" />
        <mask
           id="TranspMask">
          <rect
             x="-59.527702"
             y="-84.189102"
             width="714.33246"
             height="1010.2692"
             id="rect30"
             style="fill:url(#LinearGradient_1);stroke:none" />
        </mask>
        <path
           d="m 466.704,617.318 -0.074,0.359 c -0.041,0.252 -0.062,0.508 -0.062,0.767 0,2.995 2.906,5.625 6.751,5.625 3.844,0 6.751,-2.63 6.751,-5.625 0,-0.375 -0.046,-0.744 -0.133,-1.102 l -0.007,-0.024 -13.226,0 z"
           stroke-miterlimit="79.8403193612775"
           mask="url(#TranspMask)"
           id="path32"
           inkscape:connector-curvature="0"
           style="fill:#ffffff;stroke:none;stroke-width:0.5;stroke-linejoin:miter;stroke-miterlimit:79.84031677;marker-start:none;marker-end:none" />
        <path
           d="m 473.319,616.569 -0.136,0.213 -0.053,0.095 -0.059,0.106 -0.051,0.102 -0.04,0.085 -0.042,0.102 -0.028,0.073 -0.033,0.099 -0.018,0.063 -0.024,0.097 -0.01,0.054 -0.014,0.095 -0.003,0.043 -0.005,0.096 10e-4,0.013 0.005,0.111 c 0.097,0.921 1.26,1.224 1.26,2.303 0,0.375 -0.397,0.75 -0.75,0.75 -0.353,0 -0.75,-0.398 -0.75,-0.75 0,-0.375 -0.397,-0.75 -0.75,-0.75 -0.353,0 -0.75,0.397 -0.75,0.75 l 0,0.019 0.01,0.21 c 0.116,1.135 1.075,2.021 2.24,2.021 1.242,0 2.251,-1.008 2.251,-2.25 0,-0.078 -0.004,-0.155 -0.012,-0.23 l -0.006,-0.042 -0.001,-10e-4 0,-0.005 -0.027,-0.176 c -0.06,-0.293 -0.177,-0.565 -0.339,-0.804 l -0.031,-0.042 -0.1,-0.151 c -0.505,-0.717 -1.267,-1.362 -1.735,-2.299 z"
           stroke-miterlimit="79.8403193612775"
           id="path34"
           inkscape:connector-curvature="0"
           style="fill:#000000;stroke:none;stroke-width:0.5;stroke-miterlimit:79.84031677;marker-start:none;marker-end:none" />
      </g>
    </g>
  </g>
</svg>
