<?xml version="1.0" encoding="UTF-8" standalone="no"?>
<!--Generator: Xara Designer (www.xara.com), SVG filter version: 6.0.0.4-->

<svg
   xmlns:dc="http://purl.org/dc/elements/1.1/"
   xmlns:cc="http://creativecommons.org/ns#"
   xmlns:rdf="http://www.w3.org/1999/02/22-rdf-syntax-ns#"
   xmlns:svg="http://www.w3.org/2000/svg"
   xmlns="http://www.w3.org/2000/svg"
   xmlns:sodipodi="http://sodipodi.sourceforge.net/DTD/sodipodi-0.dtd"
   xmlns:inkscape="http://www.inkscape.org/namespaces/inkscape"
   version="1.1"
   overflow="visible"
   width="18pt"
   height="17.999998pt"
   viewBox="0 0 18.000001 17.999998"
   id="svg2"
   inkscape:version="0.91 r13725"
   sodipodi:docname="reload.svg"
   style="overflow:visible;fill-rule:evenodd;stroke-width:0.50099999;stroke-linejoin:bevel">
  <metadata
     id="metadata38">
    <rdf:RDF>
      <cc:Work
         rdf:about="">
        <dc:format>image/svg+xml</dc:format>
        <dc:type
           rdf:resource="http://purl.org/dc/dcmitype/StillImage" />
        <dc:title></dc:title>
      </cc:Work>
    </rdf:RDF>
  </metadata>
  <sodipodi:namedview
     pagecolor="#ffffff"
     bordercolor="#666666"
     borderopacity="1"
     objecttolerance="10"
     gridtolerance="10"
     guidetolerance="10"
     inkscape:pageopacity="0"
     inkscape:pageshadow="2"
     inkscape:window-width="640"
     inkscape:window-height="480"
     id="namedview36"
     showgrid="false"
     fit-margin-top="0"
     fit-margin-left="0"
     fit-margin-right="0"
     fit-margin-bottom="0"
     inkscape:zoom="5.074358"
     inkscape:cx="14.647556"
     inkscape:cy="10.520265"
     inkscape:window-x="0"
     inkscape:window-y="0"
     inkscape:window-maximized="0"
     inkscape:current-layer="svg2" />
  <defs
     id="defs4">
    <linearGradient
       id="LinearGradient"
       gradientUnits="userSpaceOnUse"
       x1="0"
       y1="0"
       x2="18"
       y2="0"
       gradientTransform="matrix(0,-1,1,0,464.318,626.318)">
      <stop
         offset="0"
         stop-color="#ffffff"
         id="stop7" />
      <stop
         offset="0.500999987125397"
         stop-color="#1a6bd3"
         id="stop9" />
      <stop
         offset="1"
         stop-color="#ffffff"
         id="stop11" />
    </linearGradient>
    <linearGradient
       id="LinearGradient_1"
       gradientUnits="userSpaceOnUse"
       x1="0"
       y1="0"
       x2="9"
       y2="0"
       gradientTransform="matrix(0,1,-1,0,464.318,617.318)">
      <stop
         offset="0"
         stop-color="#333333"
         id="stop14" />
      <stop
         offset="1"
         stop-color="#ffffff"
         id="stop16" />
    </linearGradient>
  </defs>
  <g
     id="Document"
     font-size="16"
     transform="matrix(1,0,0,-1,-464.319,-215.57205)"
     style="font-size:16px;font-family:'Times New Roman';fill:none;stroke:#000000">
    <g
       id="Spread"
       transform="translate(0,-841.891)">
      <g
         id="opaque">
        <path
           d="m 464.319,626.319 0,-18 18,0 0,18 -18,0 z"
           stroke-miterlimit="79.8403193612775"
           id="path21"
           inkscape:connector-curvature="0"
           style="stroke:none;stroke-width:0.40700001;stroke-linejoin:miter;stroke-miterlimit:79.84031677;marker-start:none;marker-end:none" />
      </g>
      <g
         id="Layer 1">
        <g
           id="Group"
           stroke-miterlimit="79.8403193612775"
           style="fill:#205187;stroke:none;stroke-width:0.18799999;stroke-linejoin:round;stroke-miterlimit:79.84031677">
          <path
             d="m 478.568,621.818 2.25,2.25 0,-6.75 c 0,-0.353 -0.397,-0.75 -0.75,-0.75 l -6.75,0 2.25,2.25 -1.5,1.5 c -1.5,1.5 -2.483,1.534 -3.75,1.499 -2.392,-0.063 -4.5,-1.788 -4.5,-3.749 0,3.895 2.74,6.426 6,6.75 1.762,0.175 3.75,0 5.25,-1.5 l 1.5,-1.5 z"
             id="path25"
             inkscape:connector-curvature="0"
             style="marker-start:none;marker-end:none" />
          <path
             d="m 468.068,612.818 -2.25,-2.25 0,6.75 c 0,0.353 0.397,0.75 0.75,0.75 l 6.75,0 -2.25,-2.25 1.5,-1.5 c 1.5,-1.5 2.483,-1.534 3.75,-1.5 2.392,0.064 4.5,1.789 4.5,3.75 0,-3.895 -2.74,-6.426 -6,-6.75 -1.762,-0.175 -3.75,0 -5.25,1.5 l -1.5,1.5 z"
             id="path27"
             inkscape:connector-curvature="0"
             style="marker-start:none;marker-end:none" />
        </g>
        <path
           d="m 473.491,610.516 c 0.417,-0.014 0.839,0.006 1.253,0.048 1.452,0.144 2.783,0.774 3.751,1.803 l 0.225,0.29 -0.449,-0.21 c -0.614,-0.229 -1.271,-0.362 -1.932,-0.379 -1.396,-0.038 -2.608,0.027 -4.301,1.719 l -1.5,1.5 c -0.293,0.293 -0.293,0.768 0,1.061 l 0.97,0.97 -4.883,0 -0.057,-0.057 0,-4.883 0.97,0.97 c 0.293,0.293 0.768,0.293 1.061,0 l 1.5,-1.5 c 0.948,-0.949 2.14,-1.29 3.392,-1.332 z m 6.522,6.802 0.055,0.055 0,4.883 -0.969,-0.969 c -0.293,-0.293 -0.768,-0.293 -1.061,0 l -1.5,1.5 c -1.262,1.262 -2.964,1.451 -4.645,1.284 -1.451,-0.144 -2.782,-0.774 -3.751,-1.804 l -0.225,-0.29 0.45,0.21 c 0.614,0.229 1.271,0.362 1.931,0.38 1.396,0.038 2.608,-0.027 4.301,-1.719 l 1.5,-1.5 c 0.293,-0.293 0.293,-0.768 0,-1.061 l -0.969,-0.969 4.883,0 z"
           stroke-miterlimit="79.8403193612775"
           id="path29"
           inkscape:connector-curvature="0"
           style="fill:url(#LinearGradient);stroke:none;stroke-width:0.75;stroke-linejoin:round;stroke-miterlimit:79.84031677;marker-start:none;marker-end:none" />
        <mask
           id="TranspMask">
          <rect
             x="-59.527702"
             y="-84.189102"
             width="714.33246"
             height="1010.2692"
             id="rect32"
             style="fill:url(#LinearGradient_1);stroke:none" />
        </mask>
        <path
           d="m 480.013,617.318 0.055,0.055 0,4.883 -0.969,-0.969 c -0.293,-0.293 -0.768,-0.293 -1.061,0 l -1.5,1.5 c -1.262,1.262 -2.964,1.451 -4.645,1.284 -1.451,-0.144 -2.782,-0.774 -3.751,-1.804 l -0.225,-0.29 0.45,0.21 c 0.614,0.229 1.271,0.362 1.931,0.38 1.396,0.038 2.608,-0.027 4.301,-1.719 l 1.5,-1.5 c 0.293,-0.293 0.293,-0.768 0,-1.061 l -0.969,-0.969 4.883,0 z"
           stroke-miterlimit="79.8403193612775"
           mask="url(#TranspMask)"
           id="path34"
           inkscape:connector-curvature="0"
           style="fill:#ffffff;stroke:none;stroke-width:0.5;stroke-linejoin:miter;stroke-miterlimit:79.84031677;marker-start:none;marker-end:none" />
      </g>
    </g>
  </g>
</svg>
