<?xml version="1.0" encoding="UTF-8" standalone="no"?>
<!--Generator: Xara Designer (www.xara.com), SVG filter version: 6.0.0.4-->

<svg
   xmlns:dc="http://purl.org/dc/elements/1.1/"
   xmlns:cc="http://creativecommons.org/ns#"
   xmlns:rdf="http://www.w3.org/1999/02/22-rdf-syntax-ns#"
   xmlns:svg="http://www.w3.org/2000/svg"
   xmlns="http://www.w3.org/2000/svg"
   xmlns:sodipodi="http://sodipodi.sourceforge.net/DTD/sodipodi-0.dtd"
   xmlns:inkscape="http://www.inkscape.org/namespaces/inkscape"
   version="1.1"
   overflow="visible"
   width="18pt"
   height="17.999998pt"
   viewBox="0 0 18.000001 17.999998"
   id="svg2"
   inkscape:version="0.91 r13725"
   sodipodi:docname="scissors-cut.svg"
   style="overflow:visible;fill-rule:evenodd;stroke-width:0.50099999;stroke-linejoin:bevel">
  <metadata
     id="metadata60">
    <rdf:RDF>
      <cc:Work
         rdf:about="">
        <dc:format>image/svg+xml</dc:format>
        <dc:type
           rdf:resource="http://purl.org/dc/dcmitype/StillImage" />
        <dc:title></dc:title>
      </cc:Work>
    </rdf:RDF>
  </metadata>
  <sodipodi:namedview
     pagecolor="#ffffff"
     bordercolor="#666666"
     borderopacity="1"
     objecttolerance="10"
     gridtolerance="10"
     guidetolerance="10"
     inkscape:pageopacity="0"
     inkscape:pageshadow="2"
     inkscape:window-width="640"
     inkscape:window-height="480"
     id="namedview58"
     showgrid="false"
     fit-margin-top="0"
     fit-margin-left="0"
     fit-margin-right="0"
     fit-margin-bottom="0"
     inkscape:zoom="3.588113"
     inkscape:cx="25.419772"
     inkscape:cy="4.7033122"
     inkscape:window-x="0"
     inkscape:window-y="0"
     inkscape:window-maximized="0"
     inkscape:current-layer="svg2" />
  <defs
     id="defs4">
    <linearGradient
       id="LinearGradient"
       gradientUnits="userSpaceOnUse"
       x1="0"
       y1="0"
       x2="0"
       y2="-6.75"
       gradientTransform="translate(470.32,616.568)">
      <stop
         offset="0"
         stop-color="#ffffff"
         id="stop7" />
      <stop
         offset="1"
         stop-color="#ef2929"
         id="stop9" />
    </linearGradient>
    <linearGradient
       id="LinearGradient_1"
       gradientUnits="userSpaceOnUse"
       x1="0"
       y1="0"
       x2="0"
       y2="-9"
       gradientTransform="translate(471.07,624.068)">
      <stop
         offset="0"
         stop-color="#ffffff"
         id="stop12" />
      <stop
         offset="1"
         stop-color="#eeeeec"
         id="stop14" />
    </linearGradient>
    <linearGradient
       id="LinearGradient_2"
       gradientUnits="userSpaceOnUse"
       x1="0"
       y1="0"
       x2="0"
       y2="-6.75"
       gradientTransform="translate(470.32,616.568)">
      <stop
         offset="0"
         stop-color="#ffffff"
         id="stop17" />
      <stop
         offset="1"
         stop-color="#ef2929"
         id="stop19" />
    </linearGradient>
    <linearGradient
       id="LinearGradient_3"
       gradientUnits="userSpaceOnUse"
       x1="0"
       y1="0"
       x2="0"
       y2="-9"
       gradientTransform="translate(471.07,624.068)">
      <stop
         offset="0"
         stop-color="#ffffff"
         id="stop22" />
      <stop
         offset="1"
         stop-color="#eeeeec"
         id="stop24" />
    </linearGradient>
  </defs>
  <g
     id="Document"
     font-size="16"
     transform="matrix(1,0,0,-1,-464.319,-215.57205)"
     style="font-size:16px;font-family:'Times New Roman';fill:none;stroke:#000000">
    <g
       id="Spread"
       transform="translate(0,-841.891)">
      <g
         id="opaque">
        <path
           d="m 482.319,626.319 0,-18 -18,0 0,18 18,0 z"
           stroke-miterlimit="79.8403193612775"
           id="path29"
           inkscape:connector-curvature="0"
           style="stroke:none;stroke-width:0.40700001;stroke-linejoin:miter;stroke-miterlimit:79.84031677;marker-start:none;marker-end:none" />
      </g>
      <g
         id="Layer 1">
        <path
           d="m 470.32,617.318 1.5,-1.5 -3.75,-5.25 c -0.75,-0.75 -1.5,0 -2.25,0.75 -0.307,0.307 -0.618,0.818 -0.75,1.5 -0.088,0.452 -0.079,1.025 0,1.5 0.092,0.559 0.27,1.02 0.75,1.5 1.185,1.185 3,1.5 4.5,1.5 z"
           stroke-miterlimit="79.8403193612775"
           id="path32"
           inkscape:connector-curvature="0"
           style="fill:#cc0000;stroke:none;stroke-width:0.5;stroke-linejoin:round;stroke-miterlimit:79.84031677;marker-start:none;marker-end:none" />
        <path
           d="m 476.32,617.318 -1.5,-1.5 3.75,-5.25 c 0.75,-0.75 1.5,0 2.25,0.75 0.307,0.307 0.618,0.818 0.75,1.5 0.088,0.452 0.079,1.025 0,1.5 -0.092,0.559 -0.27,1.02 -0.75,1.5 -1.185,1.185 -3,1.5 -4.5,1.5 z"
           stroke-miterlimit="79.8403193612775"
           id="path34"
           inkscape:connector-curvature="0"
           style="fill:#cc0000;stroke:none;stroke-width:0.5;stroke-linejoin:round;stroke-miterlimit:79.84031677;marker-start:none;marker-end:none" />
        <path
           d="m 479.224,611.007 c 0.006,-10e-4 -10e-4,-0.003 -0.022,0.008 l -0.072,0.057 -3.331,4.664 0.814,0.814 0.797,-0.046 c 1.092,-0.133 2.151,-0.49 2.879,-1.217 1.138,-1.138 0.521,-2.918 0.001,-3.439 -0.799,-0.798 -1.011,-0.848 -1.066,-0.841 z"
           stroke-miterlimit="79.8403193612775"
           id="path36"
           inkscape:connector-curvature="0"
           style="fill:url(#LinearGradient);stroke:none;stroke-width:0.5;stroke-linejoin:round;stroke-miterlimit:79.84031677;marker-start:none;marker-end:none" />
        <path
           d="m 479.381,612.01 -2.603,3.645 0.128,0.128 0.425,-0.025 c 0.984,-0.122 1.861,-0.435 2.428,-1.001 0.356,-0.356 0.469,-0.802 0.413,-1.305 -0.062,-0.561 -0.316,-0.977 -0.413,-1.074 -0.128,-0.128 -0.232,-0.23 -0.317,-0.312 l -0.061,-0.056 z"
           stroke-miterlimit="79.8403193612775"
           id="path38"
           inkscape:connector-curvature="0"
           style="fill:#cc0000;stroke:none;stroke-width:0.5;stroke-linejoin:round;stroke-miterlimit:79.84031677;marker-start:none;marker-end:none" />
        <path
           d="m 479.38,613.301 -1.039,1.455 0.074,-0.025 c 0.334,-0.132 0.61,-0.301 0.814,-0.504 0.151,-0.153 0.223,-0.335 0.204,-0.627 -0.006,-0.089 -0.02,-0.174 -0.039,-0.253 l -0.014,-0.046 z"
           stroke-miterlimit="79.8403193612775"
           id="path40"
           inkscape:connector-curvature="0"
           style="fill:#ffffff;stroke:none;stroke-width:0.5;stroke-linejoin:round;stroke-miterlimit:79.84031677;marker-start:none;marker-end:none" />
        <path
           d="m 477.82,624.818 -7.5,-7.5 1.5,-1.5 c 0.75,0 1.5,0 2.25,0.75 l 3.75,5.25 c 0.75,0.75 0.75,2.25 0,3 z"
           stroke-miterlimit="79.8403193612775"
           id="path42"
           inkscape:connector-curvature="0"
           style="fill:#aaada5;stroke:none;stroke-width:0.5;stroke-linejoin:round;stroke-miterlimit:79.84031677;marker-start:none;marker-end:none" />
        <path
           d="m 472.122,616.574 -0.742,0.744 6.233,6.232 0.018,-0.233 c 0,-0.37 -0.114,-0.741 -0.342,-0.969 -0.029,-0.029 -0.056,-0.061 -0.08,-0.095 l -3.698,-5.177 -0.355,-0.279 c -0.256,-0.148 -0.519,-0.201 -0.829,-0.219 l -0.205,-0.004 z"
           stroke-miterlimit="79.8403193612775"
           id="path44"
           inkscape:connector-curvature="0"
           style="fill:url(#LinearGradient_1);stroke:none;stroke-width:0.5;stroke-linejoin:round;stroke-miterlimit:79.84031677;marker-start:none;marker-end:none" />
        <path
           d="m 467.415,611.007 c -0.022,-0.003 -0.191,-0.035 -1.065,0.841 -0.53,0.53 -1.129,2.31 0,3.439 0.727,0.727 1.786,1.084 2.878,1.217 l 0.797,0.046 0.815,-0.814 -3.33,-4.661 -0.075,-0.06 c -0.02,-0.011 -0.027,-0.009 -0.02,-0.008 z"
           stroke-miterlimit="79.8403193612775"
           id="path46"
           inkscape:connector-curvature="0"
           style="fill:url(#LinearGradient_2);stroke:none;stroke-width:0.5;stroke-linejoin:round;stroke-miterlimit:79.84031677;marker-start:none;marker-end:none" />
        <path
           d="m 467.258,612.011 -0.032,0.03 c -0.092,0.086 -0.205,0.196 -0.345,0.337 -0.096,0.095 -0.352,0.511 -0.414,1.074 -0.056,0.503 0.057,0.949 0.413,1.305 0.567,0.567 1.442,0.88 2.426,1.001 l 0.426,0.025 0.128,-0.128 -2.602,-3.644 z"
           stroke-miterlimit="79.8403193612775"
           id="path48"
           inkscape:connector-curvature="0"
           style="fill:#cc0000;stroke:none;stroke-width:0.5;stroke-linejoin:round;stroke-miterlimit:79.84031677;marker-start:none;marker-end:none" />
        <path
           d="m 467.258,613.301 -0.014,0.045 c -0.019,0.079 -0.033,0.165 -0.038,0.254 -0.019,0.292 0.052,0.474 0.204,0.627 0.203,0.203 0.479,0.372 0.814,0.504 l 0.072,0.024 -1.038,-1.454 z"
           stroke-miterlimit="79.8403193612775"
           id="path50"
           inkscape:connector-curvature="0"
           style="fill:#ffffff;stroke:none;stroke-width:0.5;stroke-linejoin:round;stroke-miterlimit:79.84031677;marker-start:none;marker-end:none" />
        <path
           d="m 468.82,624.818 7.5,-7.5 -1.5,-1.5 c -0.75,0 -1.5,0 -2.249,0.75 l -3.751,5.25 c -0.75,0.75 -0.75,2.25 0,3 z"
           stroke-miterlimit="79.8403193612775"
           id="path52"
           inkscape:connector-curvature="0"
           style="fill:#aaada5;stroke:none;stroke-width:0.5;stroke-linejoin:round;stroke-miterlimit:79.84031677;marker-start:none;marker-end:none" />
        <path
           d="m 474.515,616.574 -0.203,0.004 c -0.311,0.018 -0.574,0.071 -0.83,0.219 l -0.355,0.279 -3.697,5.177 c -0.024,0.034 -0.051,0.066 -0.08,0.095 -0.228,0.228 -0.343,0.598 -0.343,0.969 l 0.018,0.233 0.276,-0.274 5.958,-5.958 -0.744,-0.744 z"
           stroke-miterlimit="79.8403193612775"
           id="path54"
           inkscape:connector-curvature="0"
           style="fill:url(#LinearGradient_3);stroke:none;stroke-width:0.5;stroke-linejoin:round;stroke-miterlimit:79.84031677;marker-start:none;marker-end:none" />
        <path
           d="m 473.321,618.818 c 0.414,0 0.751,-0.336 0.751,-0.75 0,-0.414 -0.337,-0.75 -0.751,-0.75 -0.414,0 -0.751,0.336 -0.751,0.75 0,0.414 0.337,0.75 0.751,0.75 z"
           stroke-miterlimit="79.8403193612775"
           id="path56"
           inkscape:connector-curvature="0"
           style="fill:#999999;stroke:none;stroke-width:0.5;stroke-miterlimit:79.84031677;marker-start:none;marker-end:none" />
      </g>
    </g>
  </g>
</svg>
