<?xml version="1.0" encoding="UTF-8" standalone="no"?>
<!--Generator: Xara Designer (www.xara.com), SVG filter version: 6.0.0.4-->

<svg
   xmlns:dc="http://purl.org/dc/elements/1.1/"
   xmlns:cc="http://creativecommons.org/ns#"
   xmlns:rdf="http://www.w3.org/1999/02/22-rdf-syntax-ns#"
   xmlns:svg="http://www.w3.org/2000/svg"
   xmlns="http://www.w3.org/2000/svg"
   xmlns:sodipodi="http://sodipodi.sourceforge.net/DTD/sodipodi-0.dtd"
   xmlns:inkscape="http://www.inkscape.org/namespaces/inkscape"
   version="1.1"
   overflow="visible"
   width="18pt"
   height="17.999998pt"
   viewBox="0 0 18.000001 17.999998"
   id="svg2"
   inkscape:version="0.91 r13725"
   sodipodi:docname="ui-toolbar-star-bookmarks.svg"
   style="overflow:visible;fill-rule:evenodd;stroke-width:0.50099999;stroke-linejoin:bevel">
  <metadata
     id="metadata65">
    <rdf:RDF>
      <cc:Work
         rdf:about="">
        <dc:format>image/svg+xml</dc:format>
        <dc:type
           rdf:resource="http://purl.org/dc/dcmitype/StillImage" />
        <dc:title></dc:title>
      </cc:Work>
    </rdf:RDF>
  </metadata>
  <sodipodi:namedview
     pagecolor="#ffffff"
     bordercolor="#666666"
     borderopacity="1"
     objecttolerance="10"
     gridtolerance="10"
     guidetolerance="10"
     inkscape:pageopacity="0"
     inkscape:pageshadow="2"
     inkscape:window-width="640"
     inkscape:window-height="480"
     id="namedview63"
     showgrid="false"
     fit-margin-top="0"
     fit-margin-left="0"
     fit-margin-right="0"
     fit-margin-bottom="0"
     inkscape:zoom="3.588113"
     inkscape:cx="3.1397552"
     inkscape:cy="11.697707"
     inkscape:window-x="0"
     inkscape:window-y="0"
     inkscape:window-maximized="0"
     inkscape:current-layer="svg2" />
  <defs
     id="defs4">
    <linearGradient
       id="LinearGradient"
       gradientUnits="userSpaceOnUse"
       x1="0"
       y1="0"
       x2="0"
       y2="-7.5"
       gradientTransform="translate(473.318,622.568)">
      <stop
         offset="0"
         stop-color="#ffffff"
         id="stop7" />
      <stop
         offset="1"
         stop-color="#eeeeec"
         id="stop9" />
    </linearGradient>
    <linearGradient
       id="LinearGradient_1"
       gradientUnits="userSpaceOnUse"
       x1="0"
       y1="0"
       x2="3.75"
       y2="0"
       gradientTransform="translate(477.068,619.568)">
      <stop
         offset="0"
         stop-color="#ffffff"
         id="stop12" />
      <stop
         offset="1"
         stop-color="#000000"
         id="stop14" />
    </linearGradient>
    <linearGradient
       id="LinearGradient_2"
       gradientUnits="userSpaceOnUse"
       x1="0"
       y1="0"
       x2="0"
       y2="-6"
       gradientTransform="translate(478.568,621.068)">
      <stop
         offset="0"
         stop-color="#ffffff"
         id="stop17" />
      <stop
         offset="0.500999987125397"
         stop-color="#edd400"
         id="stop19" />
      <stop
         offset="1"
         stop-color="#ffffff"
         id="stop21" />
    </linearGradient>
    <linearGradient
       id="LinearGradient_3"
       gradientUnits="userSpaceOnUse"
       x1="0"
       y1="0"
       x2="0"
       y2="3"
       gradientTransform="translate(478.568,618.068)">
      <stop
         offset="0"
         stop-color="#333333"
         id="stop24" />
      <stop
         offset="1"
         stop-color="#ffffff"
         id="stop26" />
    </linearGradient>
  </defs>
  <g
     id="Document"
     font-size="16"
     transform="matrix(1,0,0,-1,-464.319,-215.57205)"
     style="font-size:16px;font-family:'Times New Roman';fill:none;stroke:#000000">
    <g
       id="Spread"
       transform="translate(0,-841.891)">
      <g
         id="opaque">
        <path
           d="m 482.319,626.319 0,-18 -18,0 0,18 18,0 z"
           stroke-miterlimit="79.8403193612775"
           id="path31"
           inkscape:connector-curvature="0"
           style="stroke:none;stroke-width:0.40700001;stroke-linejoin:miter;stroke-miterlimit:79.84031677;marker-start:none;marker-end:none" />
      </g>
      <g
         id="Layer 1">
        <mask
           id="TranspMask">
          <rect
             x="-59.527702"
             y="-84.189102"
             width="714.33246"
             height="1010.2692"
             id="rect35"
             style="fill:url(#LinearGradient_1);stroke:none" />
        </mask>
        <g
           id="Group"
           stroke-miterlimit="79.8403193612775"
           mask="url(#TranspMask)"
           style="stroke:none;stroke-width:0.5;stroke-linejoin:round;stroke-miterlimit:79.84031677">
          <path
             d="m 466.568,623.318 c -0.353,0 -0.75,-0.397 -0.75,-0.75 l 0,-9 c 0,-0.353 0.397,-0.75 0.75,-0.75 l 14.25,0 0,10.499 -14.25,10e-4 z"
             id="path38"
             inkscape:connector-curvature="0"
             style="fill:#888a85;marker-start:none;marker-end:none" />
          <path
             d="m 466.623,613.568 -0.055,0.055 0,8.889 0.055,0.055 14.195,0 0,-8.999 -14.195,0 z"
             id="path40"
             inkscape:connector-curvature="0"
             style="fill:url(#LinearGradient);marker-start:none;marker-end:none" />
        </g>
        <path
           d="m 467.318,615.068 2.25,0 0,0.75 -2.25,0 0,-0.75 z"
           stroke-miterlimit="79.8403193612775"
           id="path42"
           inkscape:connector-curvature="0"
           style="fill:#888a85;fill-opacity:0.70196096;stroke:none;stroke-width:0.5;stroke-miterlimit:79.84031677;stroke-opacity:0.70196096;marker-start:none;marker-end:none" />
        <path
           d="m 467.318,615.818 2.25,0 0,0.75 -2.25,0 0,-0.75 z"
           stroke-miterlimit="79.8403193612775"
           id="path44"
           inkscape:connector-curvature="0"
           style="fill:#c3c3c3;fill-opacity:0.49803904;stroke:none;stroke-width:0.5;stroke-miterlimit:79.84031677;stroke-opacity:0.49803904;marker-start:none;marker-end:none" />
        <path
           d="m 467.318,617.318 2.25,0 0,0.75 -2.25,0 0,-0.75 z"
           stroke-miterlimit="79.8403193612775"
           id="path46"
           inkscape:connector-curvature="0"
           style="fill:#888a85;fill-opacity:0.70196096;stroke:none;stroke-width:0.5;stroke-miterlimit:79.84031677;stroke-opacity:0.70196096;marker-start:none;marker-end:none" />
        <path
           d="m 467.318,618.068 2.25,0 0,0.75 -2.25,0 0,-0.75 z"
           stroke-miterlimit="79.8403193612775"
           id="path48"
           inkscape:connector-curvature="0"
           style="fill:#c3c3c3;fill-opacity:0.49803904;stroke:none;stroke-width:0.5;stroke-miterlimit:79.84031677;stroke-opacity:0.49803904;marker-start:none;marker-end:none" />
        <path
           d="m 467.318,619.568 2.25,0 0,0.75 -2.25,0 0,-0.75 z"
           stroke-miterlimit="79.8403193612775"
           id="path50"
           inkscape:connector-curvature="0"
           style="fill:#888a85;fill-opacity:0.70196096;stroke:none;stroke-width:0.5;stroke-miterlimit:79.84031677;stroke-opacity:0.70196096;marker-start:none;marker-end:none" />
        <path
           d="m 467.318,620.318 2.25,0 0,0.75 -2.25,0 0,-0.75 z"
           stroke-miterlimit="79.8403193612775"
           id="path52"
           inkscape:connector-curvature="0"
           style="fill:#c3c3c3;fill-opacity:0.49803904;stroke:none;stroke-width:0.5;stroke-miterlimit:79.84031677;stroke-opacity:0.49803904;marker-start:none;marker-end:none" />
        <path
           d="m 472.409,614.321 c -0.538,-0.07 -1.015,0.48 -0.784,1.035 l 0.783,1.879 -1.059,0.847 c -0.552,0.441 -0.238,1.336 0.469,1.336 l 1.5,0 0.807,1.938 c 0.256,0.613 1.129,0.613 1.385,0 l 0.808,-1.938 1.5,0 c 0.706,0 1.02,-0.895 0.468,-1.336 l -1.059,-0.847 0.783,-1.879 c 0.264,-0.634 -0.398,-1.262 -1.017,-0.965 l -2.175,1.045 -2.176,-1.045 c -0.078,-0.038 -0.156,-0.06 -0.233,-0.07 z"
           stroke-miterlimit="79.8403193612775"
           id="path54"
           inkscape:connector-curvature="0"
           style="fill:#c4a000;stroke:none;stroke-width:0.18799999;stroke-linejoin:round;stroke-miterlimit:79.84031677;marker-start:none;marker-end:none" />
        <path
           d="m 474.818,621.068 1,-2.4 2,0 -1.5,-1.2 1,-2.4 -2.5,1.2 -2.5,-1.2 1,2.4 -1.5,1.2 2,0 1,2.4 z"
           stroke-miterlimit="79.8403193612775"
           id="path56"
           inkscape:connector-curvature="0"
           style="fill:url(#LinearGradient_2);stroke:none;stroke-width:0.75;stroke-linejoin:round;stroke-miterlimit:79.84031677;marker-start:none;marker-end:none" />
        <mask
           id="TranspMask_1">
          <rect
             x="-59.527702"
             y="-84.189102"
             width="714.33246"
             height="1010.2692"
             id="rect59"
             style="fill:url(#LinearGradient_3);stroke:none" />
        </mask>
        <path
           d="m 472.568,618.068 -0.75,0.6 2,0 1,2.4 1,-2.4 2,0 -0.75,-0.6 -4.5,0 z"
           stroke-miterlimit="79.8403193612775"
           mask="url(#TranspMask_1)"
           id="path61"
           inkscape:connector-curvature="0"
           style="fill:#ffffff;stroke:none;stroke-width:0.5;stroke-linejoin:miter;stroke-miterlimit:79.84031677;marker-start:none;marker-end:none" />
      </g>
    </g>
  </g>
</svg>
