<?xml version="1.0" encoding="UTF-8" standalone="no"?>
<!--Generator: Xara Designer (www.xara.com), SVG filter version: 6.0.0.4-->

<svg
   xmlns:dc="http://purl.org/dc/elements/1.1/"
   xmlns:cc="http://creativecommons.org/ns#"
   xmlns:rdf="http://www.w3.org/1999/02/22-rdf-syntax-ns#"
   xmlns:svg="http://www.w3.org/2000/svg"
   xmlns="http://www.w3.org/2000/svg"
   xmlns:sodipodi="http://sodipodi.sourceforge.net/DTD/sodipodi-0.dtd"
   xmlns:inkscape="http://www.inkscape.org/namespaces/inkscape"
   version="1.1"
   overflow="visible"
   width="12.001pt"
   height="11.998999pt"
   viewBox="0 0 12.001001 11.998999"
   id="svg2"
   inkscape:version="0.91 r13725"
   sodipodi:docname="add-new-folder.svg"
   style="overflow:visible;fill-rule:evenodd;stroke-width:0.50099999;stroke-linejoin:bevel">
  <metadata
     id="metadata67">
    <rdf:RDF>
      <cc:Work
         rdf:about="">
        <dc:format>image/svg+xml</dc:format>
        <dc:type
           rdf:resource="http://purl.org/dc/dcmitype/StillImage" />
        <dc:title></dc:title>
      </cc:Work>
    </rdf:RDF>
  </metadata>
  <sodipodi:namedview
     pagecolor="#ffffff"
     bordercolor="#666666"
     borderopacity="1"
     objecttolerance="10"
     gridtolerance="10"
     guidetolerance="10"
     inkscape:pageopacity="0"
     inkscape:pageshadow="2"
     inkscape:window-width="640"
     inkscape:window-height="480"
     id="namedview65"
     showgrid="false"
     fit-margin-top="0"
     fit-margin-left="0"
     fit-margin-right="0"
     fit-margin-bottom="0"
     inkscape:zoom="3.588113"
     inkscape:cx="4.0245659"
     inkscape:cy="12.139567"
     inkscape:window-x="0"
     inkscape:window-y="0"
     inkscape:window-maximized="0"
     inkscape:current-layer="svg2" />
  <defs
     id="defs4">
    <linearGradient
       id="LinearGradient"
       gradientUnits="userSpaceOnUse"
       x1="0"
       y1="0"
       x2="0"
       y2="-7.5"
       gradientTransform="translate(477.071,621.069)">
      <stop
         offset="0"
         stop-color="#ffffff"
         id="stop7" />
      <stop
         offset="0.500999987125397"
         stop-color="#e4ba00"
         id="stop9" />
      <stop
         offset="1"
         stop-color="#ffffff"
         id="stop11" />
    </linearGradient>
    <linearGradient
       id="LinearGradient_1"
       gradientUnits="userSpaceOnUse"
       x1="0"
       y1="0"
       x2="0"
       y2="-5.25"
       gradientTransform="translate(477.821,618.069)">
      <stop
         offset="0"
         stop-color="#ffffff"
         id="stop14" />
      <stop
         offset="0.500999987125397"
         stop-color="#edd400"
         id="stop16" />
      <stop
         offset="1"
         stop-color="#ffffff"
         id="stop18" />
    </linearGradient>
    <linearGradient
       id="LinearGradient_2"
       gradientUnits="userSpaceOnUse"
       x1="0"
       y1="0"
       x2="0"
       y2="1.5"
       gradientTransform="translate(478.571,615.819)">
      <stop
         offset="0"
         stop-color="#333333"
         id="stop21" />
      <stop
         offset="1"
         stop-color="#ffffff"
         id="stop23" />
    </linearGradient>
    <linearGradient
       id="LinearGradient_3"
       gradientUnits="userSpaceOnUse"
       x1="0"
       y1="0"
       x2="0"
       y2="-8.25"
       gradientTransform="translate(478.571,619.569)">
      <stop
         offset="0"
         stop-color="#ffffff"
         id="stop26" />
      <stop
         offset="0.5"
         stop-color="#73d216"
         id="stop28" />
      <stop
         offset="1"
         stop-color="#ffffff"
         id="stop30" />
    </linearGradient>
    <linearGradient
       id="LinearGradient_4"
       gradientUnits="userSpaceOnUse"
       x1="0"
       y1="0"
       x2="0"
       y2="4.5"
       gradientTransform="translate(477.821,615.069)">
      <stop
         offset="0"
         stop-color="#333333"
         id="stop33" />
      <stop
         offset="1"
         stop-color="#ffffff"
         id="stop35" />
    </linearGradient>
  </defs>
  <g
     id="Document"
     font-size="16"
     transform="matrix(1,0,0,-1,-467.319,-218.57305)"
     style="font-size:16px;font-family:'Times New Roman';fill:none;stroke:#000000">
    <g
       id="Spread"
       transform="translate(0,-841.891)">
      <g
         id="opaque">
        <path
           d="m 479.32,623.318 0,-11.999 -12.001,0 0,11.999 12.001,0 z"
           stroke-miterlimit="79.8403193612775"
           id="path40"
           inkscape:connector-curvature="0"
           style="stroke:none;stroke-width:0.5;stroke-linejoin:miter;stroke-miterlimit:79.84031677;marker-start:none;marker-end:none" />
      </g>
      <g
         id="Layer 1">
        <path
           d="m 468.071,619.569 c 0,0.707 0.793,1.5 1.5,1.5 l 1.5,0 c 0.707,0 1.5,-0.75 1.5,-1.5 l 3,0 c 0.353,0 0.75,-0.397 0.75,-0.75 l 0,-5.25 -8.25,0 0,6 z"
           stroke-miterlimit="79.8403193612775"
           id="path43"
           inkscape:connector-curvature="0"
           style="fill:#c4a000;stroke:none;stroke-width:0.5;stroke-linejoin:round;stroke-miterlimit:79.84031677;marker-start:none;marker-end:none" />
        <path
           d="m 468.821,614.319 0,5.25 c 0,0.286 0.459,0.75 0.75,0.75 l 1.5,0 c 0.299,0 0.75,-0.425 0.75,-0.75 0,-0.414 0.336,-0.75 0.75,-0.75 l 2.943,0 0.057,-0.057 0,-4.443 -6.75,0 z"
           stroke-miterlimit="79.8403193612775"
           id="path45"
           inkscape:connector-curvature="0"
           style="fill:url(#LinearGradient);stroke:none;stroke-width:0.75;stroke-linejoin:round;stroke-miterlimit:79.84031677;marker-start:none;marker-end:none" />
        <path
           d="m 468.071,613.569 0,-0.75 8.25,0 c 0.707,0 1.5,3.793 1.5,4.5 l 0,0 c 0,0.353 -0.397,0.75 -0.75,0.75 l -6.75,0 c -0.353,0 -0.75,-0.397 -0.75,-0.75 l 0,0 c 0,-0.707 -0.75,-3.75 -1.5,-3.75 z"
           stroke-miterlimit="79.8403193612775"
           id="path47"
           inkscape:connector-curvature="0"
           style="fill:#c4a000;stroke:none;stroke-width:0.5;stroke-linejoin:round;stroke-miterlimit:79.84031677;marker-start:none;marker-end:none" />
        <path
           d="m 469.198,613.569 0.068,0.103 c 0.216,0.364 0.4,0.825 0.548,1.271 0.252,0.76 0.451,1.642 0.497,2.172 l 0.007,0.145 0.059,0.059 6.637,0 0.053,-0.054 -0.003,-0.053 c -0.028,-0.313 -0.155,-1.06 -0.365,-1.885 -0.115,-0.45 -0.245,-0.888 -0.381,-1.244 -0.074,-0.195 -0.139,-0.338 -0.192,-0.439 l -0.043,-0.075 -6.885,0 z"
           stroke-miterlimit="79.8403193612775"
           id="path49"
           inkscape:connector-curvature="0"
           style="fill:url(#LinearGradient_1);stroke:none;stroke-width:0.75;stroke-linejoin:round;stroke-miterlimit:79.84031677;marker-start:none;marker-end:none" />
        <mask
           id="TranspMask">
          <rect
             x="-59.527702"
             y="-84.189102"
             width="714.33246"
             height="1010.2692"
             id="rect52"
             style="fill:url(#LinearGradient_2);stroke:none" />
        </mask>
        <path
           d="m 470.068,615.819 0.001,0.005 c 0.124,0.491 0.213,0.959 0.242,1.291 l 0.007,0.145 0.059,0.059 6.637,0 0.053,-0.054 -0.003,-0.053 c -0.021,-0.235 -0.098,-0.714 -0.224,-1.287 l -0.024,-0.106 -6.748,0 z"
           stroke-miterlimit="79.8403193612775"
           mask="url(#TranspMask)"
           id="path54"
           inkscape:connector-curvature="0"
           style="fill:#ffffff;stroke:none;stroke-width:0.5;stroke-linejoin:miter;stroke-miterlimit:79.84031677;marker-start:none;marker-end:none" />
        <path
           d="m 476.321,616.569 1.5,0 c 0.353,0 0.75,-0.397 0.75,-0.75 l 0,-0.75 c 0,-0.353 -0.397,-0.75 -0.75,-0.75 l -1.5,0 0,-1.5 c 0,-0.353 -0.397,-0.75 -0.75,-0.75 l -0.75,0 c -0.353,0 -0.75,0.397 -0.75,0.75 l 0,1.5 -1.5,0 c -0.353,0 -0.75,0.397 -0.75,0.75 l 0,0.75 c 0,0.353 0.397,0.75 0.75,0.75 l 1.5,0 0,1.5 c 0,0.353 0.397,0.75 0.75,0.75 l 0.75,0 c 0.353,0 0.75,-0.397 0.75,-0.75 l 0,-1.5 z"
           stroke-miterlimit="79.8403193612775"
           id="path56"
           inkscape:connector-curvature="0"
           style="fill:#4e9a06;stroke:none;stroke-width:0.5;stroke-linejoin:round;stroke-miterlimit:79.84031677;marker-start:none;marker-end:none" />
        <path
           d="m 474.876,612.819 -0.055,0.055 0,1.445 c 0,0.413 -0.337,0.75 -0.75,0.75 l -1.445,0 -0.055,0.055 0,0.639 0.056,0.056 1.444,0 c 0.413,0 0.75,0.336 0.75,0.75 l 0,1.444 0.056,0.056 0.637,0 0.057,-0.057 0,-1.443 c 0,-0.414 0.336,-0.75 0.75,-0.75 l 1.443,0 0.057,-0.057 0,-0.637 -0.056,-0.056 -1.444,0 c -0.414,0 -0.75,-0.337 -0.75,-0.75 l 0,-1.444 -0.056,-0.056 -0.639,0 z"
           stroke-miterlimit="79.8403193612775"
           id="path58"
           inkscape:connector-curvature="0"
           style="fill:url(#LinearGradient_3);stroke:none;stroke-width:0.75;stroke-linejoin:round;stroke-miterlimit:79.84031677;marker-start:none;marker-end:none" />
        <mask
           id="TranspMask_1">
          <rect
             x="-59.527702"
             y="-84.189102"
             width="714.33246"
             height="1010.2692"
             id="rect61"
             style="fill:url(#LinearGradient_4);stroke:none" />
        </mask>
        <path
           d="m 472.626,615.069 -0.055,0.055 0,0.639 0.056,0.056 1.444,0 c 0.413,0 0.75,0.336 0.75,0.75 l 0,1.444 0.056,0.056 0.637,0 0.057,-0.057 0,-1.443 c 0,-0.414 0.336,-0.75 0.75,-0.75 l 1.443,0 0.057,-0.057 0,-0.637 -0.056,-0.056 -5.139,0 z"
           stroke-miterlimit="79.8403193612775"
           mask="url(#TranspMask_1)"
           id="path63"
           inkscape:connector-curvature="0"
           style="fill:#ffffff;stroke:none;stroke-width:0.5;stroke-linejoin:miter;stroke-miterlimit:79.84031677;marker-start:none;marker-end:none" />
      </g>
    </g>
  </g>
</svg>
