<?xml version="1.0" standalone="no"?>
<!DOCTYPE svg PUBLIC "-//W3C//DTD SVG 1.1//EN" "http://www.w3.org/Graphics/SVG/1.1/DTD/svg11.dtd">
<!--Generator: Xara Designer (www.xara.com), SVG filter version: 6.0.0.4-->
<svg stroke-width="0.501" stroke-linejoin="bevel" fill-rule="evenodd" xmlns:xlink="http://www.w3.org/1999/xlink" xmlns="http://www.w3.org/2000/svg" version="1.1" overflow="visible" width="595.277pt" height="841.891pt" viewBox="0 0 595.277 841.891">
 <defs>
  <linearGradient id="LinearGradient" gradientUnits="userSpaceOnUse" x1="0" y1="0" x2="0" y2="-12" gradientTransform="translate(479.317 623.319)">
   <stop offset="0" stop-color="#ffffff"/>
   <stop offset="0.500999987125397" stop-color="#5185c8"/>
   <stop offset="1" stop-color="#ffffff"/>
  </linearGradient>
  <linearGradient id="LinearGradient_1" gradientUnits="userSpaceOnUse" x1="0" y1="0" x2="6" y2="0" gradientTransform="translate(475.569 617.319) rotate(90)">
   <stop offset="0" stop-color="#333333"/>
   <stop offset="1" stop-color="#ffffff"/>
  </linearGradient>
 </defs>
 <g id="Document" fill="none" stroke="black" font-family="Times New Roman" font-size="16" transform="scale(1 -1)">
  <g id="Spread" transform="translate(0 -841.891)">
   <g id="Layer 1">
    <path d="M 479.32,623.318 L 479.32,611.319 L 467.319,611.319 L 467.319,623.318 L 479.32,623.318 Z" stroke="none" stroke-width="0.5" stroke-linejoin="miter" marker-start="none" marker-end="none" stroke-miterlimit="79.8403193612775"/>
    <path d="M 477.819,618.069 L 470.319,622.569 C 469.966,622.922 468.819,623.069 468.819,622.569 L 468.819,612.069 C 468.819,611.569 469.966,611.716 470.319,612.069 L 477.819,616.569 C 478.172,616.922 478.172,617.716 477.819,618.069 Z" fill="#204a87" stroke="none" stroke-width="0.5" marker-start="none" marker-end="none" stroke-miterlimit="79.8403193612775"/>
    <path d="M 469.57,612.529 L 469.656,612.545 L 469.803,612.606 L 477.279,617.082 L 477.335,617.318 L 477.279,617.539 L 469.801,622.019 L 469.569,622.111 L 469.57,612.529 Z" stroke-width="0.75" stroke-linejoin="round" stroke="none" marker-start="none" marker-end="none" stroke-miterlimit="79.8403193612775" fill="url(#LinearGradient)"/>
    <mask id="TranspMask">
     <rect x="-10%" y="-10%" width="120%" height="120%" fill="url(#LinearGradient_1)" stroke="none"/>
    </mask>
    <path d="M 477.335,617.319 L 477.279,617.539 L 469.801,622.019 L 469.569,622.111 L 469.569,617.319 L 477.335,617.319 Z" fill="#ffffff" stroke-width="0.5" stroke="none" stroke-linejoin="miter" marker-start="none" marker-end="none" stroke-miterlimit="79.8403193612775" mask="url(#TranspMask)"/>
   </g>
  </g>
 </g>
</svg>
