<?xml version="1.0" encoding="UTF-8" standalone="no"?>
<!--Generator: Xara Designer (www.xara.com), SVG filter version: 6.0.0.4-->

<svg
   xmlns:dc="http://purl.org/dc/elements/1.1/"
   xmlns:cc="http://creativecommons.org/ns#"
   xmlns:rdf="http://www.w3.org/1999/02/22-rdf-syntax-ns#"
   xmlns:svg="http://www.w3.org/2000/svg"
   xmlns="http://www.w3.org/2000/svg"
   xmlns:sodipodi="http://sodipodi.sourceforge.net/DTD/sodipodi-0.dtd"
   xmlns:inkscape="http://www.inkscape.org/namespaces/inkscape"
   version="1.1"
   overflow="visible"
   width="11.999pt"
   height="12.000998pt"
   viewBox="0 0 11.999 12.000999"
   id="svg2"
   inkscape:version="0.91 r13725"
   sodipodi:docname="arrows-refresh-reload-blue-circle.svg"
   style="overflow:visible;fill-rule:evenodd;stroke-width:0.50099999;stroke-linejoin:bevel">
  <metadata
     id="metadata49">
    <rdf:RDF>
      <cc:Work
         rdf:about="">
        <dc:format>image/svg+xml</dc:format>
        <dc:type
           rdf:resource="http://purl.org/dc/dcmitype/StillImage" />
        <dc:title></dc:title>
      </cc:Work>
    </rdf:RDF>
  </metadata>
  <sodipodi:namedview
     pagecolor="#ffffff"
     bordercolor="#666666"
     borderopacity="1"
     objecttolerance="10"
     gridtolerance="10"
     guidetolerance="10"
     inkscape:pageopacity="0"
     inkscape:pageshadow="2"
     inkscape:window-width="640"
     inkscape:window-height="480"
     id="namedview47"
     showgrid="false"
     fit-margin-top="0"
     fit-margin-left="0"
     fit-margin-right="0"
     fit-margin-bottom="0"
     inkscape:zoom="3.588113"
     inkscape:cx="4.4061068"
     inkscape:cy="0.10035544"
     inkscape:window-x="0"
     inkscape:window-y="0"
     inkscape:window-maximized="0"
     inkscape:current-layer="svg2" />
  <defs
     id="defs4">
    <linearGradient
       id="LinearGradient"
       gradientUnits="userSpaceOnUse"
       x1="0"
       y1="0"
       x2="0"
       y2="-12.001"
       gradientTransform="translate(479.317,623.319)">
      <stop
         offset="0"
         stop-color="#ffffff"
         id="stop7" />
      <stop
         offset="0.500999987125397"
         stop-color="#5185c8"
         id="stop9" />
      <stop
         offset="1"
         stop-color="#ffffff"
         id="stop11" />
    </linearGradient>
    <linearGradient
       id="LinearGradient_1"
       gradientUnits="userSpaceOnUse"
       x1="0"
       y1="0"
       x2="0"
       y2="6.0009999"
       gradientTransform="translate(479.318,617.318)">
      <stop
         offset="0"
         stop-color="#333333"
         id="stop14" />
      <stop
         offset="1"
         stop-color="#ffffff"
         id="stop16" />
    </linearGradient>
    <linearGradient
       id="LinearGradient_2"
       gradientUnits="userSpaceOnUse"
       x1="0"
       y1="0"
       x2="0"
       y2="6"
       gradientTransform="translate(479.318,617.319)">
      <stop
         offset="0"
         stop-color="#bfbfbf"
         id="stop19" />
      <stop
         offset="1"
         stop-color="#000000"
         id="stop21" />
    </linearGradient>
  </defs>
  <g
     id="Document"
     font-size="16"
     transform="matrix(1,0,0,-1,-467.319,-218.57105)"
     style="font-size:16px;font-family:'Times New Roman';fill:none;stroke:#000000">
    <g
       id="Spread"
       transform="translate(0,-841.891)">
      <g
         id="Layer 1">
        <path
           d="m 473.318,622.569 c 2.898,0 5.251,-2.352 5.251,-5.25 0,-2.898 -2.353,-5.25 -5.251,-5.25 -2.898,0 -5.251,2.352 -5.251,5.25 0,2.898 2.353,5.25 5.251,5.25 z"
           stroke-miterlimit="79.8403193612775"
           id="path26"
           inkscape:connector-curvature="0"
           style="fill:#204a87;stroke:none;stroke-width:0.5;stroke-miterlimit:79.84031677;marker-start:none;marker-end:none" />
        <path
           d="m 473.318,621.82 c 2.484,0 4.501,-2.016 4.501,-4.5 0,-2.484 -2.017,-4.5 -4.501,-4.5 -2.484,0 -4.501,2.016 -4.501,4.5 0,2.484 2.017,4.5 4.501,4.5 z"
           stroke-miterlimit="79.8403193612775"
           id="path28"
           inkscape:connector-curvature="0"
           style="fill:url(#LinearGradient);stroke:none;stroke-width:0.75;stroke-linejoin:round;stroke-miterlimit:79.84031677;marker-start:none;marker-end:none" />
        <mask
           id="TranspMask">
          <rect
             x="-59.527702"
             y="-84.189102"
             width="714.33246"
             height="1010.2692"
             id="rect31"
             style="fill:url(#LinearGradient_1);stroke:none" />
        </mask>
        <path
           d="m 468.817,617.319 0,0.001 c 0,2.484 2.016,4.5 4.501,4.5 2.484,0 4.5,-2.016 4.5,-4.5 l -10e-4,-0.001 -9,0 z"
           stroke-miterlimit="79.8403193612775"
           mask="url(#TranspMask)"
           id="path33"
           inkscape:connector-curvature="0"
           style="fill:#ffffff;stroke:none;stroke-width:0.5;stroke-linejoin:miter;stroke-miterlimit:79.84031677;marker-start:none;marker-end:none" />
        <path
           d="m 467.319,623.32 11.999,0 0,-12.001 -11.999,0 0,12.001 z"
           stroke-miterlimit="79.8403193612775"
           id="path35"
           inkscape:connector-curvature="0"
           style="stroke:none;stroke-width:0.5;stroke-linejoin:miter;stroke-miterlimit:79.84031677;marker-start:none;marker-end:none" />
        <mask
           id="TranspMask_1">
          <rect
             x="-59.527702"
             y="-84.189102"
             width="714.33246"
             height="1010.2692"
             id="rect38"
             style="fill:url(#LinearGradient_2);stroke:none" />
        </mask>
        <path
           d="m 473.318,613.569 c -0.62,0 -1.157,0.305 -1.575,0.618 -0.213,0.16 -0.424,0.344 -0.648,0.533 l -0.247,-0.182 c -0.471,-0.471 -1.28,-0.136 -1.28,0.531 l 0,3 c 0,0.103 0.021,0.201 0.058,0.291 l 0.054,0.079 -0.055,0.093 c -0.108,0.261 -0.074,0.581 0.162,0.817 0.836,0.836 2.513,1.72 3.531,1.72 0.619,0 1.156,-0.306 1.575,-0.619 0.212,-0.16 0.422,-0.344 0.646,-0.534 l 0.248,0.183 c 0.471,0.471 1.281,0.136 1.281,-0.53 l 0,-3 c 0,-0.104 -0.022,-0.203 -0.06,-0.292 l -0.053,-0.08 0.054,-0.092 c 0.108,-0.262 0.074,-0.582 -0.161,-0.817 -0.836,-0.836 -2.513,-1.719 -3.53,-1.719 z"
           stroke-miterlimit="79.8403193612775"
           mask="url(#TranspMask_1)"
           id="path40"
           inkscape:connector-curvature="0"
           style="fill:#204a87;stroke:none;stroke-width:0.5;stroke-linejoin:round;stroke-miterlimit:79.84031677;marker-start:none;marker-end:none" />
        <g
           id="Group"
           stroke-miterlimit="79.8403193612775"
           style="fill:#ffffff;stroke:none;stroke-width:0.5;stroke-linejoin:round;stroke-miterlimit:79.84031677">
          <path
             d="m 473.318,616.569 3,0 0,3 -0.75,-0.75 c -0.75,0.75 -1.5,1.5 -2.25,1.5 -0.75,0 -2.25,-0.75 -3,-1.5 l 2.25,0 c 0.75,0 1.5,-0.75 1.5,-1.5 l -0.75,-0.75 z"
             id="path43"
             inkscape:connector-curvature="0"
             style="marker-start:none;marker-end:none" />
          <path
             d="m 473.318,618.069 -3,0 0,-3 0.75,0.75 c 0.75,-0.75 1.5,-1.5 2.25,-1.5 0.75,0 2.25,0.75 3,1.5 l -2.25,0 c -0.75,0 -1.5,0.75 -1.5,1.5 l 0.75,0.75 z"
             id="path45"
             inkscape:connector-curvature="0"
             style="marker-start:none;marker-end:none" />
        </g>
      </g>
    </g>
  </g>
</svg>
