<?xml version="1.0" encoding="UTF-8" standalone="no"?>
<!--Generator: Xara Designer (www.xara.com), SVG filter version: 6.0.0.4-->

<svg
   xmlns:dc="http://purl.org/dc/elements/1.1/"
   xmlns:cc="http://creativecommons.org/ns#"
   xmlns:rdf="http://www.w3.org/1999/02/22-rdf-syntax-ns#"
   xmlns:svg="http://www.w3.org/2000/svg"
   xmlns="http://www.w3.org/2000/svg"
   xmlns:sodipodi="http://sodipodi.sourceforge.net/DTD/sodipodi-0.dtd"
   xmlns:inkscape="http://www.inkscape.org/namespaces/inkscape"
   version="1.1"
   overflow="visible"
   width="12.001pt"
   height="11.998999pt"
   viewBox="0 0 12.001001 11.998999"
   id="svg2"
   inkscape:version="0.91 r13725"
   sodipodi:docname="back.svg"
   style="overflow:visible;fill-rule:evenodd;stroke-width:0.50099999;stroke-linejoin:bevel">
  <metadata
     id="metadata35">
    <rdf:RDF>
      <cc:Work
         rdf:about="">
        <dc:format>image/svg+xml</dc:format>
        <dc:type
           rdf:resource="http://purl.org/dc/dcmitype/StillImage" />
        <dc:title></dc:title>
      </cc:Work>
    </rdf:RDF>
  </metadata>
  <sodipodi:namedview
     pagecolor="#ffffff"
     bordercolor="#666666"
     borderopacity="1"
     objecttolerance="10"
     gridtolerance="10"
     guidetolerance="10"
     inkscape:pageopacity="0"
     inkscape:pageshadow="2"
     inkscape:window-width="640"
     inkscape:window-height="480"
     id="namedview33"
     showgrid="false"
     fit-margin-top="0"
     fit-margin-left="0"
     fit-margin-right="0"
     fit-margin-bottom="0"
     inkscape:zoom="5.074358"
     inkscape:cx="1.401384"
     inkscape:cy="5.9370427"
     inkscape:window-x="0"
     inkscape:window-y="0"
     inkscape:window-maximized="0"
     inkscape:current-layer="svg2" />
  <defs
     id="defs4">
    <linearGradient
       id="LinearGradient"
       gradientUnits="userSpaceOnUse"
       x1="0"
       y1="0"
       x2="0"
       y2="-12"
       gradientTransform="translate(467.32,623.319)">
      <stop
         offset="0"
         stop-color="#ffffff"
         id="stop7" />
      <stop
         offset="0.5"
         stop-color="#73d216"
         id="stop9" />
      <stop
         offset="1"
         stop-color="#ffffff"
         id="stop11" />
    </linearGradient>
    <linearGradient
       id="LinearGradient_1"
       gradientUnits="userSpaceOnUse"
       x1="0"
       y1="0"
       x2="0"
       y2="6"
       gradientTransform="translate(467.32,617.319)">
      <stop
         offset="0"
         stop-color="#333333"
         id="stop14" />
      <stop
         offset="1"
         stop-color="#ffffff"
         id="stop16" />
    </linearGradient>
  </defs>
  <g
     id="Document"
     font-size="16"
     transform="matrix(1,0,0,-1,-467.319,-218.57305)"
     style="font-size:16px;font-family:'Times New Roman';fill:none;stroke:#000000">
    <g
       id="Spread"
       transform="translate(0,-841.891)">
      <g
         id="opaque">
        <path
           d="m 467.319,623.318 0,-11.999 12.001,0 0,11.999 -12.001,0 z"
           stroke-miterlimit="79.8403193612775"
           id="path21"
           inkscape:connector-curvature="0"
           style="stroke:none;stroke-width:0.5;stroke-linejoin:miter;stroke-miterlimit:79.84031677;marker-start:none;marker-end:none" />
      </g>
      <g
         id="Layer 1">
        <path
           d="m 468.07,618.069 4.5,4.5 c 0.353,0.353 1.5,0.5 1.5,0 l 0,-2.25 3.75,0 c 0.353,0 0.75,-0.397 0.75,-0.75 l 0,-4.5 c 0,-0.353 -0.397,-0.75 -0.75,-0.75 l -3.75,0 0,-2.25 c 0,-0.5 -1.147,-0.353 -1.5,0 l -4.5,4.5 c -0.353,0.353 -0.353,1.147 0,1.5 z"
           stroke-miterlimit="79.8403193612775"
           id="path24"
           inkscape:connector-curvature="0"
           style="fill:#4e9a06;stroke:none;stroke-width:0.5;stroke-linejoin:round;stroke-miterlimit:79.84031677;marker-start:none;marker-end:none" />
        <path
           d="m 473.319,612.529 -0.086,0.016 -0.147,0.061 -4.476,4.476 -0.056,0.236 0.056,0.221 4.478,4.48 0.232,0.092 0,-1.792 c 0,-0.414 0.336,-0.75 0.75,-0.75 l 3.693,0 0.057,-0.057 0,-4.387 -0.056,-0.056 -3.694,0 c -0.414,0 -0.75,-0.337 -0.75,-0.75 l -10e-4,-1.79 z"
           stroke-miterlimit="79.8403193612775"
           id="path26"
           inkscape:connector-curvature="0"
           style="fill:url(#LinearGradient);stroke:none;stroke-width:0.75;stroke-linejoin:round;stroke-miterlimit:79.84031677;marker-start:none;marker-end:none" />
        <mask
           id="TranspMask">
          <rect
             x="-59.527702"
             y="-84.189102"
             width="714.33246"
             height="1010.2692"
             id="rect29"
             style="fill:url(#LinearGradient_1);stroke:none" />
        </mask>
        <path
           d="m 468.554,617.319 0.056,0.22 4.478,4.48 0.232,0.092 0,-1.792 c 0,-0.414 0.336,-0.75 0.75,-0.75 l 3.693,0 0.057,-0.057 0,-2.193 -9.266,0 z"
           stroke-miterlimit="79.8403193612775"
           mask="url(#TranspMask)"
           id="path31"
           inkscape:connector-curvature="0"
           style="fill:#ffffff;stroke:none;stroke-width:0.5;stroke-linejoin:miter;stroke-miterlimit:79.84031677;marker-start:none;marker-end:none" />
      </g>
    </g>
  </g>
</svg>
