<?xml version="1.0" encoding="UTF-8" standalone="no"?>
<!--Generator: Xara Designer (www.xara.com), SVG filter version: 6.0.0.4-->

<svg
   xmlns:dc="http://purl.org/dc/elements/1.1/"
   xmlns:cc="http://creativecommons.org/ns#"
   xmlns:rdf="http://www.w3.org/1999/02/22-rdf-syntax-ns#"
   xmlns:svg="http://www.w3.org/2000/svg"
   xmlns="http://www.w3.org/2000/svg"
   xmlns:sodipodi="http://sodipodi.sourceforge.net/DTD/sodipodi-0.dtd"
   xmlns:inkscape="http://www.inkscape.org/namespaces/inkscape"
   version="1.1"
   overflow="visible"
   width="12.002pt"
   height="11.999999pt"
   viewBox="0 0 12.002 11.999999"
   id="svg2"
   inkscape:version="0.91 r13725"
   sodipodi:docname="block-human-privacy.svg"
   style="overflow:visible;fill-rule:evenodd;stroke-width:0.50099999;stroke-linejoin:bevel">
  <metadata
     id="metadata77">
    <rdf:RDF>
      <cc:Work
         rdf:about="">
        <dc:format>image/svg+xml</dc:format>
        <dc:type
           rdf:resource="http://purl.org/dc/dcmitype/StillImage" />
        <dc:title></dc:title>
      </cc:Work>
    </rdf:RDF>
  </metadata>
  <sodipodi:namedview
     pagecolor="#ffffff"
     bordercolor="#666666"
     borderopacity="1"
     objecttolerance="10"
     gridtolerance="10"
     guidetolerance="10"
     inkscape:pageopacity="0"
     inkscape:pageshadow="2"
     inkscape:window-width="640"
     inkscape:window-height="480"
     id="namedview75"
     showgrid="false"
     fit-margin-top="0"
     fit-margin-left="0"
     fit-margin-right="0"
     fit-margin-bottom="0"
     inkscape:zoom="5.074358"
     inkscape:cx="3.598564"
     inkscape:cy="5.0497334"
     inkscape:window-x="0"
     inkscape:window-y="0"
     inkscape:window-maximized="0"
     inkscape:current-layer="svg2" />
  <defs
     id="defs4">
    <linearGradient
       id="LinearGradient"
       gradientUnits="userSpaceOnUse"
       x1="0"
       y1="0"
       x2="0"
       y2="3"
       gradientTransform="translate(476.321,615.069)">
      <stop
         offset="0"
         stop-color="#ffffff"
         id="stop7" />
      <stop
         offset="1"
         stop-color="#73d216"
         id="stop9" />
    </linearGradient>
    <linearGradient
       id="LinearGradient_1"
       gradientUnits="userSpaceOnUse"
       x1="0"
       y1="0"
       x2="0"
       y2="-9"
       gradientTransform="translate(474.821,619.569)">
      <stop
         offset="0"
         stop-color="#ffffff"
         id="stop12" />
      <stop
         offset="0.500999987125397"
         stop-color="#e81d1d"
         id="stop14" />
      <stop
         offset="1"
         stop-color="#ffffff"
         id="stop16" />
    </linearGradient>
    <linearGradient
       id="LinearGradient_2"
       gradientUnits="userSpaceOnUse"
       x1="0"
       y1="0"
       x2="0"
       y2="4.5"
       gradientTransform="translate(477.821,615.069)">
      <stop
         offset="0"
         stop-color="#bfbfbf"
         id="stop19" />
      <stop
         offset="1"
         stop-color="#000000"
         id="stop21" />
    </linearGradient>
    <linearGradient
       id="LinearGradient_3"
       gradientUnits="userSpaceOnUse"
       x1="0"
       y1="0"
       x2="0"
       y2="3.75"
       gradientTransform="translate(474.821,615.069)">
      <stop
         offset="0"
         stop-color="#333333"
         id="stop24" />
      <stop
         offset="1"
         stop-color="#ffffff"
         id="stop26" />
    </linearGradient>
    <linearGradient
       id="LinearGradient_4"
       gradientUnits="userSpaceOnUse"
       x1="0"
       y1="0"
       x2="0"
       y2="-4.5"
       gradientTransform="translate(477.821,622.569)">
      <stop
         offset="0"
         stop-color="#ffffff"
         id="stop29" />
      <stop
         offset="0.500999987125397"
         stop-color="#edd400"
         id="stop31" />
      <stop
         offset="1"
         stop-color="#ffffff"
         id="stop33" />
    </linearGradient>
    <linearGradient
       id="LinearGradient_5"
       gradientUnits="userSpaceOnUse"
       x1="0"
       y1="0"
       x2="0"
       y2="-1.5"
       gradientTransform="translate(475.571,622.569)">
      <stop
         offset="0"
         stop-color="#ffffff"
         id="stop36" />
      <stop
         offset="1"
         stop-color="#555753"
         id="stop38" />
    </linearGradient>
  </defs>
  <g
     id="Document"
     font-size="16"
     transform="matrix(1,0,0,-1,-467.319,-218.57205)"
     style="font-size:16px;font-family:'Times New Roman';fill:none;stroke:#000000">
    <g
       id="Spread"
       transform="translate(0,-841.891)">
      <g
         id="opaque">
        <path
           d="m 479.32,623.318 0,-11.999 -12.001,0 0,11.999 12.001,0 z"
           stroke-miterlimit="79.8403193612775"
           id="path43"
           inkscape:connector-curvature="0"
           style="stroke:none;stroke-width:0.5;stroke-linejoin:miter;stroke-miterlimit:79.84031677;marker-start:none;marker-end:none" />
      </g>
      <g
         id="Layer 1">
        <path
           d="m 477.071,618.819 c -0.749,0 -1.501,0 -2.25,0 -0.75,0 -2.25,-0.75 -2.25,-2.25 0,-1.5 1.5,-1.5 3,-1.5 l 0.75,0 c 1.5,0 3,0 3,1.5 0,1.5 -1.5,2.25 -2.25,2.25 z"
           stroke-miterlimit="79.8403193612775"
           id="path46"
           inkscape:connector-curvature="0"
           style="fill:#4e9a06;stroke:none;stroke-width:0.5;stroke-linejoin:round;stroke-miterlimit:79.84031677;marker-start:none;marker-end:none" />
        <path
           d="m 475.571,615.819 c -0.831,0 -1.404,0.008 -1.826,0.149 -0.292,0.097 -0.424,0.21 -0.424,0.601 0,0.471 0.227,0.833 0.562,1.101 0.357,0.286 0.759,0.399 0.938,0.399 l 2.25,0 c 0.177,0 0.579,-0.112 0.937,-0.399 0.335,-0.268 0.563,-0.63 0.563,-1.101 0,-0.382 -0.131,-0.504 -0.425,-0.601 -0.395,-0.132 -0.962,-0.149 -1.825,-0.149 l -0.75,0 z"
           stroke-miterlimit="79.8403193612775"
           id="path48"
           inkscape:connector-curvature="0"
           style="fill:url(#LinearGradient);stroke:none;stroke-width:0.5;stroke-linejoin:round;stroke-miterlimit:79.84031677;marker-start:none;marker-end:none" />
        <g
           id="Group"
           style="stroke:none">
          <path
             d="m 471.07,618.817 c 2.07,0 3.751,-1.679 3.751,-3.749 0,-2.07 -1.681,-3.749 -3.751,-3.749 -2.07,0 -3.751,1.679 -3.751,3.749 0,2.07 1.681,3.749 3.751,3.749 z"
             stroke-miterlimit="79.8403193612775"
             id="path51"
             inkscape:connector-curvature="0"
             style="fill:#c30000;stroke-width:0.5;stroke-miterlimit:79.84031677;marker-start:none;marker-end:none" />
          <path
             d="m 471.07,618.069 c 1.656,0 3.001,-1.344 3.001,-3 0,-1.656 -1.345,-3 -3.001,-3 -1.656,0 -3.001,1.344 -3.001,3 0,1.656 1.345,3 3.001,3 z"
             stroke-miterlimit="79.8403193612775"
             id="path53"
             inkscape:connector-curvature="0"
             style="fill:url(#LinearGradient_1);stroke-width:0.75;stroke-linejoin:round;stroke-miterlimit:79.84031677;marker-start:none;marker-end:none" />
          <mask
             id="TranspMask">
            <rect
               x="-59.527702"
               y="-84.189102"
               width="714.33246"
               height="1010.2692"
               id="rect56"
               style="fill:url(#LinearGradient_2);stroke:none" />
          </mask>
          <path
             d="m 469.571,616.569 c -0.353,0 -0.75,-0.397 -0.75,-0.75 l 0,-1.5 c 0,-0.353 0.397,-0.75 0.75,-0.75 l 3,0 c 0.353,0 0.75,0.397 0.75,0.75 l 0,1.5 c 0,0.353 -0.397,0.75 -0.75,0.75 l -3,0 z"
             stroke-miterlimit="79.8403193612775"
             mask="url(#TranspMask)"
             id="path58"
             inkscape:connector-curvature="0"
             style="fill:#c30000;stroke-width:0.5;stroke-linejoin:round;stroke-miterlimit:79.84031677;marker-start:none;marker-end:none" />
          <path
             d="m 469.607,614.319 -0.036,0.051 0.011,1.396 0.042,0.053 2.923,0 0.024,-0.055 0,-1.392 -0.038,-0.031 -2.919,-0.022 z"
             stroke-miterlimit="79.8403193612775"
             id="path60"
             inkscape:connector-curvature="0"
             style="fill:#ffffff;stroke-width:0.5;stroke-linejoin:round;stroke-miterlimit:79.84031677;marker-start:none;marker-end:none" />
          <mask
             id="TranspMask_1">
            <rect
               x="-59.527702"
               y="-84.189102"
               width="714.33246"
               height="1010.2692"
               id="rect63"
               style="fill:url(#LinearGradient_3);stroke:none" />
          </mask>
          <path
             d="m 468.069,615.069 c 0,1.655 1.345,2.999 3.001,2.999 1.656,0 3.001,-1.344 3.001,-2.999 l -6.002,0 z"
             stroke-miterlimit="79.8403193612775"
             mask="url(#TranspMask_1)"
             id="path65"
             inkscape:connector-curvature="0"
             style="fill:#ffffff;stroke-width:0.5;stroke-linejoin:miter;stroke-miterlimit:79.84031677;marker-start:none;marker-end:none" />
        </g>
        <path
           d="m 475.947,622.569 c 1.035,0 1.876,-1.008 1.876,-2.25 0,-1.242 -0.841,-2.25 -1.876,-2.25 -1.035,0 -1.876,1.008 -1.876,2.25 0,1.242 0.841,2.25 1.876,2.25 z"
           stroke-miterlimit="79.8403193612775"
           id="path67"
           inkscape:connector-curvature="0"
           style="fill:#c4a000;stroke:none;stroke-width:0.5;stroke-miterlimit:79.84031677;marker-start:none;marker-end:none" />
        <path
           d="m 475.946,621.819 c 0.621,0 1.125,-0.672 1.125,-1.5 0,-0.828 -0.504,-1.5 -1.125,-1.5 -0.621,0 -1.125,0.672 -1.125,1.5 0,0.828 0.504,1.5 1.125,1.5 z"
           stroke-miterlimit="79.8403193612775"
           id="path69"
           inkscape:connector-curvature="0"
           style="fill:url(#LinearGradient_4);stroke:none;stroke-width:0.75;stroke-linejoin:round;stroke-miterlimit:79.84031677;marker-start:none;marker-end:none" />
        <path
           d="m 475.571,623.319 c 0,0 0.75,0 0.75,-0.75 0,0.75 0.75,0.75 0.75,0.75 0.75,0 1.5,-1.5 1.5,-3 -0.75,0 -1.5,0.75 -2.25,1.5 0,-0.75 -1.5,-1.5 -3,-1.5 0,1.5 0.75,3 2.25,3 z"
           stroke-miterlimit="79.8403193612775"
           id="path71"
           inkscape:connector-curvature="0"
           style="fill:#2e3436;stroke:none;stroke-width:0.5;stroke-linejoin:round;stroke-miterlimit:79.84031677;marker-start:none;marker-end:none" />
        <path
           d="m 474.173,621.161 0.012,0.065 c 0.075,0.281 0.184,0.533 0.322,0.739 0.225,0.338 0.515,0.547 0.895,0.593 l 0.167,0.01 0.018,-0.173 c 0.011,-0.054 0.027,-0.105 0.048,-0.151 l 0.036,-0.062 -0.065,-0.13 c -0.011,-0.036 -0.02,-0.074 -0.026,-0.113 l -0.012,-0.082 c -0.057,-0.095 -0.239,-0.282 -0.666,-0.467 -0.111,-0.049 -0.23,-0.093 -0.355,-0.132 l -0.374,-0.097 z m 3.425,0.47 -0.202,0.183 c -0.087,0.081 -0.175,0.167 -0.265,0.256 l -0.143,0.142 0.018,0.032 c 0.021,0.046 0.037,0.097 0.048,0.151 l 0.025,0.151 c 0.1,-0.094 0.261,-0.28 0.42,-0.646 l 0.099,-0.269 z"
           stroke-miterlimit="79.8403193612775"
           id="path73"
           inkscape:connector-curvature="0"
           style="fill:url(#LinearGradient_5);stroke:none;stroke-width:0.5;stroke-linejoin:miter;stroke-miterlimit:79.84031677;marker-start:none;marker-end:none" />
      </g>
    </g>
  </g>
</svg>
