<?xml version="1.0" encoding="UTF-8" standalone="no"?>
<!--Generator: Xara Designer (www.xara.com), SVG filter version: 6.0.0.4-->

<svg
   xmlns:dc="http://purl.org/dc/elements/1.1/"
   xmlns:cc="http://creativecommons.org/ns#"
   xmlns:rdf="http://www.w3.org/1999/02/22-rdf-syntax-ns#"
   xmlns:svg="http://www.w3.org/2000/svg"
   xmlns="http://www.w3.org/2000/svg"
   xmlns:sodipodi="http://sodipodi.sourceforge.net/DTD/sodipodi-0.dtd"
   xmlns:inkscape="http://www.inkscape.org/namespaces/inkscape"
   version="1.1"
   overflow="visible"
   width="11.999pt"
   height="12.000998pt"
   viewBox="0 0 11.999 12.000999"
   id="svg2"
   inkscape:version="0.91 r13725"
   sodipodi:docname="brush-paint-01.svg"
   style="overflow:visible;fill-rule:evenodd;stroke-width:0.50099999;stroke-linejoin:bevel">
  <metadata
     id="metadata41">
    <rdf:RDF>
      <cc:Work
         rdf:about="">
        <dc:format>image/svg+xml</dc:format>
        <dc:type
           rdf:resource="http://purl.org/dc/dcmitype/StillImage" />
        <dc:title></dc:title>
      </cc:Work>
    </rdf:RDF>
  </metadata>
  <sodipodi:namedview
     pagecolor="#ffffff"
     bordercolor="#666666"
     borderopacity="1"
     objecttolerance="10"
     gridtolerance="10"
     guidetolerance="10"
     inkscape:pageopacity="0"
     inkscape:pageshadow="2"
     inkscape:window-width="640"
     inkscape:window-height="480"
     id="namedview39"
     showgrid="false"
     fit-margin-top="0"
     fit-margin-left="0"
     fit-margin-right="0"
     fit-margin-bottom="0"
     inkscape:zoom="3.588113"
     inkscape:cx="0.019367708"
     inkscape:cy="9.7317247"
     inkscape:window-x="0"
     inkscape:window-y="0"
     inkscape:window-maximized="0"
     inkscape:current-layer="svg2" />
  <defs
     id="defs4">
    <linearGradient
       id="LinearGradient"
       gradientUnits="userSpaceOnUse"
       x1="0"
       y1="0"
       x2="0"
       y2="-12"
       gradientTransform="translate(479.318,623.319)">
      <stop
         offset="0"
         stop-color="#ffffff"
         id="stop7" />
      <stop
         offset="1"
         stop-color="#000000"
         id="stop9" />
    </linearGradient>
    <linearGradient
       id="LinearGradient_1"
       gradientUnits="userSpaceOnUse"
       x1="0"
       y1="0"
       x2="0"
       y2="-4.5"
       gradientTransform="translate(474.068,616.569)">
      <stop
         offset="0"
         stop-color="#ffffff"
         id="stop12" />
      <stop
         offset="1"
         stop-color="#000000"
         id="stop14" />
    </linearGradient>
  </defs>
  <g
     id="Document"
     font-size="16"
     transform="matrix(1,0,0,-1,-467.319,-218.57105)"
     style="font-size:16px;font-family:'Times New Roman';fill:none;stroke:#000000">
    <g
       id="Spread"
       transform="translate(0,-841.891)">
      <g
         id="Layer 1">
        <path
           d="m 467.319,623.32 11.999,0 0,-12.001 -11.999,0 0,12.001 z"
           stroke-miterlimit="79.8403193612775"
           id="path19"
           inkscape:connector-curvature="0"
           style="stroke:none;stroke-width:0.5;stroke-linejoin:miter;stroke-miterlimit:79.84031677;marker-start:none;marker-end:none" />
        <path
           d="m 471.068,616.569 c 0,-1.5 0.75,-1.5 2.25,-1.5 1.5,0 3.75,5.25 4.5,6 0.15,0.2 0.176,0.574 0,0.75 -0.176,0.176 -0.578,0.172 -0.75,0 -0.75,-0.75 -6,-3.75 -6,-5.25 z"
           stroke-miterlimit="79.8403193612775"
           id="path21"
           inkscape:connector-curvature="0"
           style="fill:#c4a000;stroke:none;stroke-width:0.5;stroke-linejoin:round;stroke-miterlimit:79.84031677;marker-start:none;marker-end:none" />
        <path
           d="m 473.002,615.819 c -0.669,0.005 -0.882,0.03 -1.037,0.108 -0.021,0.01 -0.118,0.031 -0.142,0.441 l -0.005,0.196 0.036,0.099 c 0.071,0.144 0.255,0.411 0.649,0.795 0.475,0.461 1.115,0.966 1.799,1.465 0.675,0.492 1.388,0.973 1.988,1.386 l 0.23,0.16 -0.09,-0.154 c -0.336,-0.587 -0.724,-1.301 -1.165,-2.042 -1.188,-1.996 -1.75,-2.371 -1.912,-2.441 l -0.351,-0.013 z"
           stroke-miterlimit="79.8403193612775"
           id="path23"
           inkscape:connector-curvature="0"
           style="fill:#edd400;stroke:none;stroke-width:0.5;stroke-linejoin:round;stroke-miterlimit:79.84031677;marker-start:none;marker-end:none" />
        <mask
           id="TranspMask">
          <rect
             x="-59.527702"
             y="-84.189102"
             width="714.33246"
             height="1010.2692"
             id="rect26"
             style="fill:url(#LinearGradient);stroke:none" />
        </mask>
        <path
           d="m 472.378,615.883 -0.413,0.044 c -0.021,0.01 -0.118,0.031 -0.142,0.441 l -0.005,0.196 0.036,0.099 c 0.071,0.144 0.255,0.411 0.649,0.795 0.475,0.461 1.115,0.966 1.799,1.465 0.675,0.492 1.388,0.973 1.988,1.386 l 0.23,0.16 -0.09,-0.154 -0.133,-0.233 -3.919,-4.199 z"
           stroke-miterlimit="79.8403193612775"
           mask="url(#TranspMask)"
           id="path28"
           inkscape:connector-curvature="0"
           style="fill:#ffffff;stroke:none;stroke-width:0.5;stroke-linejoin:round;stroke-miterlimit:79.84031677;marker-start:none;marker-end:none" />
        <path
           d="m 471.818,616.569 c 0,0 1.5,0 1.5,-1.5 0,-1.677 -2.25,-3 -5.25,-3 2.25,0.75 0.75,4.5 3.75,4.5 z"
           stroke-miterlimit="79.8403193612775"
           id="path30"
           inkscape:connector-curvature="0"
           style="fill:#2e3436;stroke:none;stroke-width:0.5;stroke-linejoin:round;stroke-miterlimit:79.84031677;marker-start:none;marker-end:none" />
        <path
           d="m 469.964,613.021 0.067,0.158 c 0.156,0.431 0.26,0.88 0.354,1.223 0.141,0.517 0.27,0.855 0.463,1.076 0.151,0.173 0.398,0.341 0.97,0.341 -0.039,0 0.196,0 0.414,-0.109 0.154,-0.077 0.336,-0.21 0.336,-0.641 0,-0.731 -0.793,-1.521 -2.205,-1.943 l -0.399,-0.105 z"
           stroke-miterlimit="79.8403193612775"
           id="path32"
           inkscape:connector-curvature="0"
           style="fill:#888a85;stroke:none;stroke-width:0.5;stroke-linejoin:round;stroke-miterlimit:79.84031677;marker-start:none;marker-end:none" />
        <mask
           id="TranspMask_1">
          <rect
             x="-59.527702"
             y="-84.189102"
             width="714.33246"
             height="1010.2692"
             id="rect35"
             style="fill:url(#LinearGradient_1);stroke:none" />
        </mask>
        <path
           d="m 469.995,613.096 0.036,0.083 c 0.156,0.431 0.26,0.88 0.354,1.223 0.141,0.517 0.27,0.855 0.463,1.076 0.151,0.173 0.398,0.341 0.97,0.341 -0.039,0 0.196,0 0.414,-0.109 0.038,-0.02 0.078,-0.042 0.117,-0.073 l 0.024,-0.025 -0.054,-0.059 c -0.474,-0.528 -1.232,-1.442 -2.041,-2.201 l -0.283,-0.256 z"
           stroke-miterlimit="79.8403193612775"
           mask="url(#TranspMask_1)"
           id="path37"
           inkscape:connector-curvature="0"
           style="fill:#ffffff;stroke:none;stroke-width:0.5;stroke-linejoin:round;stroke-miterlimit:79.84031677;marker-start:none;marker-end:none" />
      </g>
    </g>
  </g>
</svg>
