<?xml version="1.0" encoding="UTF-8" standalone="no"?>
<!--Generator: Xara Designer (www.xara.com), SVG filter version: 6.0.0.4-->

<svg
   xmlns:dc="http://purl.org/dc/elements/1.1/"
   xmlns:cc="http://creativecommons.org/ns#"
   xmlns:rdf="http://www.w3.org/1999/02/22-rdf-syntax-ns#"
   xmlns:svg="http://www.w3.org/2000/svg"
   xmlns="http://www.w3.org/2000/svg"
   xmlns:sodipodi="http://sodipodi.sourceforge.net/DTD/sodipodi-0.dtd"
   xmlns:inkscape="http://www.inkscape.org/namespaces/inkscape"
   version="1.1"
   overflow="visible"
   width="11.999pt"
   height="12.000998pt"
   viewBox="0 0 11.999 12.000999"
   id="svg2"
   inkscape:version="0.91 r13725"
   sodipodi:docname="brush-paint-02.svg"
   style="overflow:visible;fill-rule:evenodd;stroke-width:0.50099999;stroke-linejoin:bevel">
  <metadata
     id="metadata35">
    <rdf:RDF>
      <cc:Work
         rdf:about="">
        <dc:format>image/svg+xml</dc:format>
        <dc:type
           rdf:resource="http://purl.org/dc/dcmitype/StillImage" />
        <dc:title></dc:title>
      </cc:Work>
    </rdf:RDF>
  </metadata>
  <sodipodi:namedview
     pagecolor="#ffffff"
     bordercolor="#666666"
     borderopacity="1"
     objecttolerance="10"
     gridtolerance="10"
     guidetolerance="10"
     inkscape:pageopacity="0"
     inkscape:pageshadow="2"
     inkscape:window-width="640"
     inkscape:window-height="480"
     id="namedview33"
     showgrid="false"
     fit-margin-top="0"
     fit-margin-left="0"
     fit-margin-right="0"
     fit-margin-bottom="0"
     inkscape:zoom="3.588113"
     inkscape:cx="-0.4423943"
     inkscape:cy="-6.4457707"
     inkscape:window-x="0"
     inkscape:window-y="0"
     inkscape:window-maximized="0"
     inkscape:current-layer="svg2" />
  <defs
     id="defs4">
    <linearGradient
       id="LinearGradient"
       gradientUnits="userSpaceOnUse"
       x1="0"
       y1="0"
       x2="0"
       y2="-4.5"
       gradientTransform="translate(474.068,616.569)">
      <stop
         offset="0"
         stop-color="#ffffff"
         id="stop7" />
      <stop
         offset="1"
         stop-color="#000000"
         id="stop9" />
    </linearGradient>
  </defs>
  <g
     id="Document"
     font-size="16"
     transform="matrix(1,0,0,-1,-467.319,-218.57105)"
     style="font-size:16px;font-family:'Times New Roman';fill:none;stroke:#000000">
    <g
       id="Spread"
       transform="translate(0,-841.891)">
      <g
         id="Layer 1">
        <path
           d="m 471.068,616.569 2.25,-1.5 5.25,6.75 c 0.75,0.75 0,1.5 -0.75,0.75 l -6.75,-6 z"
           stroke-miterlimit="79.8403193612775"
           id="path14"
           inkscape:connector-curvature="0"
           style="fill:#ce5c00;stroke:none;stroke-width:0.5;stroke-linejoin:round;stroke-miterlimit:79.84031677;marker-start:none;marker-end:none" />
        <path
           d="m 473.153,616.079 -0.861,0.575 4.236,3.765 -3.375,-4.34 z"
           stroke-miterlimit="79.8403193612775"
           id="path16"
           inkscape:connector-curvature="0"
           style="fill:#f57900;stroke:none;stroke-width:0.5;stroke-linejoin:round;stroke-miterlimit:79.84031677;marker-start:none;marker-end:none" />
        <path
           d="m 467.319,623.32 11.999,0 0,-12.001 -11.999,0 0,12.001 z"
           stroke-miterlimit="79.8403193612775"
           id="path18"
           inkscape:connector-curvature="0"
           style="stroke:none;stroke-width:0.5;stroke-linejoin:miter;stroke-miterlimit:79.84031677;marker-start:none;marker-end:none" />
        <path
           d="m 473.318,615.069 c -2.25,0 -2.25,0 -2.25,1.5 l 3.684,3.274 0.077,0.007 c 0.586,0 1.219,-0.375 1.242,-1.125 l -0.009,-0.127 -2.744,-3.529 z"
           stroke-miterlimit="79.8403193612775"
           id="path20"
           inkscape:connector-curvature="0"
           style="fill:#888a85;stroke:none;stroke-width:0.5;stroke-linejoin:round;stroke-miterlimit:79.84031677;marker-start:none;marker-end:none" />
        <path
           d="m 472.95,615.819 -0.3,0.001 c -0.191,0.002 -0.352,0.006 -0.491,0.014 -0.147,0.008 -0.245,0.02 -0.318,0.031 l -0.009,0.045 c -0.004,0.052 -0.007,0.127 -0.01,0.234 l -0.002,0.09 3.196,2.839 c 0.117,-0.036 0.211,-0.106 0.262,-0.204 l 0.011,-0.043 -2.339,-3.007 z"
           stroke-miterlimit="79.8403193612775"
           id="path22"
           inkscape:connector-curvature="0"
           style="fill:#ffffff;stroke:none;stroke-width:0.5;stroke-linejoin:round;stroke-miterlimit:79.84031677;marker-start:none;marker-end:none" />
        <path
           d="m 471.068,616.569 c 0.75,0.75 3,0 2.25,-1.5 l -0.75,-3 c -1.5,-0.75 -4.5,0.75 -4.5,2.25 l 3,2.25 z"
           stroke-miterlimit="79.8403193612775"
           id="path24"
           inkscape:connector-curvature="0"
           style="fill:#c4a000;stroke:none;stroke-width:0.5;stroke-linejoin:round;stroke-miterlimit:79.84031677;marker-start:none;marker-end:none" />
        <path
           d="m 471.601,612.618 c -1.047,0.008 -2.089,0.623 -2.545,1.183 l -0.14,0.216 2.602,1.952 c 0.028,0.021 0.055,0.044 0.08,0.069 0.056,0.056 0.426,0.151 0.822,-0.047 0.184,-0.092 0.402,-0.237 0.227,-0.587 -0.025,-0.049 -0.044,-0.101 -0.057,-0.154 l -0.651,-2.603 -0.338,-0.029 z"
           stroke-miterlimit="79.8403193612775"
           id="path26"
           inkscape:connector-curvature="0"
           style="fill:#edd400;stroke:none;stroke-width:0.5;stroke-linejoin:round;stroke-miterlimit:79.84031677;marker-start:none;marker-end:none" />
        <mask
           id="TranspMask">
          <rect
             x="-59.527702"
             y="-84.189102"
             width="714.33246"
             height="1010.2692"
             id="rect29"
             style="fill:url(#LinearGradient);stroke:none" />
        </mask>
        <path
           d="m 471.068,613.569 -2.063,0.515 2.513,1.885 c 0.028,0.021 0.055,0.044 0.08,0.069 0.056,0.056 0.426,0.151 0.822,-0.047 0.092,-0.046 0.192,-0.106 0.248,-0.197 l 0.017,-0.068 -1.617,-2.157 z"
           stroke-miterlimit="79.8403193612775"
           mask="url(#TranspMask)"
           id="path31"
           inkscape:connector-curvature="0"
           style="fill:#ffffff;stroke:none;stroke-width:0.5;stroke-linejoin:round;stroke-miterlimit:79.84031677;marker-start:none;marker-end:none" />
      </g>
    </g>
  </g>
</svg>
