<?xml version="1.0" encoding="UTF-8" standalone="no"?>
<!--Generator: Xara Designer (www.xara.com), SVG filter version: 6.0.0.4-->

<svg
   xmlns:dc="http://purl.org/dc/elements/1.1/"
   xmlns:cc="http://creativecommons.org/ns#"
   xmlns:rdf="http://www.w3.org/1999/02/22-rdf-syntax-ns#"
   xmlns:svg="http://www.w3.org/2000/svg"
   xmlns="http://www.w3.org/2000/svg"
   xmlns:sodipodi="http://sodipodi.sourceforge.net/DTD/sodipodi-0.dtd"
   xmlns:inkscape="http://www.inkscape.org/namespaces/inkscape"
   version="1.1"
   overflow="visible"
   width="12.001pt"
   height="11.998999pt"
   viewBox="0 0 12.001001 11.998999"
   id="svg2"
   inkscape:version="0.91 r13725"
   sodipodi:docname="cd.svg"
   style="overflow:visible;fill-rule:evenodd;stroke-width:0.50099999;stroke-linejoin:bevel">
  <metadata
     id="metadata52">
    <rdf:RDF>
      <cc:Work
         rdf:about="">
        <dc:format>image/svg+xml</dc:format>
        <dc:type
           rdf:resource="http://purl.org/dc/dcmitype/StillImage" />
        <dc:title></dc:title>
      </cc:Work>
    </rdf:RDF>
  </metadata>
  <sodipodi:namedview
     pagecolor="#ffffff"
     bordercolor="#666666"
     borderopacity="1"
     objecttolerance="10"
     gridtolerance="10"
     guidetolerance="10"
     inkscape:pageopacity="0"
     inkscape:pageshadow="2"
     inkscape:window-width="640"
     inkscape:window-height="480"
     id="namedview50"
     showgrid="false"
     fit-margin-top="0"
     fit-margin-left="0"
     fit-margin-right="0"
     fit-margin-bottom="0"
     inkscape:zoom="3.588113"
     inkscape:cx="-4.8291334"
     inkscape:cy="11.925094"
     inkscape:window-x="0"
     inkscape:window-y="0"
     inkscape:window-maximized="0"
     inkscape:current-layer="svg2" />
  <defs
     id="defs4">
    <linearGradient
       id="LinearGradient"
       gradientUnits="userSpaceOnUse"
       x1="0"
       y1="0"
       x2="-0.001"
       y2="-11.998"
       gradientTransform="translate(479.321,623.319)">
      <stop
         offset="0"
         stop-color="#ffffff"
         id="stop7" />
      <stop
         offset="0.500999987125397"
         stop-color="#babdb6"
         id="stop9" />
      <stop
         offset="1"
         stop-color="#ffffff"
         id="stop11" />
    </linearGradient>
    <linearGradient
       id="LinearGradient_1"
       gradientUnits="userSpaceOnUse"
       x1="0"
       y1="0"
       x2="0.001"
       y2="6"
       gradientTransform="translate(479.32,617.319)">
      <stop
         offset="0"
         stop-color="#333333"
         id="stop14" />
      <stop
         offset="1"
         stop-color="#ffffff"
         id="stop16" />
    </linearGradient>
  </defs>
  <g
     id="Document"
     font-size="16"
     transform="matrix(1,0,0,-1,-467.319,-218.57305)"
     style="font-size:16px;font-family:'Times New Roman';fill:none;stroke:#000000">
    <g
       id="Spread"
       transform="translate(0,-841.891)">
      <g
         id="opaque">
        <path
           d="m 479.32,623.318 0,-11.999 -12.001,0 0,11.999 12.001,0 z"
           stroke-miterlimit="79.8403193612775"
           id="path21"
           inkscape:connector-curvature="0"
           style="stroke:none;stroke-width:0.5;stroke-linejoin:miter;stroke-miterlimit:79.84031677;marker-start:none;marker-end:none" />
      </g>
      <g
         id="Layer 1">
        <path
           d="m 473.321,622.569 c 2.898,0 5.251,-2.352 5.251,-5.25 0,-2.898 -2.353,-5.25 -5.251,-5.25 -2.898,0 -5.251,2.352 -5.251,5.25 0,2.898 2.353,5.25 5.251,5.25 z"
           stroke-miterlimit="79.8403193612775"
           id="path24"
           inkscape:connector-curvature="0"
           style="fill:#888a85;stroke:none;stroke-width:0.5;stroke-linejoin:miter;stroke-miterlimit:79.84031677;marker-start:none;marker-end:none" />
        <path
           d="m 473.321,621.821 c 2.484,0 4.501,-2.016 4.501,-4.5 0,-2.484 -2.017,-4.5 -4.501,-4.5 -2.484,0 -4.501,2.016 -4.501,4.5 0,2.484 2.017,4.5 4.501,4.5 z"
           stroke-miterlimit="79.8403193612775"
           id="path26"
           inkscape:connector-curvature="0"
           style="fill:url(#LinearGradient);stroke:none;stroke-width:0.75;stroke-linejoin:round;stroke-miterlimit:79.84031677;marker-start:none;marker-end:none" />
        <path
           d="m 473.321,618.819 c 0.828,0 1.501,-0.672 1.501,-1.5 0,-0.828 -0.673,-1.5 -1.501,-1.5 -0.828,0 -1.501,0.672 -1.501,1.5 0,0.828 0.673,1.5 1.501,1.5 z"
           stroke-miterlimit="79.8403193612775"
           id="path28"
           inkscape:connector-curvature="0"
           style="fill:#a5a7a2;stroke:none;stroke-width:0.5;stroke-miterlimit:79.84031677;marker-start:none;marker-end:none" />
        <path
           d="m 473.321,618.069 c 0.414,0 0.751,-0.336 0.751,-0.75 0,-0.414 -0.337,-0.75 -0.751,-0.75 -0.414,0 -0.751,0.336 -0.751,0.75 0,0.414 0.337,0.75 0.751,0.75 z"
           stroke-miterlimit="79.8403193612775"
           id="path30"
           inkscape:connector-curvature="0"
           style="fill:#ffffff;stroke:none;stroke-width:0.5;stroke-miterlimit:79.84031677;marker-start:none;marker-end:none" />
        <path
           d="m 476.016,613.724 -1.799,2.399 0.165,0.135 0.063,0.077 2.257,-1.976 -0.2,-0.22 c -0.102,-0.102 -0.208,-0.199 -0.32,-0.291 l -0.166,-0.124 z m -3.82,4.578 -2.259,1.977 0.201,0.222 c 0.102,0.102 0.209,0.199 0.32,0.291 l 0.165,0.123 1.801,-2.401 -0.164,-0.135 -0.064,-0.077 z"
           stroke-miterlimit="79.8403193612775"
           id="path32"
           inkscape:connector-curvature="0"
           style="fill:#a0c0e8;stroke:none;stroke-width:0.5;stroke-linejoin:round;stroke-miterlimit:79.84031677;marker-start:none;marker-end:none" />
        <path
           d="m 476.702,614.359 -2.257,1.976 0.12,0.145 0.025,0.045 2.542,-1.588 -0.08,-0.132 c -0.081,-0.12 -0.168,-0.235 -0.259,-0.346 l -0.091,-0.1 z m -4.651,3.753 -2.544,1.59 0.081,0.133 c 0.081,0.12 0.168,0.235 0.26,0.347 l 0.089,0.097 2.259,-1.977 -0.12,-0.145 -0.025,-0.045 z"
           stroke-miterlimit="79.8403193612775"
           id="path34"
           inkscape:connector-curvature="0"
           style="fill:#b8f39e;stroke:none;stroke-width:0.5;stroke-linejoin:round;stroke-miterlimit:79.84031677;marker-start:none;marker-end:none" />
        <path
           d="m 475.33,613.299 -1.341,2.683 0.17,0.093 0.058,0.048 1.799,-2.399 -0.18,-0.135 c -0.12,-0.081 -0.244,-0.156 -0.371,-0.225 l -0.135,-0.065 z m -2.906,5.215 -1.801,2.401 0.181,0.136 c 0.12,0.081 0.244,0.156 0.371,0.225 l 0.134,0.065 1.343,-2.686 -0.17,-0.093 -0.058,-0.048 z"
           stroke-miterlimit="79.8403193612775"
           id="path36"
           inkscape:connector-curvature="0"
           style="fill:#f6f79c;stroke:none;stroke-width:0.5;stroke-linejoin:round;stroke-miterlimit:79.84031677;marker-start:none;marker-end:none" />
        <path
           d="m 477.132,614.937 -2.542,1.588 0.113,0.21 0.019,0.058 2.807,-1.053 -0.062,-0.171 c -0.057,-0.134 -0.121,-0.265 -0.19,-0.393 l -0.145,-0.239 z m -5.213,2.907 -2.809,1.054 0.063,0.173 c 0.057,0.135 0.121,0.266 0.19,0.393 l 0.144,0.238 2.544,-1.59 -0.113,-0.21 -0.019,-0.058 z"
           stroke-miterlimit="79.8403193612775"
           id="path38"
           inkscape:connector-curvature="0"
           style="fill:#f3b6d2;stroke:none;stroke-width:0.5;stroke-linejoin:round;stroke-miterlimit:79.84031677;marker-start:none;marker-end:none" />
        <g
           id="Group"
           stroke-miterlimit="79.8403193612775"
           style="fill:#ffffff;stroke:none;stroke-width:0.5;stroke-miterlimit:79.84031677">
          <path
             d="m 473.321,612.821 c -0.156,0 -0.309,0.007 -0.461,0.023 l -0.097,0.012 0.372,2.975 0.032,-0.005 c 0.051,-0.005 0.102,-0.007 0.154,-0.007 0.051,0 0.102,0.002 0.153,0.007 l 0.032,0.005 0.372,-2.975 -0.098,-0.012 c -0.151,-0.016 -0.304,-0.023 -0.459,-0.023 z m -0.186,5.985 -0.373,2.978 0.098,0.012 c 0.152,0.016 0.305,0.024 0.461,0.024 0.155,0 0.308,-0.008 0.459,-0.024 l 0.099,-0.012 -0.373,-2.978 -0.032,0.005 c -0.051,0.005 -0.102,0.008 -0.153,0.008 -0.052,0 -0.103,-0.003 -0.154,-0.008 l -0.032,-0.005 z"
             id="path41"
             inkscape:connector-curvature="0"
             style="marker-start:none;marker-end:none" />
          <path
             d="m 469.725,614.622 -0.137,0.183 c -0.08,0.12 -0.156,0.244 -0.225,0.371 l -0.064,0.132 2.685,1.342 0.092,-0.17 0.048,-0.059 -2.399,-1.799 z m 4.932,3.365 -0.092,0.17 -0.048,0.059 2.4,1.8 0.135,-0.181 c 0.081,-0.12 0.156,-0.243 0.225,-0.371 l 0.065,-0.135 -2.685,-1.342 z"
             id="path43"
             inkscape:connector-curvature="0"
             style="marker-start:none;marker-end:none" />
        </g>
        <mask
           id="TranspMask">
          <rect
             x="-59.527702"
             y="-84.189102"
             width="714.33246"
             height="1010.2692"
             id="rect46"
             style="fill:url(#LinearGradient_1);stroke:none" />
        </mask>
        <path
           d="m 468.82,617.319 0,0.002 c 0,2.483 2.016,4.499 4.501,4.499 2.484,0 4.5,-2.016 4.5,-4.499 l -0.001,-0.002 -2.998,0 c 0,0.828 -0.673,1.5 -1.501,1.5 -0.828,0 -1.501,-0.672 -1.501,-1.5 l -3,0 z"
           stroke-miterlimit="79.8403193612775"
           mask="url(#TranspMask)"
           id="path48"
           inkscape:connector-curvature="0"
           style="fill:#ffffff;stroke:none;stroke-width:0.5;stroke-linejoin:miter;stroke-miterlimit:79.84031677;marker-start:none;marker-end:none" />
      </g>
    </g>
  </g>
</svg>
