<?xml version="1.0" encoding="UTF-8" standalone="no"?>
<!--Generator: Xara Designer (www.xara.com), SVG filter version: 6.0.0.4-->

<svg
   xmlns:dc="http://purl.org/dc/elements/1.1/"
   xmlns:cc="http://creativecommons.org/ns#"
   xmlns:rdf="http://www.w3.org/1999/02/22-rdf-syntax-ns#"
   xmlns:svg="http://www.w3.org/2000/svg"
   xmlns="http://www.w3.org/2000/svg"
   xmlns:sodipodi="http://sodipodi.sourceforge.net/DTD/sodipodi-0.dtd"
   xmlns:inkscape="http://www.inkscape.org/namespaces/inkscape"
   version="1.1"
   overflow="visible"
   width="11.999pt"
   height="12.000998pt"
   viewBox="0 0 11.999 12.000999"
   id="svg2"
   inkscape:version="0.91 r13725"
   sodipodi:docname="delete.svg"
   style="overflow:visible;fill-rule:evenodd;stroke-width:0.50099999;stroke-linejoin:bevel">
  <metadata
     id="metadata34">
    <rdf:RDF>
      <cc:Work
         rdf:about="">
        <dc:format>image/svg+xml</dc:format>
        <dc:type
           rdf:resource="http://purl.org/dc/dcmitype/StillImage" />
        <dc:title></dc:title>
      </cc:Work>
    </rdf:RDF>
  </metadata>
  <sodipodi:namedview
     pagecolor="#ffffff"
     bordercolor="#666666"
     borderopacity="1"
     objecttolerance="10"
     gridtolerance="10"
     guidetolerance="10"
     inkscape:pageopacity="0"
     inkscape:pageshadow="2"
     inkscape:window-width="640"
     inkscape:window-height="480"
     id="namedview32"
     showgrid="false"
     fit-margin-top="0"
     fit-margin-left="0"
     fit-margin-right="0"
     fit-margin-bottom="0"
     inkscape:zoom="3.588113"
     inkscape:cx="2.2127372"
     inkscape:cy="3.4323048"
     inkscape:window-x="0"
     inkscape:window-y="0"
     inkscape:window-maximized="0"
     inkscape:current-layer="svg2" />
  <defs
     id="defs4">
    <linearGradient
       id="LinearGradient"
       gradientUnits="userSpaceOnUse"
       x1="0"
       y1="0"
       x2="0"
       y2="-12"
       gradientTransform="translate(479.318,623.319)">
      <stop
         offset="0"
         stop-color="#ffffff"
         id="stop7" />
      <stop
         offset="0.500999987125397"
         stop-color="#e81d1d"
         id="stop9" />
      <stop
         offset="1"
         stop-color="#ffffff"
         id="stop11" />
    </linearGradient>
    <linearGradient
       id="LinearGradient_1"
       gradientUnits="userSpaceOnUse"
       x1="0"
       y1="0"
       x2="0"
       y2="6"
       gradientTransform="translate(479.318,617.319)">
      <stop
         offset="0"
         stop-color="#333333"
         id="stop14" />
      <stop
         offset="1"
         stop-color="#ffffff"
         id="stop16" />
    </linearGradient>
  </defs>
  <g
     id="Document"
     font-size="16"
     transform="matrix(1,0,0,-1,-467.319,-218.57105)"
     style="font-size:16px;font-family:'Times New Roman';fill:none;stroke:#000000">
    <g
       id="Spread"
       transform="translate(0,-841.891)">
      <g
         id="Layer 1">
        <path
           d="m 468.818,619.569 c -0.53,0.53 -0.53,1.72 0,2.25 0.53,0.53 1.72,0.53 2.25,0 l 2.25,-2.25 2.25,2.25 c 0.53,0.53 1.72,0.53 2.25,0 0.53,-0.53 0.53,-1.72 0,-2.25 l -2.25,-2.25 2.25,-2.25 c 0.53,-0.53 0.53,-1.72 0,-2.25 -0.53,-0.53 -1.72,-0.53 -2.25,0 l -2.25,2.25 -2.25,-2.25 c -0.53,-0.53 -1.72,-0.53 -2.25,0 -0.53,0.53 -0.53,1.72 0,2.25 l 2.25,2.25 -2.25,2.25 z"
           stroke-miterlimit="79.8403193612775"
           id="path21"
           inkscape:connector-curvature="0"
           style="fill:#a40000;stroke:none;stroke-width:0.5;stroke-linejoin:round;stroke-miterlimit:79.84031677;marker-start:none;marker-end:none" />
        <path
           d="m 469.943,613.171 c -0.306,0 -0.516,0.098 -0.595,0.178 -0.233,0.233 -0.236,0.953 0,1.189 l 2.25,2.25 c 0.293,0.293 0.293,0.768 0,1.061 l -2.25,2.25 c -0.233,0.233 -0.236,0.953 0,1.189 0.233,0.233 0.953,0.236 1.189,0 l 2.25,-2.25 c 0.293,-0.293 0.768,-0.293 1.061,0 l 2.25,2.25 c 0.233,0.233 0.953,0.236 1.189,0 0.233,-0.233 0.236,-0.953 0,-1.189 l -2.25,-2.25 c -0.293,-0.293 -0.293,-0.768 0,-1.061 l 2.25,-2.25 c 0.233,-0.233 0.236,-0.953 0,-1.189 -0.233,-0.233 -0.953,-0.236 -1.189,0 l -2.25,2.25 c -0.293,0.293 -0.768,0.293 -1.061,0 l -2.25,-2.25 c -0.079,-0.08 -0.289,-0.178 -0.594,-0.178 z"
           stroke-miterlimit="79.8403193612775"
           id="path23"
           inkscape:connector-curvature="0"
           style="fill:url(#LinearGradient);stroke:none;stroke-width:0.75;stroke-linejoin:round;stroke-miterlimit:79.84031677;marker-start:none;marker-end:none" />
        <path
           d="m 467.319,623.32 11.999,0 0,-12.001 -11.999,0 0,12.001 z"
           stroke-miterlimit="79.8403193612775"
           id="path25"
           inkscape:connector-curvature="0"
           style="stroke:none;stroke-width:0.5;stroke-linejoin:miter;stroke-miterlimit:79.84031677;marker-start:none;marker-end:none" />
        <mask
           id="TranspMask">
          <rect
             x="-59.527702"
             y="-84.189102"
             width="714.33246"
             height="1010.2692"
             id="rect28"
             style="fill:url(#LinearGradient_1);stroke:none" />
        </mask>
        <path
           d="m 471.817,617.316 0,0.002 c 0,0.192 -0.073,0.384 -0.219,0.531 l -2.25,2.25 c -0.233,0.233 -0.236,0.953 0,1.189 0.233,0.233 0.953,0.236 1.189,0 l 2.25,-2.25 c 0.293,-0.293 0.768,-0.293 1.061,0 l 2.25,2.25 c 0.233,0.233 0.953,0.236 1.189,0 0.233,-0.233 0.236,-0.953 0,-1.189 l -2.25,-2.25 c -0.147,-0.147 -0.22,-0.339 -0.22,-0.531 l 0,-0.002 -3,0 z"
           stroke-miterlimit="79.8403193612775"
           mask="url(#TranspMask)"
           id="path30"
           inkscape:connector-curvature="0"
           style="fill:#ffffff;stroke:none;stroke-width:0.5;stroke-linejoin:miter;stroke-miterlimit:79.84031677;marker-start:none;marker-end:none" />
      </g>
    </g>
  </g>
</svg>
