<?xml version="1.0" encoding="UTF-8" standalone="no"?>
<!--Generator: Xara Designer (www.xara.com), SVG filter version: 6.0.0.4-->

<svg
   xmlns:dc="http://purl.org/dc/elements/1.1/"
   xmlns:cc="http://creativecommons.org/ns#"
   xmlns:rdf="http://www.w3.org/1999/02/22-rdf-syntax-ns#"
   xmlns:svg="http://www.w3.org/2000/svg"
   xmlns="http://www.w3.org/2000/svg"
   xmlns:sodipodi="http://sodipodi.sourceforge.net/DTD/sodipodi-0.dtd"
   xmlns:inkscape="http://www.inkscape.org/namespaces/inkscape"
   version="1.1"
   overflow="visible"
   width="12.002pt"
   height="12.000998pt"
   viewBox="0 0 12.002 12.000999"
   id="svg2"
   inkscape:version="0.91 r13725"
   sodipodi:docname="earth-globe-arrows-web-updates.svg"
   style="overflow:visible;fill-rule:evenodd;stroke-width:0.50099999;stroke-linejoin:bevel">
  <metadata
     id="metadata63">
    <rdf:RDF>
      <cc:Work
         rdf:about="">
        <dc:format>image/svg+xml</dc:format>
        <dc:type
           rdf:resource="http://purl.org/dc/dcmitype/StillImage" />
        <dc:title></dc:title>
      </cc:Work>
    </rdf:RDF>
  </metadata>
  <sodipodi:namedview
     pagecolor="#ffffff"
     bordercolor="#666666"
     borderopacity="1"
     objecttolerance="10"
     gridtolerance="10"
     guidetolerance="10"
     inkscape:pageopacity="0"
     inkscape:pageshadow="2"
     inkscape:window-width="640"
     inkscape:window-height="480"
     id="namedview61"
     showgrid="false"
     fit-margin-top="0"
     fit-margin-left="0"
     fit-margin-right="0"
     fit-margin-bottom="0"
     inkscape:zoom="3.588113"
     inkscape:cx="-0.3269538"
     inkscape:cy="10.88613"
     inkscape:window-x="0"
     inkscape:window-y="0"
     inkscape:window-maximized="0"
     inkscape:current-layer="svg2" />
  <defs
     id="defs4">
    <linearGradient
       id="LinearGradient"
       gradientUnits="userSpaceOnUse"
       x1="0"
       y1="0"
       x2="0.001"
       y2="-12.002"
       gradientTransform="translate(479.32,623.32)">
      <stop
         offset="0"
         stop-color="#ffffff"
         id="stop7" />
      <stop
         offset="0.500999987125397"
         stop-color="#3465a4"
         id="stop9" />
      <stop
         offset="1"
         stop-color="#ffffff"
         id="stop11" />
    </linearGradient>
    <linearGradient
       id="LinearGradient_1"
       gradientUnits="userSpaceOnUse"
       x1="0"
       y1="0"
       x2="11.864"
       y2="0"
       gradientTransform="matrix(0,-1,1,0,479.495,623.316)">
      <stop
         offset="0"
         stop-color="#ffffff"
         id="stop14" />
      <stop
         offset="0.500999987125397"
         stop-color="#73d216"
         id="stop16" />
      <stop
         offset="1"
         stop-color="#ffffff"
         id="stop18" />
    </linearGradient>
    <linearGradient
       id="LinearGradient_2"
       gradientUnits="userSpaceOnUse"
       x1="0"
       y1="0"
       x2="0"
       y2="6"
       gradientTransform="translate(479.321,617.319)">
      <stop
         offset="0"
         stop-color="#333333"
         id="stop21" />
      <stop
         offset="1"
         stop-color="#ffffff"
         id="stop23" />
    </linearGradient>
    <linearGradient
       id="LinearGradient_3"
       gradientUnits="userSpaceOnUse"
       x1="0"
       y1="0"
       x2="0"
       y2="6"
       gradientTransform="translate(479.321,617.319)">
      <stop
         offset="0"
         stop-color="#bfbfbf"
         id="stop26" />
      <stop
         offset="1"
         stop-color="#000000"
         id="stop28" />
    </linearGradient>
  </defs>
  <g
     id="Document"
     font-size="16"
     transform="matrix(1,0,0,-1,-467.319,-218.57105)"
     style="font-size:16px;font-family:'Times New Roman';fill:none;stroke:#000000">
    <g
       id="Spread"
       transform="translate(0,-841.891)">
      <g
         id="opaque">
        <path
           d="m 479.32,623.318 0,-11.999 -12.001,0 0,11.999 12.001,0 z"
           stroke-miterlimit="79.8403193612775"
           id="path33"
           inkscape:connector-curvature="0"
           style="stroke:none;stroke-width:0.5;stroke-linejoin:miter;stroke-miterlimit:79.84031677;marker-start:none;marker-end:none" />
      </g>
      <g
         id="Layer 1">
        <path
           d="m 473.321,622.569 c 2.898,0 5.251,-2.352 5.251,-5.25 0,-2.898 -2.353,-5.25 -5.251,-5.25 -2.898,0 -5.251,2.352 -5.251,5.25 0,2.898 2.353,5.25 5.251,5.25 z"
           stroke-miterlimit="79.8403193612775"
           id="path36"
           inkscape:connector-curvature="0"
           style="fill:#204a87;stroke:none;stroke-width:0.5;stroke-miterlimit:79.84031677;marker-start:none;marker-end:none" />
        <path
           d="m 473.321,621.821 c 2.484,0 4.501,-2.016 4.501,-4.5 0,-2.484 -2.017,-4.5 -4.501,-4.5 -2.484,0 -4.501,2.016 -4.501,4.5 0,2.484 2.017,4.5 4.501,4.5 z"
           stroke-miterlimit="79.8403193612775"
           id="path38"
           inkscape:connector-curvature="0"
           style="fill:url(#LinearGradient);stroke:none;stroke-width:0.75;stroke-linejoin:round;stroke-miterlimit:79.84031677;marker-start:none;marker-end:none" />
        <path
           d="m 474.747,612.27 0.015,0.132 c 0.034,0.14 0.087,0.295 0.059,0.417 -0.128,0.544 -0.622,0.956 -0.75,1.5 -0.057,0.243 0.176,0.574 0,0.75 -0.176,0.176 -0.502,-0.03 -0.75,0 -1.023,0.125 -2.244,0.05 -3,0.75 -0.58,0.537 -0.931,1.481 -0.75,2.25 0.081,0.344 0.694,0.402 0.75,0.75 0.089,0.551 -0.622,0.956 -0.75,1.5 -0.029,0.121 -0.029,0.246 -0.022,0.372 l 0.017,0.292 0.042,0.047 c 0.119,0.119 0.244,0.232 0.373,0.339 l 0.047,0.035 0.084,-0.142 c 0.06,-0.088 0.127,-0.16 0.209,-0.193 0.75,0 0.956,0.622 1.5,0.75 0.729,0.172 1.558,0.287 2.25,0 0.326,-0.135 0.75,-0.397 0.75,-0.75 0,-0.353 -0.501,-0.501 -0.75,-0.75 -0.249,-0.25 -0.615,-0.424 -0.75,-0.75 -0.191,-0.461 0,-0.75 0,-1.5 0,-0.499 -1.039,0.191 -1.5,0 -0.326,-0.135 -0.75,-0.397 -0.75,-0.75 0,-0.353 0.464,-0.544 0.75,-0.75 0.453,-0.326 0.97,-0.926 1.5,-0.75 0.53,0.176 0.192,1.5 0.75,1.5 1.5,0 2.942,0.235 3.75,-0.75 0.158,-0.193 0.176,-0.574 0,-0.75 -0.75,-0.75 -0.5,-1 -0.75,-1.5 -0.125,-0.25 -0.214,-0.527 -0.321,-0.79 l -0.143,-0.301 -0.352,-0.262 c -0.419,-0.284 -0.881,-0.508 -1.374,-0.661 l -0.134,-0.035 z"
           stroke-miterlimit="79.8403193612775"
           id="path40"
           inkscape:connector-curvature="0"
           style="fill:#4e9a06;stroke:none;stroke-width:0.5;stroke-miterlimit:79.84031677;marker-start:none;marker-end:none" />
        <path
           d="m 474.741,613.051 -0.074,0.155 c -0.199,0.371 -0.5,0.705 -0.596,1.113 -0.057,0.243 0.176,0.574 0,0.75 -0.176,0.176 -0.502,-0.03 -0.75,0 -1.023,0.125 -2.244,0.05 -3,0.75 -0.58,0.537 -0.931,1.481 -0.75,2.25 0.081,0.344 0.694,0.402 0.75,0.75 0.066,0.413 -0.317,0.744 -0.567,1.113 l -0.041,0.07 0.135,0.179 c 0.825,1.001 2.075,1.639 3.473,1.639 0.31,0 0.613,-0.032 0.906,-0.092 l 0.06,-0.016 0.038,-0.018 c 0.257,-0.147 0.496,-0.361 0.496,-0.625 0,-0.353 -0.501,-0.501 -0.75,-0.75 -0.249,-0.25 -0.615,-0.424 -0.75,-0.75 -0.191,-0.461 0,-0.75 0,-1.5 0,-0.499 -1.039,0.191 -1.5,0 -0.326,-0.135 -0.75,-0.397 -0.75,-0.75 0,-0.353 0.464,-0.544 0.75,-0.75 0.453,-0.326 0.97,-0.926 1.5,-0.75 0.53,0.176 0.192,1.5 0.75,1.5 1.406,0 2.761,0.206 3.591,-0.58 l 0.1,-0.108 -0.033,-0.218 c -0.3,-1.465 -1.312,-2.671 -2.657,-3.241 l -0.331,-0.121 z"
           stroke-miterlimit="79.8403193612775"
           id="path42"
           inkscape:connector-curvature="0"
           style="fill:url(#LinearGradient_1);stroke:none;stroke-width:0.75;stroke-linejoin:round;stroke-miterlimit:79.84031677;marker-start:none;marker-end:none" />
        <mask
           id="TranspMask">
          <rect
             x="-59.527702"
             y="-84.189102"
             width="714.33246"
             height="1010.2692"
             id="rect45"
             style="fill:url(#LinearGradient_2);stroke:none" />
        </mask>
        <path
           d="m 473.32,621.821 c 1.657,0 3.002,-1.009 3.002,-2.251 0,-1.242 -1.345,-2.251 -3.002,-2.251 -1.657,0 -3.002,1.009 -3.002,2.251 0,1.242 1.345,2.251 3.002,2.251 z"
           stroke-miterlimit="79.8403193612775"
           mask="url(#TranspMask)"
           id="path47"
           inkscape:connector-curvature="0"
           style="fill:#ffffff;stroke:none;stroke-width:0.5;stroke-linejoin:miter;stroke-miterlimit:79.84031677;marker-start:none;marker-end:none" />
        <path
           d="m 467.322,623.32 11.999,0 0,-12.001 -11.999,0 0,12.001 z"
           stroke-miterlimit="79.8403193612775"
           id="path49"
           inkscape:connector-curvature="0"
           style="stroke:none;stroke-width:0.5;stroke-linejoin:miter;stroke-miterlimit:79.84031677;marker-start:none;marker-end:none" />
        <mask
           id="TranspMask_1">
          <rect
             x="-59.527702"
             y="-84.189102"
             width="714.33246"
             height="1010.2692"
             id="rect52"
             style="fill:url(#LinearGradient_3);stroke:none" />
        </mask>
        <path
           d="m 473.321,613.569 c -0.62,0 -1.157,0.305 -1.575,0.618 -0.213,0.16 -0.424,0.344 -0.648,0.533 l -0.247,-0.182 c -0.471,-0.471 -1.28,-0.136 -1.28,0.531 l 0,3 c 0,0.103 0.021,0.201 0.058,0.291 l 0.054,0.079 -0.055,0.093 c -0.108,0.261 -0.074,0.581 0.162,0.817 0.836,0.836 2.513,1.72 3.531,1.72 0.619,0 1.156,-0.306 1.575,-0.619 0.212,-0.16 0.422,-0.344 0.646,-0.534 l 0.248,0.183 c 0.471,0.471 1.281,0.136 1.281,-0.53 l 0,-3 c 0,-0.104 -0.022,-0.203 -0.06,-0.292 l -0.053,-0.08 0.054,-0.092 c 0.108,-0.262 0.074,-0.582 -0.161,-0.817 -0.836,-0.836 -2.513,-1.719 -3.53,-1.719 z"
           stroke-miterlimit="79.8403193612775"
           mask="url(#TranspMask_1)"
           id="path54"
           inkscape:connector-curvature="0"
           style="fill:#4e9a06;stroke:none;stroke-width:0.5;stroke-linejoin:round;stroke-miterlimit:79.84031677;marker-start:none;marker-end:none" />
        <g
           id="Group"
           stroke-miterlimit="79.8403193612775"
           style="fill:#ffffff;stroke:none;stroke-width:0.5;stroke-linejoin:round;stroke-miterlimit:79.84031677">
          <path
             d="m 473.321,616.569 3,0 0,3 -0.75,-0.75 c -0.75,0.75 -1.5,1.5 -2.25,1.5 -0.75,0 -2.25,-0.75 -3,-1.5 l 2.25,0 c 0.75,0 1.5,-0.75 1.5,-1.5 l -0.75,-0.75 z"
             id="path57"
             inkscape:connector-curvature="0"
             style="marker-start:none;marker-end:none" />
          <path
             d="m 473.321,618.069 -3,0 0,-3 0.75,0.75 c 0.75,-0.75 1.5,-1.5 2.25,-1.5 0.75,0 2.25,0.75 3,1.5 l -2.25,0 c -0.75,0 -1.5,0.75 -1.5,1.5 l 0.75,0.75 z"
             id="path59"
             inkscape:connector-curvature="0"
             style="marker-start:none;marker-end:none" />
        </g>
      </g>
    </g>
  </g>
</svg>
