<?xml version="1.0" encoding="UTF-8" standalone="no"?>
<!--Generator: Xara Designer (www.xara.com), SVG filter version: 6.0.0.4-->

<svg
   xmlns:dc="http://purl.org/dc/elements/1.1/"
   xmlns:cc="http://creativecommons.org/ns#"
   xmlns:rdf="http://www.w3.org/1999/02/22-rdf-syntax-ns#"
   xmlns:svg="http://www.w3.org/2000/svg"
   xmlns="http://www.w3.org/2000/svg"
   xmlns:sodipodi="http://sodipodi.sourceforge.net/DTD/sodipodi-0.dtd"
   xmlns:inkscape="http://www.inkscape.org/namespaces/inkscape"
   version="1.1"
   overflow="visible"
   width="12.003pt"
   height="11.998999pt"
   viewBox="0 0 12.003001 11.998999"
   id="svg2"
   inkscape:version="0.91 r13725"
   sodipodi:docname="emoticon-angel.svg"
   style="overflow:visible;fill-rule:evenodd;stroke-width:0.50099999;stroke-linejoin:bevel">
  <metadata
     id="metadata52">
    <rdf:RDF>
      <cc:Work
         rdf:about="">
        <dc:format>image/svg+xml</dc:format>
        <dc:type
           rdf:resource="http://purl.org/dc/dcmitype/StillImage" />
        <dc:title></dc:title>
      </cc:Work>
    </rdf:RDF>
  </metadata>
  <sodipodi:namedview
     pagecolor="#ffffff"
     bordercolor="#666666"
     borderopacity="1"
     objecttolerance="10"
     gridtolerance="10"
     guidetolerance="10"
     inkscape:pageopacity="0"
     inkscape:pageshadow="2"
     inkscape:window-width="640"
     inkscape:window-height="480"
     id="namedview50"
     showgrid="false"
     fit-margin-top="0"
     fit-margin-left="0"
     fit-margin-right="0"
     fit-margin-bottom="0"
     inkscape:zoom="3.588113"
     inkscape:cx="-0.3269538"
     inkscape:cy="15.041988"
     inkscape:window-x="0"
     inkscape:window-y="0"
     inkscape:window-maximized="0"
     inkscape:current-layer="svg2" />
  <defs
     id="defs4">
    <linearGradient
       id="LinearGradient"
       gradientUnits="userSpaceOnUse"
       x1="0"
       y1="0"
       x2="0"
       y2="-11.998"
       gradientTransform="translate(479.32,623.319)">
      <stop
         offset="0"
         stop-color="#ffffff"
         id="stop7" />
      <stop
         offset="0.500999987125397"
         stop-color="#fff200"
         id="stop9" />
      <stop
         offset="1"
         stop-color="#ffffff"
         id="stop11" />
    </linearGradient>
    <linearGradient
       id="LinearGradient_1"
       gradientUnits="userSpaceOnUse"
       x1="0"
       y1="0"
       x2="0"
       y2="4.5"
       gradientTransform="translate(479.321,617.319)">
      <stop
         offset="0"
         stop-color="#333333"
         id="stop14" />
      <stop
         offset="1"
         stop-color="#ffffff"
         id="stop16" />
    </linearGradient>
    <linearGradient
       id="LinearGradient_2"
       gradientUnits="userSpaceOnUse"
       x1="0"
       y1="0"
       x2="0"
       y2="-2.25"
       gradientTransform="translate(473.321,622.569)">
      <stop
         offset="0"
         stop-color="#ffffff"
         id="stop19" />
      <stop
         offset="1"
         stop-color="#fffc00"
         id="stop21" />
    </linearGradient>
  </defs>
  <g
     id="Document"
     font-size="16"
     transform="matrix(1,0,0,-1,-467.319,-218.57305)"
     style="font-size:16px;font-family:'Times New Roman';fill:none;stroke:#000000">
    <g
       id="Spread"
       transform="translate(0,-841.891)">
      <g
         id="opaque">
        <path
           d="m 479.32,623.318 0,-11.999 -12.001,0 0,11.999 12.001,0 z"
           stroke-miterlimit="79.8403193612775"
           id="path26"
           inkscape:connector-curvature="0"
           style="stroke:none;stroke-width:0.5;stroke-linejoin:miter;stroke-miterlimit:79.84031677;marker-start:none;marker-end:none" />
      </g>
      <g
         id="Layer 1">
        <path
           d="m 473.321,622.569 c 2.898,0 5.251,-2.352 5.251,-5.25 0,-2.898 -2.353,-5.25 -5.251,-5.25 -2.898,0 -5.251,2.352 -5.251,5.25 0,2.898 2.353,5.25 5.251,5.25 z"
           stroke-miterlimit="79.8403193612775"
           id="path29"
           inkscape:connector-curvature="0"
           style="fill:#c7b200;stroke:none;stroke-width:0.5;stroke-miterlimit:79.84031677;marker-start:none;marker-end:none" />
        <path
           d="m 473.321,621.821 c 2.484,0 4.501,-2.016 4.501,-4.5 0,-2.484 -2.017,-4.5 -4.501,-4.5 -2.484,0 -4.501,2.016 -4.501,4.5 0,2.484 2.017,4.5 4.501,4.5 z"
           stroke-miterlimit="79.8403193612775"
           id="path31"
           inkscape:connector-curvature="0"
           style="fill:url(#LinearGradient);stroke:none;stroke-width:0.75;stroke-linejoin:round;stroke-miterlimit:79.84031677;marker-start:none;marker-end:none" />
        <mask
           id="TranspMask">
          <rect
             x="-59.527702"
             y="-84.189102"
             width="714.33246"
             height="1010.2692"
             id="rect34"
             style="fill:url(#LinearGradient_1);stroke:none" />
        </mask>
        <path
           d="m 473.32,621.821 c 1.657,0 3.002,-1.009 3.002,-2.251 0,-1.242 -1.345,-2.251 -3.002,-2.251 -1.657,0 -3.002,1.009 -3.002,2.251 0,1.242 1.345,2.251 3.002,2.251 z"
           stroke-miterlimit="79.8403193612775"
           mask="url(#TranspMask)"
           id="path36"
           inkscape:connector-curvature="0"
           style="fill:#ffffff;stroke:none;stroke-width:0.5;stroke-linejoin:miter;stroke-miterlimit:79.84031677;marker-start:none;marker-end:none" />
        <path
           d="m 470.321,616.569 c 0,-1.5 1.5,-2.25 3,-2.25 1.5,0 3,0.75 3,2.25 l -0.75,0 c 0,-0.75 -0.75,-1.5 -2.25,-1.5 -1.5,0 -2.25,0.75 -2.25,1.5 l -0.75,0 z"
           stroke-miterlimit="79.8403193612775"
           id="path38"
           inkscape:connector-curvature="0"
           style="fill:#c17d11;stroke:none;stroke-width:0.5;stroke-miterlimit:79.84031677;marker-start:none;marker-end:none" />
        <path
           d="m 473.321,623.318 c 3.312,0 6.001,-0.84 6.001,-1.874 0,-1.035 -2.689,-1.875 -6.001,-1.875 -3.312,0 -6.001,0.84 -6.001,1.875 0,1.034 2.689,1.874 6.001,1.874 z"
           stroke-miterlimit="79.8403193612775"
           id="path40"
           inkscape:connector-curvature="0"
           style="fill:#c4a000;stroke:none;stroke-width:0.5;stroke-linejoin:round;stroke-miterlimit:79.84031677;marker-start:none;marker-end:none" />
        <path
           d="m 473.321,620.319 c -1.461,0 -2.775,0.169 -3.754,0.437 -0.49,0.134 -0.873,0.287 -1.141,0.439 -0.143,0.081 -0.232,0.151 -0.287,0.202 l -0.043,0.046 0.043,0.046 c 0.055,0.051 0.145,0.121 0.288,0.202 0.268,0.153 0.65,0.305 1.141,0.439 0.978,0.268 2.292,0.438 3.753,0.438 1.46,0 2.774,-0.17 3.752,-0.438 0.491,-0.134 0.873,-0.286 1.141,-0.439 0.143,-0.081 0.232,-0.151 0.287,-0.202 l 0.043,-0.046 -0.043,-0.046 c -0.055,-0.051 -0.144,-0.121 -0.286,-0.202 -0.268,-0.152 -0.651,-0.305 -1.141,-0.439 -0.979,-0.268 -2.293,-0.437 -3.753,-0.437 z"
           stroke-miterlimit="79.8403193612775"
           id="path42"
           inkscape:connector-curvature="0"
           style="fill:url(#LinearGradient_2);stroke:none;stroke-width:0.5;stroke-linejoin:round;stroke-miterlimit:79.84031677;marker-start:none;marker-end:none" />
        <path
           d="m 473.321,621.069 c -1.239,0 -2.355,0.127 -3.224,0.327 l -0.189,0.047 0.189,0.047 c 0.869,0.2 1.985,0.328 3.224,0.328 1.238,0 2.354,-0.128 3.223,-0.328 l 0.188,-0.047 -0.188,-0.047 c -0.869,-0.2 -1.985,-0.327 -3.223,-0.327 z"
           stroke-miterlimit="79.8403193612775"
           id="path44"
           inkscape:connector-curvature="0"
           style="fill:#c4a000;stroke:none;stroke-width:0.5;stroke-linejoin:round;stroke-miterlimit:79.84031677;marker-start:none;marker-end:none" />
        <path
           d="m 473.321,618.819 c 0,-0.75 0.75,-1.5 1.5,-1.5 0.75,0 1.5,0.75 1.5,1.5 l -0.75,0 c 0,-0.75 -0.75,-0.75 -0.75,-0.75 0,0 -0.75,0 -0.75,0.75 l -0.75,0 z"
           stroke-miterlimit="79.8403193612775"
           id="path46"
           inkscape:connector-curvature="0"
           style="fill:#555753;stroke:none;stroke-width:0.5;stroke-miterlimit:79.84031677;marker-start:none;marker-end:none" />
        <path
           d="m 470.321,618.819 c 0,-0.75 0.75,-1.5 1.5,-1.5 0.75,0 1.5,0.75 1.5,1.5 l -0.75,0 c 0,-0.75 -0.75,-0.75 -0.75,-0.75 0,0 -0.75,0 -0.75,0.75 l -0.75,0 z"
           stroke-miterlimit="79.8403193612775"
           id="path48"
           inkscape:connector-curvature="0"
           style="fill:#555753;stroke:none;stroke-width:0.5;stroke-miterlimit:79.84031677;marker-start:none;marker-end:none" />
      </g>
    </g>
  </g>
</svg>
