<?xml version="1.0" encoding="UTF-8" standalone="no"?>
<!--Generator: Xara Designer (www.xara.com), SVG filter version: 6.0.0.4-->

<svg
   xmlns:dc="http://purl.org/dc/elements/1.1/"
   xmlns:cc="http://creativecommons.org/ns#"
   xmlns:rdf="http://www.w3.org/1999/02/22-rdf-syntax-ns#"
   xmlns:svg="http://www.w3.org/2000/svg"
   xmlns="http://www.w3.org/2000/svg"
   xmlns:sodipodi="http://sodipodi.sourceforge.net/DTD/sodipodi-0.dtd"
   xmlns:inkscape="http://www.inkscape.org/namespaces/inkscape"
   version="1.1"
   overflow="visible"
   width="12.001pt"
   height="11.998999pt"
   viewBox="0 0 12.001001 11.998999"
   id="svg2"
   inkscape:version="0.91 r13725"
   sodipodi:docname="emoticon-sunglasses.svg"
   style="overflow:visible;fill-rule:evenodd;stroke-width:0.50099999;stroke-linejoin:bevel">
  <metadata
     id="metadata56">
    <rdf:RDF>
      <cc:Work
         rdf:about="">
        <dc:format>image/svg+xml</dc:format>
        <dc:type
           rdf:resource="http://purl.org/dc/dcmitype/StillImage" />
        <dc:title></dc:title>
      </cc:Work>
    </rdf:RDF>
  </metadata>
  <sodipodi:namedview
     pagecolor="#ffffff"
     bordercolor="#666666"
     borderopacity="1"
     objecttolerance="10"
     gridtolerance="10"
     guidetolerance="10"
     inkscape:pageopacity="0"
     inkscape:pageshadow="2"
     inkscape:window-width="640"
     inkscape:window-height="480"
     id="namedview54"
     showgrid="false"
     fit-margin-top="0"
     fit-margin-left="0"
     fit-margin-right="0"
     fit-margin-bottom="0"
     inkscape:zoom="3.588113"
     inkscape:cx="-2.8342407"
     inkscape:cy="6.1772692"
     inkscape:window-x="0"
     inkscape:window-y="0"
     inkscape:window-maximized="0"
     inkscape:current-layer="svg2" />
  <defs
     id="defs4">
    <linearGradient
       id="LinearGradient"
       gradientUnits="userSpaceOnUse"
       x1="0"
       y1="0"
       x2="0"
       y2="-11.998"
       gradientTransform="translate(479.32,623.319)">
      <stop
         offset="0"
         stop-color="#ffffff"
         id="stop7" />
      <stop
         offset="0.500999987125397"
         stop-color="#fff200"
         id="stop9" />
      <stop
         offset="1"
         stop-color="#ffffff"
         id="stop11" />
    </linearGradient>
    <linearGradient
       id="LinearGradient_1"
       gradientUnits="userSpaceOnUse"
       x1="0"
       y1="0"
       x2="0"
       y2="4.5"
       gradientTransform="translate(479.321,617.319)">
      <stop
         offset="0"
         stop-color="#333333"
         id="stop14" />
      <stop
         offset="1"
         stop-color="#ffffff"
         id="stop16" />
    </linearGradient>
    <linearGradient
       id="LinearGradient_2"
       gradientUnits="userSpaceOnUse"
       x1="0"
       y1="0"
       x2="1.5"
       y2="0"
       gradientTransform="matrix(0,-1,1,0,471.472,619.569)">
      <stop
         offset="0"
         stop-color="#888a85"
         id="stop19" />
      <stop
         offset="1"
         stop-color="#2e3436"
         id="stop21" />
    </linearGradient>
    <linearGradient
       id="LinearGradient_3"
       gradientUnits="userSpaceOnUse"
       x1="0"
       y1="0"
       x2="0"
       y2="0.75"
       gradientTransform="translate(478.571,618.819)">
      <stop
         offset="0"
         stop-color="#333333"
         id="stop24" />
      <stop
         offset="1"
         stop-color="#ffffff"
         id="stop26" />
    </linearGradient>
  </defs>
  <g
     id="Document"
     font-size="16"
     transform="matrix(1,0,0,-1,-467.319,-218.57305)"
     style="font-size:16px;font-family:'Times New Roman';fill:none;stroke:#000000">
    <g
       id="Spread"
       transform="translate(0,-841.891)">
      <g
         id="opaque">
        <path
           d="m 479.32,623.318 0,-11.999 -12.001,0 0,11.999 12.001,0 z"
           stroke-miterlimit="79.8403193612775"
           id="path31"
           inkscape:connector-curvature="0"
           style="stroke:none;stroke-width:0.5;stroke-linejoin:miter;stroke-miterlimit:79.84031677;marker-start:none;marker-end:none" />
      </g>
      <g
         id="Layer 1">
        <path
           d="m 473.321,622.569 c 2.898,0 5.251,-2.352 5.251,-5.25 0,-2.898 -2.353,-5.25 -5.251,-5.25 -2.898,0 -5.251,2.352 -5.251,5.25 0,2.898 2.353,5.25 5.251,5.25 z"
           stroke-miterlimit="79.8403193612775"
           id="path34"
           inkscape:connector-curvature="0"
           style="fill:#c7b200;stroke:none;stroke-width:0.5;stroke-miterlimit:79.84031677;marker-start:none;marker-end:none" />
        <path
           d="m 473.321,621.821 c 2.484,0 4.501,-2.016 4.501,-4.5 0,-2.484 -2.017,-4.5 -4.501,-4.5 -2.484,0 -4.501,2.016 -4.501,4.5 0,2.484 2.017,4.5 4.501,4.5 z"
           stroke-miterlimit="79.8403193612775"
           id="path36"
           inkscape:connector-curvature="0"
           style="fill:url(#LinearGradient);stroke:none;stroke-width:0.75;stroke-linejoin:round;stroke-miterlimit:79.84031677;marker-start:none;marker-end:none" />
        <mask
           id="TranspMask">
          <rect
             x="-59.527702"
             y="-84.189102"
             width="714.33246"
             height="1010.2692"
             id="rect39"
             style="fill:url(#LinearGradient_1);stroke:none" />
        </mask>
        <path
           d="m 473.32,621.821 c 1.657,0 3.002,-1.009 3.002,-2.251 0,-1.242 -1.345,-2.251 -3.002,-2.251 -1.657,0 -3.002,1.009 -3.002,2.251 0,1.242 1.345,2.251 3.002,2.251 z"
           stroke-miterlimit="79.8403193612775"
           mask="url(#TranspMask)"
           id="path41"
           inkscape:connector-curvature="0"
           style="fill:#ffffff;stroke:none;stroke-width:0.5;stroke-linejoin:miter;stroke-miterlimit:79.84031677;marker-start:none;marker-end:none" />
        <path
           d="m 470.321,616.569 c 0,-1.5 1.5,-2.25 3,-2.25 1.5,0 3,0.75 3,2.25 l -0.75,0 c 0,-0.75 -0.75,-1.5 -2.25,-1.5 -1.5,0 -2.25,0.75 -2.25,1.5 l -0.75,0 z"
           stroke-miterlimit="79.8403193612775"
           id="path43"
           inkscape:connector-curvature="0"
           style="fill:#c17d11;stroke:none;stroke-width:0.5;stroke-miterlimit:79.84031677;marker-start:none;marker-end:none" />
        <path
           d="m 477.821,620.319 c 0,-2.25 -1.5,-3 -2.25,-3 -0.75,0 -2.25,0.75 -2.25,2.25 0,-1.5 -1.5,-2.25 -2.25,-2.25 -0.75,0 -2.25,0.75 -2.25,3 l 9,0 z"
           stroke-miterlimit="79.8403193612775"
           id="path45"
           inkscape:connector-curvature="0"
           style="fill:#2e3436;stroke:none;stroke-width:0.5;stroke-linejoin:round;stroke-miterlimit:79.84031677;marker-start:none;marker-end:none" />
        <path
           d="m 471.071,618.069 c -0.164,0 -0.539,0.099 -0.876,0.436 -0.197,0.196 -0.392,0.486 -0.51,0.907 l -0.036,0.157 2.922,0 c 0,-0.472 -0.228,-0.834 -0.563,-1.102 -0.357,-0.286 -0.759,-0.398 -0.937,-0.398 z m 4.5,0 c -0.178,0 -0.58,0.111 -0.938,0.398 -0.335,0.268 -0.562,0.63 -0.562,1.102 l 2.921,0 -0.036,-0.157 c -0.119,-0.421 -0.314,-0.711 -0.51,-0.907 -0.337,-0.337 -0.712,-0.436 -0.875,-0.436 z"
           stroke-miterlimit="79.8403193612775"
           id="path47"
           inkscape:connector-curvature="0"
           style="fill:url(#LinearGradient_2);stroke:none;stroke-width:0.5;stroke-linejoin:round;stroke-miterlimit:79.84031677;marker-start:none;marker-end:none" />
        <mask
           id="TranspMask_1">
          <rect
             x="-59.527702"
             y="-84.189102"
             width="714.33246"
             height="1010.2692"
             id="rect50"
             style="fill:url(#LinearGradient_3);stroke:none" />
        </mask>
        <path
           d="m 469.945,618.819 -0.035,0.055 c -0.088,0.149 -0.166,0.327 -0.225,0.538 l -0.036,0.157 2.922,0 c 0,-0.266 -0.073,-0.497 -0.195,-0.695 l -0.037,-0.055 -2.394,0 z m 4.356,0 -0.036,0.055 c -0.123,0.198 -0.194,0.429 -0.194,0.695 l 2.921,0 -0.036,-0.157 c -0.06,-0.211 -0.138,-0.389 -0.227,-0.538 l -0.035,-0.055 -2.393,0 z"
           stroke-miterlimit="79.8403193612775"
           mask="url(#TranspMask_1)"
           id="path52"
           inkscape:connector-curvature="0"
           style="fill:#ffffff;stroke:none;stroke-width:0.5;stroke-linejoin:miter;stroke-miterlimit:79.84031677;marker-start:none;marker-end:none" />
      </g>
    </g>
  </g>
</svg>
