<?xml version="1.0" encoding="UTF-8" standalone="no"?>
<!--Generator: Xara Designer (www.xara.com), SVG filter version: 6.0.0.4-->

<svg
   xmlns:dc="http://purl.org/dc/elements/1.1/"
   xmlns:cc="http://creativecommons.org/ns#"
   xmlns:rdf="http://www.w3.org/1999/02/22-rdf-syntax-ns#"
   xmlns:svg="http://www.w3.org/2000/svg"
   xmlns="http://www.w3.org/2000/svg"
   xmlns:sodipodi="http://sodipodi.sourceforge.net/DTD/sodipodi-0.dtd"
   xmlns:inkscape="http://www.inkscape.org/namespaces/inkscape"
   version="1.1"
   overflow="visible"
   width="12.001pt"
   height="11.998999pt"
   viewBox="0 0 12.001001 11.998999"
   id="svg2"
   inkscape:version="0.91 r13725"
   sodipodi:docname="feed-rss-atom.svg"
   style="overflow:visible;fill-rule:evenodd;stroke-width:0.50099999;stroke-linejoin:bevel">
  <metadata
     id="metadata51">
    <rdf:RDF>
      <cc:Work
         rdf:about="">
        <dc:format>image/svg+xml</dc:format>
        <dc:type
           rdf:resource="http://purl.org/dc/dcmitype/StillImage" />
        <dc:title></dc:title>
      </cc:Work>
    </rdf:RDF>
  </metadata>
  <sodipodi:namedview
     pagecolor="#ffffff"
     bordercolor="#666666"
     borderopacity="1"
     objecttolerance="10"
     gridtolerance="10"
     guidetolerance="10"
     inkscape:pageopacity="0"
     inkscape:pageshadow="2"
     inkscape:window-width="640"
     inkscape:window-height="480"
     id="namedview49"
     showgrid="false"
     fit-margin-top="0"
     fit-margin-left="0"
     fit-margin-right="0"
     fit-margin-bottom="0"
     inkscape:zoom="5.074358"
     inkscape:cx="2.9523305"
     inkscape:cy="5.1207551"
     inkscape:window-x="0"
     inkscape:window-y="0"
     inkscape:window-maximized="0"
     inkscape:current-layer="svg2" />
  <defs
     id="defs4">
    <linearGradient
       id="LinearGradient"
       gradientUnits="userSpaceOnUse"
       x1="0"
       y1="0"
       x2="0"
       y2="-12.001"
       gradientTransform="translate(479.321,623.319)">
      <stop
         offset="0"
         stop-color="#ffffff"
         id="stop7" />
      <stop
         offset="0.500999987125397"
         stop-color="#f57900"
         id="stop9" />
      <stop
         offset="1"
         stop-color="#ffffff"
         id="stop11" />
    </linearGradient>
    <linearGradient
       id="LinearGradient_1"
       gradientUnits="userSpaceOnUse"
       x1="0"
       y1="0"
       x2="0"
       y2="6"
       gradientTransform="translate(479.321,617.319)">
      <stop
         offset="0"
         stop-color="#333333"
         id="stop14" />
      <stop
         offset="1"
         stop-color="#ffffff"
         id="stop16" />
    </linearGradient>
    <linearGradient
       id="LinearGradient_2"
       gradientUnits="userSpaceOnUse"
       x1="0"
       y1="0"
       x2="0"
       y2="6"
       gradientTransform="translate(479.321,617.319)">
      <stop
         offset="0"
         stop-color="#bfbfbf"
         id="stop19" />
      <stop
         offset="1"
         stop-color="#000000"
         id="stop21" />
    </linearGradient>
  </defs>
  <g
     id="Document"
     font-size="16"
     transform="matrix(1,0,0,-1,-467.319,-218.57305)"
     style="font-size:16px;font-family:'Times New Roman';fill:none;stroke:#000000">
    <g
       id="Spread"
       transform="translate(0,-841.891)">
      <g
         id="opaque">
        <path
           d="m 479.32,623.318 0,-11.999 -12.001,0 0,11.999 12.001,0 z"
           stroke-miterlimit="79.8403193612775"
           id="path26"
           inkscape:connector-curvature="0"
           style="stroke:none;stroke-width:0.5;stroke-linejoin:miter;stroke-miterlimit:79.84031677;marker-start:none;marker-end:none" />
      </g>
      <g
         id="Layer 1">
        <path
           d="m 469.571,622.569 c -0.707,0 -1.5,-0.793 -1.5,-1.5 l 0,-7.5 c 0,-0.707 0.793,-1.5 1.5,-1.5 l 7.5,0 c 0.707,0 1.5,0.793 1.5,1.5 l 0,7.5 c 0,0.707 -0.793,1.5 -1.5,1.5 l -7.5,0 z"
           stroke-miterlimit="79.8403193612775"
           id="path29"
           inkscape:connector-curvature="0"
           style="fill:#e47100;stroke:none;stroke-width:0.5;stroke-linejoin:round;stroke-miterlimit:79.84031677;marker-start:none;marker-end:none" />
        <path
           d="m 469.571,612.819 c -0.287,0 -0.75,0.459 -0.75,0.75 l 0,7.5 c 0,0.286 0.459,0.75 0.75,0.75 l 7.5,0 c 0.286,0 0.75,-0.46 0.75,-0.75 l 0,-7.5 c 0,-0.287 -0.46,-0.75 -0.75,-0.75 l -7.5,0 z"
           stroke-miterlimit="79.8403193612775"
           id="path31"
           inkscape:connector-curvature="0"
           style="fill:url(#LinearGradient);stroke:none;stroke-width:0.75;stroke-linejoin:round;stroke-miterlimit:79.84031677;marker-start:none;marker-end:none" />
        <mask
           id="TranspMask">
          <rect
             x="-59.527702"
             y="-84.189102"
             width="714.33246"
             height="1010.2692"
             id="rect34"
             style="fill:url(#LinearGradient_1);stroke:none" />
        </mask>
        <path
           d="m 468.821,617.319 0,3.75 c 0,0.286 0.459,0.75 0.75,0.75 l 7.5,0 c 0.286,0 0.75,-0.46 0.75,-0.75 l 0,-3.75 -9,0 z"
           stroke-miterlimit="79.8403193612775"
           mask="url(#TranspMask)"
           id="path36"
           inkscape:connector-curvature="0"
           style="fill:#ffffff;stroke:none;stroke-width:0.5;stroke-linejoin:miter;stroke-miterlimit:79.84031677;marker-start:none;marker-end:none" />
        <mask
           id="TranspMask_1">
          <rect
             x="-59.527702"
             y="-84.189102"
             width="714.33246"
             height="1010.2692"
             id="rect39"
             style="fill:url(#LinearGradient_2);stroke:none" />
        </mask>
        <path
           d="m 471.071,613.569 c -0.827,0 -1.501,0.67 -1.501,1.5 0,0.31 0.094,0.599 0.256,0.838 l 0.05,0.06 -0.086,0.071 c -0.135,0.136 -0.219,0.324 -0.219,0.531 l 0,1.5 c 0,0.103 0.021,0.201 0.058,0.291 l 0.046,0.083 -0.046,0.084 c -0.037,0.089 -0.058,0.188 -0.058,0.292 l 0,1.5 c 0,0.413 0.336,0.75 0.75,0.75 4.166,0 6.75,-2.586 6.75,-6.75 0,-0.414 -0.337,-0.75 -0.75,-0.75 l -1.5,0 c -0.104,0 -0.203,0.021 -0.292,0.058 l -0.084,0.046 -0.083,-0.046 c -0.09,-0.037 -0.188,-0.058 -0.291,-0.058 l -1.5,0 c -0.207,0 -0.395,0.084 -0.531,0.219 l -0.071,0.086 -0.061,-0.05 c -0.239,-0.161 -0.528,-0.255 -0.837,-0.255 z"
           stroke-miterlimit="79.8403193612775"
           mask="url(#TranspMask_1)"
           id="path41"
           inkscape:connector-curvature="0"
           style="fill:#f57900;stroke:none;stroke-width:0.5;stroke-linejoin:round;stroke-miterlimit:79.84031677;stroke-opacity:0.49803904;marker-start:none;marker-end:none" />
        <path
           d="m 471.071,615.819 c 0.414,0 0.751,-0.336 0.751,-0.75 0,-0.414 -0.337,-0.75 -0.751,-0.75 -0.414,0 -0.751,0.336 -0.751,0.75 0,0.414 0.337,0.75 0.751,0.75 z"
           stroke-miterlimit="79.8403193612775"
           id="path43"
           inkscape:connector-curvature="0"
           style="fill:#ffffff;stroke:none;stroke-width:0.5;stroke-linejoin:round;stroke-miterlimit:79.84031677;marker-start:none;marker-end:none" />
        <path
           d="m 470.321,618.819 0,1.5 c 3.75,0 6,-2.25 6,-6 l -1.5,0 c 0,3 -1.5,4.5 -4.5,4.5 z"
           stroke-miterlimit="79.8403193612775"
           id="path45"
           inkscape:connector-curvature="0"
           style="fill:#ffffff;stroke:none;stroke-width:0.5;stroke-linejoin:round;stroke-miterlimit:79.84031677;marker-start:none;marker-end:none" />
        <path
           d="m 470.321,616.569 c 1.5,0 2.25,-0.75 2.25,-2.25 l 1.5,0 c 0,2.25 -1.5,3.75 -3.75,3.75 l 0,-1.5 z"
           stroke-miterlimit="79.8403193612775"
           id="path47"
           inkscape:connector-curvature="0"
           style="fill:#ffffff;stroke:none;stroke-width:0.5;stroke-linejoin:round;stroke-miterlimit:79.84031677;marker-start:none;marker-end:none" />
      </g>
    </g>
  </g>
</svg>
