<?xml version="1.0" encoding="UTF-8" standalone="no"?>
<!--Generator: Xara Designer (www.xara.com), SVG filter version: 6.0.0.4-->

<svg
   xmlns:dc="http://purl.org/dc/elements/1.1/"
   xmlns:cc="http://creativecommons.org/ns#"
   xmlns:rdf="http://www.w3.org/1999/02/22-rdf-syntax-ns#"
   xmlns:svg="http://www.w3.org/2000/svg"
   xmlns="http://www.w3.org/2000/svg"
   xmlns:sodipodi="http://sodipodi.sourceforge.net/DTD/sodipodi-0.dtd"
   xmlns:inkscape="http://www.inkscape.org/namespaces/inkscape"
   version="1.1"
   overflow="visible"
   width="12.001pt"
   height="11.998999pt"
   viewBox="0 0 12.001001 11.998999"
   id="svg2"
   inkscape:version="0.91 r13725"
   sodipodi:docname="film-video-movie.svg"
   style="overflow:visible;fill-rule:evenodd;stroke-width:0.50099999;stroke-linejoin:bevel">
  <metadata
     id="metadata67">
    <rdf:RDF>
      <cc:Work
         rdf:about="">
        <dc:format>image/svg+xml</dc:format>
        <dc:type
           rdf:resource="http://purl.org/dc/dcmitype/StillImage" />
        <dc:title></dc:title>
      </cc:Work>
    </rdf:RDF>
  </metadata>
  <sodipodi:namedview
     pagecolor="#ffffff"
     bordercolor="#666666"
     borderopacity="1"
     objecttolerance="10"
     gridtolerance="10"
     guidetolerance="10"
     inkscape:pageopacity="0"
     inkscape:pageshadow="2"
     inkscape:window-width="640"
     inkscape:window-height="480"
     id="namedview65"
     showgrid="false"
     fit-margin-top="0"
     fit-margin-left="0"
     fit-margin-right="0"
     fit-margin-bottom="0"
     inkscape:zoom="3.588113"
     inkscape:cx="-1.7122398"
     inkscape:cy="16.723788"
     inkscape:window-x="0"
     inkscape:window-y="0"
     inkscape:window-maximized="0"
     inkscape:current-layer="svg2" />
  <defs
     id="defs4">
    <linearGradient
       id="LinearGradient"
       gradientUnits="userSpaceOnUse"
       x1="0"
       y1="0"
       x2="0"
       y2="6"
       gradientTransform="translate(479.319,617.319)">
      <stop
         offset="0"
         stop-color="#333333"
         id="stop7" />
      <stop
         offset="1"
         stop-color="#808080"
         id="stop9" />
    </linearGradient>
    <linearGradient
       id="LinearGradient_1"
       gradientUnits="userSpaceOnUse"
       x1="0"
       y1="0"
       x2="0"
       y2="-6.75"
       gradientTransform="translate(473.319,621.069)">
      <stop
         offset="0"
         stop-color="#729fcf"
         id="stop12" />
      <stop
         offset="1"
         stop-color="#73d216"
         id="stop14" />
    </linearGradient>
    <linearGradient
       id="LinearGradient_2"
       gradientUnits="userSpaceOnUse"
       x1="0"
       y1="0"
       x2="0"
       y2="-6.75"
       gradientTransform="translate(473.319,621.069)">
      <stop
         offset="0"
         stop-color="#729fcf"
         id="stop17" />
      <stop
         offset="1"
         stop-color="#73d216"
         id="stop19" />
    </linearGradient>
  </defs>
  <g
     id="Document"
     font-size="16"
     transform="matrix(1,0,0,-1,-467.319,-218.57305)"
     style="font-size:16px;font-family:'Times New Roman';fill:none;stroke:#000000">
    <g
       id="Spread"
       transform="translate(0,-841.891)">
      <g
         id="Layer 1">
        <path
           d="m 469.569,622.569 c -0.353,0 -0.75,-0.397 -0.75,-0.75 l 0,-8.25 c 0,-0.353 0.397,-0.75 0.75,-0.75 l 7.5,0 c 0.353,0 0.75,0.397 0.75,0.75 l 0,8.25 c 0,0.353 -0.397,0.75 -0.75,0.75 l -7.5,0 z"
           stroke-miterlimit="79.8403193612775"
           id="path24"
           inkscape:connector-curvature="0"
           style="fill:#2e3436;fill-opacity:0.89803898;stroke:none;stroke-width:0.5;stroke-linejoin:miter;stroke-miterlimit:79.84031677;stroke-opacity:0.89803898;marker-start:none;marker-end:none" />
        <path
           d="m 479.32,623.318 0,-11.999 -12.001,0 0,11.999 12.001,0 z"
           stroke-miterlimit="79.8403193612775"
           id="path26"
           inkscape:connector-curvature="0"
           style="stroke:none;stroke-width:0.5;stroke-linejoin:miter;stroke-miterlimit:79.84031677;marker-start:none;marker-end:none" />
        <path
           d="m 469.568,621.818 0,-0.749 0.751,0 0,0.749 -0.751,0 z"
           stroke-miterlimit="79.8403193612775"
           id="path28"
           inkscape:connector-curvature="0"
           style="fill:#ffffff;stroke:none;stroke-width:0.5;stroke-linejoin:miter;stroke-miterlimit:79.84031677;marker-start:none;marker-end:none" />
        <path
           d="m 469.568,620.318 0,-0.749 0.751,0 0,0.749 -0.751,0 z"
           stroke-miterlimit="79.8403193612775"
           id="path30"
           inkscape:connector-curvature="0"
           style="fill:#ffffff;stroke:none;stroke-width:0.5;stroke-linejoin:miter;stroke-miterlimit:79.84031677;marker-start:none;marker-end:none" />
        <mask
           id="TranspMask">
          <rect
             x="-59.527702"
             y="-84.189102"
             width="714.33246"
             height="1010.2692"
             id="rect33"
             style="fill:url(#LinearGradient);stroke:none" />
        </mask>
        <path
           d="m 468.819,617.319 0,4.5 c 0,0.353 0.397,0.75 0.75,0.75 l 7.5,0 c 0.353,0 0.75,-0.397 0.75,-0.75 l 0,-4.5 -9,0 z"
           stroke-miterlimit="79.8403193612775"
           mask="url(#TranspMask)"
           id="path35"
           inkscape:connector-curvature="0"
           style="fill:#ffffff;stroke:none;stroke-width:0.5;stroke-linejoin:miter;stroke-miterlimit:79.84031677;marker-start:none;marker-end:none" />
        <path
           d="m 469.569,618.818 0,-0.749 0.751,0 0,0.749 -0.751,0 z"
           stroke-miterlimit="79.8403193612775"
           id="path37"
           inkscape:connector-curvature="0"
           style="fill:#ffffff;stroke:none;stroke-width:0.5;stroke-linejoin:miter;stroke-miterlimit:79.84031677;marker-start:none;marker-end:none" />
        <path
           d="m 469.568,617.318 0,-0.749 0.751,0 0,0.749 -0.751,0 z"
           stroke-miterlimit="79.8403193612775"
           id="path39"
           inkscape:connector-curvature="0"
           style="fill:#ffffff;stroke:none;stroke-width:0.5;stroke-linejoin:miter;stroke-miterlimit:79.84031677;marker-start:none;marker-end:none" />
        <path
           d="m 469.568,615.818 0,-0.749 0.751,0 0,0.749 -0.751,0 z"
           stroke-miterlimit="79.8403193612775"
           id="path41"
           inkscape:connector-curvature="0"
           style="fill:#ffffff;stroke:none;stroke-width:0.5;stroke-linejoin:miter;stroke-miterlimit:79.84031677;marker-start:none;marker-end:none" />
        <path
           d="m 469.569,614.318 0,-0.749 0.751,0 0,0.749 -0.751,0 z"
           stroke-miterlimit="79.8403193612775"
           id="path43"
           inkscape:connector-curvature="0"
           style="fill:#ffffff;stroke:none;stroke-width:0.5;stroke-linejoin:miter;stroke-miterlimit:79.84031677;marker-start:none;marker-end:none" />
        <path
           d="m 476.317,621.818 0,-0.749 0.751,0 0,0.749 -0.751,0 z"
           stroke-miterlimit="79.8403193612775"
           id="path45"
           inkscape:connector-curvature="0"
           style="fill:#ffffff;stroke:none;stroke-width:0.5;stroke-linejoin:miter;stroke-miterlimit:79.84031677;marker-start:none;marker-end:none" />
        <path
           d="m 476.317,620.318 0,-0.749 0.751,0 0,0.749 -0.751,0 z"
           stroke-miterlimit="79.8403193612775"
           id="path47"
           inkscape:connector-curvature="0"
           style="fill:#ffffff;stroke:none;stroke-width:0.5;stroke-linejoin:miter;stroke-miterlimit:79.84031677;marker-start:none;marker-end:none" />
        <path
           d="m 476.318,618.818 0,-0.749 0.751,0 0,0.749 -0.751,0 z"
           stroke-miterlimit="79.8403193612775"
           id="path49"
           inkscape:connector-curvature="0"
           style="fill:#ffffff;stroke:none;stroke-width:0.5;stroke-linejoin:miter;stroke-miterlimit:79.84031677;marker-start:none;marker-end:none" />
        <path
           d="m 476.317,617.318 0,-0.749 0.751,0 0,0.749 -0.751,0 z"
           stroke-miterlimit="79.8403193612775"
           id="path51"
           inkscape:connector-curvature="0"
           style="fill:#ffffff;stroke:none;stroke-width:0.5;stroke-linejoin:miter;stroke-miterlimit:79.84031677;marker-start:none;marker-end:none" />
        <path
           d="m 476.317,615.818 0,-0.749 0.751,0 0,0.749 -0.751,0 z"
           stroke-miterlimit="79.8403193612775"
           id="path53"
           inkscape:connector-curvature="0"
           style="fill:#ffffff;stroke:none;stroke-width:0.5;stroke-linejoin:miter;stroke-miterlimit:79.84031677;marker-start:none;marker-end:none" />
        <path
           d="m 476.318,614.318 0,-0.749 0.751,0 0,0.749 -0.751,0 z"
           stroke-miterlimit="79.8403193612775"
           id="path55"
           inkscape:connector-curvature="0"
           style="fill:#ffffff;stroke:none;stroke-width:0.5;stroke-linejoin:miter;stroke-miterlimit:79.84031677;marker-start:none;marker-end:none" />
        <path
           d="m 471.819,621.819 c -0.353,0 -0.75,-0.397 -0.75,-0.75 l 0,-2.25 c 0,-0.353 0.397,-0.75 0.75,-0.75 l 3,0 c 0.353,0 0.75,0.397 0.75,0.75 l 0,2.25 c 0,0.353 -0.397,0.75 -0.75,0.75 l -3,0 z"
           stroke-miterlimit="79.8403193612775"
           id="path57"
           inkscape:connector-curvature="0"
           style="fill:#ffffff;fill-opacity:0.8;stroke:none;stroke-width:0.5;stroke-linejoin:round;stroke-miterlimit:79.84031677;stroke-opacity:0.8;marker-start:none;marker-end:none" />
        <path
           d="m 471.874,618.819 -0.055,0.055 0,2.139 0.056,0.056 2.887,0 0.057,-0.057 0,-2.137 -0.056,-0.056 -2.889,0 z"
           stroke-miterlimit="79.8403193612775"
           id="path59"
           inkscape:connector-curvature="0"
           style="fill:url(#LinearGradient_1);stroke:none;stroke-width:0.5;stroke-linejoin:round;stroke-miterlimit:79.84031677;marker-start:none;marker-end:none" />
        <path
           d="m 471.819,617.319 c -0.353,0 -0.75,-0.397 -0.75,-0.75 l 0,-2.25 c 0,-0.353 0.397,-0.75 0.75,-0.75 l 3,0 c 0.353,0 0.75,0.397 0.75,0.75 l 0,2.25 c 0,0.353 -0.397,0.75 -0.75,0.75 l -3,0 z"
           stroke-miterlimit="79.8403193612775"
           id="path61"
           inkscape:connector-curvature="0"
           style="fill:#ffffff;fill-opacity:0.8;stroke:none;stroke-width:0.5;stroke-linejoin:round;stroke-miterlimit:79.84031677;stroke-opacity:0.8;marker-start:none;marker-end:none" />
        <path
           d="m 471.874,614.319 -0.055,0.055 0,2.139 0.056,0.056 2.887,0 0.057,-0.057 0,-2.137 -0.056,-0.056 -2.889,0 z"
           stroke-miterlimit="79.8403193612775"
           id="path63"
           inkscape:connector-curvature="0"
           style="fill:url(#LinearGradient_2);stroke:none;stroke-width:0.5;stroke-linejoin:round;stroke-miterlimit:79.84031677;marker-start:none;marker-end:none" />
      </g>
    </g>
  </g>
</svg>
