<?xml version="1.0" encoding="UTF-8" standalone="no"?>
<!--Generator: Xara Designer (www.xara.com), SVG filter version: 6.0.0.4-->

<svg
   xmlns:dc="http://purl.org/dc/elements/1.1/"
   xmlns:cc="http://creativecommons.org/ns#"
   xmlns:rdf="http://www.w3.org/1999/02/22-rdf-syntax-ns#"
   xmlns:svg="http://www.w3.org/2000/svg"
   xmlns="http://www.w3.org/2000/svg"
   xmlns:sodipodi="http://sodipodi.sourceforge.net/DTD/sodipodi-0.dtd"
   xmlns:inkscape="http://www.inkscape.org/namespaces/inkscape"
   version="1.1"
   overflow="visible"
   width="12.001pt"
   height="11.998999pt"
   viewBox="0 0 12.001001 11.998999"
   id="svg2"
   inkscape:version="0.91 r13725"
   sodipodi:docname="folder-directory-flat-blue-search.svg"
   style="overflow:visible;fill-rule:evenodd;stroke-width:0.50099999;stroke-linejoin:bevel">
  <metadata
     id="metadata41">
    <rdf:RDF>
      <cc:Work
         rdf:about="">
        <dc:format>image/svg+xml</dc:format>
        <dc:type
           rdf:resource="http://purl.org/dc/dcmitype/StillImage" />
        <dc:title></dc:title>
      </cc:Work>
    </rdf:RDF>
  </metadata>
  <sodipodi:namedview
     pagecolor="#ffffff"
     bordercolor="#666666"
     borderopacity="1"
     objecttolerance="10"
     gridtolerance="10"
     guidetolerance="10"
     inkscape:pageopacity="0"
     inkscape:pageshadow="2"
     inkscape:window-width="640"
     inkscape:window-height="480"
     id="namedview39"
     showgrid="false"
     fit-margin-top="0"
     fit-margin-left="0"
     fit-margin-right="0"
     fit-margin-bottom="0"
     inkscape:zoom="3.588113"
     inkscape:cx="-0.096072793"
     inkscape:cy="2.7396618"
     inkscape:window-x="0"
     inkscape:window-y="0"
     inkscape:window-maximized="0"
     inkscape:current-layer="svg2" />
  <defs
     id="defs4">
    <linearGradient
       id="LinearGradient"
       gradientUnits="userSpaceOnUse"
       x1="0"
       y1="0"
       x2="0"
       y2="-12"
       gradientTransform="translate(479.32,623.319)">
      <stop
         offset="0"
         stop-color="#ffffff"
         id="stop7" />
      <stop
         offset="0.500999987125397"
         stop-color="#96c9e4"
         id="stop9" />
      <stop
         offset="1"
         stop-color="#ffffff"
         id="stop11" />
    </linearGradient>
    <linearGradient
       id="LinearGradient_1"
       gradientUnits="userSpaceOnUse"
       x1="0"
       y1="0"
       x2="-0.0020000001"
       y2="4.4990001"
       gradientTransform="translate(479.322,617.32)">
      <stop
         offset="0"
         stop-color="#333333"
         id="stop14" />
      <stop
         offset="1"
         stop-color="#ffffff"
         id="stop16" />
    </linearGradient>
  </defs>
  <g
     id="Document"
     font-size="16"
     transform="matrix(1,0,0,-1,-467.319,-218.57305)"
     style="font-size:16px;font-family:'Times New Roman';fill:none;stroke:#000000">
    <g
       id="Spread"
       transform="translate(0,-841.891)">
      <g
         id="opaque">
        <path
           d="m 479.32,623.318 0,-11.999 -12.001,0 0,11.999 12.001,0 z"
           stroke-miterlimit="79.8403193612775"
           id="path21"
           inkscape:connector-curvature="0"
           style="stroke:none;stroke-width:0.5;stroke-linejoin:miter;stroke-miterlimit:79.84031677;marker-start:none;marker-end:none" />
      </g>
      <g
         id="Layer 1">
        <path
           d="m 468.071,621.069 c 0,0.707 0.793,1.5 1.5,1.5 l 2.25,0 c 0.707,0 1.5,-0.75 1.5,-1.5 l 4.5,0 c 0.353,0 0.75,-0.397 0.75,-0.75 l 0,-7.5 -10.5,0 0,8.25 z"
           stroke-miterlimit="79.8403193612775"
           id="path24"
           inkscape:connector-curvature="0"
           style="fill:#4d7dba;stroke:none;stroke-width:0.5;stroke-linejoin:round;stroke-miterlimit:79.84031677;marker-start:none;marker-end:none" />
        <path
           d="m 468.821,613.569 0,7.5 c 0,0.286 0.459,0.75 0.75,0.75 l 2.25,0 c 0.299,0 0.75,-0.425 0.75,-0.75 0,-0.414 0.336,-0.75 0.75,-0.75 l 4.443,0 0.057,-0.057 0,-6.693 -9,0 z"
           stroke-miterlimit="79.8403193612775"
           id="path26"
           inkscape:connector-curvature="0"
           style="fill:url(#LinearGradient);stroke:none;stroke-width:0.75;stroke-linejoin:round;stroke-miterlimit:79.84031677;marker-start:none;marker-end:none" />
        <path
           d="m 470.32,615.069 0.75,-0.75 2.25,2.25 -0.75,0.75 -2.25,-2.25 z"
           stroke-miterlimit="79.8403193612775"
           id="path28"
           inkscape:connector-curvature="0"
           style="fill:#3d5c84;stroke:none;stroke-width:0.5;stroke-miterlimit:79.84031677;marker-start:none;marker-end:none" />
        <mask
           id="TranspMask">
          <rect
             x="-59.527702"
             y="-84.189102"
             width="714.33246"
             height="1010.2692"
             id="rect31"
             style="fill:url(#LinearGradient_1);stroke:none" />
        </mask>
        <path
           d="m 468.822,617.319 0,3.75 c 0,0.286 0.459,0.75 0.75,0.75 l 2.25,0 c 0.299,0 0.75,-0.425 0.75,-0.75 0,-0.414 0.336,-0.75 0.75,-0.75 l 4.443,0 0.057,-0.057 0,-2.943 -9,0 z"
           stroke-miterlimit="79.8403193612775"
           mask="url(#TranspMask)"
           id="path33"
           inkscape:connector-curvature="0"
           style="fill:#ffffff;stroke:none;stroke-width:0.5;stroke-linejoin:miter;stroke-miterlimit:79.84031677;marker-start:none;marker-end:none" />
        <path
           d="m 473.701,619.575 c 1.035,0 1.876,-0.84 1.876,-1.875 0,-1.035 -0.841,-1.875 -1.876,-1.875 -1.035,0 -1.876,0.84 -1.876,1.875 0,1.035 0.841,1.875 1.876,1.875 z"
           stroke-miterlimit="79.8403193612775"
           id="path35"
           inkscape:connector-curvature="0"
           style="fill:#3d5c84;stroke:none;stroke-width:0.498;stroke-miterlimit:79.84031677;marker-start:none;marker-end:none" />
        <path
           d="m 473.683,618.803 c 0.621,0 1.126,-0.504 1.126,-1.125 0,-0.621 -0.505,-1.125 -1.126,-1.125 -0.621,0 -1.126,0.504 -1.126,1.125 0,0.621 0.505,1.125 1.126,1.125 z"
           stroke-miterlimit="79.8403193612775"
           id="path37"
           inkscape:connector-curvature="0"
           style="fill:#ffffff;fill-opacity:0.89803898;stroke:none;stroke-width:0.215;stroke-miterlimit:79.84031677;stroke-opacity:0.89803898;marker-start:none;marker-end:none" />
      </g>
    </g>
  </g>
</svg>
