<?xml version="1.0" encoding="UTF-8" standalone="no"?>
<!--Generator: Xara Designer (www.xara.com), SVG filter version: 6.0.0.4-->

<svg
   xmlns:dc="http://purl.org/dc/elements/1.1/"
   xmlns:cc="http://creativecommons.org/ns#"
   xmlns:rdf="http://www.w3.org/1999/02/22-rdf-syntax-ns#"
   xmlns:svg="http://www.w3.org/2000/svg"
   xmlns="http://www.w3.org/2000/svg"
   xmlns:sodipodi="http://sodipodi.sourceforge.net/DTD/sodipodi-0.dtd"
   xmlns:inkscape="http://www.inkscape.org/namespaces/inkscape"
   version="1.1"
   overflow="visible"
   width="12.002684pt"
   height="12.000042pt"
   viewBox="0 0 12.002684 12.000042"
   id="svg2"
   inkscape:version="0.91 r13725"
   sodipodi:docname="folder-flat-inactive-star-bookmarks.svg"
   style="overflow:visible;fill-rule:evenodd;stroke-width:0.50099999;stroke-linejoin:bevel">
  <metadata
     id="metadata67">
    <rdf:RDF>
      <cc:Work
         rdf:about="">
        <dc:format>image/svg+xml</dc:format>
        <dc:type
           rdf:resource="http://purl.org/dc/dcmitype/StillImage" />
        <dc:title></dc:title>
      </cc:Work>
    </rdf:RDF>
  </metadata>
  <sodipodi:namedview
     pagecolor="#ffffff"
     bordercolor="#666666"
     borderopacity="1"
     objecttolerance="10"
     gridtolerance="10"
     guidetolerance="10"
     inkscape:pageopacity="0"
     inkscape:pageshadow="2"
     inkscape:window-width="640"
     inkscape:window-height="480"
     id="namedview65"
     showgrid="false"
     fit-margin-top="0"
     fit-margin-left="0"
     fit-margin-right="0"
     fit-margin-bottom="0"
     inkscape:zoom="3.588113"
     inkscape:cx="-3.4438473"
     inkscape:cy="7.0109637"
     inkscape:window-x="0"
     inkscape:window-y="0"
     inkscape:window-maximized="0"
     inkscape:current-layer="svg2" />
  <defs
     id="defs4">
    <linearGradient
       id="LinearGradient"
       gradientUnits="userSpaceOnUse"
       x1="0"
       y1="0"
       x2="0"
       y2="-5.25"
       gradientTransform="translate(476.319,621.819)">
      <stop
         offset="0"
         stop-color="#ffffff"
         id="stop7" />
      <stop
         offset="0.500999987125397"
         stop-color="#e2e8ed"
         id="stop9" />
      <stop
         offset="1"
         stop-color="#ffffff"
         id="stop11" />
    </linearGradient>
    <linearGradient
       id="LinearGradient_1"
       gradientUnits="userSpaceOnUse"
       x1="0"
       y1="0"
       x2="0"
       y2="-6"
       gradientTransform="translate(477.819,620.319)">
      <stop
         offset="0"
         stop-color="#ffffff"
         id="stop14" />
      <stop
         offset="0.500999987125397"
         stop-color="#e2e8ed"
         id="stop16" />
      <stop
         offset="1"
         stop-color="#ffffff"
         id="stop18" />
    </linearGradient>
    <linearGradient
       id="LinearGradient_2"
       gradientUnits="userSpaceOnUse"
       x1="0"
       y1="0"
       x2="0"
       y2="3"
       gradientTransform="translate(478.569,617.319)">
      <stop
         offset="0"
         stop-color="#333333"
         id="stop21" />
      <stop
         offset="1"
         stop-color="#ffffff"
         id="stop23" />
    </linearGradient>
    <linearGradient
       id="LinearGradient_3"
       gradientUnits="userSpaceOnUse"
       x1="0"
       y1="0"
       x2="0.001"
       y2="-5.9970002"
       gradientTransform="translate(479.321,618.069)">
      <stop
         offset="0"
         stop-color="#ffffff"
         id="stop26" />
      <stop
         offset="0.500999987125397"
         stop-color="#edd400"
         id="stop28" />
      <stop
         offset="1"
         stop-color="#ffffff"
         id="stop30" />
    </linearGradient>
    <linearGradient
       id="LinearGradient_4"
       gradientUnits="userSpaceOnUse"
       x1="0"
       y1="0"
       x2="-0.001"
       y2="2.247"
       gradientTransform="translate(479.322,615.072)">
      <stop
         offset="0"
         stop-color="#333333"
         id="stop33" />
      <stop
         offset="1"
         stop-color="#ffffff"
         id="stop35" />
    </linearGradient>
  </defs>
  <g
     id="Document"
     font-size="16"
     transform="matrix(1,0,0,-1,-467.319,-218.57205)"
     style="font-size:16px;font-family:'Times New Roman';fill:none;stroke:#000000">
    <g
       id="Spread"
       transform="translate(0,-841.891)">
      <g
         id="Layer 1">
        <path
           d="m 479.321,623.318 0,-11.999 -12.001,0 0,11.999 12.001,0 z"
           stroke-miterlimit="79.8403193612775"
           id="path40"
           inkscape:connector-curvature="0"
           style="stroke:none;stroke-width:0.5;stroke-linejoin:miter;stroke-miterlimit:79.84031677;marker-start:none;marker-end:none" />
        <path
           d="m 467.321,621.819 c 0,0.707 0.793,1.5 1.5,1.5 l 2.25,0 c 0.707,0 1.5,-0.75 1.5,-1.5 l 4.5,0 c 0.353,0 0.75,-0.397 0.75,-0.75 l 0,-6.75 -10.5,0 0,7.5 z"
           stroke-miterlimit="79.8403193612775"
           id="path42"
           inkscape:connector-curvature="0"
           style="fill:#aaada5;stroke:none;stroke-width:0.5;stroke-linejoin:round;stroke-miterlimit:79.84031677;marker-start:none;marker-end:none" />
        <path
           d="m 468.071,615.069 0,6.75 c 0,0.286 0.459,0.75 0.75,0.75 l 2.25,0 c 0.299,0 0.75,-0.425 0.75,-0.75 0,-0.414 0.336,-0.75 0.75,-0.75 l 4.443,0 0.057,-0.057 0,-5.943 -9,0 z"
           stroke-miterlimit="79.8403193612775"
           id="path44"
           inkscape:connector-curvature="0"
           style="fill:url(#LinearGradient);stroke:none;stroke-width:0.75;stroke-linejoin:round;stroke-miterlimit:79.84031677;marker-start:none;marker-end:none" />
        <path
           d="m 467.319,620.319 10.5,0 0.002,-6 -10.5,0 -0.002,6 z"
           stroke-miterlimit="79.8403193612775"
           id="path46"
           inkscape:connector-curvature="0"
           style="fill:#aaada5;stroke:none;stroke-width:0.5;stroke-linejoin:round;stroke-miterlimit:79.84031677;marker-start:none;marker-end:none" />
        <path
           d="m 468.067,619.568 8.999,0 0.002,-4.5 -8.999,0 -0.002,4.5 z"
           stroke-miterlimit="79.8403193612775"
           id="path48"
           inkscape:connector-curvature="0"
           style="fill:url(#LinearGradient_1);stroke:none;stroke-width:0.75;stroke-linejoin:round;stroke-miterlimit:79.84031677;marker-start:none;marker-end:none" />
        <mask
           id="TranspMask">
          <rect
             x="-59.527702"
             y="-84.189102"
             width="714.33246"
             height="1010.2692"
             id="rect51"
             style="fill:url(#LinearGradient_2);stroke:none" />
        </mask>
        <path
           d="m 468.067,619.568 8.999,0 0.002,-2.249 -8.999,0 -0.002,2.249 z"
           stroke-miterlimit="79.8403193612775"
           mask="url(#TranspMask)"
           id="path53"
           inkscape:connector-curvature="0"
           style="fill:#ffffff;stroke:none;stroke-width:0.5;stroke-linejoin:miter;stroke-miterlimit:79.84031677;marker-start:none;marker-end:none" />
        <g
           id="Group"
           style="stroke:none">
          <path
             d="m 473.163,611.325 c -0.538,-0.07 -1.015,0.48 -0.784,1.035 l 0.783,1.879 -1.059,0.847 c -0.552,0.441 -0.238,1.336 0.469,1.336 l 1.5,0 0.807,1.938 c 0.256,0.613 1.129,0.613 1.385,0 l 0.808,-1.938 1.5,0 c 0.706,0 1.02,-0.895 0.468,-1.336 l -1.059,-0.847 0.783,-1.879 c 0.264,-0.634 -0.398,-1.262 -1.017,-0.965 l -2.175,1.045 -2.176,-1.045 c -0.078,-0.038 -0.156,-0.06 -0.233,-0.07 z"
             stroke-miterlimit="79.8403193612775"
             id="path56"
             inkscape:connector-curvature="0"
             style="fill:#c4a000;stroke-width:0.18799999;stroke-linejoin:round;stroke-miterlimit:79.84031677;marker-start:none;marker-end:none" />
          <path
             d="m 475.572,618.072 1,-2.4 2,0 -1.5,-1.2 1,-2.4 -2.5,1.2 -2.5,-1.2 1,2.4 -1.5,1.2 2,0 1,2.4 z"
             stroke-miterlimit="79.8403193612775"
             id="path58"
             inkscape:connector-curvature="0"
             style="fill:url(#LinearGradient_3);stroke-width:0.75;stroke-linejoin:round;stroke-miterlimit:79.84031677;marker-start:none;marker-end:none" />
          <mask
             id="TranspMask_1">
            <rect
               x="-59.527702"
               y="-84.189102"
               width="714.33246"
               height="1010.2692"
               id="rect61"
               style="fill:url(#LinearGradient_4);stroke:none" />
          </mask>
          <path
             d="m 473.322,615.072 -0.75,0.6 2,0 1,2.4 1,-2.4 2,0 -0.75,-0.6 -4.5,0 z"
             stroke-miterlimit="79.8403193612775"
             mask="url(#TranspMask_1)"
             id="path63"
             inkscape:connector-curvature="0"
             style="fill:#ffffff;stroke-width:0.5;stroke-linejoin:miter;stroke-miterlimit:79.84031677;marker-start:none;marker-end:none" />
        </g>
      </g>
    </g>
  </g>
</svg>
