<?xml version="1.0" encoding="UTF-8" standalone="no"?>
<!--Generator: Xara Designer (www.xara.com), SVG filter version: 6.0.0.4-->

<svg
   xmlns:dc="http://purl.org/dc/elements/1.1/"
   xmlns:cc="http://creativecommons.org/ns#"
   xmlns:rdf="http://www.w3.org/1999/02/22-rdf-syntax-ns#"
   xmlns:svg="http://www.w3.org/2000/svg"
   xmlns="http://www.w3.org/2000/svg"
   xmlns:sodipodi="http://sodipodi.sourceforge.net/DTD/sodipodi-0.dtd"
   xmlns:inkscape="http://www.inkscape.org/namespaces/inkscape"
   version="1.1"
   overflow="visible"
   width="12.001pt"
   height="11.998999pt"
   viewBox="0 0 12.001001 11.998999"
   id="svg2"
   inkscape:version="0.91 r13725"
   sodipodi:docname="gear-advanced-options.svg"
   style="overflow:visible;fill-rule:evenodd;stroke-width:0.50099999;stroke-linejoin:bevel">
  <metadata
     id="metadata35">
    <rdf:RDF>
      <cc:Work
         rdf:about="">
        <dc:format>image/svg+xml</dc:format>
        <dc:type
           rdf:resource="http://purl.org/dc/dcmitype/StillImage" />
        <dc:title></dc:title>
      </cc:Work>
    </rdf:RDF>
  </metadata>
  <sodipodi:namedview
     pagecolor="#ffffff"
     bordercolor="#666666"
     borderopacity="1"
     objecttolerance="10"
     gridtolerance="10"
     guidetolerance="10"
     inkscape:pageopacity="0"
     inkscape:pageshadow="2"
     inkscape:window-width="640"
     inkscape:window-height="480"
     id="namedview33"
     showgrid="false"
     fit-margin-top="0"
     fit-margin-left="0"
     fit-margin-right="0"
     fit-margin-bottom="0"
     inkscape:zoom="5.074358"
     inkscape:cx="-0.14956249"
     inkscape:cy="3.7794756"
     inkscape:window-x="0"
     inkscape:window-y="0"
     inkscape:window-maximized="0"
     inkscape:current-layer="svg2" />
  <defs
     id="defs4">
    <linearGradient
       id="LinearGradient"
       gradientUnits="userSpaceOnUse"
       x1="0"
       y1="0"
       x2="0"
       y2="-11.99"
       gradientTransform="translate(479.318,623.307)">
      <stop
         offset="0"
         stop-color="#ffffff"
         id="stop7" />
      <stop
         offset="0.500999987125397"
         stop-color="#a3a4a3"
         id="stop9" />
      <stop
         offset="1"
         stop-color="#ffffff"
         id="stop11" />
    </linearGradient>
    <linearGradient
       id="LinearGradient_1"
       gradientUnits="userSpaceOnUse"
       x1="0"
       y1="0"
       x2="0"
       y2="3.75"
       gradientTransform="translate(479.321,617.319)">
      <stop
         offset="0"
         stop-color="#333333"
         id="stop14" />
      <stop
         offset="1"
         stop-color="#ffffff"
         id="stop16" />
    </linearGradient>
  </defs>
  <g
     id="Document"
     font-size="16"
     transform="matrix(1,0,0,-1,-467.319,-218.57305)"
     style="font-size:16px;font-family:'Times New Roman';fill:none;stroke:#000000">
    <g
       id="Spread"
       transform="translate(0,-841.891)">
      <g
         id="opaque">
        <path
           d="m 479.32,623.318 0,-11.999 -12.001,0 0,11.999 12.001,0 z"
           stroke-miterlimit="79.8403193612775"
           id="path21"
           inkscape:connector-curvature="0"
           style="stroke:none;stroke-width:0.5;stroke-linejoin:miter;stroke-miterlimit:79.84031677;marker-start:none;marker-end:none" />
      </g>
      <g
         id="Layer 1">
        <path
           d="m 473.324,612.064 -0.841,0.084 -0.196,1.568 -0.081,0.021 c -0.235,0.073 -0.46,0.169 -0.673,0.284 l -0.016,0.01 -1.248,-0.972 -0.658,0.543 -0.541,0.656 0.969,1.247 -0.016,0.027 c -0.116,0.212 -0.212,0.437 -0.285,0.672 l -0.018,0.071 -1.562,0.194 -0.085,0.845 0.086,0.854 1.561,0.195 0.018,0.07 c 0.073,0.234 0.169,0.459 0.285,0.672 l 0.017,0.029 -0.966,1.24 0.537,0.651 0.665,0.549 1.244,-0.968 0.013,0.009 c 0.213,0.115 0.438,0.211 0.673,0.284 l 0.074,0.019 0.194,1.56 0.85,0.086 0.853,-0.087 0.195,-1.562 0.063,-0.016 c 0.235,-0.073 0.46,-0.169 0.672,-0.284 l 0.021,-0.013 1.245,0.97 0.663,-0.547 0.54,-0.655 -0.97,-1.247 0.011,-0.018 c 0.116,-0.213 0.212,-0.438 0.285,-0.672 l 0.016,-0.062 1.569,-0.194 0.088,-0.863 -0.085,-0.84 -1.569,-0.196 -0.019,-0.074 c -0.073,-0.235 -0.169,-0.46 -0.285,-0.672 l -0.006,-0.011 0.976,-1.252 -0.551,-0.667 -0.649,-0.535 -1.25,0.972 -0.03,-0.018 c -0.212,-0.115 -0.437,-0.211 -0.672,-0.284 l -0.058,-0.015 -0.195,-1.572 -0.858,-0.086 z m -0.003,3.755 c 0.828,0 1.501,0.672 1.501,1.5 0,0.828 -0.673,1.5 -1.501,1.5 -0.828,0 -1.501,-0.672 -1.501,-1.5 0,-0.828 0.673,-1.5 1.501,-1.5 z"
           stroke-miterlimit="79.8403193612775"
           id="path24"
           inkscape:connector-curvature="0"
           style="fill:#888a85;stroke:none;stroke-width:0.5;stroke-linejoin:round;stroke-miterlimit:79.84031677;marker-start:none;marker-end:none" />
        <path
           d="m 473.323,612.817 -0.171,0.017 -0.121,0.975 c -0.038,0.304 -0.259,0.555 -0.556,0.632 l -0.049,0.012 -0.555,0.233 c -0.259,0.134 -0.571,0.107 -0.803,-0.07 l -0.783,-0.6 -0.142,0.118 -0.116,0.14 0.594,0.774 c 0.176,0.228 0.205,0.536 0.076,0.793 l -0.24,0.576 -0.01,0.042 c -0.076,0.299 -0.328,0.522 -0.635,0.56 l -0.969,0.12 -0.017,0.174 0.018,0.184 0.968,0.121 c 0.306,0.038 0.557,0.26 0.634,0.558 l 0.01,0.041 0.223,0.51 c 0.152,0.261 0.132,0.588 -0.05,0.829 l -0.601,0.796 0.115,0.14 0.147,0.121 0.78,-0.601 c 0.24,-0.185 0.568,-0.208 0.831,-0.058 l 0.522,0.226 0.043,0.011 c 0.298,0.077 0.52,0.328 0.558,0.634 l 0.12,0.966 0.362,0.019 0.121,-0.988 c 0.039,-0.307 0.261,-0.558 0.58,-0.634 l 0.565,-0.239 c 0.257,-0.134 0.568,-0.107 0.799,0.069 l 0.783,0.596 0.149,-0.122 0.113,-0.138 -0.596,-0.773 c -0.178,-0.231 -0.206,-0.543 -0.073,-0.802 l 0.234,-0.56 0.01,-0.036 c 0.077,-0.298 0.329,-0.519 0.634,-0.557 l 0.976,-0.121 0.02,-0.192 -0.018,-0.17 -0.975,-0.121 c -0.306,-0.038 -0.557,-0.26 -0.634,-0.558 l -0.011,-0.043 -0.224,-0.522 c -0.147,-0.262 -0.123,-0.587 0.06,-0.825 l 0.607,-0.79 -0.123,-0.149 -0.131,-0.108 -0.775,0.604 c -0.245,0.19 -0.581,0.21 -0.858,0.051 l -0.543,-0.227 c -0.305,-0.084 -0.526,-0.336 -0.564,-0.641 l -0.122,-0.979 -0.187,-0.018 z m -0.002,2.252 c 1.241,0 2.251,1.007 2.251,2.25 0,1.242 -1.01,2.25 -2.251,2.25 -1.242,0 -2.251,-1.008 -2.251,-2.25 0,-1.243 1.009,-2.25 2.251,-2.25 z"
           stroke-miterlimit="79.8403193612775"
           id="path26"
           inkscape:connector-curvature="0"
           style="fill:url(#LinearGradient);stroke:none;stroke-width:0.75;stroke-linejoin:round;stroke-miterlimit:79.84031677;marker-start:none;marker-end:none" />
        <mask
           id="TranspMask">
          <rect
             x="-59.527702"
             y="-84.189102"
             width="714.33246"
             height="1010.2692"
             id="rect29"
             style="fill:url(#LinearGradient_1);stroke:none" />
        </mask>
        <path
           d="m 468.826,617.319 0.018,0.178 0.968,0.121 c 0.306,0.038 0.557,0.26 0.634,0.558 l 0.01,0.041 0.223,0.51 c 0.152,0.261 0.132,0.588 -0.05,0.829 l -0.601,0.796 0.115,0.14 0.147,0.121 0.78,-0.601 c 0.24,-0.185 0.568,-0.208 0.831,-0.058 l 0.522,0.226 0.043,0.011 c 0.298,0.077 0.52,0.328 0.558,0.634 l 0.12,0.966 0.362,0.019 0.121,-0.988 c 0.039,-0.307 0.261,-0.558 0.58,-0.634 l 0.565,-0.239 c 0.257,-0.134 0.568,-0.107 0.799,0.069 l 0.783,0.596 0.149,-0.122 0.113,-0.138 -0.596,-0.773 c -0.178,-0.231 -0.206,-0.543 -0.073,-0.802 l 0.234,-0.56 0.01,-0.036 c 0.077,-0.298 0.329,-0.519 0.634,-0.557 l 0.976,-0.121 0.019,-0.186 -2.248,0 c 0,1.242 -1.01,2.25 -2.251,2.25 -1.242,0 -2.251,-1.008 -2.251,-2.25 l -2.244,0 z"
           stroke-miterlimit="79.8403193612775"
           mask="url(#TranspMask)"
           id="path31"
           inkscape:connector-curvature="0"
           style="fill:#ffffff;stroke:none;stroke-width:0.5;stroke-linejoin:miter;stroke-miterlimit:79.84031677;marker-start:none;marker-end:none" />
      </g>
    </g>
  </g>
</svg>
