<?xml version="1.0" encoding="UTF-8" standalone="no"?>
<!--Generator: Xara Designer (www.xara.com), SVG filter version: 6.0.0.4-->

<svg
   xmlns:dc="http://purl.org/dc/elements/1.1/"
   xmlns:cc="http://creativecommons.org/ns#"
   xmlns:rdf="http://www.w3.org/1999/02/22-rdf-syntax-ns#"
   xmlns:svg="http://www.w3.org/2000/svg"
   xmlns="http://www.w3.org/2000/svg"
   xmlns:sodipodi="http://sodipodi.sourceforge.net/DTD/sodipodi-0.dtd"
   xmlns:inkscape="http://www.inkscape.org/namespaces/inkscape"
   version="1.1"
   overflow="visible"
   width="11.999pt"
   height="12.000998pt"
   viewBox="0 0 11.999 12.000999"
   id="svg2"
   inkscape:version="0.91 r13725"
   sodipodi:docname="gear-advanced-options-purple-circle.svg"
   style="overflow:visible;fill-rule:evenodd;stroke-width:0.50099999;stroke-linejoin:bevel">
  <metadata
     id="metadata46">
    <rdf:RDF>
      <cc:Work
         rdf:about="">
        <dc:format>image/svg+xml</dc:format>
        <dc:type
           rdf:resource="http://purl.org/dc/dcmitype/StillImage" />
        <dc:title></dc:title>
      </cc:Work>
    </rdf:RDF>
  </metadata>
  <sodipodi:namedview
     pagecolor="#ffffff"
     bordercolor="#666666"
     borderopacity="1"
     objecttolerance="10"
     gridtolerance="10"
     guidetolerance="10"
     inkscape:pageopacity="0"
     inkscape:pageshadow="2"
     inkscape:window-width="640"
     inkscape:window-height="480"
     id="namedview44"
     showgrid="false"
     fit-margin-top="0"
     fit-margin-left="0"
     fit-margin-right="0"
     fit-margin-bottom="0"
     inkscape:zoom="3.588113"
     inkscape:cx="-2.1740018"
     inkscape:cy="7.1264009"
     inkscape:window-x="0"
     inkscape:window-y="0"
     inkscape:window-maximized="0"
     inkscape:current-layer="svg2" />
  <defs
     id="defs4">
    <linearGradient
       id="LinearGradient"
       gradientUnits="userSpaceOnUse"
       x1="0"
       y1="0"
       x2="0"
       y2="-12.001"
       gradientTransform="translate(479.317,623.319)">
      <stop
         offset="0"
         stop-color="#ffffff"
         id="stop7" />
      <stop
         offset="0.500999987125397"
         stop-color="#75507b"
         id="stop9" />
      <stop
         offset="1"
         stop-color="#ffffff"
         id="stop11" />
    </linearGradient>
    <linearGradient
       id="LinearGradient_1"
       gradientUnits="userSpaceOnUse"
       x1="0"
       y1="0"
       x2="0"
       y2="6.0009999"
       gradientTransform="translate(479.318,617.318)">
      <stop
         offset="0"
         stop-color="#333333"
         id="stop14" />
      <stop
         offset="1"
         stop-color="#ffffff"
         id="stop16" />
    </linearGradient>
    <linearGradient
       id="LinearGradient_2"
       gradientUnits="userSpaceOnUse"
       x1="0"
       y1="0"
       x2="0"
       y2="6"
       gradientTransform="translate(479.318,617.319)">
      <stop
         offset="0"
         stop-color="#ffffff"
         id="stop19" />
      <stop
         offset="1"
         stop-color="#000000"
         id="stop21" />
    </linearGradient>
  </defs>
  <g
     id="Document"
     font-size="16"
     transform="matrix(1,0,0,-1,-467.319,-218.57105)"
     style="font-size:16px;font-family:'Times New Roman';fill:none;stroke:#000000">
    <g
       id="Spread"
       transform="translate(0,-841.891)">
      <g
         id="Layer 1">
        <path
           d="m 473.318,622.569 c 2.898,0 5.251,-2.352 5.251,-5.25 0,-2.898 -2.353,-5.25 -5.251,-5.25 -2.898,0 -5.251,2.352 -5.251,5.25 0,2.898 2.353,5.25 5.251,5.25 z"
           stroke-miterlimit="79.8403193612775"
           id="path26"
           inkscape:connector-curvature="0"
           style="fill:#5c3566;stroke:none;stroke-width:0.5;stroke-miterlimit:79.84031677;marker-start:none;marker-end:none" />
        <path
           d="m 473.318,621.82 c 2.484,0 4.501,-2.016 4.501,-4.5 0,-2.484 -2.017,-4.5 -4.501,-4.5 -2.484,0 -4.501,2.016 -4.501,4.5 0,2.484 2.017,4.5 4.501,4.5 z"
           stroke-miterlimit="79.8403193612775"
           id="path28"
           inkscape:connector-curvature="0"
           style="fill:url(#LinearGradient);stroke:none;stroke-width:0.75;stroke-linejoin:round;stroke-miterlimit:79.84031677;marker-start:none;marker-end:none" />
        <mask
           id="TranspMask">
          <rect
             x="-59.527702"
             y="-84.189102"
             width="714.33246"
             height="1010.2692"
             id="rect31"
             style="fill:url(#LinearGradient_1);stroke:none" />
        </mask>
        <path
           d="m 468.817,617.319 0,0.001 c 0,2.484 2.016,4.5 4.501,4.5 2.484,0 4.5,-2.016 4.5,-4.5 l -10e-4,-0.001 -9,0 z"
           stroke-miterlimit="79.8403193612775"
           mask="url(#TranspMask)"
           id="path33"
           inkscape:connector-curvature="0"
           style="fill:#ffffff;stroke:none;stroke-width:0.5;stroke-linejoin:miter;stroke-miterlimit:79.84031677;marker-start:none;marker-end:none" />
        <path
           d="m 467.319,623.32 11.999,0 0,-12.001 -11.999,0 0,12.001 z"
           stroke-miterlimit="79.8403193612775"
           id="path35"
           inkscape:connector-curvature="0"
           style="stroke:none;stroke-width:0.5;stroke-linejoin:miter;stroke-miterlimit:79.84031677;marker-start:none;marker-end:none" />
        <mask
           id="TranspMask_1">
          <rect
             x="-59.527702"
             y="-84.189102"
             width="714.33246"
             height="1010.2692"
             id="rect38"
             style="fill:url(#LinearGradient_2);stroke:none" />
        </mask>
        <path
           d="m 473.318,613.569 c -0.258,0 -0.51,0.026 -0.753,0.074 -0.008,0.002 -0.032,0.007 -0.041,0.009 l -0.166,0.043 c -0.152,0.039 -0.283,0.124 -0.381,0.237 l -0.032,0.051 -0.066,-0.015 c -0.151,-0.01 -0.305,0.025 -0.44,0.107 l -0.188,0.114 c -0.006,0.004 -0.026,0.016 -0.032,0.02 -0.397,0.269 -0.742,0.613 -1.012,1.013 -0.004,0.005 -0.016,0.024 -0.019,0.03 l -0.104,0.171 c -0.083,0.135 -0.118,0.289 -0.108,0.44 l 0.015,0.066 -0.057,0.036 c -0.114,0.098 -0.198,0.23 -0.237,0.383 l -0.046,0.179 c -0.002,0.006 -0.007,0.029 -0.008,0.036 -0.05,0.244 -0.076,0.498 -0.076,0.756 0,0.257 0.026,0.509 0.076,0.753 0.001,0.006 0.006,0.029 0.007,0.034 l 0.042,0.166 c 0.039,0.153 0.123,0.285 0.237,0.383 l 0.059,0.037 -0.016,0.069 c -0.011,0.151 0.024,0.306 0.106,0.442 l 0.108,0.179 c 0.004,0.007 0.017,0.027 0.021,0.033 0.27,0.399 0.615,0.742 1.012,1.011 0.006,0.004 0.026,0.016 0.032,0.02 l 0.18,0.109 c 0.135,0.082 0.289,0.117 0.439,0.106 l 0.071,-0.016 0.035,0.057 c 0.098,0.114 0.23,0.198 0.382,0.238 l 0.167,0.043 c 0.007,0.002 0.03,0.007 0.037,0.008 0.244,0.05 0.498,0.077 0.756,0.077 0.257,0 0.509,-0.027 0.753,-0.077 0.009,-10e-4 0.033,-0.007 0.041,-0.009 l 0.179,-0.047 c 0.151,-0.04 0.281,-0.124 0.378,-0.238 l 0.034,-0.054 0.065,0.014 c 0.151,0.011 0.306,-0.024 0.442,-0.106 l 0.173,-0.105 c 0.006,-0.004 0.025,-0.017 0.031,-0.02 0.397,-0.269 0.742,-0.612 1.012,-1.011 0.004,-0.006 0.016,-0.026 0.02,-0.032 l 0.114,-0.188 c 0.082,-0.136 0.117,-0.29 0.106,-0.441 l -0.014,-0.064 0.05,-0.031 c 0.114,-0.099 0.198,-0.231 0.237,-0.383 l 0.043,-0.169 c 0.002,-0.006 0.007,-0.028 0.008,-0.035 0.05,-0.242 0.078,-0.494 0.078,-0.753 0,-0.261 -0.028,-0.514 -0.078,-0.756 -0.001,-0.007 -0.006,-0.03 -0.008,-0.036 l -0.046,-0.179 c -0.039,-0.152 -0.124,-0.284 -0.238,-0.382 l -0.048,-0.031 0.013,-0.062 c 0.011,-0.151 -0.025,-0.305 -0.107,-0.44 l -0.111,-0.182 c -0.003,-0.005 -0.016,-0.024 -0.019,-0.029 -0.27,-0.4 -0.615,-0.744 -1.012,-1.013 -0.005,-0.003 -0.025,-0.016 -0.03,-0.019 l -0.179,-0.109 c -0.136,-0.083 -0.291,-0.118 -0.443,-0.108 l -0.058,0.013 -0.03,-0.048 c -0.097,-0.113 -0.228,-0.198 -0.379,-0.237 l -0.183,-0.048 c -0.01,-0.003 -0.034,-0.008 -0.044,-0.01 -0.242,-0.048 -0.493,-0.074 -0.75,-0.074 z"
           stroke-miterlimit="79.8403193612775"
           mask="url(#TranspMask_1)"
           id="path40"
           inkscape:connector-curvature="0"
           style="fill:#75507b;stroke:none;stroke-width:0.5;stroke-linejoin:round;stroke-miterlimit:79.84031677;marker-start:none;marker-end:none" />
        <path
           d="m 473.318,614.319 c -0.207,0 -0.41,0.021 -0.605,0.06 l -0.166,0.043 -0.083,0.813 -0.636,-0.518 -0.188,0.114 c -0.319,0.216 -0.595,0.491 -0.811,0.811 l -0.104,0.171 0.521,0.639 -0.822,0.083 -0.046,0.179 c -0.04,0.195 -0.061,0.398 -0.061,0.605 0,0.206 0.021,0.408 0.061,0.604 l 0.042,0.166 0.826,0.085 -0.525,0.642 0.108,0.179 c 0.216,0.319 0.492,0.594 0.811,0.81 l 0.18,0.109 0.643,-0.522 0.083,0.822 0.167,0.043 c 0.195,0.04 0.398,0.061 0.605,0.061 0.206,0 0.408,-0.021 0.604,-0.061 l 0.179,-0.047 0.085,-0.818 0.635,0.518 0.173,-0.105 c 0.319,-0.216 0.595,-0.491 0.811,-0.81 l 0.114,-0.188 -0.514,-0.632 0.808,-0.083 0.043,-0.169 c 0.04,-0.196 0.062,-0.398 0.062,-0.604 0,-0.207 -0.022,-0.41 -0.062,-0.605 l -0.046,-0.179 -0.805,-0.082 0.511,-0.629 -0.111,-0.182 c -0.216,-0.32 -0.492,-0.595 -0.811,-0.811 l -0.179,-0.109 -0.627,0.512 -0.083,-0.807 -0.183,-0.048 c -0.196,-0.039 -0.398,-0.06 -0.604,-0.06 z m 0,2.25 c 0.413,0 0.75,0.336 0.75,0.751 0,0.414 -0.337,0.75 -0.75,0.75 -0.414,0 -0.751,-0.336 -0.751,-0.75 0,-0.415 0.337,-0.751 0.751,-0.751 z"
           stroke-miterlimit="79.8403193612775"
           id="path42"
           inkscape:connector-curvature="0"
           style="fill:#ffffff;stroke:none;stroke-width:0.5;stroke-linejoin:round;stroke-miterlimit:79.84031677;marker-start:none;marker-end:none" />
      </g>
    </g>
  </g>
</svg>
