<?xml version="1.0" encoding="UTF-8" standalone="no"?>
<!--Generator: Xara Designer (www.xara.com), SVG filter version: 6.0.0.4-->

<svg
   xmlns:dc="http://purl.org/dc/elements/1.1/"
   xmlns:cc="http://creativecommons.org/ns#"
   xmlns:rdf="http://www.w3.org/1999/02/22-rdf-syntax-ns#"
   xmlns:svg="http://www.w3.org/2000/svg"
   xmlns="http://www.w3.org/2000/svg"
   xmlns:sodipodi="http://sodipodi.sourceforge.net/DTD/sodipodi-0.dtd"
   xmlns:inkscape="http://www.inkscape.org/namespaces/inkscape"
   version="1.1"
   overflow="visible"
   width="12.001pt"
   height="11.998999pt"
   viewBox="0 0 12.001001 11.998999"
   id="svg2"
   inkscape:version="0.91 r13725"
   sodipodi:docname="heart.svg"
   style="overflow:visible;fill-rule:evenodd;stroke-width:0.50099999;stroke-linejoin:bevel">
  <metadata
     id="metadata35">
    <rdf:RDF>
      <cc:Work
         rdf:about="">
        <dc:format>image/svg+xml</dc:format>
        <dc:type
           rdf:resource="http://purl.org/dc/dcmitype/StillImage" />
        <dc:title></dc:title>
      </cc:Work>
    </rdf:RDF>
  </metadata>
  <sodipodi:namedview
     pagecolor="#ffffff"
     bordercolor="#666666"
     borderopacity="1"
     objecttolerance="10"
     gridtolerance="10"
     guidetolerance="10"
     inkscape:pageopacity="0"
     inkscape:pageshadow="2"
     inkscape:window-width="640"
     inkscape:window-height="480"
     id="namedview33"
     showgrid="false"
     fit-margin-top="0"
     fit-margin-left="0"
     fit-margin-right="0"
     fit-margin-bottom="0"
     inkscape:zoom="3.588113"
     inkscape:cx="-0.7887158"
     inkscape:cy="3.6133781"
     inkscape:window-x="0"
     inkscape:window-y="0"
     inkscape:window-maximized="0"
     inkscape:current-layer="svg2" />
  <defs
     id="defs4">
    <linearGradient
       id="LinearGradient"
       gradientUnits="userSpaceOnUse"
       x1="0"
       y1="0"
       x2="0"
       y2="-12"
       gradientTransform="translate(479.321,623.319)">
      <stop
         offset="0"
         stop-color="#ffffff"
         id="stop7" />
      <stop
         offset="0.500999987125397"
         stop-color="#ef2929"
         id="stop9" />
      <stop
         offset="1"
         stop-color="#ffffff"
         id="stop11" />
    </linearGradient>
    <linearGradient
       id="LinearGradient_1"
       gradientUnits="userSpaceOnUse"
       x1="0"
       y1="0"
       x2="0.001"
       y2="6"
       gradientTransform="translate(479.32,617.319)">
      <stop
         offset="0"
         stop-color="#333333"
         id="stop14" />
      <stop
         offset="1"
         stop-color="#ffffff"
         id="stop16" />
    </linearGradient>
  </defs>
  <g
     id="Document"
     font-size="16"
     transform="matrix(1,0,0,-1,-467.319,-218.57305)"
     style="font-size:16px;font-family:'Times New Roman';fill:none;stroke:#000000">
    <g
       id="Spread"
       transform="translate(0,-841.891)">
      <g
         id="opaque">
        <path
           d="m 479.32,623.318 0,-11.999 -12.001,0 0,11.999 12.001,0 z"
           stroke-miterlimit="79.8403193612775"
           id="path21"
           inkscape:connector-curvature="0"
           style="stroke:none;stroke-width:0.5;stroke-linejoin:miter;stroke-miterlimit:79.84031677;marker-start:none;marker-end:none" />
      </g>
      <g
         id="Layer 1">
        <path
           d="m 473.321,612.069 -0.75,0.75 c -2.11,2.109 -4.219,3.362 -4.475,5.549 l -0.006,0.112 -0.005,0.032 c -0.01,0.101 -0.015,0.203 -0.015,0.307 0,1.656 1.345,3 3.001,3 0.828,0 1.578,-0.336 2.121,-0.879 l 0.128,-0.141 0.128,0.141 c 0.543,0.543 1.294,0.879 2.122,0.879 1.656,0 3.001,-1.344 3.001,-3 0,-0.104 -0.006,-0.206 -0.016,-0.307 l -0.002,-0.014 -0.008,-0.148 c -0.256,-2.265 -2.365,-3.422 -4.474,-5.531 l -0.75,-0.75 z"
           stroke-miterlimit="79.8403193612775"
           id="path24"
           inkscape:connector-curvature="0"
           style="fill:#cc0000;stroke:none;stroke-width:0.5;stroke-linejoin:miter;stroke-miterlimit:79.84031677;marker-start:none;marker-end:none" />
        <path
           d="m 473.32,613.129 -0.219,0.22 c -1.776,1.774 -3.54,2.927 -4.099,4.435 l -0.161,0.663 -0.005,0.111 -0.006,0.038 -0.01,0.223 c 0,1.241 1.008,2.25 2.251,2.25 0.465,0 0.897,-0.142 1.256,-0.385 l 0.328,-0.271 0.665,-0.73 0.663,0.73 0.328,0.271 c 0.359,0.243 0.792,0.385 1.259,0.385 1.242,0 2.251,-1.009 2.251,-2.25 0,-0.075 -0.005,-0.15 -0.014,-0.226 l -0.009,-0.163 -0.149,-0.661 c -0.507,-1.463 -2.093,-2.404 -4.109,-4.42 l -0.22,-0.22 z"
           stroke-miterlimit="79.8403193612775"
           id="path26"
           inkscape:connector-curvature="0"
           style="fill:url(#LinearGradient);stroke:none;stroke-width:0.75;stroke-linejoin:round;stroke-miterlimit:79.84031677;marker-start:none;marker-end:none" />
        <mask
           id="TranspMask">
          <rect
             x="-59.527702"
             y="-84.189102"
             width="714.33246"
             height="1010.2692"
             id="rect29"
             style="fill:url(#LinearGradient_1);stroke:none" />
        </mask>
        <path
           d="m 469.22,617.319 -0.1,0.186 c -0.044,0.091 -0.084,0.184 -0.118,0.279 l -0.161,0.663 -0.005,0.111 -0.006,0.038 -0.01,0.223 c 0,1.241 1.008,2.25 2.251,2.25 0.465,0 0.897,-0.142 1.256,-0.385 l 0.328,-0.271 0.665,-0.73 0.663,0.73 0.328,0.271 c 0.359,0.243 0.792,0.385 1.259,0.385 1.242,0 2.251,-1.009 2.251,-2.25 0,-0.075 -0.005,-0.15 -0.014,-0.226 l -0.009,-0.163 -0.149,-0.661 c -0.032,-0.092 -0.068,-0.181 -0.108,-0.269 l -0.093,-0.181 -8.228,0 z"
           stroke-miterlimit="79.8403193612775"
           mask="url(#TranspMask)"
           id="path31"
           inkscape:connector-curvature="0"
           style="fill:#ffffff;stroke:none;stroke-width:0.5;stroke-linejoin:miter;stroke-miterlimit:79.84031677;marker-start:none;marker-end:none" />
      </g>
    </g>
  </g>
</svg>
