<?xml version="1.0" encoding="UTF-8" standalone="no"?>
<!--Generator: Xara Designer (www.xara.com), SVG filter version: 6.0.0.4-->

<svg
   xmlns:dc="http://purl.org/dc/elements/1.1/"
   xmlns:cc="http://creativecommons.org/ns#"
   xmlns:rdf="http://www.w3.org/1999/02/22-rdf-syntax-ns#"
   xmlns:svg="http://www.w3.org/2000/svg"
   xmlns="http://www.w3.org/2000/svg"
   xmlns:sodipodi="http://sodipodi.sourceforge.net/DTD/sodipodi-0.dtd"
   xmlns:inkscape="http://www.inkscape.org/namespaces/inkscape"
   version="1.1"
   overflow="visible"
   width="12.001pt"
   height="11.998999pt"
   viewBox="0 0 12.001001 11.998999"
   id="svg2"
   inkscape:version="0.91 r13725"
   sodipodi:docname="heart-broken.svg"
   style="overflow:visible;fill-rule:evenodd;stroke-width:0.50099999;stroke-linejoin:bevel">
  <metadata
     id="metadata35">
    <rdf:RDF>
      <cc:Work
         rdf:about="">
        <dc:format>image/svg+xml</dc:format>
        <dc:type
           rdf:resource="http://purl.org/dc/dcmitype/StillImage" />
        <dc:title></dc:title>
      </cc:Work>
    </rdf:RDF>
  </metadata>
  <sodipodi:namedview
     pagecolor="#ffffff"
     bordercolor="#666666"
     borderopacity="1"
     objecttolerance="10"
     gridtolerance="10"
     guidetolerance="10"
     inkscape:pageopacity="0"
     inkscape:pageshadow="2"
     inkscape:window-width="640"
     inkscape:window-height="480"
     id="namedview33"
     showgrid="false"
     fit-margin-top="0"
     fit-margin-left="0"
     fit-margin-right="0"
     fit-margin-bottom="0"
     inkscape:zoom="3.588113"
     inkscape:cx="-4.8291334"
     inkscape:cy="5.0484718"
     inkscape:window-x="0"
     inkscape:window-y="0"
     inkscape:window-maximized="0"
     inkscape:current-layer="svg2" />
  <defs
     id="defs4">
    <linearGradient
       id="LinearGradient"
       gradientUnits="userSpaceOnUse"
       x1="0"
       y1="0"
       x2="0"
       y2="-12"
       gradientTransform="translate(479.321,623.319)">
      <stop
         offset="0"
         stop-color="#ffffff"
         id="stop7" />
      <stop
         offset="0.500999987125397"
         stop-color="#ef2929"
         id="stop9" />
      <stop
         offset="1"
         stop-color="#ffffff"
         id="stop11" />
    </linearGradient>
    <linearGradient
       id="LinearGradient_1"
       gradientUnits="userSpaceOnUse"
       x1="0"
       y1="0"
       x2="0.001"
       y2="6"
       gradientTransform="translate(479.32,617.319)">
      <stop
         offset="0"
         stop-color="#333333"
         id="stop14" />
      <stop
         offset="1"
         stop-color="#ffffff"
         id="stop16" />
    </linearGradient>
  </defs>
  <g
     id="Document"
     font-size="16"
     transform="matrix(1,0,0,-1,-467.319,-218.57305)"
     style="font-size:16px;font-family:'Times New Roman';fill:none;stroke:#000000">
    <g
       id="Spread"
       transform="translate(0,-841.891)">
      <g
         id="opaque">
        <path
           d="m 479.32,623.318 0,-11.999 -12.001,0 0,11.999 12.001,0 z"
           stroke-miterlimit="79.8403193612775"
           id="path21"
           inkscape:connector-curvature="0"
           style="stroke:none;stroke-width:0.5;stroke-linejoin:miter;stroke-miterlimit:79.84031677;marker-start:none;marker-end:none" />
      </g>
      <g
         id="Layer 1">
        <path
           d="m 473.321,612.069 0,2.25 1.5,1.5 -2.25,2.25 1.5,1.5 0,1.846 0.068,0.041 c 0.426,0.231 0.913,0.363 1.431,0.363 1.656,0 3.001,-1.344 3.001,-3 0,-0.104 -0.006,-0.206 -0.016,-0.307 l -0.002,-0.014 -0.008,-0.148 c -0.256,-2.265 -2.365,-3.422 -4.474,-5.531 l -0.75,-0.75 z m -1.5,1.468 -0.038,0.036 c -1.821,1.682 -3.463,2.881 -3.687,4.795 l -0.006,0.112 -0.005,0.032 c -0.01,0.101 -0.015,0.203 -0.015,0.307 0,1.656 1.345,3 3.001,3 0.517,0 1.004,-0.132 1.429,-0.363 l 0.071,-0.043 0,-1.844 -1.5,-1.5 2.25,-2.25 -1.5,-1.5 0,-0.782 z"
           stroke-miterlimit="79.8403193612775"
           id="path24"
           inkscape:connector-curvature="0"
           style="fill:#cc0000;stroke:none;stroke-width:0.5;stroke-linejoin:miter;stroke-miterlimit:79.84031677;marker-start:none;marker-end:none" />
        <path
           d="m 474.071,613.859 0,0.149 1.81,1.811 -2.25,2.25 1.19,1.189 0,1.666 0.186,0.073 c 0.18,0.047 0.368,0.072 0.563,0.072 1.242,0 2.251,-1.009 2.251,-2.25 0,-0.075 -0.005,-0.15 -0.014,-0.226 l -0.009,-0.163 -0.149,-0.661 c -0.435,-1.254 -1.662,-2.125 -3.274,-3.618 l -0.304,-0.292 z m -2.685,1.085 -0.41,0.37 c -0.399,0.366 -0.759,0.711 -1.075,1.067 -0.459,0.515 -0.777,1.004 -0.945,1.531 l -0.115,0.533 -0.005,0.113 -0.006,0.038 -0.01,0.223 c 0,1.241 1.008,2.25 2.251,2.25 0.193,0 0.381,-0.025 0.56,-0.072 l 0.189,-0.074 0.001,-1.044 -1.811,-1.81 2.25,-2.25 -0.874,-0.875 z"
           stroke-miterlimit="79.8403193612775"
           id="path26"
           inkscape:connector-curvature="0"
           style="fill:url(#LinearGradient);stroke:none;stroke-width:0.75;stroke-linejoin:round;stroke-miterlimit:79.84031677;marker-start:none;marker-end:none" />
        <mask
           id="TranspMask">
          <rect
             x="-59.527702"
             y="-84.189102"
             width="714.33246"
             height="1010.2692"
             id="rect29"
             style="fill:url(#LinearGradient_1);stroke:none" />
        </mask>
        <path
           d="m 469.222,617.319 -0.113,0.203 c -0.06,0.128 -0.111,0.258 -0.153,0.39 l -0.115,0.533 -0.005,0.113 -0.006,0.038 -0.01,0.223 c 0,1.241 1.008,2.25 2.251,2.25 0.193,0 0.381,-0.025 0.56,-0.072 l 0.189,-0.074 0.001,-1.044 -1.811,-1.81 0.75,-0.75 -1.538,0 z m 5.159,0 -0.75,0.75 1.19,1.189 0,1.666 0.186,0.073 c 0.18,0.047 0.368,0.072 0.563,0.072 1.242,0 2.251,-1.009 2.251,-2.25 0,-0.075 -0.005,-0.15 -0.014,-0.226 l -0.009,-0.163 -0.149,-0.661 c -0.028,-0.079 -0.058,-0.156 -0.091,-0.231 l -0.107,-0.219 -3.07,0 z"
           stroke-miterlimit="79.8403193612775"
           mask="url(#TranspMask)"
           id="path31"
           inkscape:connector-curvature="0"
           style="fill:#ffffff;stroke:none;stroke-width:0.5;stroke-linejoin:miter;stroke-miterlimit:79.84031677;marker-start:none;marker-end:none" />
      </g>
    </g>
  </g>
</svg>
