<?xml version="1.0" encoding="UTF-8" standalone="no"?>
<!--Generator: Xara Designer (www.xara.com), SVG filter version: 6.0.0.4-->

<svg
   xmlns:dc="http://purl.org/dc/elements/1.1/"
   xmlns:cc="http://creativecommons.org/ns#"
   xmlns:rdf="http://www.w3.org/1999/02/22-rdf-syntax-ns#"
   xmlns:svg="http://www.w3.org/2000/svg"
   xmlns="http://www.w3.org/2000/svg"
   xmlns:sodipodi="http://sodipodi.sourceforge.net/DTD/sodipodi-0.dtd"
   xmlns:inkscape="http://www.inkscape.org/namespaces/inkscape"
   version="1.1"
   overflow="visible"
   width="10.502pt"
   height="10.499999pt"
   viewBox="0 0 10.502 10.499999"
   id="svg2"
   inkscape:version="0.91 r13725"
   sodipodi:docname="information-blue-circle.svg"
   style="overflow:visible;fill-rule:evenodd;stroke-width:0.50099999;stroke-linejoin:bevel">
  <metadata
     id="metadata46">
    <rdf:RDF>
      <cc:Work
         rdf:about="">
        <dc:format>image/svg+xml</dc:format>
        <dc:type
           rdf:resource="http://purl.org/dc/dcmitype/StillImage" />
        <dc:title></dc:title>
      </cc:Work>
    </rdf:RDF>
  </metadata>
  <sodipodi:namedview
     pagecolor="#ffffff"
     bordercolor="#666666"
     borderopacity="1"
     objecttolerance="10"
     gridtolerance="10"
     guidetolerance="10"
     inkscape:pageopacity="0"
     inkscape:pageshadow="2"
     inkscape:window-width="640"
     inkscape:window-height="480"
     id="namedview44"
     showgrid="false"
     fit-margin-top="0"
     fit-margin-left="0"
     fit-margin-right="0"
     fit-margin-bottom="0"
     inkscape:zoom="3.588113"
     inkscape:cx="5.457087"
     inkscape:cy="3.7606408"
     inkscape:window-x="0"
     inkscape:window-y="0"
     inkscape:window-maximized="0"
     inkscape:current-layer="svg2" />
  <defs
     id="defs4">
    <linearGradient
       id="LinearGradient"
       gradientUnits="userSpaceOnUse"
       x1="0"
       y1="0"
       x2="0"
       y2="-12.001"
       gradientTransform="translate(479.319,623.319)">
      <stop
         offset="0"
         stop-color="#ffffff"
         id="stop7" />
      <stop
         offset="0.500999987125397"
         stop-color="#5185c8"
         id="stop9" />
      <stop
         offset="1"
         stop-color="#ffffff"
         id="stop11" />
    </linearGradient>
    <linearGradient
       id="LinearGradient_1"
       gradientUnits="userSpaceOnUse"
       x1="0"
       y1="0"
       x2="0"
       y2="6.0009999"
       gradientTransform="translate(479.32,617.318)">
      <stop
         offset="0"
         stop-color="#333333"
         id="stop14" />
      <stop
         offset="1"
         stop-color="#ffffff"
         id="stop16" />
    </linearGradient>
    <linearGradient
       id="LinearGradient_2"
       gradientUnits="userSpaceOnUse"
       x1="0"
       y1="0"
       x2="0"
       y2="6"
       gradientTransform="translate(479.32,617.319)">
      <stop
         offset="0"
         stop-color="#bfbfbf"
         id="stop19" />
      <stop
         offset="1"
         stop-color="#000000"
         id="stop21" />
    </linearGradient>
  </defs>
  <g
     id="Document"
     font-size="16"
     transform="matrix(1,0,0,-1,-468.069,-219.32205)"
     style="font-size:16px;font-family:'Times New Roman';fill:none;stroke:#000000">
    <g
       id="Spread"
       transform="translate(0,-841.891)">
      <g
         id="Layer 1">
        <path
           d="m 473.32,622.569 c 2.898,0 5.251,-2.352 5.251,-5.25 0,-2.898 -2.353,-5.25 -5.251,-5.25 -2.898,0 -5.251,2.352 -5.251,5.25 0,2.898 2.353,5.25 5.251,5.25 z"
           stroke-miterlimit="79.8403193612775"
           id="path26"
           inkscape:connector-curvature="0"
           style="fill:#204a87;stroke:none;stroke-width:0.5;stroke-miterlimit:79.84031677;marker-start:none;marker-end:none" />
        <path
           d="m 473.32,621.82 c 2.484,0 4.501,-2.016 4.501,-4.5 0,-2.484 -2.017,-4.5 -4.501,-4.5 -2.484,0 -4.501,2.016 -4.501,4.5 0,2.484 2.017,4.5 4.501,4.5 z"
           stroke-miterlimit="79.8403193612775"
           id="path28"
           inkscape:connector-curvature="0"
           style="fill:url(#LinearGradient);stroke:none;stroke-width:0.75;stroke-linejoin:round;stroke-miterlimit:79.84031677;marker-start:none;marker-end:none" />
        <mask
           id="TranspMask">
          <rect
             x="-59.527702"
             y="-84.189102"
             width="714.33246"
             height="1010.2692"
             id="rect31"
             style="fill:url(#LinearGradient_1);stroke:none" />
        </mask>
        <path
           d="m 468.819,617.319 0,0.001 c 0,2.484 2.016,4.5 4.501,4.5 2.484,0 4.5,-2.016 4.5,-4.5 l -10e-4,-0.001 -9,0 z"
           stroke-miterlimit="79.8403193612775"
           mask="url(#TranspMask)"
           id="path33"
           inkscape:connector-curvature="0"
           style="fill:#ffffff;stroke:none;stroke-width:0.5;stroke-linejoin:miter;stroke-miterlimit:79.84031677;marker-start:none;marker-end:none" />
        <mask
           id="TranspMask_1">
          <rect
             x="-59.527702"
             y="-84.189102"
             width="714.33246"
             height="1010.2692"
             id="rect36"
             style="fill:url(#LinearGradient_2);stroke:none" />
        </mask>
        <path
           d="m 472.57,613.569 c -0.353,0 -0.75,0.397 -0.75,0.75 l 0,0.75 c 0,0.353 0.375,0.75 0.75,0.75 l 0,0.75 c -0.375,0 -0.75,0.397 -0.75,0.75 l 0,0.75 c 0,0.176 0.099,0.364 0.242,0.507 l 0.079,0.067 -0.066,0.087 c -0.161,0.24 -0.255,0.529 -0.255,0.84 0,0.822 0.67,1.499 1.501,1.499 0.826,0 1.501,-0.675 1.501,-1.499 0,-0.311 -0.095,-0.6 -0.258,-0.84 l -0.065,-0.087 0.078,-0.067 c 0.143,-0.143 0.243,-0.331 0.243,-0.507 l 0,-2.25 c 0.375,0 0.75,-0.397 0.75,-0.75 l 0,-0.75 c 0,-0.353 -0.397,-0.75 -0.75,-0.75 l -2.25,0 z"
           stroke-miterlimit="79.8403193612775"
           mask="url(#TranspMask_1)"
           id="path38"
           inkscape:connector-curvature="0"
           style="fill:#204a87;stroke:none;stroke-width:0.5;stroke-linejoin:round;stroke-miterlimit:79.84031677;marker-start:none;marker-end:none" />
        <path
           d="m 473.32,618.819 c -0.415,0 -0.75,0.336 -0.75,0.75 0,0.411 0.335,0.749 0.75,0.749 0.413,0 0.75,-0.337 0.75,-0.749 0,-0.414 -0.337,-0.75 -0.75,-0.75 z"
           stroke-miterlimit="79.8403193612775"
           id="path40"
           inkscape:connector-curvature="0"
           style="fill:#ffffff;stroke:none;stroke-width:0.5;stroke-linejoin:round;stroke-miterlimit:79.84031677;marker-start:none;marker-end:none" />
        <path
           d="m 472.606,614.319 -0.036,0.051 0,0.652 0.049,0.051 0.101,0.011 c 0.341,0.07 0.6,0.372 0.6,0.735 l 0,0.75 c 0,0.361 -0.259,0.664 -0.6,0.734 l -0.102,0.011 -0.048,0.05 0.011,0.652 0.042,0.053 1.423,0 0.024,-0.055 0,-2.195 c 0,-0.363 0.257,-0.665 0.598,-0.735 l 0.101,-0.01 0.051,-0.053 0,-0.649 -0.038,-0.031 -2.169,-0.022 z"
           stroke-miterlimit="79.8403193612775"
           id="path42"
           inkscape:connector-curvature="0"
           style="fill:#ffffff;stroke:none;stroke-width:0.5;stroke-linejoin:round;stroke-miterlimit:79.84031677;marker-start:none;marker-end:none" />
      </g>
    </g>
  </g>
</svg>
