<?xml version="1.0" encoding="UTF-8" standalone="no"?>
<!--Generator: Xara Designer (www.xara.com), SVG filter version: 6.0.0.4-->

<svg
   xmlns:dc="http://purl.org/dc/elements/1.1/"
   xmlns:cc="http://creativecommons.org/ns#"
   xmlns:rdf="http://www.w3.org/1999/02/22-rdf-syntax-ns#"
   xmlns:svg="http://www.w3.org/2000/svg"
   xmlns="http://www.w3.org/2000/svg"
   xmlns:sodipodi="http://sodipodi.sourceforge.net/DTD/sodipodi-0.dtd"
   xmlns:inkscape="http://www.inkscape.org/namespaces/inkscape"
   version="1.1"
   overflow="visible"
   width="11.999pt"
   height="12.000998pt"
   viewBox="0 0 11.999 12.000999"
   id="svg2"
   inkscape:version="0.91 r13725"
   sodipodi:docname="jigsaw-puzzle-piece-extension-flipped.svg"
   style="overflow:visible;fill-rule:evenodd;stroke-width:0.50099999;stroke-linejoin:bevel">
  <metadata
     id="metadata34">
    <rdf:RDF>
      <cc:Work
         rdf:about="">
        <dc:format>image/svg+xml</dc:format>
        <dc:type
           rdf:resource="http://purl.org/dc/dcmitype/StillImage" />
        <dc:title></dc:title>
      </cc:Work>
    </rdf:RDF>
  </metadata>
  <sodipodi:namedview
     pagecolor="#ffffff"
     bordercolor="#666666"
     borderopacity="1"
     objecttolerance="10"
     gridtolerance="10"
     guidetolerance="10"
     inkscape:pageopacity="0"
     inkscape:pageshadow="2"
     inkscape:window-width="640"
     inkscape:window-height="480"
     id="namedview32"
     showgrid="false"
     fit-margin-top="0"
     fit-margin-left="0"
     fit-margin-right="0"
     fit-margin-bottom="0"
     inkscape:zoom="3.588113"
     inkscape:cx="-3.6747283"
     inkscape:cy="4.7021503"
     inkscape:window-x="0"
     inkscape:window-y="0"
     inkscape:window-maximized="0"
     inkscape:current-layer="svg2" />
  <defs
     id="defs4">
    <linearGradient
       id="LinearGradient"
       gradientUnits="userSpaceOnUse"
       x1="0"
       y1="0"
       x2="12"
       y2="0"
       gradientTransform="matrix(0,-1,1,0,467.319,623.319)">
      <stop
         offset="0"
         stop-color="#ffffff"
         id="stop7" />
      <stop
         offset="0.500999987125397"
         stop-color="#6dc814"
         id="stop9" />
      <stop
         offset="1"
         stop-color="#ffffff"
         id="stop11" />
    </linearGradient>
    <linearGradient
       id="LinearGradient_1"
       gradientUnits="userSpaceOnUse"
       x1="0"
       y1="0"
       x2="6"
       y2="0"
       gradientTransform="matrix(0,1,-1,0,467.319,617.319)">
      <stop
         offset="0"
         stop-color="#333333"
         id="stop14" />
      <stop
         offset="1"
         stop-color="#ffffff"
         id="stop16" />
    </linearGradient>
  </defs>
  <g
     id="Document"
     font-size="16"
     transform="matrix(1,0,0,-1,-467.319,-218.57105)"
     style="font-size:16px;font-family:'Times New Roman';fill:none;stroke:#000000">
    <g
       id="Spread"
       transform="translate(0,-841.891)">
      <g
         id="Layer 1">
        <path
           d="m 479.318,623.32 -11.999,0 0,-12.001 11.999,0 0,12.001 z"
           stroke-miterlimit="79.8403193612775"
           id="path21"
           inkscape:connector-curvature="0"
           style="stroke:none;stroke-width:0.5;stroke-linejoin:miter;stroke-miterlimit:79.84031677;marker-start:none;marker-end:none" />
        <path
           d="m 477.819,612.069 c 0.353,0 0.75,0.397 0.75,0.75 l 0,2.25 c 0,0.75 -0.397,0.75 -0.75,0.75 -0.353,0 -0.397,-0.75 -0.75,-0.75 -0.353,0 -0.615,0.424 -0.75,0.75 -0.191,0.461 -0.191,1.039 0,1.5 0.135,0.326 0.397,0.75 0.75,0.75 0.353,0 0.397,-0.75 0.75,-0.75 0.353,0 0.75,0 0.75,0.75 l 0,1.5 c 0,0.353 -0.397,0.75 -0.75,0.75 l -1.5,0 c -0.75,0 -0.75,0.397 -0.75,0.75 0,0.353 0.75,0.397 0.75,0.75 0,0.353 -0.424,0.615 -0.75,0.75 -0.923,0.382 -2.077,0.382 -3,0 -0.326,-0.135 -0.75,-0.397 -0.75,-0.75 0,-0.353 0.75,-0.397 0.75,-0.75 0,-0.353 0,-0.75 -0.75,-0.75 l -0.75,0 c -0.353,0 -0.75,-0.397 -0.75,-0.75 l 0,-0.75 c 0,-0.75 -0.397,-0.75 -0.75,-0.75 -0.353,0 -0.397,0.75 -0.75,0.75 -0.353,0 -0.615,-0.424 -0.75,-0.75 -0.382,-0.923 -0.382,-2.077 0,-3 0.135,-0.326 0.397,-0.75 0.75,-0.75 0.353,0 0.397,0.75 0.75,0.75 0.353,0 0.75,0 0.75,-0.75 l 0,-1.5 c 0,-0.353 0.397,-0.75 0.75,-0.75 l 1.5,0 c 0.75,0 0.75,0.397 0.75,0.75 0,0.353 -0.75,0.397 -0.75,0.75 0,0.353 0.424,0.615 0.75,0.75 0.461,0.191 1.039,0.191 1.5,0 0.326,-0.135 0.75,-0.397 0.75,-0.75 0,-0.353 -0.75,-0.397 -0.75,-0.75 0,-0.353 0,-0.75 0.75,-0.75 l 2.25,0 z"
           stroke-miterlimit="79.8403193612775"
           id="path23"
           inkscape:connector-curvature="0"
           style="fill:#4e9a06;stroke:none;stroke-width:0.5;stroke-linejoin:round;stroke-miterlimit:79.84031677;marker-start:none;marker-end:none" />
        <path
           d="m 477.764,612.819 0.055,0.055 0,1.799 -0.267,-0.232 c -0.133,-0.074 -0.292,-0.122 -0.483,-0.122 -0.907,0 -1.335,0.953 -1.442,1.212 -0.268,0.645 -0.268,1.43 0,2.075 0.103,0.249 0.53,1.213 1.442,1.213 0.189,0 0.342,-0.043 0.468,-0.11 l 0.282,-0.236 0,1.04 -0.056,0.056 -1.444,0 c -1.315,0 -1.5,0.931 -1.5,1.5 0,0.376 0.17,0.612 0.367,0.774 l 0.064,0.042 -0.554,0.162 c -0.409,0.076 -0.843,0.076 -1.252,0 l -0.537,-0.16 c 0.219,-0.184 0.412,-0.437 0.412,-0.818 0,-0.521 -0.151,-1.5 -1.5,-1.5 l -0.693,0 -0.057,-0.057 0,-0.693 c 0,-1.316 -0.931,-1.5 -1.5,-1.5 -0.376,0 -0.612,0.169 -0.774,0.366 l -0.042,0.063 -0.162,-0.554 c -0.076,-0.409 -0.076,-0.843 0,-1.252 l 0.167,-0.548 c 0.177,0.231 0.43,0.425 0.811,0.425 0.521,0 1.5,-0.152 1.5,-1.5 l 0,-1.444 0.056,-0.056 1.049,0 -0.232,0.267 c -0.074,0.133 -0.123,0.292 -0.123,0.483 0,0.907 0.954,1.335 1.213,1.442 0.645,0.268 1.43,0.268 2.075,0 0.249,-0.103 1.212,-0.53 1.212,-1.442 0,-0.189 -0.042,-0.342 -0.109,-0.468 l -0.235,-0.282 1.789,0 z"
           stroke-miterlimit="79.8403193612775"
           id="path25"
           inkscape:connector-curvature="0"
           style="fill:url(#LinearGradient);stroke:none;stroke-width:0.75;stroke-linejoin:round;stroke-miterlimit:79.84031677;marker-start:none;marker-end:none" />
        <mask
           id="TranspMask">
          <rect
             x="-59.527702"
             y="-84.189102"
             width="714.33246"
             height="1010.2692"
             id="rect28"
             style="fill:url(#LinearGradient_1);stroke:none" />
        </mask>
        <path
           d="m 475.53,617.319 0.01,0.039 c 0.025,0.084 0.054,0.167 0.087,0.248 0.103,0.249 0.53,1.213 1.442,1.213 0.189,0 0.342,-0.043 0.468,-0.11 l 0.282,-0.236 0,1.04 -0.056,0.056 -1.444,0 c -1.315,0 -1.5,0.931 -1.5,1.5 0,0.376 0.17,0.612 0.367,0.774 l 0.064,0.042 -0.554,0.162 c -0.409,0.076 -0.843,0.076 -1.252,0 l -0.537,-0.16 c 0.219,-0.184 0.412,-0.437 0.412,-0.818 0,-0.521 -0.151,-1.5 -1.5,-1.5 l -0.693,0 -0.057,-0.057 0,-0.693 c 0,-1.316 -0.931,-1.5 -1.5,-1.5 l 5.961,0 z m -5.961,0 c -0.376,0 -0.612,0.169 -0.774,0.366 l -0.042,0.063 -0.125,-0.429 0.941,0 z"
           stroke-miterlimit="79.8403193612775"
           mask="url(#TranspMask)"
           id="path30"
           inkscape:connector-curvature="0"
           style="fill:#ffffff;stroke:none;stroke-width:0.5;stroke-linejoin:miter;stroke-miterlimit:79.84031677;marker-start:none;marker-end:none" />
      </g>
    </g>
  </g>
</svg>
