<?xml version="1.0" encoding="UTF-8" standalone="no"?>
<!--Generator: Xara Designer (www.xara.com), SVG filter version: 6.0.0.4-->

<svg
   xmlns:dc="http://purl.org/dc/elements/1.1/"
   xmlns:cc="http://creativecommons.org/ns#"
   xmlns:rdf="http://www.w3.org/1999/02/22-rdf-syntax-ns#"
   xmlns:svg="http://www.w3.org/2000/svg"
   xmlns="http://www.w3.org/2000/svg"
   xmlns:sodipodi="http://sodipodi.sourceforge.net/DTD/sodipodi-0.dtd"
   xmlns:inkscape="http://www.inkscape.org/namespaces/inkscape"
   version="1.1"
   overflow="visible"
   width="12.001pt"
   height="11.998999pt"
   viewBox="0 0 12.001001 11.998999"
   id="svg2"
   inkscape:version="0.91 r13725"
   sodipodi:docname="key-password.svg"
   style="overflow:visible;fill-rule:evenodd;stroke-width:0.50099999;stroke-linejoin:bevel">
  <metadata
     id="metadata34">
    <rdf:RDF>
      <cc:Work
         rdf:about="">
        <dc:format>image/svg+xml</dc:format>
        <dc:type
           rdf:resource="http://purl.org/dc/dcmitype/StillImage" />
        <dc:title></dc:title>
      </cc:Work>
    </rdf:RDF>
  </metadata>
  <sodipodi:namedview
     pagecolor="#ffffff"
     bordercolor="#666666"
     borderopacity="1"
     objecttolerance="10"
     gridtolerance="10"
     guidetolerance="10"
     inkscape:pageopacity="0"
     inkscape:pageshadow="2"
     inkscape:window-width="640"
     inkscape:window-height="480"
     id="namedview32"
     showgrid="false"
     fit-margin-top="0"
     fit-margin-left="0"
     fit-margin-right="0"
     fit-margin-bottom="0"
     inkscape:zoom="3.588113"
     inkscape:cx="-1.7122398"
     inkscape:cy="-0.030910242"
     inkscape:window-x="0"
     inkscape:window-y="0"
     inkscape:window-maximized="0"
     inkscape:current-layer="svg2" />
  <defs
     id="defs4">
    <linearGradient
       id="LinearGradient"
       gradientUnits="userSpaceOnUse"
       x1="0"
       y1="0"
       x2="0.001"
       y2="-8.9989996"
       gradientTransform="translate(479.319,621.818)">
      <stop
         offset="0"
         stop-color="#ffffff"
         id="stop7" />
      <stop
         offset="0.500999987125397"
         stop-color="#a3a4a3"
         id="stop9" />
      <stop
         offset="1"
         stop-color="#ffffff"
         id="stop11" />
    </linearGradient>
    <linearGradient
       id="LinearGradient_1"
       gradientUnits="userSpaceOnUse"
       x1="0"
       y1="0"
       x2="0"
       y2="4.5"
       gradientTransform="translate(479.32,617.319)">
      <stop
         offset="0"
         stop-color="#333333"
         id="stop14" />
      <stop
         offset="1"
         stop-color="#ffffff"
         id="stop16" />
    </linearGradient>
  </defs>
  <g
     id="Document"
     font-size="16"
     transform="matrix(1,0,0,-1,-467.319,-218.57305)"
     style="font-size:16px;font-family:'Times New Roman';fill:none;stroke:#000000">
    <g
       id="Spread"
       transform="translate(0,-841.891)">
      <g
         id="Layer 1">
        <path
           d="m 479.32,623.318 0,-11.999 -12.001,0 0,11.999 12.001,0 z"
           stroke-miterlimit="79.8403193612775"
           id="path21"
           inkscape:connector-curvature="0"
           style="stroke:none;stroke-width:0.5;stroke-linejoin:miter;stroke-miterlimit:79.84031677;marker-start:none;marker-end:none" />
        <path
           d="m 468.07,612.069 0,2.25 3.893,3.893 -0.078,0.302 c -0.045,0.219 -0.068,0.447 -0.068,0.68 0,1.863 1.514,3.375 3.377,3.375 1.863,0 3.376,-1.512 3.376,-3.375 0,-1.863 -1.513,-3.375 -3.376,-3.375 -0.35,0 -0.687,0.053 -1.004,0.151 l -0.121,0.044 10e-4,-1.695 -1.5,0 0,-1.5 -1.5,0 0,-0.75 -3,0 z m 7.125,6.75 c 0.207,0 0.376,0.168 0.376,0.375 0,0.207 -0.169,0.375 -0.376,0.375 -0.207,0 -0.376,-0.168 -0.376,-0.375 0,-0.207 0.169,-0.375 0.376,-0.375 z"
           stroke-miterlimit="79.8403193612775"
           id="path23"
           inkscape:connector-curvature="0"
           style="fill:#888a85;stroke:none;stroke-width:0.5;stroke-linejoin:round;stroke-miterlimit:79.84031677;marker-start:none;marker-end:none" />
        <path
           d="m 468.82,612.819 0,1.189 3.673,3.673 c 0.188,0.188 0.262,0.461 0.196,0.718 l -0.071,0.274 -0.051,0.521 c 0,1.448 1.177,2.625 2.627,2.625 1.449,0 2.626,-1.177 2.626,-2.625 0,-1.449 -1.177,-2.625 -2.626,-2.625 -0.137,0 -0.272,0.01 -0.402,0.03 l -0.376,0.085 -0.091,0.034 c -0.489,0.178 -1.007,-0.185 -1.006,-0.705 l 0,-0.944 -0.749,0 c -0.414,0 -0.75,-0.337 -0.75,-0.75 l 0,-0.75 -0.75,0 c -0.414,0 -0.75,-0.337 -0.75,-0.75 l -1.5,0 z m 6.375,5.25 c 0.618,0 1.126,0.501 1.126,1.125 0,0.623 -0.508,1.125 -1.126,1.125 -0.619,0 -1.126,-0.502 -1.126,-1.125 0,-0.624 0.507,-1.125 1.126,-1.125 z"
           stroke-miterlimit="79.8403193612775"
           id="path25"
           inkscape:connector-curvature="0"
           style="fill:url(#LinearGradient);stroke:none;stroke-width:0.75;stroke-linejoin:round;stroke-miterlimit:79.84031677;marker-start:none;marker-end:none" />
        <mask
           id="TranspMask">
          <rect
             x="-59.527702"
             y="-84.189102"
             width="714.33246"
             height="1010.2692"
             id="rect28"
             style="fill:url(#LinearGradient_1);stroke:none" />
        </mask>
        <path
           d="m 472.131,617.319 0.362,0.362 c 0.188,0.188 0.262,0.461 0.196,0.718 l -0.071,0.274 -0.051,0.521 c 0,1.448 1.177,2.625 2.627,2.625 1.449,0 2.626,-1.177 2.626,-2.625 0,-0.725 -0.295,-1.381 -0.77,-1.856 l -0.021,-0.019 -4.898,0 z m 3.064,0.75 c 0.618,0 1.126,0.501 1.126,1.125 0,0.623 -0.508,1.125 -1.126,1.125 -0.619,0 -1.126,-0.502 -1.126,-1.125 0,-0.624 0.507,-1.125 1.126,-1.125 z"
           stroke-miterlimit="79.8403193612775"
           mask="url(#TranspMask)"
           id="path30"
           inkscape:connector-curvature="0"
           style="fill:#ffffff;stroke:none;stroke-width:0.5;stroke-linejoin:miter;stroke-miterlimit:79.84031677;marker-start:none;marker-end:none" />
      </g>
    </g>
  </g>
</svg>
