<?xml version="1.0" encoding="UTF-8" standalone="no"?>
<!--Generator: Xara Designer (www.xara.com), SVG filter version: 6.0.0.4-->

<svg
   xmlns:dc="http://purl.org/dc/elements/1.1/"
   xmlns:cc="http://creativecommons.org/ns#"
   xmlns:rdf="http://www.w3.org/1999/02/22-rdf-syntax-ns#"
   xmlns:svg="http://www.w3.org/2000/svg"
   xmlns="http://www.w3.org/2000/svg"
   xmlns:sodipodi="http://sodipodi.sourceforge.net/DTD/sodipodi-0.dtd"
   xmlns:inkscape="http://www.inkscape.org/namespaces/inkscape"
   version="1.1"
   overflow="visible"
   width="12.001pt"
   height="11.998999pt"
   viewBox="0 0 12.001001 11.998999"
   id="svg2"
   inkscape:version="0.91 r13725"
   sodipodi:docname="lock-security-broken.svg"
   style="overflow:visible;fill-rule:evenodd;stroke-width:0.50099999;stroke-linejoin:bevel">
  <metadata
     id="metadata103">
    <rdf:RDF>
      <cc:Work
         rdf:about="">
        <dc:format>image/svg+xml</dc:format>
        <dc:type
           rdf:resource="http://purl.org/dc/dcmitype/StillImage" />
        <dc:title></dc:title>
      </cc:Work>
    </rdf:RDF>
  </metadata>
  <sodipodi:namedview
     pagecolor="#ffffff"
     bordercolor="#666666"
     borderopacity="1"
     objecttolerance="10"
     gridtolerance="10"
     guidetolerance="10"
     inkscape:pageopacity="0"
     inkscape:pageshadow="2"
     inkscape:window-width="640"
     inkscape:window-height="480"
     id="namedview101"
     showgrid="false"
     fit-margin-top="0"
     fit-margin-left="0"
     fit-margin-right="0"
     fit-margin-bottom="0"
     inkscape:zoom="3.588113"
     inkscape:cx="0.41209863"
     inkscape:cy="5.7527172"
     inkscape:window-x="0"
     inkscape:window-y="0"
     inkscape:window-maximized="0"
     inkscape:current-layer="svg2" />
  <defs
     id="defs4">
    <linearGradient
       id="LinearGradient"
       gradientUnits="userSpaceOnUse"
       x1="0"
       y1="0"
       x2="0"
       y2="-6"
       gradientTransform="translate(471.821,618.069)">
      <stop
         offset="0"
         stop-color="#ffffff"
         id="stop7" />
      <stop
         offset="1"
         stop-color="#babdb6"
         id="stop9" />
    </linearGradient>
    <linearGradient
       id="LinearGradient_1"
       gradientUnits="userSpaceOnUse"
       x1="0"
       y1="0"
       x2="0"
       y2="-4.5"
       gradientTransform="translate(477.821,621.819)">
      <stop
         offset="0"
         stop-color="#ffffff"
         id="stop12" />
      <stop
         offset="0.500999987125397"
         stop-color="#babdb6"
         id="stop14" />
      <stop
         offset="1"
         stop-color="#ffffff"
         id="stop16" />
    </linearGradient>
    <linearGradient
       id="LinearGradient_2"
       gradientUnits="userSpaceOnUse"
       x1="0"
       y1="0"
       x2="0.105"
       y2="-2.25"
       gradientTransform="translate(472.571,617.319)">
      <stop
         offset="0"
         stop-color="#ffffff"
         id="stop19" />
      <stop
         offset="1"
         stop-color="#edd400"
         id="stop21" />
    </linearGradient>
    <linearGradient
       id="LinearGradient_3"
       gradientUnits="userSpaceOnUse"
       x1="0"
       y1="0"
       x2="0"
       y2="-2.25"
       gradientTransform="translate(470.321,617.319)">
      <stop
         offset="0"
         stop-color="#ffffff"
         id="stop24" />
      <stop
         offset="1"
         stop-color="#2e3436"
         id="stop26" />
    </linearGradient>
    <linearGradient
       id="LinearGradient_4"
       gradientUnits="userSpaceOnUse"
       x1="0"
       y1="0"
       x2="0"
       y2="-2.25"
       gradientTransform="translate(470.321,617.319)">
      <stop
         offset="0"
         stop-color="#ffffff"
         id="stop29" />
      <stop
         offset="1"
         stop-color="#2e3436"
         id="stop31" />
    </linearGradient>
    <linearGradient
       id="LinearGradient_5"
       gradientUnits="userSpaceOnUse"
       x1="0"
       y1="0"
       x2="0"
       y2="-2.25"
       gradientTransform="translate(470.321,617.319)">
      <stop
         offset="0"
         stop-color="#ffffff"
         id="stop34" />
      <stop
         offset="1"
         stop-color="#2e3436"
         id="stop36" />
    </linearGradient>
    <linearGradient
       id="LinearGradient_6"
       gradientUnits="userSpaceOnUse"
       x1="0"
       y1="0"
       x2="0"
       y2="2.25"
       gradientTransform="translate(480.071,619.569)">
      <stop
         offset="0"
         stop-color="#333333"
         id="stop39" />
      <stop
         offset="1"
         stop-color="#ffffff"
         id="stop41" />
    </linearGradient>
    <linearGradient
       id="LinearGradient_7"
       gradientUnits="userSpaceOnUse"
       x1="0"
       y1="0"
       x2="-0.001"
       y2="-12"
       gradientTransform="translate(479.321,623.319)">
      <stop
         offset="0"
         stop-color="#ffffff"
         id="stop44" />
      <stop
         offset="0.500999987125397"
         stop-color="#cc0000"
         id="stop46" />
      <stop
         offset="1"
         stop-color="#ffffff"
         id="stop48" />
    </linearGradient>
    <linearGradient
       id="LinearGradient_8"
       gradientUnits="userSpaceOnUse"
       x1="0"
       y1="0"
       x2="0"
       y2="6"
       gradientTransform="translate(479.321,617.319)">
      <stop
         offset="0"
         stop-color="#333333"
         id="stop51" />
      <stop
         offset="1"
         stop-color="#ffffff"
         id="stop53" />
    </linearGradient>
  </defs>
  <g
     id="Document"
     font-size="16"
     transform="matrix(1,0,0,-1,-467.319,-218.57305)"
     style="font-size:16px;font-family:'Times New Roman';fill:none;stroke:#000000">
    <g
       id="Spread"
       transform="translate(0,-841.891)">
      <g
         id="opaque">
        <path
           d="m 479.32,623.318 0,-11.999 -12.001,0 0,11.999 12.001,0 z"
           stroke-miterlimit="79.8403193612775"
           id="path58"
           inkscape:connector-curvature="0"
           style="stroke:none;stroke-width:0.5;stroke-linejoin:miter;stroke-miterlimit:79.84031677;marker-start:none;marker-end:none" />
      </g>
      <g
         id="Layer 1">
        <path
           d="m 468.821,618.069 c -0.353,0 -0.75,-0.397 -0.75,-0.75 l 0,-4.5 c 0,-0.353 0.397,-0.75 0.75,-0.75 l 9,0 c 0.353,0 0.75,0.397 0.75,0.75 l 0,4.5 c 0,0.353 -0.397,0.75 -0.75,0.75 l -9,0 z"
           stroke-miterlimit="79.8403193612775"
           id="path61"
           inkscape:connector-curvature="0"
           style="fill:#888a85;stroke:none;stroke-width:0.5;stroke-linejoin:round;stroke-miterlimit:79.84031677;marker-start:none;marker-end:none" />
        <path
           d="m 468.876,612.819 -0.055,0.055 0,4.389 0.056,0.056 8.887,0 0.057,-0.057 0,-4.387 -0.056,-0.056 -8.889,0 z"
           stroke-miterlimit="79.8403193612775"
           id="path63"
           inkscape:connector-curvature="0"
           style="fill:url(#LinearGradient);stroke:none;stroke-width:0.75;stroke-linejoin:round;stroke-miterlimit:79.84031677;marker-start:none;marker-end:none" />
        <path
           d="m 469.571,618.819 c 0,2.25 1.5,3.75 3.75,3.75 2.25,0 3.75,-1.5 3.75,-3.75 l 0,-0.75 -2.25,0 0,0.75 c 0,0.75 -0.75,1.5 -1.5,1.5 -0.75,0 -1.5,-0.75 -1.5,-1.5 l 0,-0.75 -2.25,0 0,0.75 z"
           stroke-miterlimit="79.8403193612775"
           id="path65"
           inkscape:connector-curvature="0"
           style="fill:#888a85;stroke:none;stroke-width:0.5;stroke-linejoin:round;stroke-miterlimit:79.84031677;marker-start:none;marker-end:none" />
        <path
           d="m 470.321,618.819 c 0,1.834 1.164,3 3,3 1.834,0 3,-1.165 3,-3 l 0,-0.75 -0.75,0 0,0.75 c 0,1.164 -1.086,2.25 -2.25,2.25 -1.165,0 -2.25,-1.086 -2.25,-2.25 l 0,-0.75 -0.75,0 0,0.75 z"
           stroke-miterlimit="79.8403193612775"
           id="path67"
           inkscape:connector-curvature="0"
           style="fill:url(#LinearGradient_1);stroke:none;stroke-width:0.75;stroke-linejoin:round;stroke-miterlimit:79.84031677;marker-start:none;marker-end:none" />
        <path
           d="m 468.82,616.568 0,-1.499 9.001,0 0,1.499 -9.001,0 z"
           stroke-miterlimit="79.8403193612775"
           id="path69"
           inkscape:connector-curvature="0"
           style="fill:url(#LinearGradient_2);stroke:none;stroke-width:0.5;stroke-linejoin:miter;stroke-miterlimit:79.84031677;marker-start:none;marker-end:none" />
        <path
           d="m 468.82,614.319 0,0.75 9.001,0 0,-0.75 -9.001,0 z"
           stroke-miterlimit="79.8403193612775"
           id="path71"
           inkscape:connector-curvature="0"
           style="fill:#c4a000;stroke:none;stroke-width:0.5;stroke-linejoin:miter;stroke-miterlimit:79.84031677;marker-start:none;marker-end:none" />
        <path
           d="m 468.821,616.569 1.5,-1.5 1.5,0 -1.5,1.5 -1.5,0 z"
           stroke-miterlimit="79.8403193612775"
           id="path73"
           inkscape:connector-curvature="0"
           style="fill:url(#LinearGradient_3);stroke:none;stroke-width:0.5;stroke-miterlimit:79.84031677;marker-start:none;marker-end:none" />
        <path
           d="m 471.821,616.569 1.5,-1.5 1.5,0 -1.5,1.5 -1.5,0 z"
           stroke-miterlimit="79.8403193612775"
           id="path75"
           inkscape:connector-curvature="0"
           style="fill:url(#LinearGradient_4);stroke:none;stroke-width:0.5;stroke-miterlimit:79.84031677;marker-start:none;marker-end:none" />
        <path
           d="m 474.821,616.569 1.5,-1.5 1.5,0 -1.5,1.5 -1.5,0 z"
           stroke-miterlimit="79.8403193612775"
           id="path77"
           inkscape:connector-curvature="0"
           style="fill:url(#LinearGradient_5);stroke:none;stroke-width:0.5;stroke-miterlimit:79.84031677;marker-start:none;marker-end:none" />
        <path
           d="m 471.071,614.319 -0.75,0.75 1.5,0 0.75,-0.75 -1.5,0 z"
           stroke-miterlimit="79.8403193612775"
           id="path79"
           inkscape:connector-curvature="0"
           style="fill:#000000;stroke:none;stroke-width:0.5;stroke-miterlimit:79.84031677;marker-start:none;marker-end:none" />
        <path
           d="m 474.071,614.319 -0.75,0.75 1.5,0 0.75,-0.75 -1.5,0 z"
           stroke-miterlimit="79.8403193612775"
           id="path81"
           inkscape:connector-curvature="0"
           style="fill:#000000;stroke:none;stroke-width:0.5;stroke-miterlimit:79.84031677;marker-start:none;marker-end:none" />
        <path
           d="m 477.071,614.319 -0.75,0.75 1.5,0 0,-0.75 -0.75,0 z"
           stroke-miterlimit="79.8403193612775"
           id="path83"
           inkscape:connector-curvature="0"
           style="fill:#000000;stroke:none;stroke-width:0.5;stroke-miterlimit:79.84031677;marker-start:none;marker-end:none" />
        <path
           d="m 468.821,614.319 0,0.75 0.75,-0.75 -0.75,0 z"
           stroke-miterlimit="79.8403193612775"
           id="path85"
           inkscape:connector-curvature="0"
           style="fill:#000000;stroke:none;stroke-width:0.5;stroke-miterlimit:79.84031677;marker-start:none;marker-end:none" />
        <mask
           id="TranspMask">
          <rect
             x="-59.527702"
             y="-84.189102"
             width="714.33246"
             height="1010.2692"
             id="rect88"
             style="fill:url(#LinearGradient_6);stroke:none" />
        </mask>
        <path
           d="m 470.392,619.569 0.012,0.058 c 0.286,1.311 1.289,2.129 2.746,2.188 l 0.12,0.003 0.101,0 0.119,-0.003 c 1.456,-0.059 2.461,-0.876 2.747,-2.187 l 0.012,-0.059 -0.83,0 -0.036,0.092 c -0.36,0.797 -1.189,1.408 -2.062,1.408 -0.874,0 -1.703,-0.611 -2.063,-1.408 l -0.036,-0.092 -0.83,0 z"
           stroke-miterlimit="79.8403193612775"
           mask="url(#TranspMask)"
           id="path90"
           inkscape:connector-curvature="0"
           style="fill:#ffffff;stroke:none;stroke-width:0.5;stroke-linejoin:miter;stroke-miterlimit:79.84031677;marker-start:none;marker-end:none" />
        <path
           d="m 477.071,622.569 c 0.353,0.353 1.147,0.353 1.5,0 0.353,-0.353 0.353,-1.147 0,-1.5 l -9,-9 c -0.353,-0.353 -1.147,-0.353 -1.5,0 -0.353,0.353 -0.353,1.147 0,1.5 l 9,9 z"
           stroke-miterlimit="79.8403193612775"
           id="path92"
           inkscape:connector-curvature="0"
           style="fill:#a40000;stroke:none;stroke-width:0.5;stroke-linejoin:round;stroke-miterlimit:79.84031677;marker-start:none;marker-end:none" />
        <path
           d="m 468.821,612.554 c -0.068,0 -0.121,0.009 -0.159,0.02 l -0.058,0.025 -0.049,0.219 0.056,0.221 8.984,8.982 0.225,0.062 0.217,-0.048 0.048,-0.217 -0.056,-0.221 -8.981,-8.981 -0.069,-0.041 c -0.037,-0.011 -0.09,-0.021 -0.158,-0.021 z"
           stroke-miterlimit="79.8403193612775"
           id="path94"
           inkscape:connector-curvature="0"
           style="fill:url(#LinearGradient_7);stroke:none;stroke-width:0.75;stroke-linejoin:round;stroke-miterlimit:79.84031677;marker-start:none;marker-end:none" />
        <mask
           id="TranspMask_1">
          <rect
             x="-59.527702"
             y="-84.189102"
             width="714.33246"
             height="1010.2692"
             id="rect97"
             style="fill:url(#LinearGradient_8);stroke:none" />
        </mask>
        <path
           d="m 472.891,617.319 4.704,4.702 0.225,0.062 0.217,-0.048 0.048,-0.217 -0.056,-0.221 -4.278,-4.278 -0.86,0 z"
           stroke-miterlimit="79.8403193612775"
           mask="url(#TranspMask_1)"
           id="path99"
           inkscape:connector-curvature="0"
           style="fill:#ffffff;stroke:none;stroke-width:0.5;stroke-linejoin:miter;stroke-miterlimit:79.84031677;marker-start:none;marker-end:none" />
      </g>
    </g>
  </g>
</svg>
