<?xml version="1.0" encoding="UTF-8" standalone="no"?>
<!--Generator: Xara Designer (www.xara.com), SVG filter version: 6.0.0.4-->

<svg
   xmlns:dc="http://purl.org/dc/elements/1.1/"
   xmlns:cc="http://creativecommons.org/ns#"
   xmlns:rdf="http://www.w3.org/1999/02/22-rdf-syntax-ns#"
   xmlns:svg="http://www.w3.org/2000/svg"
   xmlns="http://www.w3.org/2000/svg"
   xmlns:sodipodi="http://sodipodi.sourceforge.net/DTD/sodipodi-0.dtd"
   xmlns:inkscape="http://www.inkscape.org/namespaces/inkscape"
   version="1.1"
   overflow="visible"
   width="12.003pt"
   height="11.999999pt"
   viewBox="0 0 12.003001 11.999999"
   id="svg2"
   inkscape:version="0.91 r13725"
   sodipodi:docname="magic-wand.svg"
   style="overflow:visible;fill-rule:evenodd;stroke-width:0.50099999;stroke-linejoin:bevel">
  <metadata
     id="metadata52">
    <rdf:RDF>
      <cc:Work
         rdf:about="">
        <dc:format>image/svg+xml</dc:format>
        <dc:type
           rdf:resource="http://purl.org/dc/dcmitype/StillImage" />
        <dc:title></dc:title>
      </cc:Work>
    </rdf:RDF>
  </metadata>
  <sodipodi:namedview
     pagecolor="#ffffff"
     bordercolor="#666666"
     borderopacity="1"
     objecttolerance="10"
     gridtolerance="10"
     guidetolerance="10"
     inkscape:pageopacity="0"
     inkscape:pageshadow="2"
     inkscape:window-width="640"
     inkscape:window-height="480"
     id="namedview50"
     showgrid="false"
     fit-margin-top="0"
     fit-margin-left="0"
     fit-margin-right="0"
     fit-margin-bottom="0"
     inkscape:zoom="3.588113"
     inkscape:cx="-4.8291334"
     inkscape:cy="11.925094"
     inkscape:window-x="0"
     inkscape:window-y="0"
     inkscape:window-maximized="0"
     inkscape:current-layer="svg2" />
  <defs
     id="defs4">
    <linearGradient
       id="LinearGradient"
       gradientUnits="userSpaceOnUse"
       x1="0"
       y1="0"
       x2="0"
       y2="12"
       gradientTransform="translate(479.321,611.319)">
      <stop
         offset="0"
         stop-color="#333333"
         id="stop7" />
      <stop
         offset="1"
         stop-color="#ffffff"
         id="stop9" />
    </linearGradient>
    <linearGradient
       id="LinearGradient_1"
       gradientUnits="userSpaceOnUse"
       x1="0"
       y1="0"
       x2="0"
       y2="12"
       gradientTransform="translate(479.321,611.319)">
      <stop
         offset="0"
         stop-color="#333333"
         id="stop12" />
      <stop
         offset="1"
         stop-color="#ffffff"
         id="stop14" />
    </linearGradient>
  </defs>
  <g
     id="Document"
     font-size="16"
     transform="matrix(1,0,0,-1,-467.319,-218.57205)"
     style="font-size:16px;font-family:'Times New Roman';fill:none;stroke:#000000">
    <g
       id="Spread"
       transform="translate(0,-841.891)">
      <g
         id="opaque">
        <path
           d="m 479.32,623.318 0,-11.999 -12.001,0 0,11.999 12.001,0 z"
           stroke-miterlimit="79.8403193612775"
           id="path19"
           inkscape:connector-curvature="0"
           style="stroke:none;stroke-width:0.5;stroke-linejoin:miter;stroke-miterlimit:79.84031677;marker-start:none;marker-end:none" />
      </g>
      <g
         id="Layer 1">
        <path
           d="m 479.322,623.318 0,-11.999 -12.001,0 0,11.999 12.001,0 z"
           stroke-miterlimit="79.8403193612775"
           id="path22"
           inkscape:connector-curvature="0"
           style="stroke:none;stroke-width:0.5;stroke-linejoin:miter;stroke-miterlimit:79.84031677;marker-start:none;marker-end:none" />
        <path
           d="m 470.323,612.069 c -0.177,-0.177 -0.521,-0.095 -0.752,0 -0.653,0.27 -1.231,0.847 -1.5,1.5 -0.095,0.231 -0.174,0.574 0.002,0.75 l 8.25,8.25 c 0.176,0.176 0.52,0.095 0.75,0 0.653,-0.27 1.23,-0.847 1.5,-1.5 0.095,-0.23 0.176,-0.574 0,-0.75 l -8.25,-8.25 z"
           stroke-miterlimit="79.8403193612775"
           id="path24"
           inkscape:connector-curvature="0"
           style="fill:#babdb6;stroke:none;stroke-width:0.5;stroke-linejoin:round;stroke-miterlimit:79.84031677;marker-start:none;marker-end:none" />
        <path
           d="m 469.932,612.739 -0.074,0.022 c -0.47,0.195 -0.901,0.626 -1.094,1.093 l -0.021,0.074 7.968,7.968 0.075,-0.021 c 0.469,-0.193 0.9,-0.624 1.093,-1.093 l 0.021,-0.075 -7.968,-7.968 z"
           stroke-miterlimit="79.8403193612775"
           id="path26"
           inkscape:connector-curvature="0"
           style="fill:#eeeeec;stroke:none;stroke-width:0.5;stroke-linejoin:round;stroke-miterlimit:79.84031677;marker-start:none;marker-end:none" />
        <mask
           id="TranspMask">
          <rect
             x="-59.527702"
             y="-84.189102"
             width="714.33246"
             height="1010.2692"
             id="rect29"
             style="fill:url(#LinearGradient);stroke:none" />
        </mask>
        <path
           d="m 469.715,613.713 -0.202,0.184 c -0.141,0.117 -0.292,0.221 -0.45,0.306 l -0.03,0.015 7.678,7.678 0.075,-0.021 c 0.117,-0.049 0.232,-0.112 0.341,-0.187 l 0.307,-0.256 -7.719,-7.719 z"
           stroke-miterlimit="79.8403193612775"
           mask="url(#TranspMask)"
           id="path31"
           inkscape:connector-curvature="0"
           style="fill:#ffffff;stroke:none;stroke-width:0.5;stroke-linejoin:miter;stroke-miterlimit:79.84031677;marker-start:none;marker-end:none" />
        <path
           d="m 471.823,613.569 c 0.176,0.176 0.095,0.52 0,0.75 -0.27,0.653 -0.847,1.23 -1.5,1.5 -0.23,0.095 -0.574,0.176 -0.75,0 l 4.5,4.5 c 0.176,0.176 0.52,0.095 0.75,0 0.653,-0.27 1.23,-0.847 1.5,-1.5 0.095,-0.23 0.176,-0.574 0,-0.75 l -4.5,-4.5 z"
           stroke-miterlimit="79.8403193612775"
           id="path33"
           inkscape:connector-curvature="0"
           style="fill:#2e3436;stroke:none;stroke-width:0.5;stroke-linejoin:round;stroke-miterlimit:79.84031677;marker-start:none;marker-end:none" />
        <path
           d="m 472.263,615.07 -0.074,0.137 c -0.259,0.382 -0.596,0.719 -0.978,0.978 l -0.137,0.074 3.39,3.39 0.072,-0.024 c 0.469,-0.193 0.9,-0.624 1.093,-1.093 l 0.024,-0.072 -3.39,-3.39 z"
           stroke-miterlimit="79.8403193612775"
           id="path35"
           inkscape:connector-curvature="0"
           style="fill:#555753;stroke:none;stroke-width:0.5;stroke-miterlimit:79.84031677;marker-start:none;marker-end:none" />
        <mask
           id="TranspMask_1">
          <rect
             x="-59.527702"
             y="-84.189102"
             width="714.33246"
             height="1010.2692"
             id="rect38"
             style="fill:url(#LinearGradient_1);stroke:none" />
        </mask>
        <path
           d="m 471.745,615.743 -0.534,0.442 -0.137,0.074 3.39,3.39 0.072,-0.024 c 0.117,-0.049 0.232,-0.112 0.341,-0.187 l 0.307,-0.256 -3.439,-3.439 z"
           stroke-miterlimit="79.8403193612775"
           mask="url(#TranspMask_1)"
           id="path40"
           inkscape:connector-curvature="0"
           style="fill:#ffffff;stroke:none;stroke-width:0.5;stroke-linejoin:miter;stroke-miterlimit:79.84031677;marker-start:none;marker-end:none" />
        <path
           d="m 473.698,623.319 c 0,-1.927 -1.446,-3.373 -3.375,-3.375 1.929,0.002 3.375,-1.445 3.375,-3.375 0,1.93 1.447,3.377 3.373,3.375 -1.926,0.002 -3.373,1.448 -3.373,3.375 z"
           stroke-miterlimit="79.8403193612775"
           id="path42"
           inkscape:connector-curvature="0"
           style="fill:#ffbe0c;stroke:none;stroke-width:0.5;stroke-linejoin:round;stroke-miterlimit:79.84031677;marker-start:none;marker-end:none" />
        <path
           d="m 473.697,618.98 -0.433,0.53 -0.531,0.434 0.53,0.435 0.434,0.529 0.434,-0.529 0.53,-0.435 -0.53,-0.434 -0.434,-0.53 z"
           stroke-miterlimit="79.8403193612775"
           id="path44"
           inkscape:connector-curvature="0"
           style="fill:#ffffff;stroke:none;stroke-width:0.5;stroke-linejoin:round;stroke-miterlimit:79.84031677;marker-start:none;marker-end:none" />
        <path
           d="m 469.196,620.319 c 0,-1.071 -0.803,-1.874 -1.875,-1.875 1.072,0.001 1.875,-0.803 1.875,-1.876 0,1.073 0.805,1.877 1.875,1.876 -1.07,0.001 -1.875,0.804 -1.875,1.875 z"
           stroke-miterlimit="79.8403193612775"
           id="path46"
           inkscape:connector-curvature="0"
           style="fill:#ffbe0c;stroke:none;stroke-width:0.5;stroke-linejoin:round;stroke-miterlimit:79.84031677;marker-start:none;marker-end:none" />
        <path
           d="m 470.696,623.319 c 0,-0.643 -0.482,-1.125 -1.125,-1.125 0.643,0 1.125,-0.482 1.125,-1.126 0,0.644 0.483,1.126 1.125,1.126 -0.642,0 -1.125,0.482 -1.125,1.125 z"
           stroke-miterlimit="79.8403193612775"
           id="path48"
           inkscape:connector-curvature="0"
           style="fill:#ffbe0c;stroke:none;stroke-width:0.5;stroke-linejoin:round;stroke-miterlimit:79.84031677;marker-start:none;marker-end:none" />
      </g>
    </g>
  </g>
</svg>
