<?xml version="1.0" encoding="UTF-8" standalone="no"?>
<!--Generator: Xara Designer (www.xara.com), SVG filter version: 6.0.0.4-->

<svg
   xmlns:dc="http://purl.org/dc/elements/1.1/"
   xmlns:cc="http://creativecommons.org/ns#"
   xmlns:rdf="http://www.w3.org/1999/02/22-rdf-syntax-ns#"
   xmlns:svg="http://www.w3.org/2000/svg"
   xmlns="http://www.w3.org/2000/svg"
   xmlns:sodipodi="http://sodipodi.sourceforge.net/DTD/sodipodi-0.dtd"
   xmlns:inkscape="http://www.inkscape.org/namespaces/inkscape"
   version="1.1"
   overflow="visible"
   width="12.001pt"
   height="11.998999pt"
   viewBox="0 0 12.001001 11.998999"
   id="svg2"
   inkscape:version="0.91 r13725"
   sodipodi:docname="magnifying-glass-zoom-in.svg"
   style="overflow:visible;fill-rule:evenodd;stroke-width:0.50099999;stroke-linejoin:bevel">
  <metadata
     id="metadata49">
    <rdf:RDF>
      <cc:Work
         rdf:about="">
        <dc:format>image/svg+xml</dc:format>
        <dc:type
           rdf:resource="http://purl.org/dc/dcmitype/StillImage" />
        <dc:title></dc:title>
      </cc:Work>
    </rdf:RDF>
  </metadata>
  <sodipodi:namedview
     pagecolor="#ffffff"
     bordercolor="#666666"
     borderopacity="1"
     objecttolerance="10"
     gridtolerance="10"
     guidetolerance="10"
     inkscape:pageopacity="0"
     inkscape:pageshadow="2"
     inkscape:window-width="640"
     inkscape:window-height="480"
     id="namedview47"
     showgrid="false"
     fit-margin-top="0"
     fit-margin-left="0"
     fit-margin-right="0"
     fit-margin-bottom="0"
     inkscape:zoom="3.588113"
     inkscape:cx="-4.4828119"
     inkscape:cy="6.2685097"
     inkscape:window-x="0"
     inkscape:window-y="0"
     inkscape:window-maximized="0"
     inkscape:current-layer="svg2" />
  <defs
     id="defs4">
    <linearGradient
       id="LinearGradient"
       gradientUnits="userSpaceOnUse"
       x1="0"
       y1="0"
       x2="1.5"
       y2="1.5"
       gradientTransform="translate(469.571,613.569)">
      <stop
         offset="0"
         stop-color="#555753"
         id="stop7" />
      <stop
         offset="1"
         stop-color="#d0d5d6"
         id="stop9" />
    </linearGradient>
    <linearGradient
       id="LinearGradient_1"
       gradientUnits="userSpaceOnUse"
       x1="0"
       y1="0"
       x2="0"
       y2="-6.75"
       gradientTransform="translate(478.569,621.816)">
      <stop
         offset="0"
         stop-color="#ffffff"
         id="stop12" />
      <stop
         offset="0.500999987125397"
         stop-color="#babdb6"
         id="stop14" />
      <stop
         offset="1"
         stop-color="#ffffff"
         id="stop16" />
    </linearGradient>
    <linearGradient
       id="LinearGradient_2"
       gradientUnits="userSpaceOnUse"
       x1="0"
       y1="0"
       x2="0"
       y2="3"
       gradientTransform="translate(478.571,618.069)">
      <stop
         offset="0"
         stop-color="#333333"
         id="stop19" />
      <stop
         offset="1"
         stop-color="#ffffff"
         id="stop21" />
    </linearGradient>
  </defs>
  <g
     id="Document"
     font-size="16"
     transform="matrix(1,0,0,-1,-467.319,-218.57305)"
     style="font-size:16px;font-family:'Times New Roman';fill:none;stroke:#000000">
    <g
       id="Spread"
       transform="translate(0,-841.891)">
      <g
         id="Layer 1">
        <path
           d="m 479.32,623.318 0,-11.999 -12.001,0 0,11.999 12.001,0 z"
           stroke-miterlimit="79.8403193612775"
           id="path26"
           inkscape:connector-curvature="0"
           style="stroke:none;stroke-width:0.5;stroke-linejoin:miter;stroke-miterlimit:79.84031677;marker-start:none;marker-end:none" />
        <path
           d="m 468.071,613.569 1.5,-1.5 2.25,2.25 c 0.353,0.353 0.353,1.147 0,1.5 -0.353,0.353 -1.147,0.353 -1.5,0 l -2.25,-2.25 z"
           stroke-miterlimit="79.8403193612775"
           id="path28"
           inkscape:connector-curvature="0"
           style="fill:#2e3436;stroke:none;stroke-width:0.5;stroke-linejoin:round;stroke-miterlimit:79.84031677;marker-start:none;marker-end:none" />
        <path
           d="m 469.571,613.129 -0.44,0.44 1.715,1.715 c 0.06,0.046 0.235,0.059 0.354,0.035 l 0.088,-0.033 0.033,-0.086 c 0.023,-0.118 0.013,-0.294 -0.035,-0.355 l -1.715,-1.716 z"
           stroke-miterlimit="79.8403193612775"
           id="path30"
           inkscape:connector-curvature="0"
           style="fill:url(#LinearGradient);stroke:none;stroke-width:0.5;stroke-linejoin:round;stroke-miterlimit:79.84031677;marker-start:none;marker-end:none" />
        <path
           d="m 474.444,622.568 c 2.276,0 4.125,-1.849 4.125,-4.126 0,-2.277 -1.849,-4.126 -4.125,-4.126 -2.276,0 -4.125,1.849 -4.125,4.126 0,2.277 1.849,4.126 4.125,4.126 z"
           stroke-miterlimit="79.8403193612775"
           id="path32"
           inkscape:connector-curvature="0"
           style="fill:#888a85;stroke:none;stroke-width:0.5;stroke-miterlimit:79.84031677;marker-start:none;marker-end:none" />
        <path
           d="m 474.445,621.818 c 1.862,0 3.375,-1.512 3.375,-3.375 0,-1.863 -1.513,-3.375 -3.375,-3.375 -1.862,0 -3.375,1.512 -3.375,3.375 0,1.863 1.513,3.375 3.375,3.375 z"
           stroke-miterlimit="79.8403193612775"
           id="path34"
           inkscape:connector-curvature="0"
           style="fill:#fdfdfd;stroke:none;stroke-width:0.5;stroke-miterlimit:79.84031677;marker-start:none;marker-end:none" />
        <path
           d="m 474.444,621.067 c 1.449,0 2.625,-1.176 2.625,-2.625 0,-1.449 -1.176,-2.625 -2.625,-2.625 -1.449,0 -2.625,1.176 -2.625,2.625 0,1.449 1.176,2.625 2.625,2.625 z"
           stroke-miterlimit="79.8403193612775"
           id="path36"
           inkscape:connector-curvature="0"
           style="fill:url(#LinearGradient_1);stroke:none;stroke-width:0.75;stroke-linejoin:round;stroke-miterlimit:79.84031677;marker-start:none;marker-end:none" />
        <mask
           id="TranspMask">
          <rect
             x="-59.527702"
             y="-84.189102"
             width="714.33246"
             height="1010.2692"
             id="rect39"
             style="fill:url(#LinearGradient_2);stroke:none" />
        </mask>
        <path
           d="m 471.848,618.07 -0.016,0.103 c -0.009,0.088 -0.013,0.178 -0.013,0.269 0,1.448 1.176,2.624 2.625,2.624 1.448,0 2.624,-1.176 2.624,-2.624 0,-0.091 -0.005,-0.181 -0.014,-0.269 l -0.016,-0.103 -5.19,0 z"
           stroke-miterlimit="79.8403193612775"
           mask="url(#TranspMask)"
           id="path41"
           inkscape:connector-curvature="0"
           style="fill:#ffffff;stroke:none;stroke-width:0.5;stroke-linejoin:miter;stroke-miterlimit:79.84031677;marker-start:none;marker-end:none" />
        <path
           d="m 474.07,620.32 0,-3.75 0.75,0 0,3.75 -0.75,0 z"
           stroke-miterlimit="79.8403193612775"
           id="path43"
           inkscape:connector-curvature="0"
           style="fill:#2e3436;stroke:none;stroke-width:0.5;stroke-linejoin:miter;stroke-miterlimit:79.84031677;marker-start:none;marker-end:none" />
        <path
           d="m 472.576,618.819 0,-0.75 3.75,0 0,0.75 -3.75,0 z"
           stroke-miterlimit="79.8403193612775"
           id="path45"
           inkscape:connector-curvature="0"
           style="fill:#2e3436;stroke:none;stroke-width:0.5;stroke-linejoin:miter;stroke-miterlimit:79.84031677;marker-start:none;marker-end:none" />
      </g>
    </g>
  </g>
</svg>
