<?xml version="1.0" encoding="UTF-8" standalone="no"?>
<!--Generator: Xara Designer (www.xara.com), SVG filter version: 6.0.0.4-->

<svg
   xmlns:dc="http://purl.org/dc/elements/1.1/"
   xmlns:cc="http://creativecommons.org/ns#"
   xmlns:rdf="http://www.w3.org/1999/02/22-rdf-syntax-ns#"
   xmlns:svg="http://www.w3.org/2000/svg"
   xmlns="http://www.w3.org/2000/svg"
   xmlns:sodipodi="http://sodipodi.sourceforge.net/DTD/sodipodi-0.dtd"
   xmlns:inkscape="http://www.inkscape.org/namespaces/inkscape"
   version="1.1"
   overflow="visible"
   width="11.999pt"
   height="12.000998pt"
   viewBox="0 0 11.999 12.000999"
   id="svg2"
   inkscape:version="0.91 r13725"
   sodipodi:docname="palette.svg"
   style="overflow:visible;fill-rule:evenodd;stroke-width:0.50099999;stroke-linejoin:bevel">
  <metadata
     id="metadata48">
    <rdf:RDF>
      <cc:Work
         rdf:about="">
        <dc:format>image/svg+xml</dc:format>
        <dc:type
           rdf:resource="http://purl.org/dc/dcmitype/StillImage" />
        <dc:title></dc:title>
      </cc:Work>
    </rdf:RDF>
  </metadata>
  <sodipodi:namedview
     pagecolor="#ffffff"
     bordercolor="#666666"
     borderopacity="1"
     objecttolerance="10"
     gridtolerance="10"
     guidetolerance="10"
     inkscape:pageopacity="0"
     inkscape:pageshadow="2"
     inkscape:window-width="640"
     inkscape:window-height="480"
     id="namedview46"
     showgrid="false"
     fit-margin-top="0"
     fit-margin-left="0"
     fit-margin-right="0"
     fit-margin-bottom="0"
     inkscape:zoom="3.588113"
     inkscape:cx="2.3281777"
     inkscape:cy="6.1530692"
     inkscape:window-x="0"
     inkscape:window-y="0"
     inkscape:window-maximized="0"
     inkscape:current-layer="svg2" />
  <defs
     id="defs4">
    <linearGradient
       id="LinearGradient"
       gradientUnits="userSpaceOnUse"
       x1="0"
       y1="0"
       x2="0"
       y2="8.25"
       gradientTransform="translate(479.318,613.569)">
      <stop
         offset="0"
         stop-color="#ffffff"
         id="stop7" />
      <stop
         offset="0.500999987125397"
         stop-color="#d3d7cf"
         id="stop9" />
      <stop
         offset="1"
         stop-color="#ffffff"
         id="stop11" />
    </linearGradient>
    <linearGradient
       id="LinearGradient_1"
       gradientUnits="userSpaceOnUse"
       x1="0"
       y1="0"
       x2="0.0060000001"
       y2="4.4990001"
       gradientTransform="translate(479.318,617.319)">
      <stop
         offset="0"
         stop-color="#333333"
         id="stop14" />
      <stop
         offset="1"
         stop-color="#ffffff"
         id="stop16" />
    </linearGradient>
  </defs>
  <g
     id="Document"
     font-size="16"
     transform="matrix(1,0,0,-1,-467.319,-218.57105)"
     style="font-size:16px;font-family:'Times New Roman';fill:none;stroke:#000000">
    <g
       id="Spread"
       transform="translate(0,-841.891)">
      <g
         id="Layer 1">
        <path
           d="m 467.319,623.32 11.999,0 0,-12.001 -11.999,0 0,12.001 z"
           stroke-miterlimit="79.8403193612775"
           id="path21"
           inkscape:connector-curvature="0"
           style="stroke:none;stroke-width:0.5;stroke-linejoin:miter;stroke-miterlimit:79.84031677;marker-start:none;marker-end:none" />
        <path
           d="m 473.318,612.819 c -3,0 -2.25,1.5 -3,2.25 -0.991,0.991 -2.25,0 -2.25,2.25 0,3 3,5.25 6.75,5.25 2.25,0 3.75,-0.75 3.75,-3 0,-3.75 -2.25,-6.75 -5.25,-6.75 z"
           stroke-miterlimit="79.8403193612775"
           id="path23"
           inkscape:connector-curvature="0"
           style="fill:#888a85;stroke:none;stroke-width:0.5;stroke-linejoin:round;stroke-miterlimit:79.84031677;marker-start:none;marker-end:none" />
        <path
           d="m 473.318,613.569 c -1.387,0 -1.618,0.34 -1.701,0.479 -0.19,0.317 -0.249,1.03 -0.769,1.551 -0.652,0.651 -1.619,0.773 -1.774,0.828 -0.106,0.039 -0.12,0.061 -0.14,0.096 -0.042,0.075 -0.116,0.285 -0.116,0.796 0,2.414 2.469,4.5 6,4.5 1.545,0 3,-0.233 3,-2.25 0,-3.531 -2.086,-6 -4.5,-6 z"
           stroke-miterlimit="79.8403193612775"
           id="path25"
           inkscape:connector-curvature="0"
           style="fill:url(#LinearGradient);stroke:none;stroke-width:0.75;stroke-linejoin:round;stroke-miterlimit:79.84031677;marker-start:none;marker-end:none" />
        <mask
           id="TranspMask">
          <rect
             x="-59.527702"
             y="-84.189102"
             width="714.33246"
             height="1010.2692"
             id="rect28"
             style="fill:url(#LinearGradient_1);stroke:none" />
        </mask>
        <path
           d="m 468.818,617.324 0.028,0.443 c 0.284,2.218 2.661,4.052 5.972,4.052 1.545,0 3,-0.233 3,-2.25 0,-0.663 -0.074,-1.287 -0.209,-1.865 l -0.105,-0.38 -8.686,0 z"
           stroke-miterlimit="79.8403193612775"
           mask="url(#TranspMask)"
           id="path30"
           inkscape:connector-curvature="0"
           style="fill:#ffffff;stroke:none;stroke-width:0.5;stroke-linejoin:miter;stroke-miterlimit:79.84031677;marker-start:none;marker-end:none" />
        <path
           d="m 471.818,620.32 c 0.414,0 0.75,-0.336 0.75,-0.75 0,-0.414 -0.336,-0.75 -0.75,-0.75 -0.414,0 -0.75,0.336 -0.75,0.75 0,0.414 0.336,0.75 0.75,0.75 z"
           stroke-miterlimit="79.8403193612775"
           id="path32"
           inkscape:connector-curvature="0"
           style="fill:#fcaf3e;stroke:none;stroke-width:0.5;stroke-miterlimit:79.84031677;marker-start:none;marker-end:none" />
        <path
           d="m 474.069,621.069 c 0.414,0 0.75,-0.336 0.75,-0.75 0,-0.414 -0.336,-0.75 -0.75,-0.75 -0.414,0 -0.75,0.336 -0.75,0.75 0,0.414 0.336,0.75 0.75,0.75 z"
           stroke-miterlimit="79.8403193612775"
           id="path34"
           inkscape:connector-curvature="0"
           style="fill:#8ae234;stroke:none;stroke-width:0.5;stroke-miterlimit:79.84031677;marker-start:none;marker-end:none" />
        <path
           d="m 476.318,621.07 c 0.414,0 0.75,-0.336 0.75,-0.75 0,-0.414 -0.336,-0.75 -0.75,-0.75 -0.414,0 -0.75,0.336 -0.75,0.75 0,0.414 0.336,0.75 0.75,0.75 z"
           stroke-miterlimit="79.8403193612775"
           id="path36"
           inkscape:connector-curvature="0"
           style="fill:#729fcf;stroke:none;stroke-width:0.5;stroke-miterlimit:79.84031677;marker-start:none;marker-end:none" />
        <path
           d="m 476.318,618.82 c 0.413,0 0.749,-0.336 0.749,-0.75 0,-0.414 -0.336,-0.75 -0.749,-0.75 -0.413,0 -0.749,0.336 -0.749,0.75 0,0.414 0.336,0.75 0.749,0.75 z"
           stroke-miterlimit="79.8403193612775"
           id="path38"
           inkscape:connector-curvature="0"
           style="fill:#ad7fa8;stroke:none;stroke-width:0.5;stroke-miterlimit:79.84031677;marker-start:none;marker-end:none" />
        <path
           d="m 474.818,617.319 c 0.413,0 0.749,-0.336 0.749,-0.75 0,-0.414 -0.336,-0.75 -0.749,-0.75 -0.413,0 -0.749,0.336 -0.749,0.75 0,0.414 0.336,0.75 0.749,0.75 z"
           stroke-miterlimit="79.8403193612775"
           id="path40"
           inkscape:connector-curvature="0"
           style="fill:#ef5d5d;stroke:none;stroke-width:0.5;stroke-miterlimit:79.84031677;marker-start:none;marker-end:none" />
        <path
           d="m 472.944,616.569 c 0.62,0 1.125,-0.504 1.125,-1.125 0,-0.621 -0.505,-1.125 -1.125,-1.125 -0.62,0 -1.125,0.504 -1.125,1.125 0,0.621 0.505,1.125 1.125,1.125 z"
           stroke-miterlimit="79.8403193612775"
           id="path42"
           inkscape:connector-curvature="0"
           style="fill:#888a85;stroke:none;stroke-width:0.5;stroke-miterlimit:79.84031677;marker-start:none;marker-end:none" />
        <path
           d="m 472.944,615.819 c 0.207,0 0.375,-0.168 0.375,-0.375 0,-0.207 -0.168,-0.375 -0.375,-0.375 -0.207,0 -0.375,0.168 -0.375,0.375 0,0.207 0.168,0.375 0.375,0.375 z"
           stroke-miterlimit="79.8403193612775"
           id="path44"
           inkscape:connector-curvature="0"
           style="fill:#ffffff;stroke:none;stroke-width:0.5;stroke-miterlimit:79.84031677;marker-start:none;marker-end:none" />
      </g>
    </g>
  </g>
</svg>
