<?xml version="1.0" encoding="UTF-8" standalone="no"?>
<!--Generator: Xara Designer (www.xara.com), SVG filter version: 6.0.0.4-->

<svg
   xmlns:dc="http://purl.org/dc/elements/1.1/"
   xmlns:cc="http://creativecommons.org/ns#"
   xmlns:rdf="http://www.w3.org/1999/02/22-rdf-syntax-ns#"
   xmlns:svg="http://www.w3.org/2000/svg"
   xmlns="http://www.w3.org/2000/svg"
   xmlns:xlink="http://www.w3.org/1999/xlink"
   xmlns:sodipodi="http://sodipodi.sourceforge.net/DTD/sodipodi-0.dtd"
   xmlns:inkscape="http://www.inkscape.org/namespaces/inkscape"
   version="1.1"
   overflow="visible"
   width="12.001pt"
   height="11.998999pt"
   viewBox="0 0 12.001001 11.998999"
   id="svg2"
   inkscape:version="0.91 r13725"
   sodipodi:docname="pause.svg"
   style="overflow:visible;fill-rule:evenodd;stroke-width:0.50099999;stroke-linejoin:bevel">
  <metadata
     id="metadata40">
    <rdf:RDF>
      <cc:Work
         rdf:about="">
        <dc:format>image/svg+xml</dc:format>
        <dc:type
           rdf:resource="http://purl.org/dc/dcmitype/StillImage" />
        <dc:title></dc:title>
      </cc:Work>
    </rdf:RDF>
  </metadata>
  <sodipodi:namedview
     pagecolor="#ffffff"
     bordercolor="#666666"
     borderopacity="1"
     objecttolerance="10"
     gridtolerance="10"
     guidetolerance="10"
     inkscape:pageopacity="0"
     inkscape:pageshadow="2"
     inkscape:window-width="640"
     inkscape:window-height="480"
     id="namedview38"
     showgrid="false"
     fit-margin-top="0"
     fit-margin-left="0"
     fit-margin-right="0"
     fit-margin-bottom="0"
     inkscape:zoom="3.588113"
     inkscape:cx="0.94289172"
     inkscape:cy="4.9330313"
     inkscape:window-x="0"
     inkscape:window-y="0"
     inkscape:window-maximized="0"
     inkscape:current-layer="svg2" />
  <defs
     id="defs4">
    <linearGradient
       id="LinearGradient"
       gradientUnits="userSpaceOnUse"
       x1="0"
       y1="0"
       x2="0"
       y2="-12"
       gradientTransform="translate(479.321,623.319)">
      <stop
         offset="0"
         stop-color="#ffffff"
         id="stop7" />
      <stop
         offset="0.500999987125397"
         stop-color="#ff9800"
         id="stop9" />
      <stop
         offset="1"
         stop-color="#ffffff"
         id="stop11" />
    </linearGradient>
    <linearGradient
       id="LinearGradient_1"
       gradientUnits="userSpaceOnUse"
       x1="0"
       y1="0"
       x2="0"
       y2="6"
       gradientTransform="translate(479.321,617.319)">
      <stop
         offset="0"
         stop-color="#333333"
         id="stop14" />
      <stop
         offset="1"
         stop-color="#ffffff"
         id="stop16" />
    </linearGradient>
    <linearGradient
       inkscape:collect="always"
       xlink:href="#LinearGradient"
       id="linearGradient3368"
       gradientUnits="userSpaceOnUse"
       gradientTransform="translate(479.321,623.319)"
       x1="0"
       y1="0"
       x2="0"
       y2="-12" />
    <linearGradient
       inkscape:collect="always"
       xlink:href="#LinearGradient"
       id="linearGradient3370"
       gradientUnits="userSpaceOnUse"
       gradientTransform="translate(479.321,623.319)"
       x1="0"
       y1="0"
       x2="0"
       y2="-12" />
    <linearGradient
       inkscape:collect="always"
       xlink:href="#LinearGradient"
       id="linearGradient3372"
       gradientUnits="userSpaceOnUse"
       gradientTransform="translate(479.321,623.319)"
       x1="0"
       y1="0"
       x2="0"
       y2="-12" />
  </defs>
  <g
     id="Document"
     font-size="16"
     transform="matrix(1,0,0,-1,-467.319,-218.57305)"
     style="font-size:16px;font-family:'Times New Roman';fill:none;stroke:#000000">
    <g
       id="Spread"
       transform="translate(0,-841.891)">
      <g
         id="opaque">
        <path
           d="m 479.32,623.318 0,-11.999 -12.001,0 0,11.999 12.001,0 z"
           stroke-miterlimit="79.8403193612775"
           id="path21"
           inkscape:connector-curvature="0"
           style="stroke:none;stroke-width:0.5;stroke-linejoin:miter;stroke-miterlimit:79.84031677;marker-start:none;marker-end:none" />
      </g>
      <g
         id="Layer 1">
        <path
           d="m 469.571,621.819 c -0.353,0 -0.75,-0.397 -0.75,-0.75 l 0,-7.5 c 0,-0.353 0.397,-0.75 0.75,-0.75 l 2.25,0 c 0.353,0 0.75,0.397 0.75,0.75 l 0,7.5 c 0,0.353 -0.397,0.75 -0.75,0.75 l -2.25,0 z"
           stroke-miterlimit="79.8403193612775"
           id="path24"
           inkscape:connector-curvature="0"
           style="fill:#f57900;stroke:none;stroke-width:0.5;stroke-linejoin:round;stroke-miterlimit:79.84031677;marker-start:none;marker-end:none" />
        <path
           d="m 474.821,621.819 c -0.353,0 -0.75,-0.397 -0.75,-0.75 l 0,-7.5 c 0,-0.353 0.397,-0.75 0.75,-0.75 l 2.25,0 c 0.353,0 0.75,0.397 0.75,0.75 l 0,7.5 c 0,0.353 -0.397,0.75 -0.75,0.75 l -2.25,0 z"
           stroke-miterlimit="79.8403193612775"
           id="path26"
           inkscape:connector-curvature="0"
           style="fill:#f57900;stroke:none;stroke-width:0.5;stroke-linejoin:round;stroke-miterlimit:79.84031677;marker-start:none;marker-end:none" />
        <g
           id="Group"
           stroke-miterlimit="79.8403193612775"
           style="fill:url(#linearGradient3372);stroke:none;stroke-width:0.75;stroke-linejoin:round;stroke-miterlimit:79.84031677">
          <path
             d="m 469.607,613.569 -0.036,0.051 0.011,7.396 0.042,0.053 2.173,0 0.024,-0.055 0,-7.392 -0.038,-0.031 -2.169,-0.022 z"
             id="path29"
             inkscape:connector-curvature="0"
             style="fill:url(#linearGradient3368);marker-start:none;marker-end:none" />
          <path
             d="m 474.857,613.569 -0.036,0.051 0.011,7.396 0.042,0.053 2.173,0 0.024,-0.055 0,-7.392 -0.038,-0.031 -2.169,-0.022 z"
             id="path31"
             inkscape:connector-curvature="0"
             style="fill:url(#linearGradient3370);marker-start:none;marker-end:none" />
        </g>
        <mask
           id="TranspMask">
          <rect
             x="-59.527702"
             y="-84.189102"
             width="714.33246"
             height="1010.2692"
             id="rect34"
             style="fill:url(#LinearGradient_1);stroke:none" />
        </mask>
        <path
           d="m 469.576,617.319 0.006,3.697 0.042,0.053 2.173,0 0.024,-0.055 0,-3.695 -2.245,0 z m 5.25,0 0.006,3.697 0.042,0.053 2.173,0 0.024,-0.055 0,-3.695 -2.245,0 z"
           stroke-miterlimit="79.8403193612775"
           mask="url(#TranspMask)"
           id="path36"
           inkscape:connector-curvature="0"
           style="fill:#ffffff;stroke:none;stroke-width:0.5;stroke-linejoin:miter;stroke-miterlimit:79.84031677;marker-start:none;marker-end:none" />
      </g>
    </g>
  </g>
</svg>
