<?xml version="1.0" encoding="UTF-8" standalone="no"?>
<!--Generator: Xara Designer (www.xara.com), SVG filter version: 6.0.0.4-->

<svg
   xmlns:dc="http://purl.org/dc/elements/1.1/"
   xmlns:cc="http://creativecommons.org/ns#"
   xmlns:rdf="http://www.w3.org/1999/02/22-rdf-syntax-ns#"
   xmlns:svg="http://www.w3.org/2000/svg"
   xmlns="http://www.w3.org/2000/svg"
   xmlns:sodipodi="http://sodipodi.sourceforge.net/DTD/sodipodi-0.dtd"
   xmlns:inkscape="http://www.inkscape.org/namespaces/inkscape"
   version="1.1"
   overflow="visible"
   width="12.001pt"
   height="11.998999pt"
   viewBox="0 0 12.001001 11.998999"
   id="svg2"
   inkscape:version="0.91 r13725"
   sodipodi:docname="pencil-rename.svg"
   style="overflow:visible;fill-rule:evenodd;stroke-width:0.50099999;stroke-linejoin:bevel">
  <metadata
     id="metadata57">
    <rdf:RDF>
      <cc:Work
         rdf:about="">
        <dc:format>image/svg+xml</dc:format>
        <dc:type
           rdf:resource="http://purl.org/dc/dcmitype/StillImage" />
        <dc:title></dc:title>
      </cc:Work>
    </rdf:RDF>
  </metadata>
  <sodipodi:namedview
     pagecolor="#ffffff"
     bordercolor="#666666"
     borderopacity="1"
     objecttolerance="10"
     gridtolerance="10"
     guidetolerance="10"
     inkscape:pageopacity="0"
     inkscape:pageshadow="2"
     inkscape:window-width="640"
     inkscape:window-height="480"
     id="namedview55"
     showgrid="false"
     fit-margin-top="0"
     fit-margin-left="0"
     fit-margin-right="0"
     fit-margin-bottom="0"
     inkscape:zoom="3.588113"
     inkscape:cx="0.13480821"
     inkscape:cy="-0.26179125"
     inkscape:window-x="0"
     inkscape:window-y="0"
     inkscape:window-maximized="0"
     inkscape:current-layer="svg2" />
  <defs
     id="defs4">
    <linearGradient
       id="LinearGradient"
       gradientUnits="userSpaceOnUse"
       x1="0"
       y1="0"
       x2="0"
       y2="-1.5"
       gradientTransform="translate(471.821,621.819)">
      <stop
         offset="0"
         stop-color="#d3d7cf"
         id="stop7" />
      <stop
         offset="1"
         stop-color="#ffffff"
         id="stop9" />
    </linearGradient>
    <linearGradient
       id="LinearGradient_1"
       gradientUnits="userSpaceOnUse"
       x1="0"
       y1="0"
       x2="0"
       y2="12"
       gradientTransform="translate(478.571,611.319)">
      <stop
         offset="0"
         stop-color="#333333"
         id="stop12" />
      <stop
         offset="1"
         stop-color="#ffffff"
         id="stop14" />
    </linearGradient>
  </defs>
  <g
     id="Document"
     font-size="16"
     transform="matrix(1,0,0,-1,-467.319,-218.57305)"
     style="font-size:16px;font-family:'Times New Roman';fill:none;stroke:#000000">
    <g
       id="Spread"
       transform="translate(0,-841.891)">
      <g
         id="opaque">
        <path
           d="m 479.32,623.318 0,-11.999 -12.001,0 0,11.999 12.001,0 z"
           stroke-miterlimit="79.8403193612775"
           id="path19"
           inkscape:connector-curvature="0"
           style="stroke:none;stroke-width:0.5;stroke-linejoin:miter;stroke-miterlimit:79.84031677;marker-start:none;marker-end:none" />
      </g>
      <g
         id="Layer 1">
        <path
           d="m 468.071,622.569 c -0.353,0 -0.75,-0.397 -0.75,-0.75 l 0,-5.25 c 0,-0.353 0.397,-0.75 0.75,-0.75 l 9,0 c 0.353,0 0.75,0.397 0.75,0.75 l 0,5.25 c 0,0.353 -0.397,0.75 -0.75,0.75 l -9,0 z"
           stroke-miterlimit="79.8403193612775"
           id="path22"
           inkscape:connector-curvature="0"
           style="fill:#888a85;stroke:none;stroke-width:0.5;stroke-linejoin:round;stroke-miterlimit:79.84031677;marker-start:none;marker-end:none" />
        <path
           d="m 468.126,616.569 -0.055,0.055 0,5.139 0.056,0.056 8.887,0 0.057,-0.057 0,-5.137 -0.056,-0.056 -8.889,0 z"
           stroke-miterlimit="79.8403193612775"
           id="path24"
           inkscape:connector-curvature="0"
           style="fill:url(#LinearGradient);stroke:none;stroke-width:0.5;stroke-linejoin:round;stroke-miterlimit:79.84031677;marker-start:none;marker-end:none" />
        <path
           d="m 468.821,621.069 2.25,0 0,-0.75 -0.75,0 0,-2.25 0.75,0 0,-0.75 -2.25,0 0,0.75 0.75,0 0,2.25 -0.75,0 0,0.75 z"
           stroke-miterlimit="79.8403193612775"
           id="path26"
           inkscape:connector-curvature="0"
           style="fill:#555753;stroke:none;stroke-width:0.5;stroke-miterlimit:79.84031677;marker-start:none;marker-end:none" />
        <path
           d="m 469.57,621.068 0,-0.749 0.751,0 0,0.749 -0.751,0 z"
           stroke-miterlimit="79.8403193612775"
           id="path28"
           inkscape:connector-curvature="0"
           style="fill:#babdb6;stroke:none;stroke-width:0.5;stroke-linejoin:miter;stroke-miterlimit:79.84031677;marker-start:none;marker-end:none" />
        <path
           d="m 469.57,618.068 0,-0.749 0.751,0 0,0.749 -0.751,0 z"
           stroke-miterlimit="79.8403193612775"
           id="path30"
           inkscape:connector-curvature="0"
           style="fill:#babdb6;stroke:none;stroke-width:0.5;stroke-linejoin:miter;stroke-miterlimit:79.84031677;marker-start:none;marker-end:none" />
        <path
           d="m 471.071,613.569 c 0.176,0.176 0.095,0.52 0,0.75 -0.27,0.653 -0.847,1.23 -1.5,1.5 -0.23,0.095 -0.574,0.176 -0.75,0 l 4.5,4.5 c 0.176,0.176 0.52,0.095 0.75,0 0.653,-0.27 1.23,-0.847 1.5,-1.5 0.095,-0.23 0.176,-0.574 0,-0.75 l -4.5,-4.5 z"
           stroke-miterlimit="79.8403193612775"
           id="path32"
           inkscape:connector-curvature="0"
           style="fill:#c4a000;stroke:none;stroke-width:0.5;stroke-miterlimit:79.84031677;marker-start:none;marker-end:none" />
        <path
           d="m 467.321,612.069 1.5,3.75 c 0.176,0.176 0.52,0.095 0.75,0 0.653,-0.27 1.23,-0.847 1.5,-1.5 0.095,-0.23 0.176,-0.574 0,-0.75 l -3.75,-1.5 z"
           stroke-miterlimit="79.8403193612775"
           id="path34"
           inkscape:connector-curvature="0"
           style="fill:#c17d11;stroke:none;stroke-width:0.5;stroke-miterlimit:79.84031677;marker-start:none;marker-end:none" />
        <path
           d="m 476.321,618.819 c 0.176,0.176 0.095,0.52 0,0.75 -0.27,0.653 -0.847,1.23 -1.5,1.5 -0.23,0.095 -0.574,0.176 -0.75,0 l 1.5,1.5 c 0.176,0.176 0.52,0.095 0.75,0 0.653,-0.27 1.23,-0.847 1.5,-1.5 0.095,-0.23 0.176,-0.574 0,-0.75 l -1.5,-1.5 z"
           stroke-miterlimit="79.8403193612775"
           id="path36"
           inkscape:connector-curvature="0"
           style="fill:#cc0000;stroke:none;stroke-width:0.5;stroke-miterlimit:79.84031677;marker-start:none;marker-end:none" />
        <path
           d="m 475.571,618.069 c 0.176,0.176 0.095,0.52 0,0.75 -0.27,0.653 -0.847,1.23 -1.5,1.5 -0.23,0.095 -0.574,0.176 -0.75,0 l 0.75,0.75 c 0.176,0.176 0.52,0.095 0.75,0 0.653,-0.27 1.23,-0.847 1.5,-1.5 0.095,-0.23 0.176,-0.574 0,-0.75 l -0.75,-0.75 z"
           stroke-miterlimit="79.8403193612775"
           id="path38"
           inkscape:connector-curvature="0"
           style="fill:#555753;stroke:none;stroke-width:0.5;stroke-miterlimit:79.84031677;marker-start:none;marker-end:none" />
        <path
           d="m 470.97,614.529 -0.015,0.03 c -0.257,0.473 -0.671,0.887 -1.144,1.144 l -0.03,0.015 4.5,4.5 0.03,-0.015 0.315,-0.204 0.051,-0.039 0.287,-0.248 0.248,-0.287 0.039,-0.051 0.204,-0.315 0.015,-0.03 -4.5,-4.5 z"
           stroke-miterlimit="79.8403193612775"
           id="path40"
           inkscape:connector-curvature="0"
           style="fill:#edd400;stroke:none;stroke-width:0.5;stroke-linejoin:round;stroke-miterlimit:79.84031677;marker-start:none;marker-end:none" />
        <path
           d="m 475.47,619.029 -0.015,0.03 c -0.257,0.473 -0.671,0.887 -1.144,1.144 l -0.03,0.015 0.75,0.75 0.03,-0.015 0.075,-0.045 0.119,-0.073 0.096,-0.067 0.103,-0.077 0.089,-0.073 0.114,-0.104 0.057,-0.052 0.052,-0.057 0.104,-0.114 0.073,-0.089 0.077,-0.103 0.067,-0.096 0.073,-0.119 0.045,-0.075 0.015,-0.03 -0.75,-0.75 z"
           stroke-miterlimit="79.8403193612775"
           id="path42"
           inkscape:connector-curvature="0"
           style="fill:#d3d7cf;stroke:none;stroke-width:0.5;stroke-linejoin:round;stroke-miterlimit:79.84031677;marker-start:none;marker-end:none" />
        <path
           d="m 476.22,619.779 -0.015,0.03 c -0.257,0.473 -0.671,0.887 -1.144,1.144 l -0.03,0.015 0.931,0.931 0.072,-0.024 c 0.469,-0.193 0.9,-0.624 1.093,-1.093 l 0.024,-0.072 -0.931,-0.931 z"
           stroke-miterlimit="79.8403193612775"
           id="path44"
           inkscape:connector-curvature="0"
           style="fill:#ef2929;stroke:none;stroke-width:0.5;stroke-linejoin:round;stroke-miterlimit:79.84031677;marker-start:none;marker-end:none" />
        <path
           d="m 468.667,613.415 0.793,1.982 0.321,0.321 0.03,-0.015 c 0.473,-0.257 0.887,-0.671 1.144,-1.144 l 0.015,-0.03 -0.321,-0.321 -1.982,-0.793 z"
           stroke-miterlimit="79.8403193612775"
           id="path46"
           inkscape:connector-curvature="0"
           style="fill:#e9b96e;stroke:none;stroke-width:0.5;stroke-linejoin:round;stroke-miterlimit:79.84031677;marker-start:none;marker-end:none" />
        <mask
           id="TranspMask">
          <rect
             x="-59.527702"
             y="-84.189102"
             width="714.33246"
             height="1010.2692"
             id="rect49"
             style="fill:url(#LinearGradient_1);stroke:none" />
        </mask>
        <path
           d="m 468.667,613.415 0.793,1.982 6.502,6.502 0.072,-0.024 c 0.234,-0.097 0.459,-0.253 0.65,-0.443 l -8.017,-8.017 z"
           stroke-miterlimit="79.8403193612775"
           mask="url(#TranspMask)"
           id="path51"
           inkscape:connector-curvature="0"
           style="fill:#ffffff;stroke:none;stroke-width:0.5;stroke-linejoin:miter;stroke-miterlimit:79.84031677;marker-start:none;marker-end:none" />
        <path
           d="m 467.321,612.069 0.49,1.227 0.092,-0.064 c 0.218,-0.165 0.416,-0.363 0.581,-0.581 l 0.064,-0.092 -1.227,-0.49 z"
           stroke-miterlimit="79.8403193612775"
           id="path53"
           inkscape:connector-curvature="0"
           style="fill:#000000;stroke:none;stroke-width:0.5;stroke-miterlimit:79.84031677;marker-start:none;marker-end:none" />
      </g>
    </g>
  </g>
</svg>
