<?xml version="1.0" encoding="UTF-8" standalone="no"?>
<!--Generator: Xara Designer (www.xara.com), SVG filter version: 6.0.0.4-->

<svg
   xmlns:dc="http://purl.org/dc/elements/1.1/"
   xmlns:cc="http://creativecommons.org/ns#"
   xmlns:rdf="http://www.w3.org/1999/02/22-rdf-syntax-ns#"
   xmlns:svg="http://www.w3.org/2000/svg"
   xmlns="http://www.w3.org/2000/svg"
   xmlns:sodipodi="http://sodipodi.sourceforge.net/DTD/sodipodi-0.dtd"
   xmlns:inkscape="http://www.inkscape.org/namespaces/inkscape"
   version="1.1"
   overflow="visible"
   width="12.001pt"
   height="11.998999pt"
   viewBox="0 0 12.001001 11.998999"
   id="svg2"
   inkscape:version="0.91 r13725"
   sodipodi:docname="printer-print.svg"
   style="overflow:visible;fill-rule:evenodd;stroke-width:0.50099999;stroke-linejoin:bevel">
  <metadata
     id="metadata65">
    <rdf:RDF>
      <cc:Work
         rdf:about="">
        <dc:format>image/svg+xml</dc:format>
        <dc:type
           rdf:resource="http://purl.org/dc/dcmitype/StillImage" />
        <dc:title></dc:title>
      </cc:Work>
    </rdf:RDF>
  </metadata>
  <sodipodi:namedview
     pagecolor="#ffffff"
     bordercolor="#666666"
     borderopacity="1"
     objecttolerance="10"
     gridtolerance="10"
     guidetolerance="10"
     inkscape:pageopacity="0"
     inkscape:pageshadow="2"
     inkscape:window-width="640"
     inkscape:window-height="480"
     id="namedview63"
     showgrid="false"
     fit-margin-top="0"
     fit-margin-left="0"
     fit-margin-right="0"
     fit-margin-bottom="0"
     inkscape:zoom="3.588113"
     inkscape:cx="2.0972967"
     inkscape:cy="12.452489"
     inkscape:window-x="0"
     inkscape:window-y="0"
     inkscape:window-maximized="0"
     inkscape:current-layer="svg2" />
  <defs
     id="defs4">
    <linearGradient
       id="LinearGradient"
       gradientUnits="userSpaceOnUse"
       x1="0"
       y1="0"
       x2="0"
       y2="-3"
       gradientTransform="translate(473.321,617.319)">
      <stop
         offset="0"
         stop-color="#ffffff"
         id="stop7" />
      <stop
         offset="1"
         stop-color="#babdb6"
         id="stop9" />
    </linearGradient>
    <linearGradient
       id="LinearGradient_1"
       gradientUnits="userSpaceOnUse"
       x1="0"
       y1="0"
       x2="0"
       y2="2.25"
       gradientTransform="translate(471.821,615.819)">
      <stop
         offset="0"
         stop-color="#2e3436"
         id="stop12" />
      <stop
         offset="1"
         stop-color="#888a85"
         id="stop14" />
    </linearGradient>
    <linearGradient
       id="LinearGradient_2"
       gradientUnits="userSpaceOnUse"
       x1="0"
       y1="0"
       x2="0"
       y2="2.25"
       gradientTransform="translate(477.821,616.569)">
      <stop
         offset="0"
         stop-color="#333333"
         id="stop17" />
      <stop
         offset="1"
         stop-color="#ffffff"
         id="stop19" />
    </linearGradient>
    <linearGradient
       id="LinearGradient_3"
       gradientUnits="userSpaceOnUse"
       x1="0"
       y1="0"
       x2="0"
       y2="-0.98000002"
       gradientTransform="translate(473.321,619.569)">
      <stop
         offset="0"
         stop-color="#ffffff"
         id="stop22" />
      <stop
         offset="1"
         stop-color="#e2e8ed"
         id="stop24" />
    </linearGradient>
  </defs>
  <g
     id="Document"
     font-size="16"
     transform="matrix(1,0,0,-1,-467.319,-218.57305)"
     style="font-size:16px;font-family:'Times New Roman';fill:none;stroke:#000000">
    <g
       id="Spread"
       transform="translate(0,-841.891)">
      <g
         id="opaque">
        <path
           d="m 479.32,623.318 0,-11.999 -12.001,0 0,11.999 12.001,0 z"
           stroke-miterlimit="79.8403193612775"
           id="path29"
           inkscape:connector-curvature="0"
           style="stroke:none;stroke-width:0.5;stroke-linejoin:miter;stroke-miterlimit:79.84031677;marker-start:none;marker-end:none" />
      </g>
      <g
         id="Layer 1">
        <path
           d="m 468.071,617.319 c 0,0.707 0.793,1.5 1.5,1.5 l 7.5,0 c 0.707,0 1.5,-0.793 1.5,-1.5 l 0,-3.75 -10.5,0 0,3.75 z"
           stroke-miterlimit="79.8403193612775"
           id="path32"
           inkscape:connector-curvature="0"
           style="fill:#888a85;stroke:none;stroke-width:0.5;stroke-linejoin:round;stroke-miterlimit:79.84031677;marker-start:none;marker-end:none" />
        <path
           d="m 468.821,614.319 0,3 c 0,0.286 0.459,0.75 0.75,0.75 l 7.5,0 c 0.286,0 0.75,-0.46 0.75,-0.75 l 0,-3 -9,0 z"
           stroke-miterlimit="79.8403193612775"
           id="path34"
           inkscape:connector-curvature="0"
           style="fill:url(#LinearGradient);stroke:none;stroke-width:0.5;stroke-linejoin:round;stroke-miterlimit:79.84031677;marker-start:none;marker-end:none" />
        <path
           d="m 470.32,618.068 0.001,-1.499 c 0,-0.353 0.397,-0.75 0.75,-0.75 l 4.5,0 c 0.353,0 0.75,0.397 0.75,0.75 l 0,1.499 -6.001,0 z"
           stroke-miterlimit="79.8403193612775"
           id="path36"
           inkscape:connector-curvature="0"
           style="fill:url(#LinearGradient_1);stroke:none;stroke-width:0.5;stroke-linejoin:miter;stroke-miterlimit:79.84031677;marker-start:none;marker-end:none" />
        <path
           d="m 470.321,615.069 c -0.353,0 -0.75,-0.397 -0.75,-0.75 0,-0.353 0.397,-0.75 0.75,-0.75 l 6,0 c 0.353,0 0.75,0.397 0.75,0.75 0,0.353 -0.397,0.75 -0.75,0.75 l -6,0 z"
           stroke-miterlimit="79.8403193612775"
           id="path38"
           inkscape:connector-curvature="0"
           style="fill:#2e3436;stroke:none;stroke-width:0.5;stroke-linejoin:miter;stroke-miterlimit:79.84031677;marker-start:none;marker-end:none" />
        <mask
           id="TranspMask">
          <rect
             x="-59.527702"
             y="-84.189102"
             width="714.33246"
             height="1010.2692"
             id="rect41"
             style="fill:url(#LinearGradient_2);stroke:none" />
        </mask>
        <path
           d="m 468.821,616.569 0,0.75 c 0,0.286 0.459,0.75 0.75,0.75 l 7.5,0 c 0.286,0 0.75,-0.46 0.75,-0.75 l 0,-0.75 -9,0 z"
           stroke-miterlimit="79.8403193612775"
           mask="url(#TranspMask)"
           id="path43"
           inkscape:connector-curvature="0"
           style="fill:#ffffff;stroke:none;stroke-width:0.5;stroke-linejoin:miter;stroke-miterlimit:79.84031677;marker-start:none;marker-end:none" />
        <path
           d="m 470.32,614.318 0,-2.249 6.001,0 0,2.249 -6.001,0 z"
           stroke-miterlimit="79.8403193612775"
           id="path45"
           inkscape:connector-curvature="0"
           style="fill:#aaada5;stroke:none;stroke-width:0.5;stroke-linejoin:round;stroke-miterlimit:79.84031677;marker-start:none;marker-end:none" />
        <path
           d="m 471.072,614.318 0,-1.499 4.5,0 0,1.499 -4.5,0 z"
           stroke-miterlimit="79.8403193612775"
           id="path47"
           inkscape:connector-curvature="0"
           style="fill:#ffffff;stroke:none;stroke-width:0.5;stroke-linejoin:miter;stroke-miterlimit:79.84031677;marker-start:none;marker-end:none" />
        <path
           d="m 469.571,619.569 -0.001,-0.75 7.501,0 0,0.75 c 0,0.353 -0.397,0.75 -0.75,0.75 l -6,0 c -0.353,0 -0.75,-0.397 -0.75,-0.75 z"
           stroke-miterlimit="79.8403193612775"
           id="path49"
           inkscape:connector-curvature="0"
           style="fill:#939590;stroke:none;stroke-width:0.5;stroke-linejoin:miter;stroke-miterlimit:79.84031677;marker-start:none;marker-end:none" />
        <path
           d="m 470.321,618.82 0,3.749 5.25,0 c 0.353,0 0.75,-0.397 0.75,-0.75 l 10e-4,-2.999 -6.001,0 z"
           stroke-miterlimit="79.8403193612775"
           id="path51"
           inkscape:connector-curvature="0"
           style="fill:#aaada5;stroke:none;stroke-width:0.5;stroke-linejoin:round;stroke-miterlimit:79.84031677;marker-start:none;marker-end:none" />
        <path
           d="m 471.072,618.82 0,3 4.5,0 0,-3 -4.5,0 z"
           stroke-miterlimit="79.8403193612775"
           id="path53"
           inkscape:connector-curvature="0"
           style="fill:url(#LinearGradient_3);stroke:none;stroke-width:0.5;stroke-linejoin:round;stroke-miterlimit:79.84031677;marker-start:none;marker-end:none" />
        <path
           d="m 471.82,614.318 0,-0.749 0.751,0 0,0.749 -0.751,0 z"
           stroke-miterlimit="79.8403193612775"
           id="path55"
           inkscape:connector-curvature="0"
           style="fill:#f3b6d2;stroke:none;stroke-width:0.5;stroke-linejoin:round;stroke-miterlimit:79.84031677;marker-start:none;marker-end:none" />
        <path
           d="m 472.57,614.318 0,-0.749 0.751,0 0,0.749 -0.751,0 z"
           stroke-miterlimit="79.8403193612775"
           id="path57"
           inkscape:connector-curvature="0"
           style="fill:#b8f39e;stroke:none;stroke-width:0.5;stroke-linejoin:round;stroke-miterlimit:79.84031677;marker-start:none;marker-end:none" />
        <path
           d="m 473.32,614.318 0,-0.749 0.751,0 0,0.749 -0.751,0 z"
           stroke-miterlimit="79.8403193612775"
           id="path59"
           inkscape:connector-curvature="0"
           style="fill:#a0c0e8;stroke:none;stroke-width:0.5;stroke-linejoin:round;stroke-miterlimit:79.84031677;marker-start:none;marker-end:none" />
        <path
           d="m 474.07,614.318 0,-0.749 0.751,0 0,0.749 -0.751,0 z"
           stroke-miterlimit="79.8403193612775"
           id="path61"
           inkscape:connector-curvature="0"
           style="fill:#f6f79c;stroke:none;stroke-width:0.5;stroke-linejoin:round;stroke-miterlimit:79.84031677;marker-start:none;marker-end:none" />
      </g>
    </g>
  </g>
</svg>
