<?xml version="1.0" encoding="UTF-8" standalone="no"?>
<!--Generator: Xara Designer (www.xara.com), SVG filter version: 6.0.0.4-->

<svg
   xmlns:dc="http://purl.org/dc/elements/1.1/"
   xmlns:cc="http://creativecommons.org/ns#"
   xmlns:rdf="http://www.w3.org/1999/02/22-rdf-syntax-ns#"
   xmlns:svg="http://www.w3.org/2000/svg"
   xmlns="http://www.w3.org/2000/svg"
   xmlns:sodipodi="http://sodipodi.sourceforge.net/DTD/sodipodi-0.dtd"
   xmlns:inkscape="http://www.inkscape.org/namespaces/inkscape"
   version="1.1"
   overflow="visible"
   width="12.001pt"
   height="11.998999pt"
   viewBox="0 0 12.001001 11.998999"
   id="svg2"
   inkscape:version="0.91 r13725"
   sodipodi:docname="reload.svg"
   style="overflow:visible;fill-rule:evenodd;stroke-width:0.50099999;stroke-linejoin:bevel">
  <metadata
     id="metadata38">
    <rdf:RDF>
      <cc:Work
         rdf:about="">
        <dc:format>image/svg+xml</dc:format>
        <dc:type
           rdf:resource="http://purl.org/dc/dcmitype/StillImage" />
        <dc:title></dc:title>
      </cc:Work>
    </rdf:RDF>
  </metadata>
  <sodipodi:namedview
     pagecolor="#ffffff"
     bordercolor="#666666"
     borderopacity="1"
     objecttolerance="10"
     gridtolerance="10"
     guidetolerance="10"
     inkscape:pageopacity="0"
     inkscape:pageshadow="2"
     inkscape:window-width="640"
     inkscape:window-height="480"
     id="namedview36"
     showgrid="false"
     fit-margin-top="0"
     fit-margin-left="0"
     fit-margin-right="0"
     fit-margin-bottom="0"
     inkscape:zoom="5.074358"
     inkscape:cx="-0.55770629"
     inkscape:cy="2.3453772"
     inkscape:window-x="0"
     inkscape:window-y="0"
     inkscape:window-maximized="0"
     inkscape:current-layer="svg2" />
  <defs
     id="defs4">
    <linearGradient
       id="LinearGradient"
       gradientUnits="userSpaceOnUse"
       x1="0"
       y1="0"
       x2="11.951"
       y2="0"
       gradientTransform="matrix(0,-1,1,0,467.318,623.27)">
      <stop
         offset="0"
         stop-color="#ffffff"
         id="stop7" />
      <stop
         offset="0.500999987125397"
         stop-color="#1a6bd3"
         id="stop9" />
      <stop
         offset="1"
         stop-color="#ffffff"
         id="stop11" />
    </linearGradient>
    <linearGradient
       id="LinearGradient_1"
       gradientUnits="userSpaceOnUse"
       x1="0"
       y1="0"
       x2="6"
       y2="0"
       gradientTransform="matrix(0,1,-1,0,467.318,617.319)">
      <stop
         offset="0"
         stop-color="#333333"
         id="stop14" />
      <stop
         offset="1"
         stop-color="#ffffff"
         id="stop16" />
    </linearGradient>
  </defs>
  <g
     id="Document"
     font-size="16"
     transform="matrix(1,0,0,-1,-467.319,-218.57305)"
     style="font-size:16px;font-family:'Times New Roman';fill:none;stroke:#000000">
    <g
       id="Spread"
       transform="translate(0,-841.891)">
      <g
         id="opaque">
        <path
           d="m 467.319,623.318 0,-11.999 12.001,0 0,11.999 -12.001,0 z"
           stroke-miterlimit="79.8403193612775"
           id="path21"
           inkscape:connector-curvature="0"
           style="stroke:none;stroke-width:0.5;stroke-linejoin:miter;stroke-miterlimit:79.84031677;marker-start:none;marker-end:none" />
      </g>
      <g
         id="Layer 1">
        <g
           id="Group"
           stroke-miterlimit="79.8403193612775"
           style="fill:#205187;stroke:none;stroke-width:0.5;stroke-linejoin:round;stroke-miterlimit:79.84031677">
          <path
             d="m 474.068,618.819 0.75,-0.75 -1.5,-1.5 4.5,0 c 0.353,0 0.75,0.397 0.75,0.75 l 0,4.5 -1.5,-1.5 -0.75,0.75 c -1.5,1.5 -3,1.5 -3.75,1.5 -1.5,0 -4.5,-0.75 -4.5,-4.5 0,2.25 3,2.25 3,2.25 0.75,0 1.5,0 3,-1.5 z"
             id="path25"
             inkscape:connector-curvature="0"
             style="marker-start:none;marker-end:none" />
          <path
             d="m 472.568,615.819 -0.75,0.75 1.5,1.5 -4.5,0 c -0.353,0 -0.75,-0.397 -0.75,-0.75 l 0,-4.5 1.5,1.5 0.75,-0.75 c 1.5,-1.5 3,-1.5 3.75,-1.5 1.5,0 4.5,0.75 4.5,4.5 0,-2.25 -3,-2.25 -3,-2.25 -0.75,0 -1.5,0 -3,1.5 z"
             id="path27"
             inkscape:connector-curvature="0"
             style="marker-start:none;marker-end:none" />
        </g>
        <path
           d="m 474.068,612.819 c 0.659,0 1.596,0.146 2.369,0.688 l 0.226,0.202 -0.364,-0.076 c -0.368,-0.057 -0.645,-0.064 -0.731,-0.064 -0.947,0 -1.88,0.069 -3.53,1.719 l -0.75,0.75 c -0.293,0.293 -0.293,0.768 0,1.061 l 0.22,0.22 -2.633,0 -0.057,-0.057 0,-2.633 0.22,0.22 c 0.293,0.293 0.768,0.293 1.061,0 l 0.75,-0.75 c 1.284,-1.284 2.528,-1.28 3.219,-1.28 z m 3.695,4.5 0.055,0.055 0,2.633 -0.219,-0.219 c -0.293,-0.293 -0.768,-0.293 -1.061,0 l -0.75,0.75 c -1.284,1.284 -2.528,1.281 -3.22,1.281 -0.658,0 -1.595,-0.147 -2.368,-0.689 l -0.226,-0.202 0.365,0.076 c 0.367,0.057 0.644,0.065 0.729,0.065 0.948,0 1.881,-0.07 3.531,-1.72 l 0.75,-0.75 c 0.293,-0.293 0.293,-0.768 0,-1.061 l -0.219,-0.219 2.633,0 z"
           stroke-miterlimit="79.8403193612775"
           id="path29"
           inkscape:connector-curvature="0"
           style="fill:url(#LinearGradient);stroke:none;stroke-width:0.75;stroke-linejoin:round;stroke-miterlimit:79.84031677;marker-start:none;marker-end:none" />
        <mask
           id="TranspMask">
          <rect
             x="-59.527702"
             y="-84.189102"
             width="714.33246"
             height="1010.2692"
             id="rect32"
             style="fill:url(#LinearGradient_1);stroke:none" />
        </mask>
        <path
           d="m 477.763,617.319 0.055,0.055 0,2.633 -0.219,-0.219 c -0.293,-0.293 -0.768,-0.293 -1.061,0 l -0.75,0.75 c -1.284,1.284 -2.528,1.281 -3.22,1.281 -0.658,0 -1.595,-0.147 -2.368,-0.689 l -0.226,-0.202 0.365,0.076 c 0.367,0.057 0.644,0.065 0.729,0.065 0.948,0 1.881,-0.07 3.531,-1.72 l 0.75,-0.75 c 0.293,-0.293 0.293,-0.768 0,-1.061 l -0.219,-0.219 2.633,0 z"
           stroke-miterlimit="79.8403193612775"
           mask="url(#TranspMask)"
           id="path34"
           inkscape:connector-curvature="0"
           style="fill:#ffffff;stroke:none;stroke-width:0.5;stroke-linejoin:miter;stroke-miterlimit:79.84031677;marker-start:none;marker-end:none" />
      </g>
    </g>
  </g>
</svg>
