<?xml version="1.0" encoding="UTF-8" standalone="no"?>
<!--Generator: Xara Designer (www.xara.com), SVG filter version: 6.0.0.4-->

<svg
   xmlns:dc="http://purl.org/dc/elements/1.1/"
   xmlns:cc="http://creativecommons.org/ns#"
   xmlns:rdf="http://www.w3.org/1999/02/22-rdf-syntax-ns#"
   xmlns:svg="http://www.w3.org/2000/svg"
   xmlns="http://www.w3.org/2000/svg"
   xmlns:sodipodi="http://sodipodi.sourceforge.net/DTD/sodipodi-0.dtd"
   xmlns:inkscape="http://www.inkscape.org/namespaces/inkscape"
   version="1.1"
   overflow="visible"
   width="11.999pt"
   height="12.000998pt"
   viewBox="0 0 11.999 12.000999"
   id="svg2"
   inkscape:version="0.91 r13725"
   sodipodi:docname="socket-plugin.svg"
   style="overflow:visible;fill-rule:evenodd;stroke-width:0.50099999;stroke-linejoin:bevel">
  <metadata
     id="metadata46">
    <rdf:RDF>
      <cc:Work
         rdf:about="">
        <dc:format>image/svg+xml</dc:format>
        <dc:type
           rdf:resource="http://purl.org/dc/dcmitype/StillImage" />
        <dc:title></dc:title>
      </cc:Work>
    </rdf:RDF>
  </metadata>
  <sodipodi:namedview
     pagecolor="#ffffff"
     bordercolor="#666666"
     borderopacity="1"
     objecttolerance="10"
     gridtolerance="10"
     guidetolerance="10"
     inkscape:pageopacity="0"
     inkscape:pageshadow="2"
     inkscape:window-width="640"
     inkscape:window-height="480"
     id="namedview44"
     showgrid="false"
     fit-margin-top="0"
     fit-margin-left="0"
     fit-margin-right="0"
     fit-margin-bottom="0"
     inkscape:zoom="3.588113"
     inkscape:cx="1.8171911"
     inkscape:cy="2.2484816"
     inkscape:window-x="0"
     inkscape:window-y="0"
     inkscape:window-maximized="0"
     inkscape:current-layer="svg2" />
  <defs
     id="defs4">
    <linearGradient
       id="LinearGradient"
       gradientUnits="userSpaceOnUse"
       x1="0"
       y1="0"
       x2="0"
       y2="-12"
       gradientTransform="translate(479.318,623.319)">
      <stop
         offset="0"
         stop-color="#ffffff"
         id="stop7" />
      <stop
         offset="0.500999987125397"
         stop-color="#d3d7cf"
         id="stop9" />
      <stop
         offset="1"
         stop-color="#ffffff"
         id="stop11" />
    </linearGradient>
    <linearGradient
       id="LinearGradient_1"
       gradientUnits="userSpaceOnUse"
       x1="0"
       y1="0"
       x2="0"
       y2="6"
       gradientTransform="translate(479.318,617.319)">
      <stop
         offset="0"
         stop-color="#333333"
         id="stop14" />
      <stop
         offset="1"
         stop-color="#ffffff"
         id="stop16" />
    </linearGradient>
  </defs>
  <g
     id="Document"
     font-size="16"
     transform="matrix(1,0,0,-1,-467.319,-218.57105)"
     style="font-size:16px;font-family:'Times New Roman';fill:none;stroke:#000000">
    <g
       id="Spread"
       transform="translate(0,-841.891)">
      <g
         id="Layer 1">
        <path
           d="m 467.319,623.32 11.999,0 0,-12.001 -11.999,0 0,12.001 z"
           stroke-miterlimit="79.8403193612775"
           id="path21"
           inkscape:connector-curvature="0"
           style="stroke:none;stroke-width:0.5;stroke-linejoin:miter;stroke-miterlimit:79.84031677;marker-start:none;marker-end:none" />
        <path
           d="m 470.318,621.819 -2.25,-3.75 c -0.257,-0.428 -0.257,-1.072 0,-1.5 l 2.25,-3.75 6,0 2.25,3.75 c 0.257,0.428 0.257,1.072 0,1.5 l -2.25,3.75 -6,0 z"
           stroke-miterlimit="79.8403193612775"
           id="path23"
           inkscape:connector-curvature="0"
           style="fill:#888a85;stroke:none;stroke-width:0.5;stroke-linejoin:round;stroke-miterlimit:79.84031677;marker-start:none;marker-end:none" />
        <path
           d="m 470.742,613.569 -2.031,3.385 c -0.115,0.191 -0.115,0.538 0,0.729 l 2.031,3.386 5.151,0 2.031,-3.386 c 0.115,-0.191 0.115,-0.538 0,-0.729 l -2.031,-3.385 -5.151,0 z"
           stroke-miterlimit="79.8403193612775"
           id="path25"
           inkscape:connector-curvature="0"
           style="fill:url(#LinearGradient);stroke:none;stroke-width:0.75;stroke-linejoin:round;stroke-miterlimit:79.84031677;marker-start:none;marker-end:none" />
        <mask
           id="TranspMask">
          <rect
             x="-59.527702"
             y="-84.189102"
             width="714.33246"
             height="1010.2692"
             id="rect28"
             style="fill:url(#LinearGradient_1);stroke:none" />
        </mask>
        <path
           d="m 468.624,617.319 0.022,0.196 c 0.014,0.062 0.036,0.12 0.065,0.168 l 2.031,3.386 5.151,0 2.031,-3.386 c 0.028,-0.048 0.05,-0.106 0.064,-0.168 l 0.022,-0.196 -9.386,0 z"
           stroke-miterlimit="79.8403193612775"
           mask="url(#TranspMask)"
           id="path30"
           inkscape:connector-curvature="0"
           style="fill:#ffffff;stroke:none;stroke-width:0.5;stroke-linejoin:miter;stroke-miterlimit:79.84031677;marker-start:none;marker-end:none" />
        <path
           d="m 471.067,616.569 c -0.414,0 -0.75,0.336 -0.75,0.75 l 0,2.249 c 0,0.413 0.336,0.75 0.75,0.75 l 1.501,0 c 0.413,0 0.75,-0.337 0.75,-0.75 l 0,-2.249 c 0,-0.414 -0.337,-0.75 -0.75,-0.75 l -1.501,0 z"
           stroke-miterlimit="79.8403193612775"
           id="path32"
           inkscape:connector-curvature="0"
           style="fill:#d3d7cf;stroke:none;stroke-width:0.5;stroke-linejoin:round;stroke-miterlimit:79.84031677;marker-start:none;marker-end:none" />
        <path
           d="m 471.067,619.568 0,-2.249 1.501,0 0,2.249 -1.501,0 z"
           stroke-miterlimit="79.8403193612775"
           id="path34"
           inkscape:connector-curvature="0"
           style="fill:#555753;stroke:none;stroke-width:0.5;stroke-linejoin:round;stroke-miterlimit:79.84031677;marker-start:none;marker-end:none" />
        <path
           d="m 474.067,616.569 c -0.414,0 -0.75,0.336 -0.75,0.75 l 0,2.249 c 0,0.413 0.336,0.75 0.75,0.75 l 1.501,0 c 0.413,0 0.75,-0.337 0.75,-0.75 l 0,-2.249 c 0,-0.414 -0.337,-0.75 -0.75,-0.75 l -1.501,0 z"
           stroke-miterlimit="79.8403193612775"
           id="path36"
           inkscape:connector-curvature="0"
           style="fill:#d3d7cf;stroke:none;stroke-width:0.5;stroke-linejoin:round;stroke-miterlimit:79.84031677;marker-start:none;marker-end:none" />
        <path
           d="m 474.067,619.568 0,-2.249 1.501,0 0,2.249 -1.501,0 z"
           stroke-miterlimit="79.8403193612775"
           id="path38"
           inkscape:connector-curvature="0"
           style="fill:#555753;stroke:none;stroke-width:0.5;stroke-linejoin:round;stroke-miterlimit:79.84031677;marker-start:none;marker-end:none" />
        <path
           d="m 471.818,613.569 c -0.414,0 -0.75,0.336 -0.75,0.75 0,1.164 1.085,2.25 2.25,2.25 1.164,0 2.25,-1.086 2.25,-2.25 0,-0.414 -0.337,-0.75 -0.75,-0.75 l -3,0 z"
           stroke-miterlimit="79.8403193612775"
           id="path40"
           inkscape:connector-curvature="0"
           style="fill:#d3d7cf;stroke:none;stroke-width:0.5;stroke-linejoin:round;stroke-miterlimit:79.84031677;marker-start:none;marker-end:none" />
        <path
           d="m 471.818,614.319 3,0 c 0,0.75 -0.75,1.5 -1.5,1.5 -0.75,0 -1.5,-0.75 -1.5,-1.5 z"
           stroke-miterlimit="79.8403193612775"
           id="path42"
           inkscape:connector-curvature="0"
           style="fill:#555753;stroke:none;stroke-width:0.5;stroke-linejoin:round;stroke-miterlimit:79.84031677;marker-start:none;marker-end:none" />
      </g>
    </g>
  </g>
</svg>
