<?xml version="1.0" encoding="UTF-8" standalone="no"?>
<!--Generator: Xara Designer (www.xara.com), SVG filter version: 6.0.0.4-->

<svg
   xmlns:dc="http://purl.org/dc/elements/1.1/"
   xmlns:cc="http://creativecommons.org/ns#"
   xmlns:rdf="http://www.w3.org/1999/02/22-rdf-syntax-ns#"
   xmlns:svg="http://www.w3.org/2000/svg"
   xmlns="http://www.w3.org/2000/svg"
   xmlns:sodipodi="http://sodipodi.sourceforge.net/DTD/sodipodi-0.dtd"
   xmlns:inkscape="http://www.inkscape.org/namespaces/inkscape"
   version="1.1"
   overflow="visible"
   width="12.001pt"
   height="11.998999pt"
   viewBox="0 0 12.001001 11.998999"
   id="svg2"
   inkscape:version="0.91 r13725"
   sodipodi:docname="stop.svg"
   style="overflow:visible;fill-rule:evenodd;stroke-width:0.50099999;stroke-linejoin:bevel">
  <metadata
     id="metadata47">
    <rdf:RDF>
      <cc:Work
         rdf:about="">
        <dc:format>image/svg+xml</dc:format>
        <dc:type
           rdf:resource="http://purl.org/dc/dcmitype/StillImage" />
        <dc:title></dc:title>
      </cc:Work>
    </rdf:RDF>
  </metadata>
  <sodipodi:namedview
     pagecolor="#ffffff"
     bordercolor="#666666"
     borderopacity="1"
     objecttolerance="10"
     gridtolerance="10"
     guidetolerance="10"
     inkscape:pageopacity="0"
     inkscape:pageshadow="2"
     inkscape:window-width="640"
     inkscape:window-height="480"
     id="namedview45"
     showgrid="false"
     fit-margin-top="0"
     fit-margin-left="0"
     fit-margin-right="0"
     fit-margin-bottom="0"
     inkscape:zoom="5.074358"
     inkscape:cx="-0.31282001"
     inkscape:cy="4.677392"
     inkscape:window-x="0"
     inkscape:window-y="0"
     inkscape:window-maximized="0"
     inkscape:current-layer="svg2" />
  <defs
     id="defs4">
    <linearGradient
       id="LinearGradient"
       gradientUnits="userSpaceOnUse"
       x1="0"
       y1="0"
       x2="0"
       y2="-12.001"
       gradientTransform="translate(479.321,623.319)">
      <stop
         offset="0"
         stop-color="#ffffff"
         id="stop7" />
      <stop
         offset="0.500999987125397"
         stop-color="#e81d1d"
         id="stop9" />
      <stop
         offset="1"
         stop-color="#ffffff"
         id="stop11" />
    </linearGradient>
    <linearGradient
       id="LinearGradient_1"
       gradientUnits="userSpaceOnUse"
       x1="0"
       y1="0"
       x2="0"
       y2="6"
       gradientTransform="translate(479.321,617.319)">
      <stop
         offset="0"
         stop-color="#333333"
         id="stop14" />
      <stop
         offset="1"
         stop-color="#ffffff"
         id="stop16" />
    </linearGradient>
    <linearGradient
       id="LinearGradient_2"
       gradientUnits="userSpaceOnUse"
       x1="0"
       y1="0"
       x2="0"
       y2="6"
       gradientTransform="translate(479.321,617.319)">
      <stop
         offset="0"
         stop-color="#bfbfbf"
         id="stop19" />
      <stop
         offset="1"
         stop-color="#000000"
         id="stop21" />
    </linearGradient>
  </defs>
  <g
     id="Document"
     font-size="16"
     transform="matrix(1,0,0,-1,-467.319,-218.57305)"
     style="font-size:16px;font-family:'Times New Roman';fill:none;stroke:#000000">
    <g
       id="Spread"
       transform="translate(0,-841.891)">
      <g
         id="opaque">
        <path
           d="m 479.32,623.318 0,-11.999 -12.001,0 0,11.999 12.001,0 z"
           stroke-miterlimit="79.8403193612775"
           id="path26"
           inkscape:connector-curvature="0"
           style="stroke:none;stroke-width:0.5;stroke-linejoin:miter;stroke-miterlimit:79.84031677;marker-start:none;marker-end:none" />
      </g>
      <g
         id="Layer 1">
        <path
           d="m 468.071,618.819 0,-3 c 0,-0.559 0.355,-1.105 0.75,-1.5 l 1.5,-1.5 c 0.395,-0.395 0.941,-0.75 1.5,-0.75 l 3,0 c 0.559,0 1.105,0.355 1.5,0.75 l 1.5,1.5 c 0.395,0.395 0.75,0.941 0.75,1.5 l 0,3 c 0,0.559 -0.355,1.105 -0.75,1.5 l -1.5,1.5 c -0.395,0.395 -0.941,0.75 -1.5,0.75 l -3,0 c -0.553,0 -1.097,-0.347 -1.488,-0.738 l -1.512,-1.512 c -0.395,-0.395 -0.75,-0.941 -0.75,-1.5 z"
           stroke-miterlimit="79.8403193612775"
           id="path29"
           inkscape:connector-curvature="0"
           style="fill:#c30000;stroke:none;stroke-width:0.5;stroke-linejoin:round;stroke-miterlimit:79.84031677;marker-start:none;marker-end:none" />
        <path
           d="m 471.821,612.819 c -0.264,0 -0.628,0.187 -0.97,0.53 l -1.5,1.5 c -0.343,0.342 -0.53,0.706 -0.53,0.97 l 0,3 c 0,0.263 0.187,0.627 0.53,0.969 l 1.512,1.512 c 0.334,0.334 0.697,0.519 0.958,0.519 l 3,0 c 0.263,0 0.627,-0.188 0.969,-0.531 l 1.5,-1.5 c 0.343,-0.342 0.531,-0.706 0.531,-0.969 l 0,-3 c 0,-0.264 -0.188,-0.628 -0.531,-0.97 l -1.5,-1.5 c -0.342,-0.343 -0.706,-0.53 -0.969,-0.53 l -3,0 z"
           stroke-miterlimit="79.8403193612775"
           id="path31"
           inkscape:connector-curvature="0"
           style="fill:url(#LinearGradient);stroke:none;stroke-width:0.75;stroke-linejoin:round;stroke-miterlimit:79.84031677;marker-start:none;marker-end:none" />
        <mask
           id="TranspMask">
          <rect
             x="-59.527702"
             y="-84.189102"
             width="714.33246"
             height="1010.2692"
             id="rect34"
             style="fill:url(#LinearGradient_1);stroke:none" />
        </mask>
        <path
           d="m 468.821,617.319 0,1.5 c 0,0.263 0.187,0.627 0.53,0.969 l 1.512,1.512 c 0.334,0.334 0.697,0.519 0.958,0.519 l 3,0 c 0.263,0 0.627,-0.188 0.969,-0.531 l 1.5,-1.5 c 0.343,-0.342 0.531,-0.706 0.531,-0.969 l 0,-1.5 -9,0 z"
           stroke-miterlimit="79.8403193612775"
           mask="url(#TranspMask)"
           id="path36"
           inkscape:connector-curvature="0"
           style="fill:#ffffff;stroke:none;stroke-width:0.5;stroke-linejoin:miter;stroke-miterlimit:79.84031677;marker-start:none;marker-end:none" />
        <mask
           id="TranspMask_1">
          <rect
             x="-59.527702"
             y="-84.189102"
             width="714.33246"
             height="1010.2692"
             id="rect39"
             style="fill:url(#LinearGradient_2);stroke:none" />
        </mask>
        <path
           d="m 471.071,617.319 -0.75,0.75 c -0.353,0.353 -0.353,1.147 0,1.5 l 0.75,0.75 c 0.353,0.353 1.147,0.353 1.5,0 l 0.75,-0.75 0.75,0.75 c 0.353,0.353 1.147,0.353 1.5,0 l 0.75,-0.75 c 0.353,-0.353 0.353,-1.147 0,-1.5 l -0.75,-0.75 0.75,-0.75 c 0.353,-0.353 0.353,-1.147 0,-1.5 l -0.75,-0.75 c -0.353,-0.353 -1.147,-0.353 -1.5,0 l -0.75,0.75 -0.75,-0.75 c -0.353,-0.353 -1.147,-0.353 -1.5,0 l -0.75,0.75 c -0.353,0.353 -0.353,1.147 0,1.5 l 0.75,0.75 z"
           stroke-miterlimit="79.8403193612775"
           mask="url(#TranspMask_1)"
           id="path41"
           inkscape:connector-curvature="0"
           style="fill:#c30000;stroke:none;stroke-width:0.5;stroke-linejoin:round;stroke-miterlimit:79.84031677;marker-start:none;marker-end:none" />
        <path
           d="m 471.821,614.804 c -0.136,0 -0.212,0.039 -0.223,0.048 l -0.743,0.743 c -0.062,0.079 -0.064,0.365 0,0.447 l 0.746,0.746 c 0.293,0.293 0.293,0.768 0,1.061 l -0.746,0.746 c -0.062,0.079 -0.064,0.365 0,0.447 l 0.742,0.742 c 0.079,0.062 0.365,0.064 0.447,0 l 0.746,-0.746 c 0.293,-0.293 0.768,-0.293 1.061,0 l 0.746,0.746 c 0.079,0.062 0.365,0.064 0.447,0 l 0.742,-0.742 c 0.062,-0.079 0.064,-0.365 0,-0.447 l -0.746,-0.746 c -0.293,-0.293 -0.293,-0.768 0,-1.061 l 0.746,-0.746 c 0.062,-0.079 0.064,-0.365 0,-0.447 l -0.742,-0.742 c -0.079,-0.062 -0.365,-0.064 -0.447,0 l -0.746,0.746 c -0.293,0.293 -0.768,0.293 -1.061,0 l -0.748,-0.748 -0.063,-0.026 c -0.037,-0.011 -0.09,-0.021 -0.158,-0.021 z"
           stroke-miterlimit="79.8403193612775"
           id="path43"
           inkscape:connector-curvature="0"
           style="fill:#ffffff;stroke:none;stroke-width:0.5;stroke-linejoin:round;stroke-miterlimit:79.84031677;marker-start:none;marker-end:none" />
      </g>
    </g>
  </g>
</svg>
