<?xml version="1.0" encoding="UTF-8" standalone="no"?>
<!--Generator: Xara Designer (www.xara.com), SVG filter version: 6.0.0.4-->

<svg
   xmlns:dc="http://purl.org/dc/elements/1.1/"
   xmlns:cc="http://creativecommons.org/ns#"
   xmlns:rdf="http://www.w3.org/1999/02/22-rdf-syntax-ns#"
   xmlns:svg="http://www.w3.org/2000/svg"
   xmlns="http://www.w3.org/2000/svg"
   xmlns:sodipodi="http://sodipodi.sourceforge.net/DTD/sodipodi-0.dtd"
   xmlns:inkscape="http://www.inkscape.org/namespaces/inkscape"
   version="1.1"
   overflow="visible"
   width="10.5pt"
   height="10.499999pt"
   viewBox="0 0 10.5 10.499999"
   id="svg2"
   inkscape:version="0.91 r13725"
   sodipodi:docname="toy-brick-plugin-old.svg"
   style="overflow:visible;fill-rule:evenodd;stroke-width:0.50099999;stroke-linejoin:bevel">
  <metadata
     id="metadata35">
    <rdf:RDF>
      <cc:Work
         rdf:about="">
        <dc:format>image/svg+xml</dc:format>
        <dc:type
           rdf:resource="http://purl.org/dc/dcmitype/StillImage" />
        <dc:title></dc:title>
      </cc:Work>
    </rdf:RDF>
  </metadata>
  <sodipodi:namedview
     pagecolor="#ffffff"
     bordercolor="#666666"
     borderopacity="1"
     objecttolerance="10"
     gridtolerance="10"
     guidetolerance="10"
     inkscape:pageopacity="0"
     inkscape:pageshadow="2"
     inkscape:window-width="640"
     inkscape:window-height="480"
     id="namedview33"
     showgrid="false"
     fit-margin-top="0"
     fit-margin-left="0"
     fit-margin-right="0"
     fit-margin-bottom="0"
     inkscape:zoom="3.588113"
     inkscape:cx="-2.0017146"
     inkscape:cy="13.136346"
     inkscape:window-x="0"
     inkscape:window-y="0"
     inkscape:window-maximized="0"
     inkscape:current-layer="svg2" />
  <defs
     id="defs4">
    <linearGradient
       id="LinearGradient"
       gradientUnits="userSpaceOnUse"
       x1="0"
       y1="0"
       x2="0"
       y2="5.25"
       gradientTransform="translate(478.569,616.569)">
      <stop
         offset="0"
         stop-color="#333333"
         id="stop7" />
      <stop
         offset="1"
         stop-color="#ffffff"
         id="stop9" />
    </linearGradient>
  </defs>
  <g
     id="Document"
     font-size="16"
     transform="matrix(1,0,0,-1,-468.069,-219.32205)"
     style="font-size:16px;font-family:'Times New Roman';fill:none;stroke:#000000">
    <g
       id="Spread"
       transform="translate(0,-841.891)">
      <g
         id="Layer 1">
        <path
           d="m 473.319,622.569 5.25,-3 0,-4.5 -5.25,-3 -5.25,3 0,4.5 5.25,3 z"
           stroke-miterlimit="79.8403193612775"
           id="path14"
           inkscape:connector-curvature="0"
           style="fill:#2e3436;stroke:none;stroke-width:0.5;stroke-linejoin:round;stroke-miterlimit:79.84031677;marker-start:none;marker-end:none" />
        <path
           d="m 473.319,613.046 -4.5,2.572 0,3.629 4.5,2.572 4.5,-2.572 0,-3.629 -4.5,-2.572 z"
           stroke-miterlimit="79.8403193612775"
           id="path16"
           inkscape:connector-curvature="0"
           style="fill:#babdb6;stroke:none;stroke-width:0.5;stroke-linejoin:round;stroke-miterlimit:79.84031677;marker-start:none;marker-end:none" />
        <path
           d="m 473.319,616.569 5.25,3 0,-4.5 -5.25,-3 0,4.5 z"
           stroke-miterlimit="79.8403193612775"
           id="path18"
           inkscape:connector-curvature="0"
           style="fill:#2e3436;fill-opacity:0.49803904;stroke:none;stroke-width:0.5;stroke-linejoin:round;stroke-miterlimit:79.84031677;stroke-opacity:0.49803904;marker-start:none;marker-end:none" />
        <mask
           id="TranspMask">
          <rect
             x="-59.527702"
             y="-84.189102"
             width="714.33246"
             height="1010.2692"
             id="rect21"
             style="fill:url(#LinearGradient);stroke:none" />
        </mask>
        <path
           d="m 473.319,616.569 -4.501,2.571 0.001,0.107 4.5,2.572 4.5,-2.572 0,-0.107 -4.5,-2.571 z"
           stroke-miterlimit="79.8403193612775"
           mask="url(#TranspMask)"
           id="path23"
           inkscape:connector-curvature="0"
           style="fill:#ffffff;stroke:none;stroke-width:0.5;stroke-linejoin:miter;stroke-miterlimit:79.84031677;marker-start:none;marker-end:none" />
        <path
           d="m 476.319,619.195 c 0,-0.621 -0.505,-1.125 -1.126,-1.125 -0.622,0 -1.127,0.504 -1.127,1.125 l 0.003,1.124 2.25,0 0,-1.124 z"
           stroke-miterlimit="79.8403193612775"
           id="path25"
           inkscape:connector-curvature="0"
           style="fill:#555753;stroke:none;stroke-width:0.5;stroke-miterlimit:79.84031677;marker-start:none;marker-end:none" />
        <path
           d="m 472.572,619.194 c 0,-0.621 -0.505,-1.125 -1.126,-1.125 -0.622,0 -1.127,0.504 -1.127,1.125 l 0,1.125 2.25,0 0.003,-1.125 z"
           stroke-miterlimit="79.8403193612775"
           id="path27"
           inkscape:connector-curvature="0"
           style="fill:#555753;stroke:none;stroke-width:0.5;stroke-miterlimit:79.84031677;marker-start:none;marker-end:none" />
        <path
           d="m 475.196,621.443 c 0.621,0 1.126,-0.503 1.126,-1.124 0,-0.621 -0.505,-1.124 -1.126,-1.124 -0.621,0 -1.126,0.503 -1.126,1.124 0,0.621 0.505,1.124 1.126,1.124 z"
           stroke-miterlimit="79.8403193612775"
           id="path29"
           inkscape:connector-curvature="0"
           style="fill:#babdb6;stroke:none;stroke-width:0.5;stroke-miterlimit:79.84031677;marker-start:none;marker-end:none" />
        <path
           d="m 471.446,621.443 c 0.621,0 1.126,-0.503 1.126,-1.124 0,-0.621 -0.505,-1.124 -1.126,-1.124 -0.621,0 -1.126,0.503 -1.126,1.124 0,0.621 0.505,1.124 1.126,1.124 z"
           stroke-miterlimit="79.8403193612775"
           id="path31"
           inkscape:connector-curvature="0"
           style="fill:#babdb6;stroke:none;stroke-width:0.5;stroke-miterlimit:79.84031677;marker-start:none;marker-end:none" />
      </g>
    </g>
  </g>
</svg>
