<?xml version="1.0" encoding="UTF-8" standalone="no"?>
<!--Generator: Xara Designer (www.xara.com), SVG filter version: 6.0.0.4-->

<svg
   xmlns:dc="http://purl.org/dc/elements/1.1/"
   xmlns:cc="http://creativecommons.org/ns#"
   xmlns:rdf="http://www.w3.org/1999/02/22-rdf-syntax-ns#"
   xmlns:svg="http://www.w3.org/2000/svg"
   xmlns="http://www.w3.org/2000/svg"
   xmlns:sodipodi="http://sodipodi.sourceforge.net/DTD/sodipodi-0.dtd"
   xmlns:inkscape="http://www.inkscape.org/namespaces/inkscape"
   version="1.1"
   overflow="visible"
   width="12.001pt"
   height="11.998999pt"
   viewBox="0 0 12.001001 11.998999"
   id="svg2"
   inkscape:version="0.91 r13725"
   sodipodi:docname="ui-toolbar-star-bookmarks.svg"
   style="overflow:visible;fill-rule:evenodd;stroke-width:0.50099999;stroke-linejoin:bevel">
  <metadata
     id="metadata55">
    <rdf:RDF>
      <cc:Work
         rdf:about="">
        <dc:format>image/svg+xml</dc:format>
        <dc:type
           rdf:resource="http://purl.org/dc/dcmitype/StillImage" />
        <dc:title></dc:title>
      </cc:Work>
    </rdf:RDF>
  </metadata>
  <sodipodi:namedview
     pagecolor="#ffffff"
     bordercolor="#666666"
     borderopacity="1"
     objecttolerance="10"
     gridtolerance="10"
     guidetolerance="10"
     inkscape:pageopacity="0"
     inkscape:pageshadow="2"
     inkscape:window-width="640"
     inkscape:window-height="480"
     id="namedview53"
     showgrid="false"
     fit-margin-top="0"
     fit-margin-left="0"
     fit-margin-right="0"
     fit-margin-bottom="0"
     inkscape:zoom="3.588113"
     inkscape:cx="0.25024871"
     inkscape:cy="12.964059"
     inkscape:window-x="0"
     inkscape:window-y="0"
     inkscape:window-maximized="0"
     inkscape:current-layer="svg2" />
  <defs
     id="defs4">
    <linearGradient
       id="LinearGradient"
       gradientUnits="userSpaceOnUse"
       x1="0"
       y1="0"
       x2="0"
       y2="-7.5"
       gradientTransform="translate(475.569,621.069)">
      <stop
         offset="0"
         stop-color="#ffffff"
         id="stop7" />
      <stop
         offset="1"
         stop-color="#eeeeec"
         id="stop9" />
    </linearGradient>
    <linearGradient
       id="LinearGradient_1"
       gradientUnits="userSpaceOnUse"
       x1="0"
       y1="0"
       x2="2.25"
       y2="0"
       gradientTransform="translate(476.319,619.569)">
      <stop
         offset="0"
         stop-color="#ffffff"
         id="stop12" />
      <stop
         offset="1"
         stop-color="#000000"
         id="stop14" />
    </linearGradient>
    <linearGradient
       id="LinearGradient_2"
       gradientUnits="userSpaceOnUse"
       x1="0"
       y1="0"
       x2="0"
       y2="-1.5"
       gradientTransform="translate(476.319,617.319)">
      <stop
         offset="0"
         stop-color="#ffffff"
         id="stop17" />
      <stop
         offset="0.500999987125397"
         stop-color="#edd400"
         id="stop19" />
      <stop
         offset="1"
         stop-color="#ffffff"
         id="stop21" />
    </linearGradient>
  </defs>
  <g
     id="Document"
     font-size="16"
     transform="matrix(1,0,0,-1,-467.319,-218.57305)"
     style="font-size:16px;font-family:'Times New Roman';fill:none;stroke:#000000">
    <g
       id="Spread"
       transform="translate(0,-841.891)">
      <g
         id="opaque">
        <path
           d="m 479.32,623.318 0,-11.999 -12.001,0 0,11.999 12.001,0 z"
           stroke-miterlimit="79.8403193612775"
           id="path26"
           inkscape:connector-curvature="0"
           style="stroke:none;stroke-width:0.5;stroke-linejoin:miter;stroke-miterlimit:79.84031677;marker-start:none;marker-end:none" />
      </g>
      <g
         id="Layer 1">
        <mask
           id="TranspMask">
          <rect
             x="-59.527702"
             y="-84.189102"
             width="714.33246"
             height="1010.2692"
             id="rect30"
             style="fill:url(#LinearGradient_1);stroke:none" />
        </mask>
        <g
           id="Group"
           stroke-miterlimit="79.8403193612775"
           mask="url(#TranspMask)"
           style="stroke:none;stroke-width:0.5;stroke-linejoin:round;stroke-miterlimit:79.84031677">
          <path
             d="m 468.819,621.819 c -0.353,0 -0.75,-0.397 -0.75,-0.75 l 0,-7.5 c 0,-0.353 0.397,-0.75 0.75,-0.75 l 9.75,0 0,8.999 -9.75,10e-4 z"
             id="path33"
             inkscape:connector-curvature="0"
             style="fill:#888a85;marker-start:none;marker-end:none" />
          <path
             d="m 468.874,613.569 -0.055,0.055 0,7.389 0.055,0.055 9.695,0 0,-7.499 -9.695,0 z"
             id="path35"
             inkscape:connector-curvature="0"
             style="fill:url(#LinearGradient);marker-start:none;marker-end:none" />
        </g>
        <path
           d="m 469.568,614.319 1.5,0 0,0.75 -1.5,0 0,-0.75 z"
           stroke-miterlimit="79.8403193612775"
           id="path37"
           inkscape:connector-curvature="0"
           style="fill:#888a85;fill-opacity:0.70196096;stroke:none;stroke-width:0.5;stroke-miterlimit:79.84031677;stroke-opacity:0.70196096;marker-start:none;marker-end:none" />
        <path
           d="m 469.568,615.069 1.5,0 0,0.75 -1.5,0 0,-0.75 z"
           stroke-miterlimit="79.8403193612775"
           id="path39"
           inkscape:connector-curvature="0"
           style="fill:#c3c3c3;fill-opacity:0.49803904;stroke:none;stroke-width:0.5;stroke-miterlimit:79.84031677;stroke-opacity:0.49803904;marker-start:none;marker-end:none" />
        <path
           d="m 469.568,616.569 1.5,0 0,0.75 -1.5,0 0,-0.75 z"
           stroke-miterlimit="79.8403193612775"
           id="path41"
           inkscape:connector-curvature="0"
           style="fill:#888a85;fill-opacity:0.70196096;stroke:none;stroke-width:0.5;stroke-miterlimit:79.84031677;stroke-opacity:0.70196096;marker-start:none;marker-end:none" />
        <path
           d="m 469.568,617.319 1.5,0 0,0.75 -1.5,0 0,-0.75 z"
           stroke-miterlimit="79.8403193612775"
           id="path43"
           inkscape:connector-curvature="0"
           style="fill:#c3c3c3;fill-opacity:0.49803904;stroke:none;stroke-width:0.5;stroke-miterlimit:79.84031677;stroke-opacity:0.49803904;marker-start:none;marker-end:none" />
        <path
           d="m 469.568,618.819 1.5,0 0,0.75 -1.5,0 0,-0.75 z"
           stroke-miterlimit="79.8403193612775"
           id="path45"
           inkscape:connector-curvature="0"
           style="fill:#888a85;fill-opacity:0.70196096;stroke:none;stroke-width:0.5;stroke-miterlimit:79.84031677;stroke-opacity:0.70196096;marker-start:none;marker-end:none" />
        <path
           d="m 469.568,619.569 1.5,0 0,0.75 -1.5,0 0,-0.75 z"
           stroke-miterlimit="79.8403193612775"
           id="path47"
           inkscape:connector-curvature="0"
           style="fill:#c3c3c3;fill-opacity:0.49803904;stroke:none;stroke-width:0.5;stroke-miterlimit:79.84031677;stroke-opacity:0.49803904;marker-start:none;marker-end:none" />
        <path
           d="m 474.817,620.318 1,-2.4 2.001,0 -1.501,-1.2 1,-2.4 -2.5,1.2 -2.5,-1.2 1,2.4 -1.5,1.2 2.001,0 0.999,2.4 z"
           stroke-miterlimit="79.8403193612775"
           id="path49"
           inkscape:connector-curvature="0"
           style="fill:#c4a000;stroke:none;stroke-width:0.75;stroke-linejoin:round;stroke-miterlimit:79.84031677;marker-start:none;marker-end:none" />
        <path
           d="m 473.765,615.845 0.244,0.584 c 0.096,0.231 0.068,0.489 -0.061,0.692 l -0.053,0.058 0.142,0.021 c 0.21,0.065 0.386,0.219 0.473,0.429 l 0.306,0.737 0.308,-0.737 c 0.087,-0.21 0.263,-0.364 0.473,-0.429 l 0.14,-0.021 -0.053,-0.058 c -0.129,-0.203 -0.156,-0.461 -0.06,-0.692 l 0.243,-0.584 -0.726,0.349 c -0.205,0.098 -0.444,0.098 -0.649,0 l -0.727,-0.349 z"
           stroke-miterlimit="79.8403193612775"
           id="path51"
           inkscape:connector-curvature="0"
           style="fill:url(#LinearGradient_2);stroke:none;stroke-width:0.75;stroke-linejoin:round;stroke-miterlimit:79.84031677;marker-start:none;marker-end:none" />
      </g>
    </g>
  </g>
</svg>
