<?xml version="1.0" encoding="UTF-8" standalone="no"?>
<!--Generator: Xara Designer (www.xara.com), SVG filter version: 6.0.0.4-->

<svg
   xmlns:dc="http://purl.org/dc/elements/1.1/"
   xmlns:cc="http://creativecommons.org/ns#"
   xmlns:rdf="http://www.w3.org/1999/02/22-rdf-syntax-ns#"
   xmlns:svg="http://www.w3.org/2000/svg"
   xmlns="http://www.w3.org/2000/svg"
   xmlns:sodipodi="http://sodipodi.sourceforge.net/DTD/sodipodi-0.dtd"
   xmlns:inkscape="http://www.inkscape.org/namespaces/inkscape"
   version="1.1"
   overflow="visible"
   width="11.999pt"
   height="12.001999pt"
   viewBox="0 0 11.999 12.001999"
   id="svg2"
   inkscape:version="0.91 r13725"
   sodipodi:docname="warning-exclamation-yellow-triangle.svg"
   style="overflow:visible;fill-rule:evenodd;stroke-width:0.50099999;stroke-linejoin:bevel">
  <metadata
     id="metadata65">
    <rdf:RDF>
      <cc:Work
         rdf:about="">
        <dc:format>image/svg+xml</dc:format>
        <dc:type
           rdf:resource="http://purl.org/dc/dcmitype/StillImage" />
        <dc:title></dc:title>
      </cc:Work>
    </rdf:RDF>
  </metadata>
  <sodipodi:namedview
     pagecolor="#ffffff"
     bordercolor="#666666"
     borderopacity="1"
     objecttolerance="10"
     gridtolerance="10"
     guidetolerance="10"
     inkscape:pageopacity="0"
     inkscape:pageshadow="2"
     inkscape:window-width="640"
     inkscape:window-height="480"
     id="namedview63"
     showgrid="false"
     fit-margin-top="0"
     fit-margin-left="0"
     fit-margin-right="0"
     fit-margin-bottom="0"
     inkscape:zoom="3.588113"
     inkscape:cx="1.6355347"
     inkscape:cy="-3.2134366"
     inkscape:window-x="0"
     inkscape:window-y="0"
     inkscape:window-maximized="0"
     inkscape:current-layer="svg2" />
  <defs
     id="defs4">
    <linearGradient
       id="LinearGradient"
       gradientUnits="userSpaceOnUse"
       x1="0"
       y1="0"
       x2="0"
       y2="-12"
       gradientTransform="translate(479.318,623.32)">
      <stop
         offset="0"
         stop-color="#ffffff"
         id="stop7" />
      <stop
         offset="0.500999987125397"
         stop-color="#edd400"
         id="stop9" />
      <stop
         offset="1"
         stop-color="#ffffff"
         id="stop11" />
    </linearGradient>
    <linearGradient
       id="LinearGradient_1"
       gradientUnits="userSpaceOnUse"
       x1="0"
       y1="0"
       x2="0"
       y2="3.75"
       gradientTransform="translate(479.318,617.32)">
      <stop
         offset="0"
         stop-color="#333333"
         id="stop14" />
      <stop
         offset="1"
         stop-color="#ffffff"
         id="stop16" />
    </linearGradient>
    <linearGradient
       id="LinearGradient_2"
       gradientUnits="userSpaceOnUse"
       x1="0"
       y1="0"
       x2="0"
       y2="-12"
       gradientTransform="translate(479.318,623.319)">
      <stop
         offset="0"
         stop-color="#ffffff"
         id="stop19" />
      <stop
         offset="0.500999987125397"
         stop-color="#edd400"
         id="stop21" />
      <stop
         offset="1"
         stop-color="#ffffff"
         id="stop23" />
    </linearGradient>
    <linearGradient
       id="LinearGradient_3"
       gradientUnits="userSpaceOnUse"
       x1="0"
       y1="0"
       x2="0"
       y2="3.75"
       gradientTransform="translate(479.318,617.319)">
      <stop
         offset="0"
         stop-color="#333333"
         id="stop26" />
      <stop
         offset="1"
         stop-color="#ffffff"
         id="stop28" />
    </linearGradient>
  </defs>
  <g
     id="Document"
     font-size="16"
     transform="matrix(1,0,0,-1,-467.319,-218.57005)"
     style="font-size:16px;font-family:'Times New Roman';fill:none;stroke:#000000">
    <g
       id="Spread"
       transform="translate(0,-841.891)">
      <g
         id="Layer 1">
        <path
           d="m 467.319,623.321 11.999,0 0,-12.001 -11.999,0 0,12.001 z"
           stroke-miterlimit="79.8403193612775"
           id="path33"
           inkscape:connector-curvature="0"
           style="stroke:none;stroke-width:0.5;stroke-linejoin:miter;stroke-miterlimit:79.84031677;marker-start:none;marker-end:none" />
        <path
           d="m 471.818,621.07 -3.75,-6.75 c -0.437,-0.787 -0.75,-2.25 1.5,-2.25 l 7.5,0 c 2.25,0 1.937,1.463 1.5,2.25 l -3.75,6.75 c -0.75,1.5 -2.25,1.5 -3,0 z"
           stroke-miterlimit="79.8403193612775"
           id="path35"
           inkscape:connector-curvature="0"
           style="fill:#b49302;stroke:none;stroke-width:0.5;stroke-linejoin:round;stroke-miterlimit:79.84031677;marker-start:none;marker-end:none" />
        <path
           d="m 469.568,612.82 c -0.99,0 -1.042,0.304 -1.044,0.308 -0.05,0.158 0.008,0.482 0.199,0.827 l 3.758,6.765 c 0.476,0.952 1.193,0.96 1.673,0 l 3.758,-6.765 c 0.191,-0.345 0.249,-0.669 0.199,-0.827 -0.002,-0.004 -0.054,-0.308 -1.043,-0.308 l -7.5,0 z"
           stroke-miterlimit="79.8403193612775"
           id="path37"
           inkscape:connector-curvature="0"
           style="fill:url(#LinearGradient);stroke:none;stroke-width:0.75;stroke-linejoin:round;stroke-miterlimit:79.84031677;marker-start:none;marker-end:none" />
        <mask
           id="TranspMask">
          <rect
             x="-59.527702"
             y="-84.189102"
             width="714.33246"
             height="1010.2692"
             id="rect40"
             style="fill:url(#LinearGradient_1);stroke:none" />
        </mask>
        <path
           d="m 470.592,617.32 1.889,3.4 c 0.476,0.952 1.193,0.96 1.673,0 l 1.888,-3.4 -5.45,0 z"
           stroke-miterlimit="79.8403193612775"
           mask="url(#TranspMask)"
           id="path42"
           inkscape:connector-curvature="0"
           style="fill:#ffffff;stroke:none;stroke-width:0.5;stroke-linejoin:miter;stroke-miterlimit:79.84031677;marker-start:none;marker-end:none" />
        <path
           d="m 473.317,613.57 c -0.415,0 -0.751,0.336 -0.751,0.75 0,0.413 0.336,0.75 0.751,0.75 0.414,0 0.751,-0.337 0.751,-0.75 0,-0.414 -0.337,-0.75 -0.751,-0.75 z"
           stroke-miterlimit="79.8403193612775"
           id="path44"
           inkscape:connector-curvature="0"
           style="fill:#000000;stroke:none;stroke-width:0.5;stroke-linejoin:round;stroke-miterlimit:79.84031677;marker-start:none;marker-end:none" />
        <path
           d="m 473.318,615.82 -0.75,3 c -0.085,0.342 0.397,0.75 0.75,0.75 0.353,0 0.835,-0.408 0.75,-0.75 l -0.75,-3 z"
           stroke-miterlimit="79.8403193612775"
           id="path46"
           inkscape:connector-curvature="0"
           style="fill:#000000;stroke:none;stroke-width:0.5;stroke-miterlimit:79.84031677;marker-start:none;marker-end:none" />
        <path
           d="m 467.319,623.32 11.999,0 0,-12.001 -11.999,0 0,12.001 z"
           stroke-miterlimit="79.8403193612775"
           id="path48"
           inkscape:connector-curvature="0"
           style="stroke:none;stroke-width:0.5;stroke-linejoin:miter;stroke-miterlimit:79.84031677;marker-start:none;marker-end:none" />
        <path
           d="m 471.818,621.069 -3.75,-6.75 c -0.437,-0.787 -0.75,-2.25 1.5,-2.25 l 7.5,0 c 2.25,0 1.937,1.463 1.5,2.25 l -3.75,6.75 c -0.75,1.5 -2.25,1.5 -3,0 z"
           stroke-miterlimit="79.8403193612775"
           id="path50"
           inkscape:connector-curvature="0"
           style="fill:#b49302;stroke:none;stroke-width:0.5;stroke-linejoin:round;stroke-miterlimit:79.84031677;marker-start:none;marker-end:none" />
        <path
           d="m 469.568,612.819 c -0.99,0 -1.042,0.304 -1.044,0.308 -0.05,0.158 0.008,0.482 0.199,0.827 l 3.758,6.765 c 0.476,0.952 1.193,0.96 1.673,0 l 3.758,-6.765 c 0.191,-0.345 0.249,-0.669 0.199,-0.827 -0.002,-0.004 -0.054,-0.308 -1.043,-0.308 l -7.5,0 z"
           stroke-miterlimit="79.8403193612775"
           id="path52"
           inkscape:connector-curvature="0"
           style="fill:url(#LinearGradient_2);stroke:none;stroke-width:0.75;stroke-linejoin:round;stroke-miterlimit:79.84031677;marker-start:none;marker-end:none" />
        <mask
           id="TranspMask_1">
          <rect
             x="-59.527702"
             y="-84.189102"
             width="714.33246"
             height="1010.2692"
             id="rect55"
             style="fill:url(#LinearGradient_3);stroke:none" />
        </mask>
        <path
           d="m 470.592,617.319 1.889,3.4 c 0.476,0.952 1.193,0.96 1.673,0 l 1.888,-3.4 -5.45,0 z"
           stroke-miterlimit="79.8403193612775"
           mask="url(#TranspMask_1)"
           id="path57"
           inkscape:connector-curvature="0"
           style="fill:#ffffff;stroke:none;stroke-width:0.5;stroke-linejoin:miter;stroke-miterlimit:79.84031677;marker-start:none;marker-end:none" />
        <path
           d="m 473.317,613.569 c -0.415,0 -0.751,0.336 -0.751,0.75 0,0.413 0.336,0.75 0.751,0.75 0.414,0 0.751,-0.337 0.751,-0.75 0,-0.414 -0.337,-0.75 -0.751,-0.75 z"
           stroke-miterlimit="79.8403193612775"
           id="path59"
           inkscape:connector-curvature="0"
           style="fill:#000000;stroke:none;stroke-width:0.5;stroke-linejoin:round;stroke-miterlimit:79.84031677;marker-start:none;marker-end:none" />
        <path
           d="m 473.318,615.819 -0.75,3 c -0.085,0.342 0.397,0.75 0.75,0.75 0.353,0 0.835,-0.408 0.75,-0.75 l -0.75,-3 z"
           stroke-miterlimit="79.8403193612775"
           id="path61"
           inkscape:connector-curvature="0"
           style="fill:#000000;stroke:none;stroke-width:0.5;stroke-miterlimit:79.84031677;marker-start:none;marker-end:none" />
      </g>
    </g>
  </g>
</svg>
